<?xml version="1.0" encoding="UTF-8" standalone="no"?>
<!-- Created with Inkscape (http://www.inkscape.org/) -->

<svg
   xmlns:dc="http://purl.org/dc/elements/1.1/"
   xmlns:cc="http://creativecommons.org/ns#"
   xmlns:rdf="http://www.w3.org/1999/02/22-rdf-syntax-ns#"
   xmlns:svg="http://www.w3.org/2000/svg"
   xmlns="http://www.w3.org/2000/svg"
   xmlns:xlink="http://www.w3.org/1999/xlink"
   xmlns:sodipodi="http://sodipodi.sourceforge.net/DTD/sodipodi-0.dtd"
   xmlns:inkscape="http://www.inkscape.org/namespaces/inkscape"
   version="1.0"
   width="96"
   height="96"
   id="svg2408"
   inkscape:version="0.48.2 r9819"
   sodipodi:docname="asmaa.svg"
   inkscape:export-filename="C:\Documents and Settings\yas\Bureau\faenza-iap\asmaa.png"
   inkscape:export-xdpi="127"
   inkscape:export-ydpi="127">
  <sodipodi:namedview
     pagecolor="#ffffff"
     bordercolor="#666666"
     borderopacity="1"
     objecttolerance="10"
     gridtolerance="10"
     guidetolerance="10"
     inkscape:pageopacity="0"
     inkscape:pageshadow="2"
     inkscape:window-width="684"
     inkscape:window-height="453"
     id="namedview116"
     showgrid="false"
     inkscape:zoom="0.70710678"
     inkscape:cx="-26.671096"
     inkscape:cy="51.483198"
     inkscape:window-x="110"
     inkscape:window-y="135"
     inkscape:window-maximized="0"
     inkscape:current-layer="svg2408" />
  <defs
     id="defs2410">
    <linearGradient
       id="linearGradient3192">
      <stop
         offset="0"
         style="stop-color:#222b00;stop-opacity:1"
         id="stop3194" />
      <stop
         offset="1"
         style="stop-color:#72401f;stop-opacity:0"
         id="stop3196" />
    </linearGradient>
    <linearGradient
       gradientTransform="matrix(1.0172414,0,0,1.0172414,-1.1034483,-1.1034483)"
       gradientUnits="userSpaceOnUse"
       id="linearGradient3179"
       y2="5.4252338"
       x2="58.650177"
       y1="122"
       x1="58.650177">
      <stop
         offset="0"
         style="stop-color:#677821;stop-opacity:1"
         id="stop3181" />
      <stop
         offset="1"
         style="stop-color:#71c837;stop-opacity:1"
         id="stop3183" />
    </linearGradient>
    <linearGradient
       x1="45.447727"
       y1="92.539597"
       x2="45.447727"
       y2="7.0165396"
       id="ButtonShadow"
       gradientUnits="userSpaceOnUse"
       gradientTransform="scale(1.0058652,0.994169)">
      <stop
         id="stop3750"
         style="stop-color:#000000;stop-opacity:1"
         offset="0" />
      <stop
         id="stop3752"
         style="stop-color:#000000;stop-opacity:0.58823532"
         offset="1" />
    </linearGradient>
    <linearGradient
       id="linearGradient3737">
      <stop
         id="stop3739"
         style="stop-color:#ffffff;stop-opacity:1"
         offset="0" />
      <stop
         id="stop3741"
         style="stop-color:#ffffff;stop-opacity:0"
         offset="1" />
    </linearGradient>
    <filter
       color-interpolation-filters="sRGB"
       id="filter3174">
      <feGaussianBlur
         id="feGaussianBlur3176"
         stdDeviation="1.71" />
    </filter>
    <filter
       x="-0.192"
       y="-0.192"
       width="1.3839999"
       height="1.3839999"
       color-interpolation-filters="sRGB"
       id="filter3794">
      <feGaussianBlur
         id="feGaussianBlur3796"
         stdDeviation="5.28" />
    </filter>
    <linearGradient
       x1="48"
       y1="20.220806"
       x2="48"
       y2="138.66119"
       id="linearGradient3613"
       xlink:href="#linearGradient3737"
       gradientUnits="userSpaceOnUse" />
    <clipPath
       id="clipPath3613">
      <rect
         width="84"
         height="84"
         rx="6"
         ry="6"
         x="6"
         y="6"
         id="rect3615"
         style="fill:#ffffff;fill-opacity:1;fill-rule:nonzero;stroke:none" />
    </clipPath>
    <linearGradient
       id="linearGradient3238">
      <stop
         id="stop3240"
         style="stop-color:#784421;stop-opacity:1"
         offset="0" />
      <stop
         id="stop3242"
         style="stop-color:#784421;stop-opacity:0"
         offset="1" />
    </linearGradient>
    <linearGradient
       id="linearGradient3250">
      <stop
         id="stop3252"
         style="stop-color:#c4875e;stop-opacity:1"
         offset="0" />
      <stop
         id="stop3254"
         style="stop-color:#c4875e;stop-opacity:0"
         offset="1" />
    </linearGradient>
    <linearGradient
       x1="45.447727"
       y1="92.539597"
       x2="45.447727"
       y2="7.0165396"
       id="ButtonShadow-0"
       gradientUnits="userSpaceOnUse"
       gradientTransform="matrix(1.0058652,0,0,0.994169,100,0)">
      <stop
         id="stop3750-8"
         style="stop-color:#000000;stop-opacity:1"
         offset="0" />
      <stop
         id="stop3752-5"
         style="stop-color:#000000;stop-opacity:0.58823532"
         offset="1" />
    </linearGradient>
    <linearGradient
       x1="32.251034"
       y1="6.1317081"
       x2="32.251034"
       y2="90.238609"
       id="linearGradient3780"
       xlink:href="#ButtonShadow-0"
       gradientUnits="userSpaceOnUse"
       gradientTransform="matrix(1.0238095,0,0,1.0119048,-1.1428571,-98.071429)" />
    <linearGradient
       x1="32.251034"
       y1="6.1317081"
       x2="32.251034"
       y2="90.238609"
       id="linearGradient3772"
       xlink:href="#ButtonShadow-0"
       gradientUnits="userSpaceOnUse"
       gradientTransform="matrix(1.0238095,0,0,1.0119048,-1.1428571,-98.071429)" />
    <linearGradient
       x1="32.251034"
       y1="6.1317081"
       x2="32.251034"
       y2="90.238609"
       id="linearGradient3725"
       xlink:href="#ButtonShadow-0"
       gradientUnits="userSpaceOnUse"
       gradientTransform="matrix(1.0238095,0,0,1.0119048,-1.1428571,-98.071429)" />
    <linearGradient
       x1="32.251034"
       y1="6.1317081"
       x2="32.251034"
       y2="90.238609"
       id="linearGradient3721"
       xlink:href="#ButtonShadow-0"
       gradientUnits="userSpaceOnUse"
       gradientTransform="translate(0,-97)" />
    <linearGradient
       x1="32.251034"
       y1="6.1317081"
       x2="32.251034"
       y2="90.238609"
       id="linearGradient2969"
       xlink:href="#ButtonShadow-0"
       gradientUnits="userSpaceOnUse"
       gradientTransform="matrix(1.0238095,0,0,1.0119048,-1.1428571,-98.071429)" />
    <linearGradient
       id="linearGradient4075">
      <stop
         id="stop4077"
         style="stop-color:#ffffff;stop-opacity:1"
         offset="0" />
      <stop
         id="stop4079"
         style="stop-color:#ffffff;stop-opacity:0"
         offset="1" />
    </linearGradient>
    <linearGradient
       id="linearGradient3890">
      <stop
         id="stop3892"
         style="stop-color:#ffffff;stop-opacity:1"
         offset="0" />
      <stop
         id="stop3898"
         style="stop-color:#eceadb;stop-opacity:1"
         offset="0.5" />
      <stop
         id="stop3894"
         style="stop-color:#d8d3a6;stop-opacity:1"
         offset="1" />
    </linearGradient>
    <linearGradient
       x1="6"
       y1="67"
       x2="24"
       y2="67"
       id="linearGradient3979"
       xlink:href="#linearGradient3250"
       gradientUnits="userSpaceOnUse"
       gradientTransform="translate(0,-1)" />
    <linearGradient
       x1="6"
       y1="67"
       x2="24"
       y2="67"
       id="linearGradient3982"
       xlink:href="#linearGradient3250"
       gradientUnits="userSpaceOnUse"
       gradientTransform="translate(0,-2)" />
    <linearGradient
       x1="6"
       y1="67"
       x2="24"
       y2="67"
       id="linearGradient3984"
       xlink:href="#linearGradient3238"
       gradientUnits="userSpaceOnUse"
       gradientTransform="translate(0,1)" />
    <linearGradient
       x1="6"
       y1="67"
       x2="24"
       y2="67"
       id="linearGradient3986"
       xlink:href="#linearGradient3238"
       gradientUnits="userSpaceOnUse" />
    <linearGradient
       x1="6"
       y1="67"
       x2="24"
       y2="67"
       id="linearGradient4000"
       xlink:href="#linearGradient3250"
       gradientUnits="userSpaceOnUse"
       gradientTransform="translate(0,-1)" />
    <linearGradient
       x1="6"
       y1="67"
       x2="24"
       y2="67"
       id="linearGradient4002"
       xlink:href="#linearGradient3250"
       gradientUnits="userSpaceOnUse"
       gradientTransform="translate(0,-2)" />
    <linearGradient
       x1="6"
       y1="67"
       x2="24"
       y2="67"
       id="linearGradient4004"
       xlink:href="#linearGradient3238"
       gradientUnits="userSpaceOnUse"
       gradientTransform="translate(0,1)" />
    <linearGradient
       x1="6"
       y1="67"
       x2="24"
       y2="67"
       id="linearGradient4006"
       xlink:href="#linearGradient3238"
       gradientUnits="userSpaceOnUse" />
    <linearGradient
       x1="6"
       y1="67"
       x2="24"
       y2="67"
       id="linearGradient4020"
       xlink:href="#linearGradient3250"
       gradientUnits="userSpaceOnUse"
       gradientTransform="translate(0,-1)" />
    <linearGradient
       x1="6"
       y1="67"
       x2="24"
       y2="67"
       id="linearGradient4022"
       xlink:href="#linearGradient3250"
       gradientUnits="userSpaceOnUse"
       gradientTransform="translate(0,-2)" />
    <linearGradient
       x1="6"
       y1="67"
       x2="24"
       y2="67"
       id="linearGradient4024"
       xlink:href="#linearGradient3238"
       gradientUnits="userSpaceOnUse"
       gradientTransform="translate(0,1)" />
    <linearGradient
       x1="6"
       y1="67"
       x2="24"
       y2="67"
       id="linearGradient4026"
       xlink:href="#linearGradient3238"
       gradientUnits="userSpaceOnUse" />
    <linearGradient
       inkscape:collect="always"
       xlink:href="#linearGradient4075"
       id="linearGradient3099"
       gradientUnits="userSpaceOnUse"
       x1="32"
       y1="80"
       x2="16"
       y2="80" />
    <linearGradient
       inkscape:collect="always"
       xlink:href="#linearGradient3890"
       id="linearGradient3103"
       gradientUnits="userSpaceOnUse"
       x1="40"
       y1="88"
       x2="40"
       y2="80" />
    <linearGradient
       inkscape:collect="always"
       xlink:href="#linearGradient3737"
       id="linearGradient3114"
       gradientUnits="userSpaceOnUse"
       x1="36.357143"
       y1="6"
       x2="36.357143"
       y2="63.893143"
       gradientTransform="translate(-0.17677655,-0.35845506)" />
    <linearGradient
       inkscape:collect="always"
       xlink:href="#linearGradient3192"
       id="linearGradient3117"
       gradientUnits="userSpaceOnUse"
       gradientTransform="translate(1,-15.752884)"
       x1="5"
       y1="64"
       x2="11.227473"
       y2="64" />
    <linearGradient
       inkscape:collect="always"
       xlink:href="#linearGradient3179"
       id="linearGradient3143"
       gradientUnits="userSpaceOnUse"
       x1="50.440678"
       y1="86.338982"
       x2="48.813557"
       y2="-0.52075738" />
    <linearGradient
       inkscape:collect="always"
       id="linearGradient4040-7">
      <stop
         style="stop-color:#743800;stop-opacity:1"
         offset="0"
         id="stop4042-4" />
      <stop
         style="stop-color:#f1ce49;stop-opacity:1"
         offset="1"
         id="stop4044-0" />
    </linearGradient>
    <linearGradient
       inkscape:collect="always"
       xlink:href="#linearGradient4040-7"
       id="linearGradient3214"
       gradientUnits="userSpaceOnUse"
       gradientTransform="matrix(0.52214385,0,0,0.52214385,114.52788,-11.718205)"
       x1="-112.05713"
       y1="147.71797"
       x2="-114.20171"
       y2="78.590729" />
    <linearGradient
       id="linearGradient3697">
      <stop
         offset="0"
         style="stop-color:#ffffff;stop-opacity:1"
         id="stop3699" />
      <stop
         offset="1"
         style="stop-color:#ffffff;stop-opacity:0"
         id="stop3701" />
    </linearGradient>
    <linearGradient
       y2="64"
       x2="16"
       y1="16"
       x1="96"
       gradientTransform="translate(-6e-8,-0.1875011)"
       gradientUnits="userSpaceOnUse"
       id="linearGradient3348"
       xlink:href="#linearGradient3697"
       inkscape:collect="always" />
    <linearGradient
       id="linearGradient3737-4">
      <stop
         offset="0"
         style="stop-color:#ffffff;stop-opacity:1"
         id="stop3739-8" />
      <stop
         offset="1"
         style="stop-color:#ffffff;stop-opacity:0"
         id="stop3741-8" />
    </linearGradient>
    <clipPath
       id="clipPath3613-1">
      <rect
         style="fill:#ffffff;fill-opacity:1;fill-rule:nonzero;stroke:none"
         id="rect3615-5"
         y="6"
         x="6"
         ry="6"
         rx="6"
         height="84"
         width="84" />
    </clipPath>
    <filter
       id="filter3794-5"
       color-interpolation-filters="sRGB"
       height="1.3839999"
       width="1.3839999"
       y="-0.192"
       x="-0.192">
      <feGaussianBlur
         stdDeviation="5.28"
         id="feGaussianBlur3796-1" />
    </filter>
    <linearGradient
       y2="138.66119"
       x2="48"
       y1="20.220806"
       x1="48"
       gradientUnits="userSpaceOnUse"
       id="linearGradient3387"
       xlink:href="#linearGradient3737-4"
       inkscape:collect="always" />
  </defs>
  <metadata
     id="metadata2413">
    <rdf:RDF>
      <cc:Work
         rdf:about="">
        <dc:format>image/svg+xml</dc:format>
        <dc:type
           rdf:resource="http://purl.org/dc/dcmitype/StillImage" />
        <dc:title></dc:title>
      </cc:Work>
    </rdf:RDF>
  </metadata>
  <g
     id="layer2"
     style="display:none">
    <rect
       width="86"
       height="85"
       rx="6"
       ry="6"
       x="5"
       y="7"
       id="rect3745"
       style="opacity:0.9;fill:url(#ButtonShadow);fill-opacity:1;fill-rule:nonzero;stroke:none;filter:url(#filter3174)" />
  </g>
  <g
     id="layer3"
     style="display:inline">
    <path
       d="m 12,-95.03125 c -5.5110903,0 -10.03125,4.52016 -10.03125,10.03125 l 0,71 c 0,5.5110902 4.5201598,10.03125 10.03125,10.03125 l 72,0 c 5.51109,0 10.03125,-4.5201597 10.03125,-10.03125 l 0,-71 c 0,-5.51109 -4.52016,-10.03125 -10.03125,-10.03125 l -72,0 z"
       transform="scale(1,-1)"
       id="path3786"
       style="opacity:0.07999998;fill:url(#linearGradient2969);fill-opacity:1;fill-rule:nonzero;stroke:none;display:inline" />
    <path
       d="m 12,-94.03125 c -4.971633,0 -9.03125,4.059617 -9.03125,9.03125 l 0,71 c 0,4.9716329 4.0596171,9.03125 9.03125,9.03125 l 72,0 c 4.971633,0 9.03125,-4.059617 9.03125,-9.03125 l 0,-71 c 0,-4.971633 -4.059617,-9.03125 -9.03125,-9.03125 l -72,0 z"
       transform="scale(1,-1)"
       id="path3778"
       style="opacity:0.1;fill:url(#linearGradient3780);fill-opacity:1;fill-rule:nonzero;stroke:none;display:inline" />
    <path
       d="m 12,-93 c -4.4091333,0 -8,3.590867 -8,8 l 0,71 c 0,4.4091333 3.5908667,8 8,8 l 72,0 c 4.409133,0 8,-3.5908667 8,-8 l 0,-71 c 0,-4.409133 -3.590867,-8 -8,-8 l -72,0 z"
       transform="scale(1,-1)"
       id="path3770"
       style="opacity:0.2;fill:url(#linearGradient3772);fill-opacity:1;fill-rule:nonzero;stroke:none;display:inline" />
    <rect
       width="86"
       height="85"
       rx="7"
       ry="7"
       x="5"
       y="-92"
       transform="scale(1,-1)"
       id="rect3723"
       style="opacity:0.3;fill:url(#linearGradient3725);fill-opacity:1;fill-rule:nonzero;stroke:none;display:inline" />
    <rect
       width="84"
       height="84"
       rx="6"
       ry="6"
       x="6"
       y="-91"
       transform="scale(1,-1)"
       id="rect3716"
       style="opacity:0.45;fill:url(#linearGradient3721);fill-opacity:1;fill-rule:nonzero;stroke:none;display:inline" />
  </g>
  <rect
     style="fill:url(#linearGradient3143);fill-opacity:1;fill-rule:nonzero;stroke:none"
     id="rect2419"
     y="6"
     x="15.87842"
     ry="6"
     rx="6"
     height="84"
     width="74.121559" />
  <path
     style="opacity:0.55870445;fill:#8f5910;fill-opacity:1;fill-rule:evenodd;stroke:#f1ee4f;stroke-opacity:1;display:inline"
     id="path3189"
     inkscape:connector-curvature="0"
     d="m 26.25,9.25 0,0.498361 0,5.201639 0,0.498361 0.49948,0 4.55776,0 0,4.142623 -1.49844,0 0,-2.118033 0,-0.498361 -0.49948,0 -2.55984,0 -0.49948,0 0,0.498361 0,2.616393 0,0.498361 0.49948,0 2.06036,0 0,43.32459 -2.06036,0 -0.49948,0 0,0.498361 0,2.647541 0,0.49836 0.49948,0 2.55984,0 0.49948,0 0,-0.49836 0,-2.149181 1.49844,0 0,4.142623 -4.55776,0 -0.49948,0 0,0.498361 0,5.201639 0,0.498361 0.49948,0 5.05724,0 0.49948,0 0,-0.498361 0,-4.703278 4.24557,0 0,1.650819 -2.154,0 -0.49948,0 0,0.498361 0,2.554098 0,0.498361 0.49948,0 2.65348,0 0.49948,0 0,-0.498361 0,-2.055737 35.39855,0 0,2.055737 0,0.498361 0.49948,0 2.6847,0 0.49948,0 0,-0.498361 0,-2.554098 0,-0.498361 -0.49948,0 -2.18522,0 0,-1.650819 4.24557,0 0,4.703278 0,0.498361 0.49948,0 5.05723,0 0.49948,0 0,-0.498361 0,-5.201639 0,-0.498361 -0.49948,0 -4.55775,0 0,-4.142623 1.52966,0 0,2.149181 0,0.49836 0.49948,0 2.52861,0 0.49948,0 0,-0.49836 0,-2.647541 0,-0.498361 -0.49948,0 -2.02913,0 0,-43.32459 2.02913,0 0.49948,0 0,-0.498361 0,-2.616393 0,-0.498361 -0.49948,0 -2.52861,0 -0.49948,0 0,0.498361 0,2.118033 -1.52966,0 0,-4.142623 4.55775,0 0.49948,0 0,-0.498361 0,-5.201639 0,-0.498361 -0.49948,0 -5.05723,0 -0.49948,0 0,0.498361 0,4.703278 -4.24557,0 0,-1.650819 2.18522,0 0.49948,0 0,-0.467213 0,-2.585246 0,-0.498361 -0.49948,0 -2.6847,0 -0.49948,0 0,0.498361 0,2.086885 -35.39855,0 0,-2.086885 0,-0.498361 -0.49948,0 -2.65348,0 -0.49948,0 0,0.498361 0,2.585246 0,0.467213 0.49948,0 2.154,0 0,1.650819 -4.24557,0 0,-4.703278 0,-0.498361 -0.49948,0 -5.05724,0 z m 0.99896,0.996721 4.05828,0 0,4.204918 -4.05828,0 z m 7.64829,0 1.65452,0 0,1.588525 -1.65452,0 z m 39.05099,0 1.68574,0 0,1.588525 -1.68574,0 z m 5.24453,0 4.05828,0 0,4.204918 -4.05828,0 z m -41.64204,2.554099 35.39855,0 0,1.650819 -2.09158,0 -0.49947,0 0,0.498361 0,2.585246 0,0.467213 0.49947,0 2.59106,0 0.49948,0 0,-0.467213 0,-2.086885 4.24557,0 0,4.142623 -2.154,0 -0.49948,0 0,0.49836 0,2.585246 0,0.467213 0.49948,0 2.65348,0 0.49948,0 0,-0.467213 0,-2.086885 1.52966,0 0,43.32459 -1.52966,0 0,-2.055738 0,-0.49836 -0.49948,0 -2.65348,0 -0.49948,0 0,0.49836 0,2.554099 0,0.49836 0.49948,0 2.154,0 0,4.142623 -4.24557,0 0,-2.055737 0,-0.498361 -0.49948,0 -2.59106,0 -0.49947,0 0,0.498361 0,2.554098 0,0.498361 0.49947,0 2.09158,0 0,1.650819 -35.39855,0 0,-1.650819 2.12279,0 0.49948,0 0,-0.498361 0,-2.554098 0,-0.498361 -0.49948,0 -2.62227,0 -0.49948,0 0,0.498361 0,2.055737 -4.24557,0 0,-4.142623 2.18522,0 0.49948,0 0,-0.49836 0,-2.554099 0,-0.49836 -0.49948,0 -2.6847,0 -0.49948,0 0,0.49836 0,2.055738 -1.49844,0 0,-43.32459 1.49844,0 0,2.086885 0,0.467213 0.49948,0 2.6847,0 0.49948,0 0,-0.467213 0,-2.585246 0,-0.49836 -0.49948,0 -2.18522,0 0,-4.142623 4.24557,0 0,2.086885 0,0.467213 0.49948,0 2.62227,0 0.49948,0 0,-0.467213 0,-2.585246 0,-0.498361 -0.49948,0 -2.12279,0 z m 0,2.647541 1.62331,0 0,1.588524 -1.62331,0 z m 33.80645,0 1.5921,0 0,1.588524 -1.5921,0 z m -44.10822,2.491803 1.56088,0 0,1.65082 -1.56088,0 z m 54.47243,0 1.52966,0 0,1.65082 -1.52966,0 z m -49.41519,2.647541 1.68574,0 0,1.588525 -1.68574,0 z m 44.23309,0 1.65452,0 0,1.588525 -1.65452,0 z m -44.23309,41.767213 1.68574,0 0,1.557377 -1.68574,0 z m 44.23309,0 1.65452,0 0,1.557377 -1.65452,0 z m -49.29033,2.554098 1.56088,0 0,1.65082 -1.56088,0 z m 54.47243,0 1.52966,0 0,1.65082 -1.52966,0 z m -44.17066,2.585246 1.62331,0 0,1.557377 -1.62331,0 z m 33.80645,0 1.5921,0 0,1.557377 -1.5921,0 z m -44.10822,2.554099 4.05828,0 0,4.204918 -4.05828,0 z m 51.94381,0 4.05828,0 0,4.204918 -4.05828,0 z m -44.29552,2.647541 1.65452,0 0,1.557377 -1.65452,0 z m 39.05099,0 1.68574,0 0,1.557377 -1.68574,0 z" />
  <path
     style="fill:#905a11;fill-opacity:1;fill-rule:nonzero;stroke:none;display:inline"
     id="rect3170"
     inkscape:connector-curvature="0"
     d="M 12,6 C 8.676,6 6,8.676 6,12 l 0,72 c 0,3.324 2.676,6 6,6 L 24,90 24,6 12,6 z" />
  <g
     id="g4028">
    <g
       id="g3972"
       transform="translate(0,2)">
      <g
         id="g3958"
         transform="translate(0,-2)">
        <path
           style="opacity:0.5;color:#000000;fill:url(#linearGradient3979);fill-opacity:1;fill-rule:nonzero;stroke:none;stroke-width:2;marker:none;visibility:visible;display:inline;overflow:visible;enable-background:accumulate"
           id="rect3922"
           inkscape:connector-curvature="0"
           d="m 11,63 c -2.77,0 -5,2.23 -5,5 l 0,1 c 0,-2.77 2.23,-5 5,-5 l 13,0 0,-1 -13,0 z" />
        <path
           style="opacity:0.2;color:#000000;fill:url(#linearGradient3982);fill-opacity:1;fill-rule:nonzero;stroke:none;stroke-width:2;marker:none;visibility:visible;display:inline;overflow:visible;enable-background:accumulate"
           id="path3946"
           inkscape:connector-curvature="0"
           d="m 11,62 c -2.77,0 -5,2.23 -5,5 l 0,1 c 0,-2.77 2.23,-5 5,-5 l 13,0 0,-1 -13,0 z" />
        <path
           style="opacity:0.3;color:#000000;fill:url(#linearGradient3984);fill-opacity:1;fill-rule:nonzero;stroke:none;stroke-width:2;marker:none;visibility:visible;display:inline;overflow:visible;enable-background:accumulate"
           id="path3950"
           inkscape:connector-curvature="0"
           d="m 11,65 c -2.77,0 -5,2.23 -5,5 l 0,1 c 0,-2.77 2.23,-5 5,-5 l 13,0 0,-1 -13,0 z" />
        <path
           style="opacity:0.6;color:#000000;fill:url(#linearGradient3986);fill-opacity:1;fill-rule:nonzero;stroke:none;stroke-width:2;marker:none;visibility:visible;display:inline;overflow:visible;enable-background:accumulate"
           id="path3952"
           inkscape:connector-curvature="0"
           d="m 11,64 c -2.77,0 -5,2.23 -5,5 l 0,1 c 0,-2.77 2.23,-5 5,-5 l 13,0 0,-1 -13,0 z" />
      </g>
    </g>
    <g
       id="g3988"
       transform="translate(0,-18)">
      <g
         id="g3990"
         transform="translate(0,-2)">
        <path
           style="opacity:0.5;color:#000000;fill:url(#linearGradient4000);fill-opacity:1;fill-rule:nonzero;stroke:none;stroke-width:2;marker:none;visibility:visible;display:inline;overflow:visible;enable-background:accumulate"
           id="path3992"
           inkscape:connector-curvature="0"
           d="m 11,63 c -2.77,0 -5,2.23 -5,5 l 0,1 c 0,-2.77 2.23,-5 5,-5 l 13,0 0,-1 -13,0 z" />
        <path
           style="opacity:0.2;color:#000000;fill:url(#linearGradient4002);fill-opacity:1;fill-rule:nonzero;stroke:none;stroke-width:2;marker:none;visibility:visible;display:inline;overflow:visible;enable-background:accumulate"
           id="path3994"
           inkscape:connector-curvature="0"
           d="m 11,62 c -2.77,0 -5,2.23 -5,5 l 0,1 c 0,-2.77 2.23,-5 5,-5 l 13,0 0,-1 -13,0 z" />
        <path
           style="opacity:0.3;color:#000000;fill:url(#linearGradient4004);fill-opacity:1;fill-rule:nonzero;stroke:none;stroke-width:2;marker:none;visibility:visible;display:inline;overflow:visible;enable-background:accumulate"
           id="path3996"
           inkscape:connector-curvature="0"
           d="m 11,65 c -2.77,0 -5,2.23 -5,5 l 0,1 c 0,-2.77 2.23,-5 5,-5 l 13,0 0,-1 -13,0 z" />
        <path
           style="opacity:0.6;color:#000000;fill:url(#linearGradient4006);fill-opacity:1;fill-rule:nonzero;stroke:none;stroke-width:2;marker:none;visibility:visible;display:inline;overflow:visible;enable-background:accumulate"
           id="path3998"
           inkscape:connector-curvature="0"
           d="m 11,64 c -2.77,0 -5,2.23 -5,5 l 0,1 c 0,-2.77 2.23,-5 5,-5 l 13,0 0,-1 -13,0 z" />
      </g>
    </g>
    <g
       id="g4008"
       transform="translate(0,-38)">
      <g
         id="g4010"
         transform="translate(0,-2)">
        <path
           style="opacity:0.5;color:#000000;fill:url(#linearGradient4020);fill-opacity:1;fill-rule:nonzero;stroke:none;stroke-width:2;marker:none;visibility:visible;display:inline;overflow:visible;enable-background:accumulate"
           id="path4012"
           inkscape:connector-curvature="0"
           d="m 11,63 c -2.77,0 -5,2.23 -5,5 l 0,1 c 0,-2.77 2.23,-5 5,-5 l 13,0 0,-1 -13,0 z" />
        <path
           style="opacity:0.2;color:#000000;fill:url(#linearGradient4022);fill-opacity:1;fill-rule:nonzero;stroke:none;stroke-width:2;marker:none;visibility:visible;display:inline;overflow:visible;enable-background:accumulate"
           id="path4014"
           inkscape:connector-curvature="0"
           d="m 11,62 c -2.77,0 -5,2.23 -5,5 l 0,1 c 0,-2.77 2.23,-5 5,-5 l 13,0 0,-1 -13,0 z" />
        <path
           style="opacity:0.3;color:#000000;fill:url(#linearGradient4024);fill-opacity:1;fill-rule:nonzero;stroke:none;stroke-width:2;marker:none;visibility:visible;display:inline;overflow:visible;enable-background:accumulate"
           id="path4016"
           inkscape:connector-curvature="0"
           d="m 11,65 c -2.77,0 -5,2.23 -5,5 l 0,1 c 0,-2.77 2.23,-5 5,-5 l 13,0 0,-1 -13,0 z" />
        <path
           style="opacity:0.6;color:#000000;fill:url(#linearGradient4026);fill-opacity:1;fill-rule:nonzero;stroke:none;stroke-width:2;marker:none;visibility:visible;display:inline;overflow:visible;enable-background:accumulate"
           id="path4018"
           inkscape:connector-curvature="0"
           d="m 11,64 c -2.77,0 -5,2.23 -5,5 l 0,1 c 0,-2.77 2.23,-5 5,-5 l 13,0 0,-1 -13,0 z" />
      </g>
    </g>
  </g>
  <path
     style="opacity:0.20000000000000001;fill:#504416;fill-opacity:1;fill-rule:nonzero;stroke:none"
     id="path3615"
     inkscape:connector-curvature="0"
     d="M 12,90 C 8.676,90 6,87.324 6,84 L 6,82 6,14 6,12 c 0,-0.334721 0.04135,-0.6507 0.09375,-0.96875 0.0487,-0.295596 0.09704,-0.596915 0.1875,-0.875 C 6.29113,10.12587 6.302142,10.09265 6.3125,10.0625 6.411365,9.774729 6.5473802,9.515048 6.6875,9.25 6.8320918,8.976493 7.0031161,8.714385 7.1875,8.46875 7.3718839,8.223115 7.5612765,7.995278 7.78125,7.78125 8.221197,7.353194 8.72416,6.966724 9.28125,6.6875 9.559795,6.547888 9.8547231,6.440553 10.15625,6.34375 9.9000482,6.443972 9.6695391,6.580022 9.4375,6.71875 c -0.00741,0.0044 -0.023866,-0.0045 -0.03125,0 -0.031933,0.0193 -0.062293,0.04251 -0.09375,0.0625 -0.120395,0.0767 -0.2310226,0.163513 -0.34375,0.25 -0.1061728,0.0808 -0.2132809,0.161112 -0.3125,0.25 C 8.4783201,7.442683 8.3087904,7.626638 8.15625,7.8125 8.0486711,7.942755 7.9378561,8.077785 7.84375,8.21875 7.818661,8.25713 7.805304,8.30462 7.78125,8.34375 7.716487,8.446782 7.6510225,8.548267 7.59375,8.65625 7.4927417,8.850956 7.3880752,9.071951 7.3125,9.28125 7.30454,9.30306 7.288911,9.3218 7.28125,9.34375 7.2494249,9.4357 7.2454455,9.530581 7.21875,9.625 7.1884177,9.731618 7.1483606,9.828031 7.125,9.9375 7.0521214,10.279012 7,10.635705 7,11 l 0,2 0,68 0,2 c 0,2.781848 2.2181517,5 5,5 l 2,0 68,0 2,0 c 2.781848,0 5,-2.218152 5,-5 l 0,-2 0,-68 0,-2 C 89,10.635705 88.94788,10.279012 88.875,9.9375 88.83085,9.730607 88.78662,9.539842 88.71875,9.34375 88.71105,9.3218 88.69545,9.30306 88.6875,9.28125 88.62476,9.107511 88.549117,8.913801 88.46875,8.75 88.42717,8.6672 88.38971,8.580046 88.34375,8.5 88.28915,8.40279 88.216976,8.31165 88.15625,8.21875 88.06214,8.077785 87.951329,7.942755 87.84375,7.8125 87.700576,7.63805 87.540609,7.465502 87.375,7.3125 87.36383,7.3023 87.35502,7.29135 87.34375,7.28125 87.205364,7.155694 87.058659,7.046814 86.90625,6.9375 86.803679,6.86435 86.701932,6.784136 86.59375,6.71875 c -0.0074,-0.0045 -0.02384,0.0044 -0.03125,0 -0.232039,-0.138728 -0.462548,-0.274778 -0.71875,-0.375 0.301527,0.0968 0.596455,0.204138 0.875,0.34375 0.55709,0.279224 1.060053,0.665694 1.5,1.09375 0.219973,0.214028 0.409366,0.441865 0.59375,0.6875 0.184384,0.245635 0.355408,0.507743 0.5,0.78125 0.14012,0.265048 0.276135,0.524729 0.375,0.8125 0.01041,0.03078 0.02133,0.06274 0.03125,0.09375 0.09046,0.278085 0.1388,0.579404 0.1875,0.875 C 89.95865,11.3493 90,11.665279 90,12 l 0,2 0,68 0,2 c 0,3.324 -2.676,6 -6,6 l -72,0 z" />
  <path
     transform="matrix(0.52214385,0,0,0.52214385,114.88536,-11.723152)"
     sodipodi:type="inkscape:offset"
     inkscape:radius="2.540133"
     inkscape:original="M -111.3125 47.375 C -118.65109 47.192464 -125.66948 50.914095 -118.75 60.15625 L -121.5 60.15625 L -121.59375 63.96875 L -104.09375 64 L -104.28125 60.15625 L -111.5 60.15625 C -117.27456 55.411389 -116.75442 51.49983 -104.375 48.78125 C -106.38529 47.915796 -108.8663 47.435845 -111.3125 47.375 z M -111.375 67.375 L -107.125 85.40625 C -96.477686 92.271188 -85.291469 98.416214 -79.1875 111.1875 L -61.875 125.34375 C -52.793375 97.621175 -82.89235 85.511002 -111.375 67.375 z M -115.75 67.5 C -129.29199 75.478046 -143.07707 82.605244 -156 92.75 C -162.61159 99.265531 -167.82883 106.77702 -167.5 118.25 C -163.33692 136.33764 -149.6098 145.51755 -130.8125 149.96875 C -125.24152 156.02096 -107.71163 159.14493 -95.46875 149.375 C -76.273333 143.76316 -71.561385 136.13582 -64.46875 129.25 L -80.78125 114.90625 L -84.875 117 L -77.75 123 L -79.5 124.25 L -83.5 120.75 L -87.75 122.375 L -81.5 127.5 L -83.875 128.875 L -87.875 125.375 L -91.875 127.375 L -87.25 131.5 C -88.538422 134.79707 -91.219002 135.7739 -94.5 135.75 C -101.53331 126.7181 -118.8737 120.51786 -133.75 135 L -136.25 134.75 C -162.25725 117.81754 -146.40953 100.95099 -120.25 83.25 L -115.75 67.5 z M -114 135 C -109.58172 135 -106 137.46243 -106 140.5 C -106 143.53757 -109.58172 146 -114 146 C -118.41828 146 -122 143.53757 -122 140.5 C -122 137.46243 -118.41828 135 -114 135 z "
     style="fill:#666666;fill-opacity:1;stroke:none"
     id="path4052"
     d="m -111.25,44.84375 c -4.11841,-0.102439 -8.36293,0.672594 -11.03125,3.71875 -1.33416,1.523078 -2.05758,3.699591 -1.78125,5.96875 0.14177,1.164149 0.52167,2.346828 1.09375,3.5625 a 2.540387,2.540387 0 0 0 -1.0625,2 l -0.0937,3.8125 a 2.540387,2.540387 0 0 0 2.53125,2.59375 l 2.5,0 c -12.82214,7.467822 -25.97506,14.442208 -38.46875,24.25 a 2.540387,2.540387 0 0 0 -0.21875,0.1875 c -6.83094,6.731693 -12.60178,15.10116 -12.25,27.375 a 2.540387,2.540387 0 0 0 0.0625,0.5 c 4.3506,18.90237 18.99205,28.83934 38,33.46875 3.62252,3.45085 9.50321,5.55363 16.21875,5.875 6.96324,0.33322 14.81096,-1.40972 21.40625,-6.46875 19.327961,-5.74982 24.883694,-14.04993 31.65625,-20.625 a 2.540387,2.540387 0 0 0 0.34375,-3.21875 2.540387,2.540387 0 0 0 2.875,-1.71875 c 2.416664,-7.37711 2.252924,-14.02145 0.0625,-19.875 -2.190424,-5.85355 -6.30195,-10.8574 -11.46875,-15.40625 -9.802489,-8.63011 -23.534029,-15.920243 -36.96875,-24.3125 l 3.75,0 a 2.540387,2.540387 0 0 0 2.53125,-2.65625 l -0.1875,-3.84375 a 2.540387,2.540387 0 0 0 -2.53125,-2.40625 l -6.125,0 c -0.85498,-0.79238 -1.66223,-1.601555 -1.90625,-2.0625 -0.31124,-0.587926 -0.2542,-0.522895 -0.15625,-0.71875 0.0979,-0.195855 0.64339,-0.843863 2.0625,-1.53125 1.41911,-0.687387 3.58865,-1.409428 6.5625,-2.0625 a 2.540387,2.540387 0 0 0 0.46875,-4.8125 c -2.3942,-1.030733 -5.13953,-1.52571 -7.875,-1.59375 z m -2.3125,24.25 L -109.59375,86 a 2.540387,2.540387 0 0 0 1.09375,1.53125 c 10.748095,6.929917 21.31125,12.78209 27.03125,24.75 a 2.540387,2.540387 0 0 0 0.09375,0.15625 2.540387,2.540387 0 0 0 -0.5625,0.21875 L -86.03125,114.75 A 2.540387,2.540387 0 0 0 -86.5,118.9375 l 0.1875,0.15625 L -88.65625,120 A 2.540387,2.540387 0 0 0 -90,123.59375 l -3,1.5 a 2.540387,2.540387 0 0 0 -0.5625,4.1875 L -90.5,132 c -0.247373,0.25404 -0.497956,0.45944 -0.8125,0.625 -0.524339,0.27598 -1.410158,0.35768 -2.28125,0.4375 -4.030178,-4.53455 -10.10569,-8.14997 -17.28125,-9.03125 -7.46072,-0.9163 -15.95993,1.38571 -23.625,8.34375 l -0.84375,-0.0937 c -5.91324,-3.9404 -9.27608,-7.74962 -10.71875,-11.21875 -1.48461,-3.56998 -1.20535,-6.89251 0.5625,-10.6875 3.5357,-7.58998 13.72069,-16.257189 26.6875,-25.03125 a 2.540387,2.540387 0 0 0 1,-1.40625 l 4.25,-14.84375 z M -114,137.53125 c 1.73724,0 3.26808,0.53391 4.21875,1.1875 0.95067,0.65359 1.25,1.26086 1.25,1.78125 0,0.52039 -0.29933,1.12766 -1.25,1.78125 -0.95067,0.65359 -2.48151,1.1875 -4.21875,1.1875 -1.73724,0 -3.26808,-0.53391 -4.21875,-1.1875 -0.95067,-0.65359 -1.25,-1.26086 -1.25,-1.78125 0,-0.52039 0.29933,-1.12766 1.25,-1.78125 0.95067,-0.65359 2.48151,-1.1875 4.21875,-1.1875 z" />
  <path
     sodipodi:type="inkscape:offset"
     inkscape:radius="0.83570546"
     inkscape:original="M 60.34375 6.21875 C 56.51195 6.1234398 52.855789 8.0805136 56.46875 12.90625 L 55.03125 12.90625 L 55 14.875 L 64.125 14.90625 L 64.03125 12.90625 L 60.25 12.90625 C 57.234849 10.428749 57.504911 8.388239 63.96875 6.96875 C 62.919088 6.5168583 61.621017 6.2505201 60.34375 6.21875 z M 60.3125 16.65625 L 62.53125 26.0625 C 68.090683 29.646985 73.937859 32.894052 77.125 39.5625 L 86.15625 46.9375 C 90.898164 32.462328 75.184539 26.125851 60.3125 16.65625 z M 58.03125 16.71875 C 50.960375 20.884438 43.778875 24.609228 37.03125 29.90625 C 23.935708 44.041106 37.6519 56.973529 50.15625 59.78125 C 53.065103 62.941375 62.232452 64.570062 68.625 59.46875 C 78.647768 56.538563 81.109131 52.564139 84.8125 48.96875 L 76.28125 41.46875 L 74.15625 42.5625 L 77.875 45.71875 L 76.96875 46.375 L 74.875 44.53125 L 72.65625 45.375 L 75.90625 48.0625 L 74.6875 48.78125 L 72.59375 46.9375 L 70.5 48 L 72.90625 50.15625 C 72.233508 51.877795 70.838153 52.387479 69.125 52.375 C 65.452602 47.659049 56.392567 44.40699 48.625 51.96875 L 47.34375 51.84375 C 33.764224 43.002569 42.028463 34.211213 55.6875 24.96875 L 58.03125 16.71875 z M 58.9375 51.96875 C 61.244476 51.96875 63.125 53.257703 63.125 54.84375 C 63.125 56.429799 61.244476 57.71875 58.9375 57.71875 C 56.630523 57.71875 54.78125 56.429799 54.78125 54.84375 C 54.78125 53.257703 56.630523 51.96875 58.9375 51.96875 z "
     style="fill:#f1ee4f;fill-opacity:1;stroke:none"
     id="path3210"
     d="m 60.375,5.375 c -2.064651,-0.051355 -4.182489,0.3765669 -5.40625,1.78125 -0.611881,0.7023416 -0.911744,1.6848608 -0.78125,2.75 0.08196,0.669026 0.377198,1.409687 0.78125,2.15625 A 0.83578903,0.83578903 0 0 0 54.1875,12.90625 L 54.15625,14.875 A 0.83578903,0.83578903 0 0 0 55,15.71875 L 64.125,15.75 a 0.83578903,0.83578903 0 0 0 0.84375,-0.875 l -0.09375,-2 a 0.83578903,0.83578903 0 0 0 -0.84375,-0.8125 l -3.4375,0 C 60.03158,11.568247 59.560187,11.099532 59.375,10.75 59.16241,10.348747 59.188219,10.154823 59.3125,9.90625 c 0.124281,-0.2485732 0.48627,-0.6150261 1.28125,-1 0.79498,-0.3849739 1.98632,-0.7788635 3.5625,-1.125 A 0.83578903,0.83578903 0 0 0 64.3125,6.1875 C 63.142537,5.6838174 61.754264,5.4093071 60.375,5.375 z M 60.1875,15.8125 A 0.83578903,0.83578903 0 0 0 59.5,16.84375 L 61.71875,26.25 a 0.83578903,0.83578903 0 0 0 0.375,0.5 c 5.590545,3.604544 11.220082,6.782625 14.28125,13.1875 a 0.83578903,0.83578903 0 0 0 0.21875,0.28125 l 9.03125,7.375 A 0.83578903,0.83578903 0 0 0 86.9375,47.1875 C 88.171103,43.421803 88.104653,40.078953 87,37.125 85.895347,34.171047 83.816688,31.62546 81.15625,29.28125 75.835373,24.59283 68.144773,20.646037 60.75,15.9375 a 0.83578903,0.83578903 0 0 0 -0.5625,-0.125 z M 58,15.875 A 0.83578903,0.83578903 0 0 0 57.59375,16 C 50.548379,20.150663 43.324489,23.892638 36.5,29.25 a 0.83578903,0.83578903 0 0 0 -0.09375,0.09375 c -6.732986,7.267342 -6.642443,14.577738 -3.125,20.1875 3.478158,5.547108 10.07953,9.510294 16.46875,11 1.742018,1.736493 4.78779,2.864872 8.28125,3.03125 3.531366,0.168184 7.512941,-0.739497 10.84375,-3.28125 0.03698,-0.01081 0.05697,-0.02041 0.09375,-0.03125 10.091998,-2.975086 12.835323,-7.190353 16.4375,-10.6875 A 0.83578903,0.83578903 0 0 0 85.375,48.34375 l -8.53125,-7.5 a 0.83578903,0.83578903 0 0 0 -0.9375,-0.125 l -2.125,1.09375 a 0.83578903,0.83578903 0 0 0 -0.15625,1.375 l 0.75,0.625 -2.03125,0.78125 a 0.83578903,0.83578903 0 0 0 -0.21875,1.4375 l 0.15625,0.125 a 0.83578903,0.83578903 0 0 0 -0.0625,0.03125 L 70.125,47.25 a 0.83578903,0.83578903 0 0 0 -0.1875,1.375 l 1.84375,1.65625 c -0.225928,0.347158 -0.426147,0.735557 -0.75,0.90625 -0.406118,0.214053 -1.002559,0.254798 -1.625,0.28125 C 67.3911,49.113523 64.213057,47.209523 60.5,46.75 56.679041,46.277123 52.329217,47.415977 48.375,51.09375 l -0.71875,-0.0625 c -3.189776,-2.110268 -5.061515,-4.172219 -5.875,-6.125 -0.829795,-1.991932 -0.683453,-3.92826 0.28125,-6 1.929406,-4.143481 7.301299,-8.65385 14.09375,-13.25 A 0.83578903,0.83578903 0 0 0 56.5,25.1875 l 2.34375,-8.25 A 0.83578903,0.83578903 0 0 0 58,15.875 z m 0.9375,36.9375 c 0.997846,0 1.904608,0.278935 2.5,0.6875 0.595392,0.408565 0.84375,0.881016 0.84375,1.34375 0,0.462735 -0.248359,0.935185 -0.84375,1.34375 -0.595391,0.408565 -1.502153,0.6875 -2.5,0.6875 -0.997847,0 -1.882075,-0.280727 -2.46875,-0.6875 -0.586675,-0.406773 -0.84375,-0.875526 -0.84375,-1.34375 0,-0.468223 0.257075,-0.936976 0.84375,-1.34375 0.586675,-0.406774 1.470903,-0.6875 2.46875,-0.6875 z"
     transform="translate(-3.9552738,6.8060326)" />
  <path
     style="fill:url(#linearGradient3117);fill-opacity:1;fill-rule:nonzero;stroke:none;display:inline"
     id="path3292"
     inkscape:connector-curvature="0"
     d="m 12,5.5685451 c -3.324,0 -5.9971246,2.6760012 -6,5.9999999 l -0.0625,72.25 c -0.00303,3.503691 2.0337784,6.107924 6,6 l 9.1875,-0.25 0,-83.9999999 z"
     sodipodi:nodetypes="ssssccs" />
  <path
     style="opacity:0.4;fill:url(#linearGradient3114);fill-opacity:1;fill-rule:nonzero;stroke:none"
     id="rect3728"
     inkscape:connector-curvature="0"
     d="m 11.823223,5.6415449 c -3.3239995,0 -5.9999995,2.676 -5.9999995,6.0000001 l 0,2 0,68 0,2 c 0,0.334721 0.04135,0.6507 0.09375,0.96875 0.0487,0.295596 0.09704,0.596915 0.1875,0.875 0.00988,0.03038 0.020892,0.0636 0.03125,0.09375 0.098865,0.287771 0.2348802,0.547452 0.375,0.8125 0.1445918,0.273507 0.3156161,0.535615 0.5,0.78125 0.1843839,0.245635 0.3737765,0.473472 0.59375,0.6875 0.439947,0.428056 0.94291,0.814526 1.5,1.09375 0.278545,0.139612 0.5734731,0.246947 0.8749998,0.34375 -0.2562012,-0.100222 -0.4867107,-0.236272 -0.7187498,-0.375 -0.00741,-0.0044 -0.023866,0.0045 -0.03125,0 -0.031933,-0.0193 -0.062293,-0.04251 -0.09375,-0.0625 -0.120395,-0.0767 -0.2310226,-0.163513 -0.34375,-0.25 -0.1061728,-0.0808 -0.2132809,-0.161112 -0.3125,-0.25 -0.1779299,-0.161433 -0.3474596,-0.345388 -0.5,-0.53125 -0.1075789,-0.130255 -0.2183939,-0.265285 -0.3125,-0.40625 -0.025089,-0.03838 -0.038446,-0.08587 -0.0625,-0.125 -0.064763,-0.103032 -0.1302275,-0.204517 -0.1875,-0.3125 -0.1010083,-0.194706 -0.2056748,-0.415701 -0.28125,-0.625 -0.00796,-0.02181 -0.023589,-0.04055 -0.03125,-0.0625 -0.031825,-0.09195 -0.035804,-0.186831 -0.0625,-0.28125 -0.030332,-0.106618 -0.070389,-0.203031 -0.09375,-0.3125 -0.072879,-0.341512 -0.125,-0.698205 -0.125,-1.0625 l 0,-2 0,-68 0,-2 c 0,-2.7818481 2.2181517,-5.0000001 4.9999995,-5.0000001 l 2,0 68,0 2,0 c 2.781848,0 5,2.218152 5,5.0000001 l 0,2 0,68 0,2 c 0,0.364295 -0.05212,0.720988 -0.125,1.0625 -0.04415,0.206893 -0.08838,0.397658 -0.15625,0.59375 -0.0077,0.02195 -0.0233,0.04069 -0.03125,0.0625 -0.06274,0.173739 -0.138383,0.367449 -0.21875,0.53125 -0.04158,0.0828 -0.07904,0.169954 -0.125,0.25 -0.0546,0.09721 -0.126774,0.18835 -0.1875,0.28125 -0.09411,0.140965 -0.204921,0.275995 -0.3125,0.40625 -0.143174,0.17445 -0.303141,0.346998 -0.46875,0.5 -0.01117,0.0102 -0.01998,0.02115 -0.03125,0.03125 -0.138386,0.125556 -0.285091,0.234436 -0.4375,0.34375 -0.102571,0.07315 -0.204318,0.153364 -0.3125,0.21875 -0.0074,0.0045 -0.02384,-0.0044 -0.03125,0 -0.232039,0.138728 -0.462548,0.274778 -0.71875,0.375 0.301527,-0.0968 0.596455,-0.204138 0.875,-0.34375 0.55709,-0.279224 1.060053,-0.665694 1.5,-1.09375 0.219973,-0.214028 0.409366,-0.441865 0.59375,-0.6875 0.184384,-0.245635 0.355408,-0.507743 0.5,-0.78125 0.14012,-0.265048 0.276135,-0.524729 0.375,-0.8125 0.01041,-0.03078 0.02133,-0.06274 0.03125,-0.09375 0.09046,-0.278085 0.1388,-0.579404 0.1875,-0.875 0.0524,-0.31805 0.09375,-0.634029 0.09375,-0.96875 l 0,-2 0,-68 0,-2 c 0,-3.3240001 -2.676,-6.0000001 -6,-6.0000001 l -72,0 z" />
  <rect
     style="opacity:0.1;fill:#ffffff;fill-opacity:1;stroke:none"
     id="rect3941"
     y="6"
     x="24"
     height="84"
     width="1" />
  <rect
     style="opacity:0.10000000000000001;fill:#22280b;fill-opacity:1;stroke:none"
     id="rect3943"
     y="6"
     x="23"
     height="84"
     width="1" />
  <path
     style="fill:#504416;fill-opacity:1;fill-rule:nonzero;stroke:none;display:inline"
     id="rect3964"
     inkscape:connector-curvature="0"
     d="m 90,76 c 0,2.216 -1.784,4 -4,4 l -4,0 -69,0 c -2.77,0 -5,2.23 -5,5 0,2.42375 1.71748,4.441543 4,4.90625 0.125327,0.02075 0.247127,0.04959 0.375,0.0625 0.04116,0.0052 0.08352,-0.0042 0.125,0 C 12.662806,89.981893 12.833696,90 13,90 L 82.09375,90 84,90 c 3.324,0 6,-2.676 6,-6 z" />
  <path
     style="color:#000000;fill:url(#linearGradient3103);fill-opacity:1;fill-rule:nonzero;stroke:none;stroke-width:2;marker:none;visibility:visible;display:inline;overflow:visible;enable-background:accumulate"
     id="path3073"
     inkscape:connector-curvature="0"
     d="m 13,80.03125 c -2.229947,0 -3.96875,1.738803 -3.96875,3.96875 0,2.229947 1.738803,3.96875 3.96875,3.96875 l 70.3125,0 C 84.821315,87.808459 86,86.552718 86,85 l 0,-4.96875 z" />
  <path
     style="opacity:0.1;color:#000000;fill:#000000;fill-opacity:1;fill-rule:nonzero;stroke:none;stroke-width:2;marker:none;visibility:visible;display:inline;overflow:visible;enable-background:accumulate"
     id="path3853"
     inkscape:connector-curvature="0"
     d="m 90,75 c 0,2.216 -1.784,4 -4,4 l -5,0 0,0.03125 -69,0 c -2.2299467,0 -3.96875,1.738803 -3.96875,3.96875 0,0.171722 0.042447,0.334673 0.0625,0.5 C 8.3340994,81.518422 9.9417755,80.03125 12,80.03125 l 74,0 L 86,80 c 2.216,0 4,-1.784 4,-4 l 0,-1 z" />
  <path
     style="opacity:0.1;color:#000000;fill:url(#linearGradient3099);fill-opacity:1;fill-rule:nonzero;stroke:none;stroke-width:2;marker:none;visibility:visible;display:inline;overflow:visible;enable-background:accumulate"
     id="path3880"
     inkscape:connector-curvature="0"
     d="m 90,74 c 0,2.216 -1.784,4 -4,4 l -5,0 0,0.03125 -69,0 c -2.229947,0 -3.96875,1.738803 -3.96875,3.96875 0,0.171722 0.04245,0.334673 0.0625,0.5 C 8.334099,80.518422 9.941775,79.03125 12,79.03125 l 74,0 L 86,79 c 2.216,0 4,-1.784 4,-4 l 0,-1 z" />
  <path
     style="opacity:0.5;color:#000000;fill:#000000;fill-opacity:1;fill-rule:nonzero;stroke:none;stroke-width:2;marker:none;visibility:visible;display:inline;overflow:visible;enable-background:accumulate"
     id="path3885"
     inkscape:connector-curvature="0"
     d="m 12,80.03125 c -2.2299467,0 -3.96875,1.738803 -3.96875,3.96875 0,2.229947 1.7388033,3.96875 3.96875,3.96875 l 1,0 c -2.229947,0 -3.96875,-1.738803 -3.96875,-3.96875 0,-2.229947 1.738803,-3.96875 3.96875,-3.96875 l -1,0 z" />
  <path
     style="opacity:0.15;fill:#000000;stroke:none"
     id="path3918"
     inkscape:connector-curvature="0"
     d="M 86,80.15625 11.28125,80.4375 86,80.5625 86,80.15625 z m 0,0.65625 -76.4375,1.21875 c -0.0023,0.004 -0.02899,-0.0041 -0.03125,0 -0.0045,0.0081 0.0045,0.02311 0,0.03125 L 86,81.84375 86,80.8125 z m 0,2.03125 -76.84375,0.25 76.84375,0.125 0,-0.375 z m -76.96875,1.25 76.96875,1 C 86.00099,85.06206 86,85.03195 86,85 l 0,-0.53125 -76.96875,-0.375 z M 9.1875,85.0625 c 0.02576,0.09633 0.06124,0.188194 0.09375,0.28125 L 62.4375,85.25 9.1875,85.0625 z m 76.71875,0.625 -76.125,0.65625 c 0.0087,0.01204 0.02244,0.01931 0.03125,0.03125 L 85.71875,86.25 c 0.02323,-0.05009 0.04269,-0.104045 0.0625,-0.15625 0.05145,-0.129933 0.09209,-0.26788 0.125,-0.40625 z M 85.4375,86.75 10.40625,87 l 74.3125,0.125 0.5,-0.125 c 0.07541,-0.0824 0.15293,-0.159508 0.21875,-0.25 z" />
  <path
     style="opacity:0.2;color:#000000;fill:#000000;fill-opacity:1;fill-rule:nonzero;stroke:none;stroke-width:2;marker:none;visibility:visible;display:inline;overflow:visible;enable-background:accumulate"
     id="path4001"
     inkscape:connector-curvature="0"
     d="M 86,80.03125 86,85 c 0,1.552718 -1.178685,2.808459 -2.6875,2.96875 l 1,0 C 85.821315,87.808459 87,86.552718 87,85 l 0,-4.96875 -1,0 z" />
  <path
     style="opacity:0.25;color:#000000;fill:#000000;fill-opacity:1;fill-rule:nonzero;stroke:none;stroke-width:2;marker:none;visibility:visible;display:inline;overflow:visible;enable-background:accumulate"
     id="path4010"
     inkscape:connector-curvature="0"
     d="m 90,76 c 0,2.216 -1.784,4 -4,4 l -5,0 0,0.03125 -68,0 c -2.229947,0 -3.96875,1.738803 -3.96875,3.96875 0,0.171722 0.04245,0.334673 0.0625,0.5 C 9.334099,82.518422 10.941775,81.03125 13,81.03125 l 73,0 L 86,81 c 2.216,0 4,-1.784 4,-4 z" />
  <path
     style="opacity:0.1;color:#000000;fill:#000000;fill-opacity:1;fill-rule:nonzero;stroke:none;stroke-width:2;marker:none;visibility:visible;display:inline;overflow:visible;enable-background:accumulate"
     id="path4093"
     inkscape:connector-curvature="0"
     d="m 90,77 c 0,2.216 -1.784,4 -4,4 l -5,0 0,0.03125 -68,0 c -2.229947,0 -3.96875,1.738803 -3.96875,3.96875 0,0.171722 0.04245,0.334673 0.0625,0.5 C 9.334099,83.518422 10.941775,82.03125 13,82.03125 l 73,0 L 86,82 c 2.216,0 4,-1.784 4,-4 z" />
  <g
     id="layer5"
     style="display:none">
    <rect
       width="66"
       height="66"
       rx="12"
       ry="12"
       x="15"
       y="15"
       clip-path="url(#clipPath3613)"
       id="rect3171"
       style="opacity:0.1;fill:url(#linearGradient3613);fill-opacity:1;fill-rule:nonzero;stroke:#ffffff;stroke-width:0.5;stroke-linecap:round;stroke-linejoin:miter;stroke-miterlimit:4;stroke-opacity:1;stroke-dasharray:none;stroke-dashoffset:0;filter:url(#filter3794)" />
  </g>
  <path
     inkscape:connector-curvature="0"
     id="path3258-9"
     style="fill:url(#linearGradient3214);fill-opacity:1;stroke:none"
     d="m 60.079914,19.686894 0.09231,2.020026 -9.130964,-0.03031 0.04614,-1.989711 1.435896,0 c -4.817282,-6.434315 3.311802,-7.734399 7.510452,-5.926832 -6.463839,1.419489 -6.73214,3.449329 -3.716989,5.92683 z m -5.990173,3.839611 c -7.070875,4.165688 -14.268667,7.887111 -21.016292,13.184133 -13.095542,14.134856 0.64715,27.0687 13.1515,29.876421 2.908853,3.160125 12.061974,4.791287 18.454522,-0.310025 10.022768,-2.930187 12.483086,-6.912756 16.186455,-10.508145 l -8.517472,-7.489501 -2.137526,1.093238 3.720273,3.132865 -0.913748,0.652679 -2.088577,-1.827504 -2.21911,0.848484 3.2634,2.675988 -1.240089,0.717947 -2.088578,-1.827504 -2.088577,1.044289 2.414919,2.153843 c -0.672742,1.721545 -2.072396,2.23159 -3.785549,2.219111 C 61.512894,54.446873 52.458718,51.209456 44.691151,58.771216 L 43.385788,58.640681 C 29.806262,49.7995 38.081052,40.992735 51.740089,31.750272 z m 0.913747,35.244711 c 2.306976,0 4.177155,1.285744 4.177155,2.871791 0,1.586049 -1.870179,2.871791 -4.177155,2.871791 -2.306977,0 -4.177147,-1.285742 -4.177147,-2.871791 0,-1.586047 1.87017,-2.871791 4.177147,-2.871791 z m 1.373594,-35.316674 2.215272,9.414892 c 5.559433,3.584485 11.396707,6.807772 14.583848,13.47622 l 9.045685,7.384227 C 86.963801,39.254709 71.249121,32.924143 56.377082,23.454542 z"
     sodipodi:nodetypes="cccccccccccccccccccccccccccccsssssccccc" />
  <g
     id="layer5-7">
    <rect
       width="66"
       height="66"
       rx="12"
       ry="12"
       x="15"
       y="15"
       clip-path="url(#clipPath3613-1)"
       id="rect3171-9"
       style="opacity:0.1;fill:url(#linearGradient3387);fill-opacity:1;fill-rule:nonzero;stroke:#ffffff;stroke-width:0.5;stroke-linecap:round;stroke-linejoin:miter;stroke-miterlimit:4;stroke-opacity:1;stroke-dasharray:none;stroke-dashoffset:0;filter:url(#filter3794-5)" />
  </g>
  <path
     style="opacity:0.4;fill:url(#linearGradient3348);fill-opacity:1;fill-rule:nonzero;stroke:none"
     id="rect3690"
     inkscape:connector-curvature="0"
     d="m 12,5.8124989 c -3.324,0 -6.0000001,2.6760004 -6.0000001,6.0000021 l 0,46.875 C 23.60856,47.165469 50.22874,39.8125 80,39.8125 c 3.37799,0 6.71203,0.09685 10,0.28125 L 90,11.812501 C 90,8.4884993 87.324,5.8124989 84,5.8124989 l -72,0 z" />
</svg>
