<?xml version="1.0" encoding="UTF-8" standalone="no"?>
<!-- Created with Inkscape (http://www.inkscape.org/) -->

<svg
   xmlns:dc="http://purl.org/dc/elements/1.1/"
   xmlns:cc="http://creativecommons.org/ns#"
   xmlns:rdf="http://www.w3.org/1999/02/22-rdf-syntax-ns#"
   xmlns:svg="http://www.w3.org/2000/svg"
   xmlns="http://www.w3.org/2000/svg"
   xmlns:xlink="http://www.w3.org/1999/xlink"
   xmlns:sodipodi="http://sodipodi.sourceforge.net/DTD/sodipodi-0.dtd"
   xmlns:inkscape="http://www.inkscape.org/namespaces/inkscape"
   version="1.0"
   width="96"
   height="96"
   id="svg2408"
   inkscape:version="0.48.2 r9819"
   sodipodi:docname="gnome-calendar.svg">
  <sodipodi:namedview
     pagecolor="#ffffff"
     bordercolor="#666666"
     borderopacity="1"
     objecttolerance="10"
     gridtolerance="10"
     guidetolerance="10"
     inkscape:pageopacity="0"
     inkscape:pageshadow="2"
     inkscape:window-width="1024"
     inkscape:window-height="714"
     id="namedview96"
     showgrid="false"
     inkscape:zoom="0.35355339"
     inkscape:cx="58.414846"
     inkscape:cy="55.39298"
     inkscape:window-x="-4"
     inkscape:window-y="-4"
     inkscape:window-maximized="1"
     inkscape:current-layer="svg2408" />
  <defs
     id="defs2410">
    <linearGradient
       id="linearGradient3186">
      <stop
         offset="0"
         style="stop-color:#008033;stop-opacity:1"
         id="stop3188" />
      <stop
         offset="1"
         style="stop-color:#00ff00;stop-opacity:1"
         id="stop3190" />
    </linearGradient>
    <linearGradient
       id="linearGradient3757">
      <stop
         id="stop3759"
         style="stop-color:#c53636;stop-opacity:1"
         offset="0" />
      <stop
         id="stop3761"
         style="stop-color:#d42b2b;stop-opacity:1"
         offset="1" />
    </linearGradient>
    <linearGradient
       id="linearGradient3777">
      <stop
         id="stop3779"
         style="stop-color:#ffffff;stop-opacity:0"
         offset="0" />
      <stop
         id="stop3785"
         style="stop-color:#d7d7d7;stop-opacity:1"
         offset="0.50290233" />
      <stop
         id="stop3781"
         style="stop-color:#cccccc;stop-opacity:1"
         offset="0.76460928" />
      <stop
         id="stop3787"
         style="stop-color:#d7d7d7;stop-opacity:1"
         offset="0.9122979" />
      <stop
         id="stop3783"
         style="stop-color:#ffffff;stop-opacity:1"
         offset="1" />
    </linearGradient>
    <linearGradient
       x1="45.447727"
       y1="92.539597"
       x2="45.447727"
       y2="7.0165396"
       id="ButtonShadow"
       gradientUnits="userSpaceOnUse"
       gradientTransform="scale(1.0058652,0.994169)">
      <stop
         id="stop3750"
         style="stop-color:#000000;stop-opacity:1"
         offset="0" />
      <stop
         id="stop3752"
         style="stop-color:#000000;stop-opacity:0.58823532"
         offset="1" />
    </linearGradient>
    <linearGradient
       id="linearGradient3737">
      <stop
         id="stop3739"
         style="stop-color:#ffffff;stop-opacity:1"
         offset="0" />
      <stop
         id="stop3741"
         style="stop-color:#ffffff;stop-opacity:0"
         offset="1" />
    </linearGradient>
    <filter
       color-interpolation-filters="sRGB"
       id="filter3174">
      <feGaussianBlur
         id="feGaussianBlur3176"
         stdDeviation="1.71" />
    </filter>
    <linearGradient
       x1="36.357143"
       y1="6"
       x2="36.357143"
       y2="63.893143"
       id="linearGradient3188"
       xlink:href="#linearGradient3737"
       gradientUnits="userSpaceOnUse" />
    <filter
       x="-0.192"
       y="-0.192"
       width="1.3839999"
       height="1.3839999"
       color-interpolation-filters="sRGB"
       id="filter3794">
      <feGaussianBlur
         id="feGaussianBlur3796"
         stdDeviation="5.28" />
    </filter>
    <linearGradient
       x1="48"
       y1="20.220806"
       x2="48"
       y2="138.66119"
       id="linearGradient3613"
       xlink:href="#linearGradient3737"
       gradientUnits="userSpaceOnUse" />
    <radialGradient
       cx="48"
       cy="90.171875"
       r="42"
       fx="48"
       fy="90.171875"
       id="radialGradient3619"
       xlink:href="#linearGradient3737"
       gradientUnits="userSpaceOnUse"
       gradientTransform="matrix(1.1573129,0,0,0.99590774,-17.551021,0.19713193)" />
    <clipPath
       id="clipPath3613">
      <rect
         width="84"
         height="84"
         rx="6"
         ry="6"
         x="6"
         y="6"
         id="rect3615"
         style="fill:#ffffff;fill-opacity:1;fill-rule:nonzero;stroke:none" />
    </clipPath>
    <linearGradient
       x1="48"
       y1="90"
       x2="48"
       y2="5.9877172"
       id="linearGradient3617"
       xlink:href="#ButtonColor-0"
       gradientUnits="userSpaceOnUse" />
    <linearGradient
       x1="38.410439"
       y1="39.834473"
       x2="110.98586"
       y2="112.4099"
       id="linearGradient3185"
       xlink:href="#linearGradient3777"
       gradientUnits="userSpaceOnUse"
       gradientTransform="matrix(0.71186441,0,0,0.71186441,2.44068,2.440678)" />
    <linearGradient
       x1="58.650177"
       y1="122"
       x2="58.650177"
       y2="5.4252338"
       id="ButtonColor"
       gradientUnits="userSpaceOnUse"
       gradientTransform="matrix(1.0172414,0,0,1.0172414,-1.1034483,-1.1034483)">
      <stop
         id="stop3189"
         style="stop-color:#e4b31e;stop-opacity:1"
         offset="0" />
      <stop
         id="stop3191"
         style="stop-color:#ffef64;stop-opacity:1"
         offset="1" />
    </linearGradient>
    <clipPath
       id="clipPath3800">
      <path
         d="m 62,6 c -3.324,0 -6,2.676 -6,6 l 0,0.53125 C 56,8.9207 58.9207,6 62.53125,6 L 62,6 z m 71.46875,0 C 137.0793,6 140,8.9207 140,12.53125 L 140,12 c 0,-3.324 -2.676,-6 -6,-6 l -0.53125,0 z M 140,12.53125 c 0,36.73465 -3.54263,60.10471 -7.84375,69.9375 C 121.33994,87.4996 96.479512,90 62.53125,90 L 134,90 c 3.324,0 6,-2.676 6,-6 l 0,-71.46875 z M 62.53125,90 C 58.9207,89.9945 56,87.0793 56,83.46875 L 56,84 c 0,3.324 2.676,6 6,6 l 0.53125,0 z"
         inkscape:connector-curvature="0"
         id="path3802"
         style="fill:url(#linearGradient3804);fill-opacity:1;fill-rule:nonzero;stroke:none" />
    </clipPath>
    <linearGradient
       x1="48"
       y1="90"
       x2="48"
       y2="5.9877172"
       id="linearGradient3804"
       xlink:href="#ButtonColor"
       gradientUnits="userSpaceOnUse"
       gradientTransform="translate(50,0)" />
    <filter
       color-interpolation-filters="sRGB"
       id="filter3810">
      <feGaussianBlur
         id="feGaussianBlur3812"
         stdDeviation="1.2600071" />
    </filter>
    <linearGradient
       x1="82.08036"
       y1="82.290176"
       x2="59.611588"
       y2="59.821404"
       id="linearGradient3825"
       xlink:href="#linearGradient3737"
       gradientUnits="userSpaceOnUse" />
    <linearGradient
       x1="58.650177"
       y1="122"
       x2="58.650177"
       y2="5.4252338"
       id="ButtonColor-0"
       gradientUnits="userSpaceOnUse"
       gradientTransform="matrix(1.0172414,0,0,1.0172414,-1.1034483,-1.1034483)">
      <stop
         id="stop3189-4"
         style="stop-color:#f0f0f0;stop-opacity:1"
         offset="0" />
      <stop
         id="stop3191-8"
         style="stop-color:#ffffff;stop-opacity:1"
         offset="1" />
    </linearGradient>
    <linearGradient
       x1="49.057751"
       y1="36.02602"
       x2="49.057751"
       y2="6.0722966"
       id="linearGradient3763"
       xlink:href="#linearGradient3757"
       gradientUnits="userSpaceOnUse" />
    <linearGradient
       x1="46.784908"
       y1="32.026962"
       x2="46.784908"
       y2="68.028786"
       id="linearGradient3699"
       xlink:href="#linearGradient3737"
       gradientUnits="userSpaceOnUse" />
    <linearGradient
       x1="47.868935"
       y1="91.174545"
       x2="47.868935"
       y2="5.8992176"
       id="linearGradient3707"
       xlink:href="#ButtonShadow"
       gradientUnits="userSpaceOnUse" />
    <linearGradient
       x1="46.965103"
       y1="93.415817"
       x2="46.965103"
       y2="8.3638449"
       id="linearGradient3722"
       xlink:href="#ButtonShadow"
       gradientUnits="userSpaceOnUse"
       gradientTransform="translate(-1,-1)" />
    <linearGradient
       x1="46.965103"
       y1="93.415817"
       x2="46.965103"
       y2="8.3638449"
       id="linearGradient3736"
       xlink:href="#ButtonShadow"
       gradientUnits="userSpaceOnUse"
       gradientTransform="translate(-1,-1)" />
    <linearGradient
       x1="46.965103"
       y1="93.415817"
       x2="46.965103"
       y2="8.3638449"
       id="linearGradient3752"
       xlink:href="#ButtonShadow"
       gradientUnits="userSpaceOnUse"
       gradientTransform="translate(-1,-1)" />
    <linearGradient
       x1="46.965103"
       y1="93.415817"
       x2="46.965103"
       y2="8.3638449"
       id="linearGradient3760"
       xlink:href="#ButtonShadow"
       gradientUnits="userSpaceOnUse"
       gradientTransform="translate(-1,-1)" />
    <linearGradient
       inkscape:collect="always"
       xlink:href="#linearGradient3737"
       id="linearGradient3099"
       gradientUnits="userSpaceOnUse"
       x1="36.357143"
       y1="6"
       x2="36.357143"
       y2="63.893143" />
    <linearGradient
       inkscape:collect="always"
       xlink:href="#linearGradient3737"
       id="linearGradient3103"
       gradientUnits="userSpaceOnUse"
       x1="82.08036"
       y1="82.290176"
       x2="59.611588"
       y2="59.821404" />
    <linearGradient
       inkscape:collect="always"
       xlink:href="#linearGradient3186"
       id="linearGradient3107"
       gradientUnits="userSpaceOnUse"
       x1="49.057751"
       y1="36.02602"
       x2="49.057751"
       y2="6.0722966" />
    <linearGradient
       inkscape:collect="always"
       xlink:href="#linearGradient3737"
       id="linearGradient3110"
       gradientUnits="userSpaceOnUse"
       x1="46.784908"
       y1="32.026962"
       x2="46.784908"
       y2="68.028786" />
    <linearGradient
       inkscape:collect="always"
       xlink:href="#linearGradient3777"
       id="linearGradient3113"
       gradientUnits="userSpaceOnUse"
       gradientTransform="matrix(0.71186441,0,0,0.71186441,2.44068,2.440678)"
       x1="38.410439"
       y1="39.834473"
       x2="110.98586"
       y2="112.4099" />
    <radialGradient
       inkscape:collect="always"
       xlink:href="#linearGradient3737"
       id="radialGradient3117"
       gradientUnits="userSpaceOnUse"
       gradientTransform="matrix(1.1573129,0,0,0.99590774,-17.551021,0.19713193)"
       cx="48"
       cy="90.171875"
       fx="48"
       fy="90.171875"
       r="42" />
    <linearGradient
       inkscape:collect="always"
       xlink:href="#ButtonColor-0"
       id="linearGradient3120"
       gradientUnits="userSpaceOnUse"
       x1="48"
       y1="90"
       x2="48"
       y2="5.9877172" />
    <linearGradient
       inkscape:collect="always"
       xlink:href="#ButtonShadow"
       id="linearGradient3155"
       gradientUnits="userSpaceOnUse"
       x1="47.868935"
       y1="91.174545"
       x2="47.868935"
       y2="5.8992176" />
    <linearGradient
       inkscape:collect="always"
       xlink:href="#ButtonShadow"
       id="linearGradient3158"
       gradientUnits="userSpaceOnUse"
       gradientTransform="translate(-1,-1)"
       x1="46.965103"
       y1="93.415817"
       x2="46.965103"
       y2="8.3638449" />
    <linearGradient
       inkscape:collect="always"
       xlink:href="#ButtonShadow"
       id="linearGradient3161"
       gradientUnits="userSpaceOnUse"
       gradientTransform="translate(-1,-1)"
       x1="46.965103"
       y1="93.415817"
       x2="46.965103"
       y2="8.3638449" />
    <linearGradient
       inkscape:collect="always"
       xlink:href="#ButtonShadow"
       id="linearGradient3164"
       gradientUnits="userSpaceOnUse"
       gradientTransform="translate(-1,-1)"
       x1="46.965103"
       y1="93.415817"
       x2="46.965103"
       y2="8.3638449" />
    <linearGradient
       inkscape:collect="always"
       xlink:href="#ButtonShadow"
       id="linearGradient3167"
       gradientUnits="userSpaceOnUse"
       gradientTransform="translate(-1,-1)"
       x1="46.965103"
       y1="93.415817"
       x2="46.965103"
       y2="8.3638449" />
  </defs>
  <metadata
     id="metadata2413">
    <rdf:RDF>
      <cc:Work
         rdf:about="">
        <dc:format>image/svg+xml</dc:format>
        <dc:type
           rdf:resource="http://purl.org/dc/dcmitype/StillImage" />
        <dc:title></dc:title>
      </cc:Work>
    </rdf:RDF>
  </metadata>
  <g
     id="layer2"
     style="display:none">
    <path
       d="M 11,7 C 7.676,7 5,9.676 5,13 l 0,73 c 0,3.324 2.676,6 6,6 l 74,0 c 3.324,0 6,-2.676 6,-6 L 91,13 C 91,9.676 88.324,7 85,7 l -15,0 0,2.5625 c 1.19379,0.692085 2,1.958291 2,3.4375 0,2.209139 -1.79086,4 -4,4 -2.20914,0 -4,-1.790861 -4,-4 0,-1.479209 0.80621,-2.745415 2,-3.4375 L 66,7 30,7 30,9.5625 c 1.19379,0.692085 2,1.958291 2,3.4375 0,2.209139 -1.79086,4 -4,4 -2.20914,0 -4,-1.790861 -4,-4 0,-1.479209 0.80621,-2.745415 2,-3.4375 L 26,7 11,7 z"
       inkscape:connector-curvature="0"
       id="rect3745"
       style="opacity:0.9;fill:url(#ButtonShadow);fill-opacity:1;fill-rule:nonzero;stroke:none;filter:url(#filter3174)" />
  </g>
  <path
     inkscape:connector-curvature="0"
     style="opacity:0.07999998;fill:url(#linearGradient3167);fill-opacity:1;fill-rule:nonzero;stroke:none"
     id="path3758"
     d="M 12,4.09375 C 5.958559,3.9197191 1.4013336,9.7548505 2.125,15.53125 l -0.03125,0 c 0.0309,23.462972 -0.077155,46.904914 0.03125,70.375 a 0.89898646,0.89898646 0 0 0 0,0.0625 c 0.4135931,5.805998 6.1890583,9.610267 11.65625,8.9375 0.04186,-0.0052 0.08318,0.0057 0.125,0 23.670234,-0.03037 47.322706,0.07697 71,-0.03125 a 0.89898646,0.89898646 0 0 0 0.0625,0 c 5.805997,-0.413599 9.610267,-6.189058 8.9375,-11.65625 -0.0052,-0.04186 0.0057,-0.08318 0,-0.125 -0.03035,-23.336851 0.07696,-46.655962 -0.03125,-70 a 0.89898646,0.89898646 0 0 0 0,-0.0625 C 93.461407,7.2252516 87.685942,3.4209829 82.21875,4.09375 c -0.04121,6.156e-4 -0.08378,-5.689e-4 -0.125,0 C 77.816605,4.1527751 73.471998,3.9644816 69.125,4.1875 A 0.89898646,0.89898646 0 0 0 68.5,4.5 C 68.258195,4.7716239 68.114165,4.8160828 68.125,4.8125 67.945266,4.7390723 67.326189,4.2742446 66.375,4.125 A 0.89898646,0.89898646 0 0 0 66.25,4.09375 C 53.952869,4.1146989 41.647271,4.0518794 29.34375,4.125 a 0.89898646,0.89898646 0 0 0 -0.5625,0.21875 C 28.488372,4.5801621 28.293078,4.7029151 28.1875,4.75 28.081922,4.7970849 28.092979,4.7854347 28.0625,4.78125 28.001543,4.7728806 27.606489,4.5517268 26.875,4.1875 A 0.89898646,0.89898646 0 0 0 26.46875,4.09375 l -14.4375,0 -0.03125,0 z m 16.09375,8.6875 c 0.226923,0.244044 0.358574,0.498158 0.375,0.75 0.02604,0.39918 -0.161138,0.861966 -0.40625,1.125 -0.114331,0.12269 -0.223886,0.196155 -0.28125,0.21875 0.02231,0.0073 -0.27871,-0.3392 -0.3125,-1.40625 0.01928,-0.126056 0.06772,-0.162919 0.3125,-0.375 0.07441,-0.06447 0.212783,-0.230306 0.3125,-0.3125 z m 40,0 c 0.226923,0.244044 0.358574,0.498158 0.375,0.75 0.02604,0.39918 -0.161138,0.861966 -0.40625,1.125 -0.114331,0.12269 -0.223886,0.196155 -0.28125,0.21875 0.02232,0.0073 -0.27871,-0.3392 -0.3125,-1.40625 0.01928,-0.126056 0.06772,-0.162919 0.3125,-0.375 0.07441,-0.06447 0.212783,-0.230306 0.3125,-0.3125 z" />
  <path
     style="opacity:0.1;fill:url(#linearGradient3164);fill-opacity:1;fill-rule:nonzero;stroke:none"
     id="path3744"
     inkscape:connector-curvature="0"
     d="M 12,5 C 6.5057413,4.8226625 2.2688151,10.242553 3,15.51889 3.0309044,38.985409 2.9381256,62.455054 3.0465048,85.919616 3.4221938,91.193519 8.7597,94.680368 13.772038,94 37.487508,93.96909 61.206104,94.06189 84.919616,93.9535 90.193519,93.577806 93.680368,88.2403 93,83.227962 92.969096,59.845825 93.061873,36.460563 92.953495,13.080384 92.577806,7.806481 87.2403,4.3196317 82.227962,5 77.875336,5.0650149 73.487523,4.8715384 69.15625,5.09375 67.963875,6.4331658 67.682915,5.2248289 66.25,5 53.948789,5.0209559 41.640647,4.9581688 29.34375,5.03125 28.049941,6.0756153 27.841446,5.6834995 26.46875,5 21.645833,5 16.822917,5 12,5 z m 16,6.5625 c 3.752455,2.026235 -1.381779,7.249395 -1.430983,1.851426 C 26.677832,12.5193 27.639226,12.271287 28,11.5625 z m 40,0 c 3.752455,2.026235 -1.381779,7.249395 -1.430983,1.851426 C 66.677832,12.5193 67.639226,12.271287 68,11.5625 z" />
  <path
     style="opacity:0.2;fill:url(#linearGradient3161);fill-opacity:1;fill-rule:nonzero;stroke:none"
     id="path3734"
     inkscape:connector-curvature="0"
     d="M 12,5.96875 C 7.5628051,5.96875 3.96875,9.5628051 3.96875,14 l 0,71 c 0,4.437195 3.5940551,8.03125 8.03125,8.03125 l 72,0 c 4.437195,0 8.03125,-3.594055 8.03125,-8.03125 l 0,-71 C 92.03125,9.5628051 88.437195,5.96875 84,5.96875 l -14.25,0 A 1.0420122,1.0420122 0 0 0 68.71875,7 l 0,3.5625 a 1.0420122,1.0420122 0 0 0 0.46875,0.875 c 0.737994,0.488062 1.28125,1.413642 1.28125,2.5625 0,1.717559 -1.174525,2.96875 -2.46875,2.96875 -1.294225,0 -2.46875,-1.251191 -2.46875,-2.96875 0,-1.148858 0.543256,-2.074438 1.28125,-2.5625 a 1.0420122,1.0420122 0 0 0 0.46875,-0.875 l 0,-3.5625 A 1.0420122,1.0420122 0 0 0 66.25,5.96875 l -36.5,0 A 1.0420122,1.0420122 0 0 0 28.71875,7 l 0,3.5625 a 1.0420122,1.0420122 0 0 0 0.46875,0.875 c 0.737994,0.488062 1.28125,1.413642 1.28125,2.5625 0,1.717559 -1.174525,2.96875 -2.46875,2.96875 -1.294225,0 -2.46875,-1.251191 -2.46875,-2.96875 0,-1.148858 0.543256,-2.074438 1.28125,-2.5625 a 1.0420122,1.0420122 0 0 0 0.46875,-0.875 l 0,-3.5625 A 1.0420122,1.0420122 0 0 0 26.25,5.96875 l -14.25,0 z" />
  <path
     style="opacity:0.3;fill:url(#linearGradient3158);fill-opacity:1;fill-rule:nonzero;stroke:none"
     id="rect3713"
     inkscape:connector-curvature="0"
     d="M 12,7 C 8.122,7 5,10.122 5,14 l 0,71 c 0,3.878 3.122,7 7,7 l 72,0 c 3.878,0 7,-3.122 7,-7 L 91,14 C 91,10.122 87.878,7 84,7 l -14.25,0 0,3.5625 c 1.046496,0.692085 1.75,1.958291 1.75,3.4375 0,2.209139 -1.563432,4 -3.5,4 -1.936568,0 -3.5,-1.790861 -3.5,-4 0,-1.479209 0.703504,-2.745415 1.75,-3.4375 l 0,-3.5625 -36.5,0 0,3.5625 c 1.046496,0.692085 1.75,1.958291 1.75,3.4375 0,2.209139 -1.563432,4 -3.5,4 -1.936568,0 -3.5,-1.790861 -3.5,-4 0,-1.479209 0.703504,-2.745415 1.75,-3.4375 L 26.25,7 12,7 z" />
  <path
     style="opacity:0.45;fill:url(#linearGradient3155);fill-opacity:1;fill-rule:nonzero;stroke:none"
     id="path3693"
     inkscape:connector-curvature="0"
     d="M 12,7 C 8.676,7 6,9.676 6,13 l 0,72 c 0,3.324 2.676,6 6,6 l 72,0 c 3.324,0 6,-2.676 6,-6 L 90,13 C 90,9.676 87.324,7 84,7 l -14,0 0,2.5625 c 1.193791,0.692085 2,1.958291 2,3.4375 0,2.209139 -1.790861,4 -4,4 -2.209139,0 -4,-1.790861 -4,-4 0,-1.479209 0.806209,-2.745415 2,-3.4375 L 66,7 30,7 30,9.5625 c 1.193791,0.692085 2,1.958291 2,3.4375 0,2.209139 -1.790861,4 -4,4 -2.209139,0 -4,-1.790861 -4,-4 0,-1.479209 0.806209,-2.745415 2,-3.4375 L 26,7 12,7 z" />
  <path
     style="opacity:0.2;fill:#000000;fill-opacity:1;stroke:none;display:inline"
     id="path3833"
     inkscape:connector-curvature="0"
     d="m 189.96875,19.28125 c -0.40529,32.853499 -3.78151,53.972258 -7.8125,63.1875 -10.14029,4.716417 -32.62864,7.205224 -63.375,7.5 31.14298,-0.03671 56.97907,-0.434437 66.78125,-4.3125 3.02403,-9.875444 4.25911,-33.292211 4.40625,-66.375 z" />
  <path
     style="fill:url(#linearGradient3120);fill-opacity:1;fill-rule:nonzero;stroke:none"
     id="rect2419"
     inkscape:connector-curvature="0"
     d="M 12,6 C 8.676,6 6,8.676 6,12 l 0,72 c 0,3.324 2.676,6 6,6 l 72,0 c 3.324,0 6,-2.676 6,-6 L 90,12 C 90,8.676 87.324,6 84,6 l -14,0 0,2.5625 c 1.193791,0.6920851 2,1.958291 2,3.4375 0,2.209139 -1.790861,4 -4,4 -2.209139,0 -4,-1.790861 -4,-4 0,-1.479209 0.806209,-2.7454149 2,-3.4375 L 66,6 30,6 30,8.5625 c 1.193791,0.6920851 2,1.958291 2,3.4375 0,2.209139 -1.790861,4 -4,4 -2.209139,0 -4,-1.790861 -4,-4 0,-1.479209 0.806209,-2.7454149 2,-3.4375 L 26,6 12,6 z" />
  <path
     style="opacity:0.2;fill:url(#radialGradient3117);fill-opacity:1;fill-rule:nonzero;stroke:none"
     id="path3615"
     inkscape:connector-curvature="0"
     d="m 2,90 c -3.324,0 -6,-2.676 -6,-6 l 0,-2 0,-68 0,-2 c 0,-0.334721 0.04135,-0.6507 0.09375,-0.96875 0.0487,-0.295596 0.09704,-0.596915 0.1875,-0.875 0.00988,-0.03038 0.020892,-0.0636 0.03125,-0.09375 0.098865,-0.287771 0.2348802,-0.547452 0.375,-0.8125 0.1445918,-0.273507 0.3156161,-0.535615 0.5,-0.78125 0.1843839,-0.245635 0.3737765,-0.473472 0.59375,-0.6875 0.439947,-0.428056 0.94291,-0.814526 1.5,-1.09375 0.278545,-0.139612 0.5734731,-0.246947 0.875,-0.34375 -0.2562018,0.100222 -0.4867109,0.236272 -0.71875,0.375 -0.00741,0.0044 -0.023866,-0.0045 -0.03125,0 -0.031933,0.0193 -0.062293,0.04251 -0.09375,0.0625 -0.120395,0.0767 -0.2310226,0.163513 -0.34375,0.25 -0.1061728,0.0808 -0.2132809,0.161112 -0.3125,0.25 -0.1779299,0.161433 -0.3474596,0.345388 -0.5,0.53125 -0.1075789,0.130255 -0.2183939,0.265285 -0.3125,0.40625 -0.025089,0.03838 -0.038446,0.08587 -0.0625,0.125 -0.064763,0.103032 -0.1302275,0.204517 -0.1875,0.3125 -0.1010083,0.194706 -0.2056748,0.415701 -0.28125,0.625 C -2.69546,9.30306 -2.711089,9.3218 -2.71875,9.34375 -2.7505751,9.4357 -2.7545545,9.530581 -2.78125,9.625 -2.8115823,9.731618 -2.8516394,9.828031 -2.875,9.9375 -2.9478786,10.279012 -3,10.635705 -3,11 l 0,2 0,68 0,2 c 0,2.781848 2.2181517,5 5,5 l 2,0 68,0 2,0 c 2.781848,0 5,-2.218152 5,-5 l 0,-2 0,-68 0,-2 C 79,10.635705 78.94788,10.279012 78.875,9.9375 78.83085,9.730607 78.78662,9.539842 78.71875,9.34375 78.71105,9.3218 78.69545,9.30306 78.6875,9.28125 78.62476,9.107511 78.549117,8.913801 78.46875,8.75 78.42717,8.6672 78.38971,8.580046 78.34375,8.5 78.28915,8.40279 78.216976,8.31165 78.15625,8.21875 78.06214,8.077785 77.951329,7.942755 77.84375,7.8125 77.700576,7.63805 77.540609,7.465502 77.375,7.3125 77.36383,7.3023 77.35502,7.29135 77.34375,7.28125 77.205364,7.155694 77.058659,7.046814 76.90625,6.9375 76.803679,6.86435 76.701932,6.784136 76.59375,6.71875 c -0.0074,-0.0045 -0.02384,0.0044 -0.03125,0 -0.232039,-0.138728 -0.462548,-0.274778 -0.71875,-0.375 0.301527,0.0968 0.596455,0.204138 0.875,0.34375 0.55709,0.279224 1.060053,0.665694 1.5,1.09375 0.219973,0.214028 0.409366,0.441865 0.59375,0.6875 0.184384,0.245635 0.355408,0.507743 0.5,0.78125 0.14012,0.265048 0.276135,0.524729 0.375,0.8125 0.01041,0.03078 0.02133,0.06274 0.03125,0.09375 0.09046,0.278085 0.1388,0.579404 0.1875,0.875 C 79.95865,11.3493 80,11.665279 80,12 l 0,2 0,68 0,2 c 0,3.324 -2.676,6 -6,6 L 2,90 z" />
  <path
     style="opacity:0.5;fill:#4d4d4d;fill-opacity:1;stroke:none;display:inline;filter:url(#filter3810)"
     id="path3785"
     clip-path="url(#clipPath3800)"
     transform="translate(-50,0)"
     inkscape:connector-curvature="0"
     d="M 62.51724,6 C 58.90669,6 56,8.90669 56,12.517241 l 0,70.965519 c 0,3.610548 2.90669,6.511737 6.51724,6.51724 33.948262,0 61.15737,0.163148 73.40225,-3.796268 C 139.14918,76.192373 140,49.251888 140,12.517241 140,8.90669 137.09331,6 133.48276,6 L 62.51724,6 z" />
  <path
     style="opacity:0.8;fill:url(#linearGradient3113);fill-opacity:1;stroke:none;display:inline"
     id="path3177"
     inkscape:connector-curvature="0"
     d="M 12.53125,6 C 8.9207,6 6,8.920699 6,12.53125 l 0,70.9375 C 6,87.079298 8.9207,89.994497 12.53125,90 46.479512,90 71.339935,87.499595 82.15625,82.46875 86.457363,72.635962 90,49.265897 90,12.53125 90,8.920699 87.079298,6 83.46875,6 L 70,6 70,8.5625 c 1.193791,0.6920851 2,1.958291 2,3.4375 0,2.209139 -1.790861,4 -4,4 -2.209139,0 -4,-1.790861 -4,-4 0,-1.479209 0.806209,-2.7454149 2,-3.4375 L 66,6 30,6 30,8.5625 c 1.193791,0.6920851 2,1.958291 2,3.4375 0,2.209139 -1.790861,4 -4,4 -2.209139,0 -4,-1.790861 -4,-4 0,-1.479209 0.806209,-2.7454149 2,-3.4375 L 26,6 12.53125,6 z" />
  <g
     id="g3192"
     transform="translate(-3.79498,0)">
    <path
       d="m 44.246187,63.817564 -1.246219,2.529106 -2.015958,3.738681 c -0.562042,1.124057 -1.331757,2.455808 -2.309181,3.995254 l -4.105216,-4.031909 c -1.343984,-1.099598 -3.176662,-2.211425 -5.49807,-3.335487 l 1.062963,-2.455799 c 0.806395,-1.905973 1.588325,-3.543171 2.345837,-4.911599 0.659772,-1.441688 1.392831,-2.626823 2.199238,-3.555411 1.270636,0.146645 2.999483,1.124072 5.186494,2.932297 2.186975,1.808273 3.647028,3.506561 4.380112,5.094867 z"
       id="path3170"
       inkscape:connector-curvature="0"
       style="font-size:40px;font-style:normal;font-variant:normal;font-weight:normal;font-stretch:normal;text-align:start;line-height:125%;letter-spacing:0px;word-spacing:0px;writing-mode:lr-tb;text-anchor:start;fill:#333333;fill-opacity:1;stroke:none;font-family:AL-Mateen;-inkscape-font-specification:AL-Mateen" />
    <path
       d="m 74.518417,71.078345 c -1.2e-5,1.832693 -0.146564,3.689815 -0.439836,5.571365 -0.12217,0.757514 -0.201607,1.258448 -0.238251,1.502801 -0.03666,0.244361 -0.115997,0.623116 -0.238252,1.136266 -0.122171,0.513155 -0.244377,0.977434 -0.366524,1.39284 -0.122182,0.41541 -0.293259,0.904127 -0.513159,1.466149 l -0.439836,0.513153 c -0.219947,0.21992 -0.415442,0.329882 -0.586459,0.329882 l -0.109968,-0.0733 -0.293224,-0.329884 -1.31953,-6.267784 -1.136263,-5.094868 -0.586459,-2.785681 -0.549804,-1.832688 C 66.967769,63.649881 66.00256,60.961945 64.805199,58.542778 l -1.796022,-3.885293 c -0.56203,-1.270632 -1.19736,-2.492421 -1.906014,-3.665371 l 0.84304,-1.869338 1.099618,-2.16257 c 1.392831,-2.785644 2.431364,-4.447277 3.115577,-4.984906 0.610877,0.781986 1.759354,3.030079 3.445432,6.744284 0.977425,2.663535 2.125914,6.426645 3.445457,11.289343 0.488706,2.150372 0.855229,4.105235 1.099618,5.864595 l 0.25658,2.602415 z"
       id="path3172"
       inkscape:connector-curvature="0"
       style="font-size:40px;font-style:normal;font-variant:normal;font-weight:normal;font-stretch:normal;text-align:start;line-height:125%;letter-spacing:0px;word-spacing:0px;writing-mode:lr-tb;text-anchor:start;fill:#333333;fill-opacity:1;stroke:none;font-family:AL-Mateen;-inkscape-font-specification:AL-Mateen" />
  </g>
  <path
     style="opacity:0.8;fill:url(#linearGradient3110);fill-opacity:1;stroke:none"
     id="rect2918"
     inkscape:connector-curvature="0"
     d="m 6,28 84,0 c 0,0 -0.505076,19.039335 -4.04061,40.126269 L 6,68 6,28 z" />
  <path
     style="fill:url(#linearGradient3107);fill-opacity:1;fill-rule:nonzero;stroke:none"
     id="rect3839"
     inkscape:connector-curvature="0"
     d="M 12,6 C 8.676,6 6,8.676 6,12 l 0,24 84,0 0,-24 C 90,8.676 87.324,6 84,6 l -14,0 0,2.5625 c 1.193791,0.6920851 2,1.958291 2,3.4375 0,2.209139 -1.790861,4 -4,4 -2.209139,0 -4,-1.790861 -4,-4 0,-1.479209 0.806209,-2.7454149 2,-3.4375 L 66,6 30,6 30,8.5625 c 1.193791,0.6920851 2,1.958291 2,3.4375 0,2.209139 -1.790861,4 -4,4 -2.209139,0 -4,-1.790861 -4,-4 0,-1.479209 0.806209,-2.7454149 2,-3.4375 L 26,6 12,6 z" />
  <rect
     style="fill:#808080;fill-opacity:1;fill-rule:nonzero;stroke:none"
     id="rect3781"
     y="116"
     x="6"
     ry="6"
     rx="6"
     height="84"
     width="84" />
  <path
     style="opacity:0.5;fill:url(#linearGradient3103);fill-opacity:1;stroke:none;display:inline"
     id="path3814"
     inkscape:connector-curvature="0"
     d="M 87.5625,7.4375 C 88.457536,8.5531297 89,9.9832263 89,11.53125 89,48.265897 85.457363,71.635962 81.15625,81.46875 70.339935,86.499595 45.479512,89 11.53125,89 9.9832267,88.997641 8.5531295,88.457151 7.4375,87.5625 8.6300118,89.04796 10.468723,89.996856 12.53125,90 46.479512,90 71.339935,87.499595 82.15625,82.46875 86.457363,72.635962 90,49.265897 90,12.53125 90,10.468723 89.048922,8.6300119 87.5625,7.4375 z" />
  <path
     style="opacity:0.1;fill:#000000;fill-opacity:1;stroke:none;display:inline"
     id="path3831"
     inkscape:connector-curvature="0"
     d="m 89.96875,19.28125 c -0.40529,32.853499 -3.78151,53.972258 -7.8125,63.1875 -10.14029,4.716417 -32.62864,7.205224 -63.375,7.5 30.86516,-0.09992 54.68077,-1.006315 64.8125,-5.71875 4.0323,-9.218239 6.12845,-31.900739 6.375,-64.96875 z" />
  <path
     style="opacity:0.4;fill:url(#linearGradient3099);fill-opacity:1;fill-rule:nonzero;stroke:none"
     id="rect3728"
     inkscape:connector-curvature="0"
     d="M 12,6 C 8.676,6 6,8.676 6,12 l 0,2 0,68 0,2 c 0,0.334721 0.04135,0.6507 0.09375,0.96875 0.0487,0.295596 0.09704,0.596915 0.1875,0.875 0.0099,0.03038 0.02089,0.0636 0.03125,0.09375 0.09886,0.287771 0.23488,0.547452 0.375,0.8125 0.144592,0.273507 0.315616,0.535615 0.5,0.78125 0.184384,0.245635 0.373776,0.473472 0.59375,0.6875 0.439947,0.428056 0.94291,0.814526 1.5,1.09375 0.278545,0.139612 0.573473,0.246947 0.875,0.34375 -0.256202,-0.100222 -0.486711,-0.236272 -0.71875,-0.375 -0.0074,-0.0044 -0.02387,0.0045 -0.03125,0 -0.03193,-0.0193 -0.06229,-0.04251 -0.09375,-0.0625 -0.120395,-0.0767 -0.231023,-0.163513 -0.34375,-0.25 -0.106173,-0.0808 -0.213281,-0.161112 -0.3125,-0.25 C 8.47832,88.557317 8.30879,88.373362 8.15625,88.1875 8.048671,88.057245 7.937856,87.922215 7.84375,87.78125 7.81866,87.74287 7.8053,87.69538 7.78125,87.65625 7.71649,87.553218 7.651022,87.451733 7.59375,87.34375 7.492742,87.149044 7.388075,86.928049 7.3125,86.71875 7.3045,86.69694 7.28891,86.6782 7.28125,86.65625 7.24942,86.5643 7.24545,86.469419 7.21875,86.375 7.18842,86.268382 7.14836,86.171969 7.125,86.0625 7.05212,85.720988 7,85.364295 7,85 L 7,83 7,15 7,13 C 7,10.218152 9.218152,8 12,8 l 2,0 12,0 0,-2 -14,0 z m 18,0 0,2 36,0 0,-2 -36,0 z m 40,0 0,2 12,0 2,0 c 2.781848,0 5,2.218152 5,5 l 0,2 0,68 0,2 c 0,0.364295 -0.05212,0.720988 -0.125,1.0625 -0.04415,0.206893 -0.08838,0.397658 -0.15625,0.59375 -0.0077,0.02195 -0.0233,0.04069 -0.03125,0.0625 -0.06274,0.173739 -0.138383,0.367449 -0.21875,0.53125 -0.04158,0.0828 -0.07904,0.169954 -0.125,0.25 -0.0546,0.09721 -0.126774,0.18835 -0.1875,0.28125 -0.09411,0.140965 -0.204921,0.275995 -0.3125,0.40625 -0.143174,0.17445 -0.303141,0.346998 -0.46875,0.5 -0.01117,0.0102 -0.01998,0.02115 -0.03125,0.03125 -0.138386,0.125556 -0.285091,0.234436 -0.4375,0.34375 -0.102571,0.07315 -0.204318,0.153364 -0.3125,0.21875 -0.0074,0.0045 -0.02384,-0.0044 -0.03125,0 -0.232039,0.138728 -0.462548,0.274778 -0.71875,0.375 0.301527,-0.0968 0.596455,-0.204138 0.875,-0.34375 0.55709,-0.279224 1.060053,-0.665694 1.5,-1.09375 0.219973,-0.214028 0.409366,-0.441865 0.59375,-0.6875 0.184384,-0.245635 0.355408,-0.507743 0.5,-0.78125 0.14012,-0.265048 0.276135,-0.524729 0.375,-0.8125 0.01041,-0.03078 0.02133,-0.06274 0.03125,-0.09375 0.09046,-0.278085 0.1388,-0.579404 0.1875,-0.875 C 89.95865,84.6507 90,84.334721 90,84 l 0,-2 0,-68 0,-2 C 90,8.676 87.324,6 84,6 L 70,6 z" />
  <path
     style="opacity:0.98999999;fill:#ffd42a;fill-opacity:1;stroke:none"
     id="path3710"
     inkscape:connector-curvature="0"
     d="m 106,6 0,2.5625 c -1.19379,0.6920851 -2,1.958291 -2,3.4375 0,2.209139 1.79086,4 4,4 2.20914,0 4,-1.790861 4,-4 0,-1.479209 -0.80621,-2.7454149 -2,-3.4375 L 110,6 106,6 z m 40,0 0,2.5625 c -1.19379,0.6920851 -2,1.958291 -2,3.4375 0,2.209139 1.79086,4 4,4 2.20914,0 4,-1.790861 4,-4 0,-1.479209 -0.80621,-2.7454149 -2,-3.4375 L 150,6 146,6 z" />
  <path
     style="opacity:0.3;fill:#ffffff;fill-opacity:1;stroke:none"
     id="path3739"
     inkscape:connector-curvature="0"
     d="M 24.03125,12.40625 C 24.001249,12.602572 24,12.794487 24,13 c 0,2.209139 1.79086,4 4,4 2.20914,0 4,-1.790861 4,-4 0,-0.205513 -0.0012,-0.397428 -0.03125,-0.59375 C 31.764726,14.424122 30.071673,16 28,16 25.928327,16 24.235274,14.424122 24.03125,12.40625 z m 40,0 C 64.001249,12.602572 64,12.794487 64,13 c 0,2.209139 1.79086,4 4,4 2.20914,0 4,-1.790861 4,-4 0,-0.205513 -0.0012,-0.397428 -0.03125,-0.59375 C 71.764726,14.424122 70.071673,16 68,16 65.928327,16 64.235274,14.424122 64.03125,12.40625 z" />
  <rect
     style="opacity:0.1;fill:url(#linearGradient3613);fill-opacity:1;fill-rule:nonzero;stroke:#ffffff;stroke-width:0.5;stroke-linecap:round;stroke-linejoin:miter;stroke-miterlimit:4;stroke-opacity:1;stroke-dasharray:none;stroke-dashoffset:0;filter:url(#filter3794)"
     id="rect3171"
     clip-path="url(#clipPath3613)"
     y="15"
     x="15"
     ry="12"
     rx="12"
     height="66"
     width="66" />
  <text
     xml:space="preserve"
     style="font-size:40px;font-style:normal;font-variant:normal;font-weight:normal;font-stretch:normal;text-align:start;line-height:125%;letter-spacing:0px;word-spacing:0px;writing-mode:lr-tb;text-anchor:start;fill:#000000;fill-opacity:1;stroke:none;font-family:Alawi Naskh;-inkscape-font-specification:Alawi Naskh"
     x="-26.847458"
     y="-0.40677965"
     id="text3123"
     sodipodi:linespacing="125%"><tspan
       sodipodi:role="line"
       id="tspan3125"
       x="-26.847458"
       y="-0.40677965" /></text>
  <flowRoot
     xml:space="preserve"
     id="flowRoot3127"
     style="fill:black;stroke:none;stroke-opacity:1;stroke-width:1px;stroke-linejoin:miter;stroke-linecap:butt;fill-opacity:1;font-family:Amiri;font-style:normal;font-weight:normal;font-size:8px;line-height:125%;letter-spacing:0px;word-spacing:0px;-inkscape-font-specification:Amiri;font-stretch:normal;font-variant:normal"><flowRegion
       id="flowRegion3129"><rect
         id="rect3131"
         width="104.1356"
         height="140.33899"
         x="215.18645"
         y="-9.7627115"
         style="font-size:8px" /></flowRegion><flowPara
       id="flowPara3133"></flowPara></flowRoot>  <g
     style="font-size:23.61654091px;font-style:normal;font-variant:normal;font-weight:bold;font-stretch:normal;text-align:start;line-height:125%;letter-spacing:0px;word-spacing:0px;writing-mode:lr-tb;text-anchor:start;fill:#ffffff;fill-opacity:1;stroke:none;font-family:AlMohanad;-inkscape-font-specification:AlMohanad Bold"
     id="text3176">
    <path
       d="m 75.782661,28.122328 c -0.228718,0.990268 -0.630159,1.958193 -1.204322,2.903779 -0.850458,1.392907 -1.80517,2.089362 -2.86414,2.089366 -0.527092,-4e-6 -1.515799,-0.280724 -2.966122,-0.84216 -1.45033,-0.561444 -2.175493,-1.009371 -2.175492,-1.343782 -10e-7,-0.265708 0.160239,-0.39856 0.48072,-0.398558 l 0.838197,0.246486 0.353152,0.09153 0.295495,0.11027 c 0.531888,0.147505 0.916752,0.221259 1.154593,0.221261 0.323359,-2e-6 0.721436,-0.131534 1.194233,-0.394594 0.472786,-0.263064 1.032784,-0.683364 1.679997,-1.260899 1.216567,-1.038316 1.824853,-1.880597 1.824862,-2.526843 -9e-6,-0.206604 -0.293581,-0.611168 -0.880719,-1.213691 -0.350758,-0.358916 -0.799045,-0.75435 -1.344863,-1.186305 l 0.903062,-2.641437 c 0.765396,0.331056 1.385214,0.831475 1.859456,1.501259 0.691881,0.969131 1.037826,2.024984 1.037837,3.167562 -1.1e-5,0.364686 -0.06199,0.856937 -0.185946,1.476755 z"
       id="path3197"
       inkscape:connector-curvature="0" />
    <path
       d="m 54.047199,25.617106 3.821976,0 -0.02234,0.06559 0.689729,-1.299458 0.495855,-1.028467 c 0.528042,-0.719272 1.213926,-1.285277 2.057654,-1.698015 l 1.055134,-0.4209 c 0.324796,-0.123476 0.613083,-0.185218 0.864864,-0.185225 0.354104,7e-6 0.567196,0.138145 0.639278,0.414414 l 0.283243,0.952791 0.552071,1.613691 0.103784,0.416576 0.108108,0.452612 c 0.04804,0.243126 0.07206,0.481684 0.07207,0.715675 -1e-5,0.129732 -0.214784,0.551713 -0.644323,1.265944 -0.429558,0.714234 -0.752921,1.128046 -0.970088,1.241439 L 58.966111,26.63188 c -0.04133,0.01249 -0.263788,0.380301 -0.667387,1.103421 -0.213817,0.439159 -0.495859,0.658738 -0.846124,0.658738 l -3.405401,0 z m 8.258727,-0.668827 c -0.05142,-0.13357 -0.108837,-0.310627 -0.172252,-0.531171 -0.129738,-0.477112 -0.303912,-0.738012 -0.522522,-0.782701 l -0.248648,0 -0.268108,0.05117 c -0.01298,5e-6 -0.110277,0.05118 -0.291892,0.153513 l -0.528287,0.289729 -0.09802,-0.09369 z"
       id="path3199"
       inkscape:connector-curvature="0" />
    <path
       d="m 48.080362,19.382882 c -1.1e-5,0.170098 -0.240852,0.443131 -0.722521,0.819097 -0.481692,0.375984 -0.797246,0.563971 -0.946665,0.563964 -0.119169,7e-6 -0.397127,-0.181374 -0.833873,-0.544144 -0.436765,-0.362753 -0.693581,-0.605155 -0.770449,-0.727206 -9e-6,-0.166717 0.221492,-0.45993 0.664503,-0.879638 0.442993,-0.419689 0.766836,-0.654043 0.97153,-0.703062 l 0.286847,0.181621 c 0.148938,0.09322 0.327676,0.232322 0.536215,0.417297 0.475664,0.407937 0.747134,0.698627 0.814413,0.872071 z m -11.699442,6.234224 3.241797,0 -0.296215,-1.416934 c 0.04708,-0.176332 0.28444,-0.528523 0.712071,-1.056575 l 1.310989,-1.205764 0.208288,3.17477 c -6e-6,0.138861 0.04228,0.263546 0.126846,0.374053 l 0.157838,0.09658 0.186666,0.03387 0.424504,0 0.215495,-0.0086 c 0.05381,-0.01057 0.147982,-0.04516 0.282522,-0.103784 0.233987,-0.06486 0.530443,-0.207324 0.889368,-0.427387 L 45.057664,24.300352 47.8173,22.37531 c 1.258844,-0.806239 2.136679,-1.209361 2.633509,-1.209368 0.612117,7e-6 1.358421,0.37418 2.238916,1.122521 0.880462,0.748352 1.320701,1.428591 1.320718,2.040717 l -0.06991,0.136937 c -0.04086,0.155199 -0.104763,0.270754 -0.191712,0.346666 l -0.545585,0.898017 -0.05477,-0.09369 1.350628,0 0,2.776933 -14.108087,0 c -0.184988,0 -0.360363,-0.153032 -0.526125,-0.459098 l -0.101621,-0.89153 -0.55063,1.350628 -2.831708,0 z m 14.950608,-0.239999 c 0.0091,-0.0058 0.02113,-0.05093 0.03604,-0.135496 -1.5e-5,-0.146062 -0.25659,-0.408644 -0.769728,-0.787746 -0.232566,-0.159996 -0.471365,-0.290686 -0.716395,-0.392072 l -0.211171,-0.06991 -0.144865,-0.02306 -0.193153,-0.02595 c -0.41851,4e-6 -0.840371,0.10619 -1.265583,0.318558 l -1.695133,1.037836 -1.198557,0.317837 5.329001,0 c 0.348814,3e-6 0.62533,-0.08 0.829548,-0.239999 z"
       id="path3201"
       inkscape:connector-curvature="0" />
    <path
       d="m 36.862361,28.394039 -3.563238,0 -0.905944,-10.361786 1.986303,-1.921439 c -3e-6,1.118568 0.126603,2.781507 0.379819,4.988822 l 0.337297,3.080355 c 0.06582,0.62703 0.122759,0.993396 0.170811,1.099098 -4e-6,0.03796 -0.005,0.0519 -0.01514,0.0418 l 0.122523,0.250089 c -0.0067,-0.01105 0.02594,-0.006 0.09802,0.01514 l 0.311351,0.03099 1.078196,0 z"
       id="path3203"
       inkscape:connector-curvature="0" />
    <path
       d="m 26.262737,19.276215 c -8e-6,0.146555 -0.146314,0.361089 -0.438919,0.643603 -0.450696,0.43292 -0.806972,0.706313 -1.068827,0.820179 -0.137423,7e-6 -0.289975,-0.04203 -0.457657,-0.126126 l -0.477837,-0.318558 c -0.501145,-0.368039 -0.760604,-0.605636 -0.778377,-0.712792 -4e-6,-0.149901 0.121557,-0.377167 0.364684,-0.681801 0.51555,-0.636625 0.865819,-0.970558 1.050809,-1.0018 0.126361,10e-6 0.440834,0.196286 0.943422,0.588828 0.524197,0.37142 0.811763,0.634242 0.862702,0.788467 z m 4.291885,6.897287 -0.366846,1.3218 c -0.275326,0.950869 -0.555205,1.57333 -0.839639,1.867384 -0.354604,0.416575 -1.089257,0.846604 -2.20396,1.290088 -0.798085,0.283481 -1.596161,0.491048 -2.394231,0.622702 l -0.217657,0 -0.233513,0.02595 c -0.152318,-3e-6 -0.241206,0.0086 -0.266667,0.02595 -1.099822,-3e-6 -1.976456,-0.195318 -2.629906,-0.585945 -0.913874,-0.546307 -1.37081,-1.422221 -1.370808,-2.627744 l 0.0382,-0.624143 c -1e-6,-0.111951 0.01441,-0.228947 0.04324,-0.35099 l 0.07712,-0.37045 c 0.106665,-0.498736 0.289728,-1.062819 0.549188,-1.69225 0.468946,-1.208402 0.909305,-1.812605 1.321079,-1.81261 0.241678,5e-6 0.394711,0.129735 0.459099,0.389189 l -0.591711,1.39243 c -0.179702,0.448771 -0.269552,0.810812 -0.269549,1.086125 -3e-6,0.827387 0.284921,1.434713 0.854773,1.821979 0.565521,0.338258 1.443837,0.507386 2.634951,0.507386 l 0.206126,0 0.184504,-0.01081 c 0.07351,-0.0014 0.117231,-0.0058 0.131171,-0.01297 l 0.322883,-0.07207 0.329369,-0.06703 0.275314,-0.08721 c 0.172485,-0.03027 0.273385,-0.05622 0.302703,-0.07784 0.102814,-0.01922 0.211883,-0.05958 0.327206,-0.121081 0.988338,-0.318557 1.545694,-0.613572 1.67207,-0.885044 l 0.0209,-0.161441 0,-0.06126 -0.02306,-0.138378 -0.01514,-0.239279 c -10e-6,-0.02642 -0.02379,-0.09874 -0.07135,-0.216937 L 28.687958,25.965935 28.535166,25.53062 c -0.08457,-0.226783 -0.21094,-0.521798 -0.379099,-0.885044 l -0.36036,-0.784143 -0.165765,-0.358197 -0.08432,-0.184504 -0.13045,-0.238559 c 0.05284,-0.243597 0.205156,-0.561194 0.456936,-0.952791 l 0.952071,-1.347025 0.559999,0.681801 0.405765,0.86126 c 0.241671,0.564088 0.442751,1.11688 0.603243,1.658376 l 0.102342,0.482161 0.05838,0.33009 0.04252,0.740179 0.0022,0.172252 0,0.148468 -0.03027,0.14991 z"
       id="path3205"
       inkscape:connector-curvature="0" />
  </g>
</svg>
