<?xml version="1.0" encoding="UTF-8" standalone="no"?>
<!-- Created with Inkscape (http://www.inkscape.org/) -->

<svg
   xmlns:dc="http://purl.org/dc/elements/1.1/"
   xmlns:cc="http://creativecommons.org/ns#"
   xmlns:rdf="http://www.w3.org/1999/02/22-rdf-syntax-ns#"
   xmlns:svg="http://www.w3.org/2000/svg"
   xmlns="http://www.w3.org/2000/svg"
   xmlns:xlink="http://www.w3.org/1999/xlink"
   xmlns:sodipodi="http://sodipodi.sourceforge.net/DTD/sodipodi-0.dtd"
   xmlns:inkscape="http://www.inkscape.org/namespaces/inkscape"
   version="1.0"
   width="96"
   height="96"
   id="svg2408"
   inkscape:version="0.48.2 r9819"
   sodipodi:docname="hikma.svg"
   inkscape:export-filename="C:\Documents and Settings\yas\Bureau\faenza-iap\hikma.png"
   inkscape:export-xdpi="45"
   inkscape:export-ydpi="45">
  <sodipodi:namedview
     pagecolor="#ffffff"
     bordercolor="#666666"
     borderopacity="1"
     objecttolerance="10"
     gridtolerance="10"
     guidetolerance="10"
     inkscape:pageopacity="0"
     inkscape:pageshadow="2"
     inkscape:window-width="1280"
     inkscape:window-height="940"
     id="namedview4082"
     showgrid="false"
     inkscape:zoom="1"
     inkscape:cx="65.558714"
     inkscape:cy="21.614536"
     inkscape:window-x="0"
     inkscape:window-y="26"
     inkscape:window-maximized="1"
     inkscape:current-layer="svg2408" />
  <defs
     id="defs2410">
    <linearGradient
       inkscape:collect="always"
       id="linearGradient3205">
      <stop
         style="stop-color:#078301;stop-opacity:1"
         offset="0"
         id="stop3207" />
      <stop
         style="stop-color:#1c9908;stop-opacity:1"
         offset="1"
         id="stop3209" />
    </linearGradient>
    <linearGradient
       id="linearGradient4135">
      <stop
         offset="0"
         style="stop-color:#099409;stop-opacity:1"
         id="stop4137" />
      <stop
         offset="1"
         style="stop-color:#62ba0a;stop-opacity:1"
         id="stop4139" />
    </linearGradient>
    <radialGradient
       gradientUnits="userSpaceOnUse"
       id="radialGradient4120"
       fy="133.10451"
       fx="115.8989"
       r="154.62019"
       cy="133.10451"
       cx="115.8989">
      <stop
         offset="0"
         style="stop-color:#7fff2a;stop-opacity:1"
         id="stop4122" />
      <stop
         offset="1"
         style="stop-color:#048000;stop-opacity:1"
         id="stop4124" />
    </radialGradient>
    <linearGradient
       x1="45.447727"
       y1="92.539597"
       x2="45.447727"
       y2="7.0165396"
       id="ButtonShadow"
       gradientUnits="userSpaceOnUse"
       gradientTransform="scale(1.0058652,0.994169)">
      <stop
         id="stop3750"
         style="stop-color:#000000;stop-opacity:1"
         offset="0" />
      <stop
         id="stop3752"
         style="stop-color:#000000;stop-opacity:0.58823532"
         offset="1" />
    </linearGradient>
    <linearGradient
       id="linearGradient3737">
      <stop
         id="stop3739"
         style="stop-color:#ffffff;stop-opacity:1"
         offset="0" />
      <stop
         id="stop3741"
         style="stop-color:#ffffff;stop-opacity:0"
         offset="1" />
    </linearGradient>
    <filter
       color-interpolation-filters="sRGB"
       id="filter3174">
      <feGaussianBlur
         id="feGaussianBlur3176"
         stdDeviation="1.71" />
    </filter>
    <filter
       x="-0.192"
       y="-0.192"
       width="1.3839999"
       height="1.3839999"
       color-interpolation-filters="sRGB"
       id="filter3794">
      <feGaussianBlur
         id="feGaussianBlur3796"
         stdDeviation="5.28" />
    </filter>
    <linearGradient
       x1="48"
       y1="20.220806"
       x2="48"
       y2="138.66119"
       id="linearGradient3613"
       xlink:href="#linearGradient3737"
       gradientUnits="userSpaceOnUse" />
    <clipPath
       id="clipPath3613">
      <rect
         width="84"
         height="84"
         rx="6"
         ry="6"
         x="6"
         y="6"
         id="rect3615"
         style="fill:#ffffff;fill-opacity:1;fill-rule:nonzero;stroke:none" />
    </clipPath>
    <linearGradient
       x1="45.447727"
       y1="92.539597"
       x2="45.447727"
       y2="7.0165396"
       id="ButtonShadow-0"
       gradientUnits="userSpaceOnUse"
       gradientTransform="matrix(1.0058652,0,0,0.994169,100,0)">
      <stop
         id="stop3750-8"
         style="stop-color:#000000;stop-opacity:1"
         offset="0" />
      <stop
         id="stop3752-5"
         style="stop-color:#000000;stop-opacity:0.58823532"
         offset="1" />
    </linearGradient>
    <linearGradient
       x1="32.251034"
       y1="6.1317081"
       x2="32.251034"
       y2="90.238609"
       id="linearGradient3780"
       xlink:href="#ButtonShadow-0"
       gradientUnits="userSpaceOnUse"
       gradientTransform="matrix(1.0238095,0,0,1.0119048,-1.1428571,-98.071429)" />
    <linearGradient
       x1="32.251034"
       y1="6.1317081"
       x2="32.251034"
       y2="90.238609"
       id="linearGradient3772"
       xlink:href="#ButtonShadow-0"
       gradientUnits="userSpaceOnUse"
       gradientTransform="matrix(1.0238095,0,0,1.0119048,-1.1428571,-98.071429)" />
    <linearGradient
       x1="32.251034"
       y1="6.1317081"
       x2="32.251034"
       y2="90.238609"
       id="linearGradient3725"
       xlink:href="#ButtonShadow-0"
       gradientUnits="userSpaceOnUse"
       gradientTransform="matrix(1.0238095,0,0,1.0119048,-1.1428571,-98.071429)" />
    <linearGradient
       x1="32.251034"
       y1="6.1317081"
       x2="32.251034"
       y2="90.238609"
       id="linearGradient3721"
       xlink:href="#ButtonShadow-0"
       gradientUnits="userSpaceOnUse"
       gradientTransform="translate(0,-97)" />
    <linearGradient
       x1="32.251034"
       y1="6.1317081"
       x2="32.251034"
       y2="90.238609"
       id="linearGradient3026"
       xlink:href="#ButtonShadow-0"
       gradientUnits="userSpaceOnUse"
       gradientTransform="matrix(1.0238095,0,0,1.0119048,-1.1428571,-98.071429)" />
    <clipPath
       id="clipPath3613-1">
      <rect
         style="fill:#ffffff;fill-opacity:1;fill-rule:nonzero;stroke:none"
         id="rect3615-5"
         y="6"
         x="6"
         ry="6"
         rx="6"
         height="84"
         width="84" />
    </clipPath>
    <filter
       id="filter3794-5"
       color-interpolation-filters="sRGB"
       height="1.3839999"
       width="1.3839999"
       y="-0.192"
       x="-0.192">
      <feGaussianBlur
         stdDeviation="5.28"
         id="feGaussianBlur3796-1" />
    </filter>
    <filter
       id="filter3174-2"
       color-interpolation-filters="sRGB">
      <feGaussianBlur
         stdDeviation="1.71"
         id="feGaussianBlur3176-4" />
    </filter>
    <linearGradient
       id="linearGradient3737-4">
      <stop
         offset="0"
         style="stop-color:#ffffff;stop-opacity:1"
         id="stop3739-8" />
      <stop
         offset="1"
         style="stop-color:#ffffff;stop-opacity:0"
         id="stop3741-8" />
    </linearGradient>
    <linearGradient
       gradientTransform="scale(1.0058652,0.994169)"
       gradientUnits="userSpaceOnUse"
       id="ButtonShadow-4"
       y2="7.0165396"
       x2="45.447727"
       y1="92.539597"
       x1="45.447727">
      <stop
         offset="0"
         style="stop-color:#000000;stop-opacity:1"
         id="stop3750-0" />
      <stop
         offset="1"
         style="stop-color:#000000;stop-opacity:0.58823532"
         id="stop3752-9" />
    </linearGradient>
    <linearGradient
       id="linearGradient3697">
      <stop
         offset="0"
         style="stop-color:#ffffff;stop-opacity:1"
         id="stop3699" />
      <stop
         offset="1"
         style="stop-color:#ffffff;stop-opacity:0"
         id="stop3701" />
    </linearGradient>
    <linearGradient
       inkscape:collect="always"
       xlink:href="#linearGradient3737-4"
       id="linearGradient5406"
       gradientUnits="userSpaceOnUse"
       x1="48"
       y1="20.220806"
       x2="48"
       y2="138.66119" />
    <linearGradient
       inkscape:collect="always"
       xlink:href="#linearGradient3697"
       id="linearGradient3105"
       gradientUnits="userSpaceOnUse"
       gradientTransform="translate(-4.5e-6,-0.70266604)"
       x1="96"
       y1="16"
       x2="16"
       y2="64" />
    <radialGradient
       inkscape:collect="always"
       xlink:href="#linearGradient3737"
       id="radialGradient3125"
       gradientUnits="userSpaceOnUse"
       gradientTransform="matrix(1.1573129,0,0,0.99590774,-7.5510206,0.19713193)"
       cx="48"
       cy="90.171875"
       fx="48"
       fy="90.171875"
       r="42" />
    <linearGradient
       inkscape:collect="always"
       xlink:href="#linearGradient3737"
       id="linearGradient3128"
       gradientUnits="userSpaceOnUse"
       x1="36.357143"
       y1="6"
       x2="36.357143"
       y2="63.893143" />
    <linearGradient
       inkscape:collect="always"
       xlink:href="#linearGradient4135"
       id="linearGradient3131"
       gradientUnits="userSpaceOnUse"
       x1="48"
       y1="90"
       x2="48"
       y2="5.9877172" />
    <linearGradient
       inkscape:collect="always"
       xlink:href="#linearGradient3737-4"
       id="linearGradient3139"
       gradientUnits="userSpaceOnUse"
       x1="48"
       y1="20.220806"
       x2="48"
       y2="138.66119" />
    <filter
       id="filter16394"
       x="0"
       y="0"
       width="1"
       height="1"
       inkscape:label="Lightness-Contrast"
       inkscape:menu="Color"
       inkscape:menu-tooltip="Increase or decrease lightness and contrast"
       color-interpolation-filters="sRGB">
      <feFlood
         id="feFlood16396"
         result="result1"
         flood-opacity="0"
         flood-color="rgb(128,128,128)" />
      <feBlend
         id="feBlend16398"
         in2="SourceGraphic"
         mode="normal"
         result="result2" />
      <feComposite
         k4="0"
         k3="0"
         k1="0"
         id="feComposite16400"
         in2="SourceGraphic"
         k2="1"
         operator="arithmetic"
         result="result3" />
      <feComposite
         id="feComposite16402"
         in2="SourceGraphic"
         operator="in" />
    </filter>
    <linearGradient
       inkscape:collect="always"
       xlink:href="#linearGradient3205"
       id="linearGradient3211"
       x1="48.912548"
       y1="73.36882"
       x2="47.81749"
       y2="17.520912"
       gradientUnits="userSpaceOnUse" />
    <radialGradient
       inkscape:collect="always"
       xlink:href="#radialGradient4120"
       id="radialGradient4084"
       gradientUnits="userSpaceOnUse"
       gradientTransform="translate(-177.39923,-69.353611)"
       cx="48"
       cy="48"
       fx="48"
       fy="48"
       r="35.25" />
    <linearGradient
       inkscape:collect="always"
       xlink:href="#linearGradient3737-4-6"
       id="linearGradient5567"
       gradientUnits="userSpaceOnUse"
       x1="48"
       y1="20.220806"
       x2="48"
       y2="138.66119" />
    <linearGradient
       id="linearGradient3737-4-6">
      <stop
         offset="0"
         style="stop-color:#ffffff;stop-opacity:1"
         id="stop3739-8-7" />
      <stop
         offset="1"
         style="stop-color:#ffffff;stop-opacity:0"
         id="stop3741-8-4" />
    </linearGradient>
    <clipPath
       id="clipPath3613-1-3">
      <rect
         style="fill:#ffffff;fill-opacity:1;fill-rule:nonzero;stroke:none"
         id="rect3615-5-0"
         y="6"
         x="6"
         ry="6"
         rx="6"
         height="84"
         width="84" />
    </clipPath>
    <filter
       id="filter3794-5-9"
       color-interpolation-filters="sRGB"
       height="1.3839999"
       width="1.3839999"
       y="-0.192"
       x="-0.192">
      <feGaussianBlur
         stdDeviation="5.28"
         id="feGaussianBlur3796-1-6" />
    </filter>
    <linearGradient
       y2="138.66119"
       x2="48"
       y1="20.220806"
       x1="48"
       gradientUnits="userSpaceOnUse"
       id="linearGradient3114"
       xlink:href="#linearGradient3737-4-6"
       inkscape:collect="always" />
  </defs>
  <metadata
     id="metadata2413">
    <rdf:RDF>
      <cc:Work
         rdf:about="">
        <dc:format>image/svg+xml</dc:format>
        <dc:type
           rdf:resource="http://purl.org/dc/dcmitype/StillImage" />
        <dc:title></dc:title>
      </cc:Work>
    </rdf:RDF>
  </metadata>
  <g
     style="opacity:0.95;fill:#0b280b;fill-opacity:1;display:inline;filter:url(#filter16394)"
     id="g4031"
     transform="matrix(0.11945308,0,0,0.11945308,7.9255014,-15.183387)">
    <path
       style="fill:#0b280b;fill-opacity:1"
       d="m 497.34375,223 c -6.78996,0.0162 -15.53947,1.14786 -22.78125,3.15625 -5.225,1.449 -9.95,2.7472 -10.5,2.875 -4.1616,0.9672 -26.8709,8.60965 -35,11.78125 -19.8161,7.7313 -58.1004,24.9975 -68.1875,30.75 -0.99429,0.567 -4.2875,2.15075 -7.3125,3.53125 -6.78296,3.0957 -12.87171,6.4451 -35,19.3125 -18.96262,11.0267 -49.13156,31.22525 -55.5,37.15625 -6.7008,6.2404 -10.09957,11.5827 -10.875,17.0625 -0.11811,0.8347 -0.58971,2.098 -1.03125,2.8125 -0.44153,0.7143 -0.5195,1.57425 -0.1875,1.90625 0.33201,0.332 -0.001,1.5436 -0.75,2.6875 -1.19097,1.8195 -1.93575,11.0955 -1.90625,24.0625 0.0173,7.6256 0.31891,8.3691 4.71875,12.5625 2.4463,2.3314 8.50067,10.13815 13.46875,17.34375 4.96807,7.2057 10.51436,14.66875 12.3125,16.59375 1.79814,1.925 5.05169,5.75 7.25,8.5 7.50236,9.3852 27.08934,28.02935 42.0625,40.03125 8.22348,6.5918 15.1625,12.22715 15.4375,12.53125 0.275,0.304 2.28689,1.879 4.46875,3.5 2.18185,1.6209 4.69938,3.6125 5.59375,4.4375 0.89437,0.825 3.38248,2.92255 5.53125,4.65625 2.14878,1.7338 5.25625,4.37175 6.90625,5.84375 1.65,1.472 6.825,5.8892 11.5,9.8125 9.5173,7.987 37,35.0998 37,36.5 0,0.4971 1.14135,2.2144 2.53125,3.8125 3.5575,4.0903 7.6618,12.7622 8.1875,17.3125 0.3747,3.2438 0.0104,4.2733 -2.375,6.5 -3.9039,3.6442 -19.19335,11.1118 -27.59375,13.5 -2.0625,0.5864 -5.2863,1.548 -7.1875,2.125 -3.7575,1.1403 -5.2659,1.46955 -13.5625,2.90625 -8.4475,1.4628 -11.90844,1.90365 -19.5,2.53125 -11.88984,0.983 -13.91876,1.46495 -15.71875,3.78125 -0.95027,1.2229 -1.7378,2.78125 -1.75,3.46875 -0.0353,1.9828 -1.83266,1.4511 -2.53125,-0.75 -0.34913,-1.1 -0.99873,-2 -1.4375,-2 -2.59824,0 -7.40679,6.16115 -12.75,16.03125 -1.39994,2.58601 -2.83837,5.41558 -4.28125,8.46875 l 3.84375,9.0625 c 2.9837,-4.77838 4.11745,-4.43214 4.21875,0.1875 0.18908,8.6231 3.66256,20.7547 7.375,25.75 3.69784,6.63571 7.94404,11.07803 12.59375,13.90625 5.94478,4.0395 12.77358,5.93175 21.4375,5.96875 9.1945,0.039 12.13955,-1.12445 17.65625,-7.09375 3.9421,-4.2653 6.4822,-8.6071 7.25,-12.375 0.2673,-1.3115 0.8802,-3.75625 1.375,-5.40625 0.8967,-2.9899 0.89415,-4.1814 -0.21875,-16.5 -0.6324,-6.9994 -2.9625,-14.37185 -5.4375,-17.28125 -2.1905,-2.5751 -0.4762,-4.7466 4.9375,-6.25 18.5549,-5.1528 28.17635,-13.22885 35.71875,-29.96875 4.6051,-10.2208 6.06025,-17.7733 5.59375,-28.625 -0.5439,-12.6521 -2.7447,-19.8502 -9,-29.375 -10.9072,-16.6081 -21.29051,-26.4598 -63.3125,-60 -15.098,-12.0506 -23.27941,-18.7521 -26.15625,-21.5 -1.42564,-1.3617 -4.16576,-3.85 -6.09375,-5.5 -20.58585,-17.6177 -44.8125,-42.7427 -44.8125,-46.5 0,-0.8927 1.17855,-1.0515 4.25,-0.5625 11.85649,1.8877 12.68323,1.87745 13.34375,0.15625 0.81835,-2.1326 -1.81722,-5.05345 -7.59375,-8.40625 -2.47567,-1.4369 -5.04583,-3.12905 -5.71875,-3.78125 -0.67291,-0.6521 -2.92291,-2.2261 -5,-3.5 -2.07708,-1.2738 -4.23125,-2.7163 -4.78125,-3.1875 -1.55478,-1.3325 -8.37762,-5.2987 -15.25,-8.875 -4.73907,-2.4664 -6.25,-3.76545 -6.25,-5.40625 0,-3.8248 12.18583,-13.11815 45.59375,-34.71875 9.17492,-5.9323 22.02832,-13.2274 42.40625,-24.0625 4.125,-2.1932 7.66042,-4.3559 7.84375,-4.8125 0.18334,-0.4567 0.73486,-0.84375 1.21875,-0.84375 0.48388,0 9.61794,-4.275 20.3125,-9.5 10.6946,-5.225 19.67505,-9.5 19.96875,-9.5 0.2938,0 4.27435,-1.74 8.84375,-3.875 9.4091,-4.3963 29.045,-12.5486 32.8125,-13.625 1.375,-0.3929 3.85,-1.31135 5.5,-2.03125 3.5093,-1.531 18.4385,-6.2889 23.5,-7.5 1.925,-0.4608 6.875,-1.6638 11,-2.6875 7.9742,-1.979 18.80695,-2.19875 23.09375,-0.46875 1.4222,0.574 3.9514,2.3888 5.625,4.0625 2.5316,2.5316 3.00845,3.7135 2.78125,7.0625 -0.3526,5.1959 -7.6347,17.05195 -15.3125,24.90625 -1.6202,1.6574 -4.2416,4.73725 -5.8125,6.84375 -1.5709,2.1065 -3.1209,4.0375 -3.4375,4.3125 -0.3166,0.275 -2.3993,2.975 -4.625,6 -2.2257,3.025 -5.02765,6.3737 -6.21875,7.4375 -1.1911,1.0638 -3.14455,3.5388 -4.34375,5.5 -1.1991,1.9612 -2.80545,4.22415 -3.59375,5.03125 -3.8138,3.9043 -16.0318,24.79785 -24.875,42.53125 -6.5311,13.0968 -6.60245,13.2824 -4.09375,14.625 l 2.6875,-1.8125 1.9375,-3.40625 c 2.8643,-5.0015 10.3263,-16.19445 17.4375,-26.15625 3.4377,-4.8157 7.69895,-10.805 9.46875,-13.3125 2.9652,-4.201 15.10285,-19.1752 18.03125,-22.25 0.6922,-0.7268 1.26525,-1.6268 1.28125,-2 0.0156,-0.3732 1.8777,-2.7125 4.125,-5.1875 11.4908,-12.6553 19.3794,-27.0087 25.4375,-46.25 3.8425,-12.204 4.7785,-19.17375 3.3125,-24.90625 -0.9207,-3.6 -5.46185,-8.91125 -8.09375,-9.46875 -0.7257,-0.1537 -3.1125,-0.72965 -5.3125,-1.28125 -1.95122,-0.48928 -4.6324,-0.69485 -7.71875,-0.6875 z m -153.5625,408.75 c 7.44153,0.2232 20.85309,6.65275 25.90625,12.65625 3.7833,4.4949 6.875,9.83535 6.875,11.84375 0,1.8789 -2.16615,3.844 -3.15625,2.875 -0.1913,-0.1871 -2.36875,-0.4673 -4.84375,-0.625 -2.475,-0.1576 -6.075,-0.93665 -8,-1.71875 -1.925,-0.7821 -3.725,-1.4165 -4,-1.4375 -0.275,-0.0214 -2.37274,-1.45505 -4.65625,-3.15625 -4.77749,-3.5594 -12.16411,-13.91315 -12.5625,-17.59375 -0.2344,-2.1656 0.1651,-2.5373 3.03125,-2.8125 0.43885,-0.0421 0.91015,-0.0462 1.40625,-0.0312 z"
       id="path4033"
       inkscape:connector-curvature="0" />
    <path
       style="fill:#0b280b;fill-opacity:1"
       d="m 420.75788,587.13166 c 0.3408,6.5436 0.9035,12.0999 2.0937,20.5 0.8014,5.6557 5.3777,21.028 7.4063,24.9063 3.0303,5.7932 12.0128,14.7548 18.875,18.8437 6.1156,3.644 6.4659,4.0783 8.3125,10.0937 2.3648,7.7032 4.5757,8.026 6.6875,1 l 1.4063,-4.625 10.8124,0.2188 c 7.3105,0.1487 12.0298,-0.2385 14.5938,-1.1875 3.6153,-1.3379 8.5799,-2.8178 12.7188,-3.7813 6.9949,-1.6284 44.5937,-19.0948 44.5937,-20.7187 0,-0.4858 0.398,-0.6266 0.9063,-0.3125 0.5081,0.3142 7.3706,-2.6933 15.25,-6.6875 20.121,-10.1999 38.3884,-18.75 40.0312,-18.75 0.7658,0 1.8212,-0.3942 2.3438,-0.8437 1.806,-1.5541 11.9946,-3.495 18.9687,-3.625 7.8329,-0.1461 7.4046,0.2638 11.7813,-11.0313 5.9868,-15.4506 5.9971,-15.3437 -2.4063,-16.125 -2.9641,-0.2756 -7.85,-1.0126 -10.875,-1.625 -3.025,-0.6123 -6.4,-1.1998 -7.5,-1.3125 -2.0043,-0.2055 -14.7538,-3.8638 -26,-7.4375 -3.3,-1.0486 -8.7,-2.6498 -12,-3.5937 -9.7019,-2.7756 -41.8603,-13.4172 -43.75,-14.4688 -0.9551,-0.5315 -2.4658,-0.9375 -3.375,-0.9375 -0.9091,0 -5.7704,-1.3337 -10.7813,-2.9375 -11.9243,-3.8164 -16.8877,-4.736 -26.3124,-4.9375 -14.1138,-0.3018 -27.3,4.8184 -36.6876,14.2813 -10.7816,10.868 -15.1467,22.1266 -16.0624,41.375 -0.2727,5.7321 1.9079,15.9171 4.1874,19.5624 0.7723,1.2349 0.8739,1.5912 1.9063,6.125 0.6727,2.9543 0.672,2.9467 -1.7187,1.375 -7.3456,-4.8287 -13.4429,-22.6224 -14.4688,-42.3437 z m 64.6553,-22.094 c 5.8574,2e-4 12.3378,0.581 15.4062,1.5937 2.9751,0.9818 4.7378,1.4367 10.3438,2.5937 1.3225,0.2731 3.2086,0.9138 4.1874,1.4376 0.9788,0.5237 2.7516,0.9687 3.9688,0.9687 1.2172,0 4.9561,0.9032 8.3125,2.0313 3.3565,1.1278 7.475,2.5081 9.125,3.0624 1.65,0.5544 3.675,1.188 4.5,1.4063 7.1028,1.8793 20.1654,5.9635 23,7.1875 1.925,0.8313 4.306,1.6805 5.3125,1.875 1.0064,0.1944 2.5814,0.5472 3.5,0.8125 0.9185,0.2654 3.6,0.9898 5.9375,1.5937 2.3375,0.6041 4.25,1.464 4.25,1.9063 0,1.0271 -0.3031,1.1589 -43,21.25 -6.875,3.2351 -13.3502,6.3837 -14.375,6.9687 -1.0248,0.5849 -2.5998,1.2077 -3.5,1.4063 -0.9002,0.1986 -5.225,1.7679 -9.625,3.5 -4.4,1.732 -8.7322,3.3192 -9.625,3.5 -2.6523,0.537 -9.1575,1.6355 -12.375,2.0937 -4.7251,0.6686 -15.7034,1.0469 -19,0.6563 -6.8839,-0.8156 -9.6982,-3.4563 -9.7813,-9.25 0,-0.275 -0.3853,-1.8077 -0.8437,-3.4063 -0.4584,-1.5983 -1.0769,-4.5639 -1.375,-6.5624 -0.882,-5.9136 -1.2292,-7.1726 -4,-15.0313 -4.1202,-11.6859 -4.2897,-12.4055 -3.4687,-14.625 0.8815,-2.3828 9.6896,-10.0186 15.125,-13.125 2.009,-1.1482 6.0589,-2.5857 9,-3.1875 2.2117,-0.4526 5.4855,-0.6564 9,-0.6562 z"
       id="path4035"
       inkscape:connector-curvature="0"
       sodipodi:nodetypes="cscssccccsscssccssccccsssssscscccccccscccccccsscscccscccscccc" />
    <path
       style="fill:#0b280b;fill-opacity:1"
       d="m 331.28821,800.98593 c -0.48134,-0.31147 -1.33083,-2.61545 -1.88774,-5.11995 -0.5569,-2.5045 -1.22612,-5.1125 -1.48715,-5.79555 -0.26104,-0.68304 -0.56974,-1.61447 -0.68601,-2.06983 -0.34865,-1.36544 -6.18182,-18.94382 -6.73113,-20.28442 -2.14813,-5.2424 -2.97448,-14.82683 -1.61289,-18.70719 0.51707,-1.47356 1.9427,-3.80047 3.16806,-5.17095 2.04919,-2.29181 3.62181,-3.20436 9.98412,-5.7934 2.83229,-1.15257 2.87654,-2.18682 0.16945,-3.96059 -1.8448,-1.2087 -2.37655,-1.23694 -4.2677,-0.22603 -1.18818,0.63511 -2.67735,2.39133 -3.30927,3.90281 -2.07999,4.97514 -4.42929,1.16921 -2.46294,-3.98999 3.19059,-8.37125 5.34851,-10.47148 9.86681,-9.60297 3.67007,0.70548 11.93073,8.07659 12.63263,11.27234 1.11591,5.0807 -0.74497,8.47474 -5.23129,9.5412 -6.09786,1.44964 -16.31812,5.69694 -17.22001,7.15626 -1.11091,1.79745 -0.3513,6.51436 2.20785,13.70986 1.41822,3.98767 2.72683,7.80909 2.90804,8.49213 0.18121,0.68305 1.48279,5.34019 2.89242,10.34919 3.74163,13.29565 4.06509,18.23726 1.06675,16.29708 z"
       id="path4037"
       inkscape:connector-curvature="0" />
    <path
       style="fill:#0b280b;fill-opacity:1"
       d="m 328.19137,726.83416 c -0.64566,-0.70859 -1.50981,-2.33551 -1.92039,-3.61535 -1.17946,-3.67665 -6.2399,-14.76311 -7.62934,-16.71437 -1.07552,-1.51045 -1.33933,-1.63338 -1.78731,-0.83297 -0.28904,0.51649 -1.01511,0.93906 -1.61352,0.93906 -1.67429,0 -5.9346,-1.99041 -8.02476,-3.74912 -1.65093,-1.38915 -1.83865,-1.83532 -1.5464,-3.67426 1.31032,-8.24488 6.36551,-9.01692 12.57354,-1.9202 2.50673,2.86557 6.89651,10.96334 8.9297,16.47245 0.56007,1.51756 1.37737,3.0572 1.8162,3.42146 0.66088,0.54843 0.80309,0.0244 0.82768,-3.05056 0.16483,-20.59638 1.68559,-26.53728 7.82243,-30.55826 3.95379,-2.59063 10.30824,2.33667 8.98114,6.96405 -0.2859,0.99686 -0.51982,1.87977 -0.51982,1.96198 0,0.55518 -1.8334,-0.0414 -3.03716,-0.98825 -2.3263,-1.8299 -4.29411,-1.90448 -6.27474,-0.23788 -2.7025,2.27397 -3.36843,5.53871 -3.78652,18.56303 -0.44874,13.97993 -0.86398,16.82361 -2.59146,17.74811 -0.79639,0.42619 -1.325,0.25256 -2.21927,-0.72892 z"
       id="path4039"
       inkscape:connector-curvature="0" />
    <path
       style="fill:#0b280b;fill-opacity:1"
       d="m 607.35465,673.62591 c -2.86873,-1.5359 -5.23064,-4.60633 -6.21938,-8.08523 -0.55696,-1.95944 -0.97938,-3.88457 -0.93861,-4.27795 0.69693,-6.73593 4.79959,-15.21146 10.75591,-22.22024 2.5471,-2.99713 4.63107,-5.72989 4.63107,-6.07285 0,-0.92923 -2.39524,-2.03548 -4.3562,-2.01194 -5.61673,0.0672 -7.81322,0.75714 -10.08631,3.16705 -4.13912,4.38824 -5.78517,2.33473 -2.80035,-3.49357 3.33256,-6.50734 8.28942,-8.95672 17.24286,-8.5205 7.38358,0.35983 7.73633,6.86496 0.9308,17.16568 -1.49183,2.25799 -3.2581,4.74923 -3.92498,5.53599 -0.66689,0.78675 -1.99744,2.35219 -2.95678,3.47868 -3.3021,3.87742 -5.06958,8.38827 -4.85994,12.40274 0.12366,2.36735 3.33885,5.20324 6.01562,5.30595 9.34367,0.35848 17.10503,-1.4703 26.56207,-6.25887 8.2475,-4.17618 9.06208,-4.80401 20.74922,-15.99306 1.99586,-1.91081 2.74493,-2.27051 3.19889,-1.53604 0.62018,1.00355 -1.64296,5.6977 -4.01697,8.33184 -0.70794,0.78554 -3.00155,3.42991 -5.09683,5.87629 -6.95193,8.11683 -20.37072,15.25309 -31.95208,16.99239 -5.39973,0.81086 -11.57112,0.91328 -12.87801,0.21364 z"
       id="path4041"
       inkscape:connector-curvature="0" />
    <path
       style="fill:#0b280b;fill-opacity:1"
       d="m 462.00853,720.46751 c 0,-1.2375 0.4588,-3.8817 1.0127,-5.876 1.1256,-4.0522 -0.9112,-3.1583 33.9817,-14.9136 8.525,-2.872 22.025,-7.4531 30,-10.1801 7.975,-2.7269 18.775,-6.2881 24,-7.9137 5.225,-1.6256 12.7726,-4.2372 16.7724,-5.8035 7.0796,-2.7724 7.2999,-2.7964 8.3114,-0.9065 1.4022,2.62 -0.5602,8.4542 -3.4893,10.3734 -1.2248,0.8026 -6.2472,2.7617 -11.1607,4.3537 -4.9136,1.592 -15.9088,5.3531 -24.4338,8.3581 -8.525,3.005 -18.875,6.4951 -23,7.7557 -15.2579,4.6632 -27.7753,8.9215 -37.9435,12.908 -12.142,4.7604 -14.0588,5.012 -14.0509,1.8445 z"
       id="path4043"
       inkscape:connector-curvature="0" />
    <path
       style="fill:#0b280b;fill-opacity:1"
       d="m 104.64575,654.90004 c -2.2,-1.6166 -6.078882,-4.0326 -8.619742,-5.3689 -6.58192,-3.4615 -9.96749,-7.7369 -8.94628,-11.2977 1.46281,-5.1005 7.77362,-17.7007 10.0467,-20.0593 l 2.24468,-2.3292 2.692042,2.5792 c 1.48062,1.4185 3.19241,2.5791 3.80399,2.5791 0.61157,0 1.26194,0.3749 1.44528,0.8332 0.18333,0.4582 3.40956,2.5436 7.1694,4.6342 9.2447,5.1403 10.95548,7.0795 10.34965,11.7315 -0.64252,4.9338 -6.58513,17.6769 -8.79497,18.8596 -3.09228,1.6549 -7.27778,0.8606 -11.39075,-2.1617 z"
       id="path4045"
       inkscape:connector-curvature="0" />
    <path
       style="fill:#0b280b;fill-opacity:1"
       d="m 90.343078,611.47214 c -3.46647,-1.9295 -8.52117,-5.0342 -11.23267,-6.8994 -2.7115,-1.8652 -5.4123,-3.552 -6.00178,-3.7485 -2.12478,-0.7083 -1.60237,-4.4619 1.69481,-12.1772 5.74729,-13.4486 8.34954,-15.7331 13.45745,-11.814 1.31167,1.0064 3.05986,2.1432 3.88486,2.5263 5.38188,2.4993 15.689152,9.6686 16.648042,11.5798 0.93105,1.8556 0.75315,3.2592 -0.94119,7.4261 -1.14908,2.8259 -3.1282,6.705 -4.39805,8.6201 -1.26984,1.9152 -2.3088,4.0369 -2.3088,4.7148 0,1.0052 -2.962862,3.3359 -4.184262,3.2916 -0.17366,-0.01 -3.15194,-1.5901 -6.61841,-3.5196 z"
       id="path4047"
       inkscape:connector-curvature="0" />
    <path
       style="fill:#0b280b;fill-opacity:1"
       d="m 69.380295,654.17087 -0.0854,9.45963 0.5789,10.6962 c 1.5064,27.8311 12.9099,49.3054 26.8586,50.5784 5.229305,0.4773 8.992905,-1.223 13.954505,-6.304 4.3044,-4.408 10.5126,-13.2569 11.4741,-16.3546 0.3796,-1.223 1.4632,-3.3486 2.40809,-4.7236 0.9448,-1.375 3.8628,-7.9 6.4845,-14.5 6.2091,-15.6314 7.9377,-19.2997 13.9009,-29.5 11.4294,-19.5503 24.0985,-32.7593 38.1343,-39.7594 4.9309,-2.4592 10.9723,-4.4804 13.5,-4.5165 0.275,0 1.6617,-0.3403 3.0816,-0.7475 5.9684,-1.7117 13.4158,4.4197 19.4624,16.0234 13.5379,25.9799 24.2271,33.6476 46.6137,33.4375 5.012,-0.047 8.9112,-0.904 15.7745,-3.4671 14.4705,-5.404 22.9094,-13.2098 34.0364,-31.4832 4.9345,-8.1038 12.29311,-16.3 15.79841,-17.5967 3.6522,-1.351 4.3229,0.3413 4.6368,11.7001 l -9.366,23.1594 c -0.075,-7.4646 -5.90041,-2.8442 -13.55331,10.75 -4.0414,7.1789 -8.0267,12.601 -13.9845,19.0257 -7.5921,8.1872 -25.2562,15.6244 -37.1837,15.6555 -3.951,0.01 -7.611,-0.2453 -8.1333,-0.5681 -0.5223,-0.3228 -2.6896,-0.844 -4.8163,-1.1583 -8.7496,-1.2929 -12.6828,-3.1353 -19.1978,-8.9928 -6.5286,-5.8698 -10.8305,-11.8159 -16.5589,-22.8877 -7.2345,-13.9828 -10.1655,-16.2192 -19.9201,-15.1997 -13.0512,1.3641 -31.8536,16.1833 -43.086,33.9582 -3.0779,4.8708 -12.6039,23.9434 -12.6039,25.2352 0,1.0573 -6.0743,14.6778 -10.5239,23.5978 -5.19109,10.4066 -11.36789,18.4149 -17.49679,22.6848 -3.6521,2.5444 -5.4772,3.1372 -9.5,3.086 -2.738605,-0.035 -5.879305,-0.4337 -6.979305,-0.8864 -6.4717,-2.6633 -19.7029,-18.8789 -22.4797,-27.5502 -0.7045,-2.2 -1.6203,-4.45 -2.0352,-5 -2.3057,-3.0571 -5.8131,-24.2687 -5.9213,-35.81 l -0.064,-6.8101 c 0.22457,-4.42168 1.36305,-8.57358 2.5533,-12.79825 1.74316,-8.70802 4.84713,-10.33276 4.23844,-2.43368 z"
       id="path4049"
       inkscape:connector-curvature="0"
       sodipodi:nodetypes="ccscsscsssccsssssccsscscsssssssccsccccc" />
    <path
       style="fill:#0b280b;fill-opacity:1"
       d="m 187.44363,531.78729 c -1.2457,-1.3497 -3.35038,-5.7677 -4.67707,-9.8176 -2.70641,-8.2617 -11.56426,-24.7254 -13.75519,-25.5661 -0.7858,-0.3015 -2.00717,0.2428 -2.71416,1.2097 -1.14104,1.5605 -1.72538,1.6155 -5.20196,0.4901 -6.83724,-2.2133 -11.22128,-4.8747 -13.97298,-8.4823 -2.35244,-3.0842 -2.58852,-4.0624 -1.97228,-8.1718 0.77276,-5.1532 4.95062,-10.3431 8.32609,-10.3431 2.95771,0 10.02016,2.7113 12.83983,4.9292 1.37888,1.0847 4.14156,4.1318 6.13929,6.7715 1.99772,2.6396 3.99027,4.9493 4.42788,5.1326 0.43761,0.1834 0.79565,0.7773 0.79565,1.3199 0,0.5425 1.28297,2.8675 2.85104,5.1666 2.38907,3.5029 5.72132,10.9401 8.48162,18.9302 0.97262,2.8154 2.53394,2.0106 2.0505,-1.0568 -1.0576,-6.7106 -0.91788,-32.2817 0.21307,-38.9937 2.18647,-12.9766 8.50985,-21.6665 14.87987,-20.4488 2.8866,0.5518 10.2714,8.3951 11.13171,11.8228 0.69015,2.7498 -1.13838,6.4265 -3.19605,6.4265 -0.83483,0 -3.17345,-1.125 -5.19695,-2.5 -5.25108,-3.5682 -7.6044,-3.2696 -9.85087,1.25 -1.67429,3.3685 -1.87073,6.4971 -1.93066,30.75 -0.0528,21.3639 -0.36786,27.6262 -1.50936,30 -1.88071,3.9109 -5.19663,4.391 -8.15902,1.1811 z"
       id="path4051"
       inkscape:connector-curvature="0" />
    <path
       style="fill:#0b280b;fill-opacity:1"
       d="m 52.039957,644.72268 c -1.75234,-0.7699 -4.32973,-3.1281 -5.72753,-5.2403 -3.42832,-5.1805 -4.08769,-15.8821 -1.59809,-25.9366 4.52438,-18.2723 12.49059,-37.3733 15.58681,-37.3733 2.334,0 1.68823,4.7627 -2.16835,15.9921 -7.23749,21.0737 -8.64768,33.9937 -4.22427,38.7022 3.02377,3.2186 6.57364,3.0206 7.96346,-0.4443 2.406,-5.9982 3.26162,-7.25 4.95564,-7.25 5.52545,0 2.00525,16.2165 -4.55588,20.9876 -2.79611,2.0333 -6.43009,2.2331 -10.23179,0.5626 z"
       id="path4053"
       inkscape:connector-curvature="0" />
    <path
       style="fill:#0b280b;fill-opacity:1"
       d="m 262.71943,617.81641 c -5.087,-5.087 -6.5384,-9.6594 -5.752,-18.1206 1.0517,-11.3159 8.0494,-31.4271 16.3283,-46.9275 5.4035,-10.1166 7.3848,-6.7277 2.4044,4.1125 -2.9961,6.5212 -8.9639,22.7883 -9.6559,26.3198 -0.2155,1.1 -0.9015,4.1534 -1.5245,6.7854 -1.6906,7.1432 -0.4188,13.4119 3.5201,17.3508 3.8793,3.8793 6.7992,3.624 8.6121,-0.7529 1.5012,-3.6241 2.6439,-4.3836 4.4013,-2.9251 1.6097,1.3359 1.1124,5.7308 -1.2707,11.2317 -1.1933,2.7542 -2.6617,4.1862 -5.4276,5.2929 -5.6392,2.2564 -7.3627,1.9058 -11.6355,-2.367 z"
       id="path4055"
       inkscape:connector-curvature="0" />
    <path
       style="fill:#0b280b;fill-opacity:1"
       d="m 206.59186,578.60604 c -0.68553,-1.1093 1.2319,-8.3032 2.76653,-10.3797 1.41927,-1.9204 17.11575,-10.1893 26.11626,-13.758 3.3,-1.3084 6.45,-2.6986 7,-3.0892 0.55,-0.3905 3.925,-1.7273 7.5,-2.9704 3.575,-1.2432 8.3,-3.0457 10.5,-4.0055 2.2,-0.9598 8.05,-3.1786 13,-4.9307 4.95,-1.7521 11.7,-4.2373 15,-5.5226 9.2456,-3.6011 24.29949,-9.1225 31.5,-11.5535 3.575,-1.207 12.73595,-4.4111 20.35766,-7.1204 14.92511,-5.3053 17.12469,-5.3018 16.2406,0.026 -0.23859,1.4378 -0.4708,3.2021 -0.51603,3.9205 -0.0723,1.1478 -7.4624,5.0965 -10.47327,5.5961 -1.00314,0.1665 -10.43501,3.662 -18.10896,6.7113 -1.65,0.6556 -3.69533,1.3314 -4.54517,1.5017 -0.84984,0.1703 -11.64984,4.1562 -24,8.8576 -12.35016,4.7015 -24.92983,9.4849 -27.95483,10.63 -7.04329,2.6661 -14.94152,5.7641 -17.5,6.8642 -1.1,0.473 -5.6,2.3033 -10,4.0675 -8.35364,3.3492 -21.64465,9.4036 -29.73159,13.5433 -5.07065,2.5956 -6.36308,2.8869 -7.1512,1.6117 z"
       id="path4057"
       inkscape:connector-curvature="0" />
    <path
       style="fill:#0b280b;fill-opacity:1"
       d="m 215.81459,432.44768 c -3.3766,-3.3765 -6.1638,-11.9983 -5.531,-17.1089 1.3936,-11.2551 3.5118,-21.3155 5.3879,-25.5892 1.1803,-2.689 2.6831,-6.9141 3.3394,-9.3891 0.894,-3.3715 1.6785,-4.5 3.1279,-4.5 2.902,0 2.2566,6.4542 -1.8234,18.2338 -3.9337,11.3572 -4.757,20.4025 -2.2912,25.171 3.0191,5.8382 10.2791,5.071 12.9706,-1.3708 1.6346,-3.9119 3.0173,-4.4515 4.4668,-1.743 1.366,2.5523 -4.049,13.4672 -8.2834,16.6969 -4.3563,3.3228 -7.7602,3.2028 -11.3636,-0.4007 z"
       id="path4059"
       inkscape:connector-curvature="0" />
    <path
       style="fill:#0b280b;fill-opacity:1"
       d="m 157.189,695.54905 c -2.05712,-0.0741 -3.14852,0.77689 -3.76766,2.55296 -1.12896,3.23852 -0.89105,6.11014 0.63824,7.49414 0.97802,0.88526 1.26774,1.7107 0.98824,2.90292 -0.98238,4.19059 -1.12104,5.70912 -0.72059,8.37947 0.52189,3.48024 2.95659,5.99959 6.34118,6.54708 4.18267,0.67648 4.33816,1.07389 1.85296,4.96182 -5.07739,7.943 -24.16961,28.50633 -34.15599,36.79126 -5.60448,4.6496 -8.39386,7.17311 -14.47359,13.03243 -4.44275,4.28158 -5.46732,5.58263 -4.71472,6.0529 1.16107,0.72577 3.67737,-0.64795 7.20591,-3.93233 1.36253,-1.26825 3.64106,-3.1733 5.06472,-4.24119 1.42366,-1.06795 2.76552,-2.21359 2.9853,-2.5324 0.21978,-0.31867 1.14358,-1.08198 2.05883,-1.68817 9.94279,-6.58609 21.86002,-17.49446 29.50304,-27.03248 1.26816,-1.58257 2.61103,-3.21316 2.98531,-3.62354 2.063,-2.26194 5.10783,-7.09384 8.02943,-12.76475 0.98009,-1.90236 2.07255,-3.46542 2.45002,-3.45884 0.37745,0.006 1.96725,0.4677 3.5206,1.00886 1.55336,0.54096 3.77689,0.80976 4.94119,0.61758 2.25315,-0.37157 5.0323,-2.94646 5.16767,-4.79703 0.045,-0.6139 0.13871,-2.20358 0.22647,-3.54119 0.27569,-4.20206 -1.76421,-8.8624 -5.33237,-12.1471 -4.91834,-4.52772 -7.98801,-6.45051 -14.04123,-8.77062 -2.97864,-1.14168 -5.15298,-1.75413 -6.75296,-1.81178 z m 5.92943,11.77651 c 0.2668,-0.0184 0.53702,0.006 0.84412,0.0823 1.95026,0.49485 2.93372,2.02325 3.5206,5.49711 0.51861,3.06959 -0.0997,3.59778 -3.25295,2.77939 -1.08707,-0.28212 -2.79177,-0.67906 -3.78824,-0.88527 -2.43551,-0.50426 -2.41777,-2.78077 0.0617,-5.62065 1.10455,-1.26507 1.81434,-1.79687 2.61471,-1.85294 z m 8.87357,3.41766 c 1.07398,-0.0727 7.06178,5.69997 7.06178,6.8765 0,1.12316 -2.23816,1.24683 -5.1059,0.28824 -2.72258,-0.91004 -2.80001,-1.0173 -2.80001,-3.80887 0,-1.57901 0.34358,-3.07685 0.76176,-3.33524 0.024,-0.0151 0.0477,-0.0184 0.0823,-0.0204 z"
       id="path4061"
       inkscape:connector-curvature="0" />
    <path
       style="fill:#0b280b;fill-opacity:1"
       d="m 491.08517,493.7612 c -0.70118,-0.2819 -1.9897,-2.1589 -2.86339,-4.171 -3.14664,-7.2467 -6.20609,-15.1584 -5.86175,-15.1584 0.69936,0 -4.49662,-12.3185 -6.99212,-16.5768 -2.30879,-3.9396 -2.8434,-4.3061 -5.50514,-3.7737 -5.73852,1.1477 -17.06937,-5.2 -19.46887,-10.9068 -1.02739,-2.4434 -1.00736,-3.8418 0.10813,-7.5483 3.53097,-11.7325 11.59639,-11.8062 23.5525,-0.215 6.52294,6.3238 10.90256,14.4532 15.79919,29.3263 1.77556,5.3931 3.43611,9.5978 3.6901,9.3438 0.254,-0.254 0.63692,-6.7431 0.85092,-14.4204 0.21401,-7.6772 0.59557,-15.2569 0.84791,-16.8438 0.25234,-1.5869 0.80483,-5.3603 1.22777,-8.3853 0.42293,-3.025 0.81118,-5.725 0.86276,-6 0.65505,-3.4922 4.50002,-11.1947 6.84079,-13.7038 2.85675,-3.0622 7.4782,-4.9706 10.68606,-4.4127 3.43592,0.5976 9.06319,5.3312 10.54922,8.8738 1.41793,3.3804 1.4205,4.0574 0.0265,6.9927 -0.84886,1.7875 -2.03026,3.25 -2.62531,3.25 -1.60482,0 -4.83615,-1.8857 -7.08509,-4.1346 -1.33018,-1.3302 -3.01685,-1.8816 -5.12198,-1.6744 -7.19298,0.7081 -10.19786,14.4736 -10.81252,49.5327 -0.32773,18.693 -2.23519,23.2078 -8.70571,20.6057 z"
       id="path4063"
       inkscape:connector-curvature="0" />
    <path
       style="fill:#0b280b;fill-opacity:1"
       d="m 276.17245,225.53525 c -0.2725,-0.0115 -0.57202,0.04 -0.875,0.1562 -0.76716,0.2944 -3.56407,7.3743 -6.21875,15.75 -5.76449,18.1874 -5.68161,17.8047 -5.875,26.0626 -0.18599,7.9414 1.89517,12.1171 7.40625,14.8437 3.81853,1.8893 5.37998,1.9242 12,0.2813 5.42688,-1.3469 9.35876,-4.8949 12.78125,-11.5626 4.83513,-9.4199 3.72604,-16.0382 -3.78125,-22.8124 -2.2548,-2.0346 -6.34572,-4.6482 -9.125,-5.8438 -5.46422,-2.3507 -5.78896,-3.1273 -4.15625,-10.1562 0.8385,-3.6098 -0.24877,-6.6385 -2.15625,-6.7188 z m -2.71875,26.9375 c 2.28559,0 14.26554,6.5763 16,8.7813 2.65058,3.3695 2.54388,3.8045 -1.8125,6.6874 -2.08076,1.377 -5.84651,2.7784 -8.375,3.125 -3.85969,0.529 -4.93927,0.3108 -6.71875,-1.4687 -2.12525,-2.1252 -2.49902,-3.4747 -2.1875,-8.125 0.24577,-3.6687 2.08133,-9 3.09375,-9 z"
       id="path4065"
       inkscape:connector-curvature="0" />
    <path
       inkscape:connector-curvature="0"
       id="path4067"
       style="font-size:20px;font-style:normal;font-variant:normal;font-weight:normal;font-stretch:normal;line-height:125%;letter-spacing:0px;word-spacing:0px;writing-mode:lr-tb;fill:#0b280b;fill-opacity:1;stroke:none;font-family:Nafees Naskh;-inkscape-font-specification:Nafees Naskh"
       d="m 32.815727,492.58255 c 3e-4,1.76159 0.3086,3.61335 0.9254,5.55526 0.617,1.94214 1.456,3.70772 2.5171,5.29679 1.0616,1.58913 2.3851,2.91307 3.9716,3.9716 1.5865,1.05902 3.3522,1.58791 5.2967,1.5877 6.0012,2.1e-4 11.1644,-1.63226 15.4901,-4.89674 4.3258,-3.26444 6.4886,-8.07494 6.4886,-14.43164 -2.2948,1.41138 -4.8549,2.73531 -7.6803,3.97155 -2.8255,1.23653 -5.7386,1.85453 -8.7392,1.85441 -3.0005,1.2e-4 -5.8691,-1.23522 -8.6056,-3.7048 -2.7366,-2.46991 -4.1049,-5.20507 -4.1049,-8.2057 0,-0.88304 0.2647,-1.85584 0.7958,-2.91708 0.5308,-1.0617 1.1929,-2.12101 1.9877,-3.1796 0.7943,-1.05913 1.5892,-2.02818 2.3838,-2.90896 0.7944,-0.88039 1.4558,-1.58776 1.9838,-2.12118 3.3507,-3.5283 7.6305,-7.49854 12.8398,-11.91062 5.209,-4.41172 10.8588,-8.51524 16.9486,-12.31052 6.0899,-3.79494 12.2675,-6.9732 18.5327,-9.53478 6.264803,-2.56136 12.223003,-3.84216 17.873903,-3.84225 2.8225,9e-5 5.3814,0.48615 7.6764,1.45835 2.2948,0.97316 3.8839,2.95894 4.7673,5.95945 0.8831,3.00062 0.9282,5.82479 0.1352,8.47228 -0.7944,2.64776 -1.8545,5.07468 -3.1796,7.2805 -1.3255,2.20599 -2.6048,4.2356 -3.8383,6.08858 -1.2339,1.85325 -1.8505,3.31047 -1.8505,4.3716 1.7614,-1.23921 3.7022,-3.1378 5.8222,-5.69675 2.1196,-2.55872 4.1059,-5.33839 5.9592,-8.33901 1.8528,-3.00044 3.3088,-6.17745 4.3673,-9.53091 1.0593,-3.35328 1.4988,-6.44124 1.3213,-9.2642 -0.3492,-4.06162 -1.8059,-7.41642 -4.3675,-10.06418 -2.5615,-2.64755 -5.8704,-3.97145 -9.9266,-3.97157 -5.6512,1.2e-4 -11.3007,1.10283 -16.9489,3.30901 -5.648103,2.20602 -10.856003,4.54533 -15.623403,7.01783 -5.6457,2.64514 -11.6023,5.99845 -17.8698,10.06019 -6.2679,4.06181 -12.0049,8.65156 -17.2115,13.76908 -5.2064,5.11764 -9.5308,10.76578 -12.9731,16.94454 -3.4425,6.17891 -5.1635,12.79958 -5.1635,19.86177 z"
       sodipodi:nodetypes="cccccsccccscccccccccccccccccccccccsscc" />
    <g
       style="font-size:40px;font-style:normal;font-variant:normal;font-weight:normal;font-stretch:normal;line-height:125%;letter-spacing:0px;word-spacing:0px;writing-mode:lr-tb;fill:#0b280b;fill-opacity:1;stroke:none;font-family:Tholoth;-inkscape-font-specification:Tholoth"
       id="g4069"
       transform="matrix(6.3561189,0.56680586,-0.56680586,6.3561189,-4074.9488,-844.90649)">
      <path
         style="fill:#0b280b;fill-opacity:1"
         d="m 664.92429,158.23114 c -1.82386,1.459 -3.96321,2.65432 -5.82486,3.45811 -1.29726,0.55682 -1.96919,0.75578 -2.01581,0.59686 -0.0183,-0.0636 0.14521,-0.17723 0.49055,-0.34079 0.34534,-0.1635 0.88145,-0.42434 1.60832,-0.78252 0.72688,-0.35813 1.28049,-0.73285 1.91236,-1.1466 l 1.46572,-1.04592 z"
         id="path4071"
         inkscape:connector-curvature="0"
         sodipodi:nodetypes="cccccccc" />
    </g>
    <g
       id="g4073"
       style="font-size:40px;font-style:normal;font-variant:normal;font-weight:normal;font-stretch:normal;line-height:125%;letter-spacing:0px;word-spacing:0px;fill:#0b280b;fill-opacity:1;stroke:none;font-family:Amiri;-inkscape-font-specification:Amiri"
       transform="matrix(6.3813413,0,0,6.3813413,-4032.6612,-386.74222)">
      <path
         style="fill:#0b280b;fill-opacity:1"
         id="path4075"
         d="m 646.39513,133.50058 c 0.0521,-0.013 0.10415,-0.0195 0.15625,-0.0195 0.39061,5e-5 0.72264,0.2214 0.99609,0.66407 0.32551,0.50785 0.48827,1.10681 0.48828,1.79687 -10e-6,0.70317 -0.16928,1.49744 -0.50781,2.38281 0.42967,0.24744 0.74217,0.41671 0.9375,0.50782 0.23436,0.0912 0.35155,0.23441 0.35156,0.42968 -10e-6,0.10421 -0.0391,0.22791 -0.11719,0.3711 l -0.44921,0.85937 c -0.10418,0.20837 -0.2409,0.31254 -0.41016,0.3125 -0.0651,4e-5 -0.13022,-0.013 -0.19531,-0.0391 -0.24741,-0.0911 -0.60548,-0.26689 -1.07422,-0.52734 -1.83595,2.43493 -3.92579,4.23831 -6.26953,5.41015 -0.23438,0.11722 -0.43621,0.17582 -0.60547,0.17578 -0.19532,4e-5 -0.34506,-0.0911 -0.44922,-0.27343 -0.0521,-0.10414 -2.69818,1.59754 -2.69818,1.50636 3.98915,-2.40579 6.96764,-4.56733 8.98727,-7.4048 -0.75522,-0.39058 -1.31511,-0.76819 -1.67969,-1.13281 -0.44271,-0.41663 -0.66407,-0.85283 -0.66406,-1.3086 -1e-5,-0.20829 0.0456,-0.42313 0.13672,-0.64453 0.76822,-1.84891 1.79035,-2.87105 3.06641,-3.0664 z m -0.41016,2.59766 c -0.28647,-0.26037 -0.54038,-0.39058 -0.76172,-0.39063 -0.26043,5e-5 -0.48829,0.16281 -0.68359,0.48828 -0.026,0.0391 -0.0391,0.0847 -0.0391,0.13672 -10e-6,0.13025 0.0846,0.27999 0.2539,0.44922 0.23437,0.26046 0.78124,0.599 1.64063,1.01563 0.026,-0.18225 0.0391,-0.35152 0.0391,-0.50782 -10e-6,-0.53381 -0.14975,-0.93094 -0.44922,-1.1914 z"
         inkscape:connector-curvature="0"
         sodipodi:nodetypes="cccccccccccccccccccccccccccccc" />
    </g>
  </g>
  <g
     id="layer2"
     style="display:none">
    <rect
       width="86"
       height="85"
       rx="6"
       ry="6"
       x="5"
       y="7"
       id="rect3745"
       style="opacity:0.9;fill:url(#ButtonShadow);fill-opacity:1;fill-rule:nonzero;stroke:none;filter:url(#filter3174)" />
  </g>
  <g
     id="layer2-1"
     style="display:none"
     transform="translate(116.15632,-78.42399)">
    <rect
       width="86"
       height="85"
       rx="6"
       ry="6"
       x="5"
       y="7"
       id="rect3745-6"
       style="opacity:0.9;fill:url(#ButtonShadow-4);fill-opacity:1;fill-rule:nonzero;stroke:none;filter:url(#filter3174-2)" />
  </g>
  <g
     id="layer3">
    <path
       inkscape:connector-curvature="0"
       d="m 12,-95.03125 c -5.5110903,0 -10.03125,4.52016 -10.03125,10.03125 l 0,71 c 0,5.5110902 4.5201598,10.03125 10.03125,10.03125 l 72,0 c 5.51109,0 10.03125,-4.5201597 10.03125,-10.03125 l 0,-71 c 0,-5.51109 -4.52016,-10.03125 -10.03125,-10.03125 l -72,0 z"
       transform="scale(1,-1)"
       id="path3786"
       style="opacity:0.07999998;fill:url(#linearGradient3026);fill-opacity:1;fill-rule:nonzero;stroke:none;display:inline" />
    <path
       inkscape:connector-curvature="0"
       d="m 12,-94.03125 c -4.971633,0 -9.03125,4.059617 -9.03125,9.03125 l 0,71 c 0,4.9716329 4.0596171,9.03125 9.03125,9.03125 l 72,0 c 4.971633,0 9.03125,-4.059617 9.03125,-9.03125 l 0,-71 c 0,-4.971633 -4.059617,-9.03125 -9.03125,-9.03125 l -72,0 z"
       transform="scale(1,-1)"
       id="path3778"
       style="opacity:0.1;fill:url(#linearGradient3780);fill-opacity:1;fill-rule:nonzero;stroke:none;display:inline" />
    <path
       inkscape:connector-curvature="0"
       d="m 12,-93 c -4.4091333,0 -8,3.590867 -8,8 l 0,71 c 0,4.4091333 3.5908667,8 8,8 l 72,0 c 4.409133,0 8,-3.5908667 8,-8 l 0,-71 c 0,-4.409133 -3.590867,-8 -8,-8 l -72,0 z"
       transform="scale(1,-1)"
       id="path3770"
       style="opacity:0.2;fill:url(#linearGradient3772);fill-opacity:1;fill-rule:nonzero;stroke:none;display:inline" />
    <rect
       width="86"
       height="85"
       rx="7"
       ry="7"
       x="5"
       y="-92"
       transform="scale(1,-1)"
       id="rect3723"
       style="opacity:0.3;fill:url(#linearGradient3725);fill-opacity:1;fill-rule:nonzero;stroke:none;display:inline" />
    <rect
       width="84"
       height="84"
       rx="6"
       ry="6"
       x="6"
       y="-91"
       transform="scale(1,-1)"
       id="rect3716"
       style="opacity:0.45;fill:url(#linearGradient3721);fill-opacity:1;fill-rule:nonzero;stroke:none;display:inline" />
  </g>
  <rect
     style="fill:url(#linearGradient3131);fill-opacity:1;fill-rule:nonzero;stroke:none;display:inline"
     id="rect2419-5"
     y="6"
     x="6"
     ry="6"
     rx="6"
     height="84"
     width="84" />
  <path
     style="opacity:0.35;fill:url(#linearGradient3128);fill-opacity:1;fill-rule:nonzero;stroke:none"
     id="rect3728"
     inkscape:connector-curvature="0"
     d="M 12,6 C 8.6759996,6 5.9999996,8.676 5.9999996,12 l 0,2 0,68 0,2 c 0,0.334721 0.04135,0.6507 0.09375,0.96875 0.0487,0.295596 0.09704,0.596915 0.1875,0.875 0.0099,0.03038 0.02089,0.0636 0.03125,0.09375 0.09886,0.287771 0.234881,0.547452 0.375,0.8125 0.144592,0.273507 0.315617,0.535615 0.5,0.78125 0.184384,0.245635 0.373777,0.473472 0.59375,0.6875 0.439947,0.428056 0.94291,0.814526 1.5,1.09375 0.278545,0.139612 0.573474,0.246947 0.8750004,0.34375 -0.2562014,-0.100222 -0.4867104,-0.236272 -0.7187504,-0.375 -0.0074,-0.0044 -0.02387,0.0045 -0.03125,0 -0.03193,-0.0193 -0.06229,-0.04251 -0.09375,-0.0625 -0.120395,-0.0767 -0.231022,-0.163513 -0.34375,-0.25 -0.106172,-0.0808 -0.21328,-0.161112 -0.3125,-0.25 -0.177929,-0.161433 -0.347459,-0.345388 -0.5,-0.53125 -0.107578,-0.130255 -0.218393,-0.265285 -0.3125,-0.40625 -0.02509,-0.03838 -0.03845,-0.08587 -0.0625,-0.125 -0.06476,-0.103032 -0.130227,-0.204517 -0.1875,-0.3125 -0.101008,-0.194706 -0.205674,-0.415701 -0.28125,-0.625 -0.008,-0.02181 -0.02359,-0.04055 -0.03125,-0.0625 -0.03183,-0.09195 -0.0358,-0.186831 -0.0625,-0.28125 -0.03033,-0.106618 -0.07039,-0.203031 -0.09375,-0.3125 -0.07288,-0.341512 -0.125,-0.698205 -0.125,-1.0625 l 0,-2 0,-68 0,-2 c 0,-2.781848 2.218152,-5 5.0000004,-5 l 2,0 68,0 2,0 c 2.781847,0 4.999997,2.218152 4.999997,5 l 0,2 0,68 0,2 c 0,0.364295 -0.0521,0.720988 -0.125,1.0625 -0.0442,0.206893 -0.0884,0.397658 -0.15625,0.59375 -0.008,0.02195 -0.0233,0.04069 -0.0312,0.0625 -0.0627,0.173739 -0.13838,0.367449 -0.21875,0.53125 -0.0416,0.0828 -0.079,0.169954 -0.125,0.25 -0.0546,0.09721 -0.12677,0.18835 -0.1875,0.28125 -0.0941,0.140965 -0.20492,0.275995 -0.3125,0.40625 -0.14317,0.17445 -0.30314,0.346998 -0.46875,0.5 -0.0112,0.0102 -0.02,0.02115 -0.0312,0.03125 -0.13838,0.125556 -0.28509,0.234436 -0.4375,0.34375 -0.10257,0.07315 -0.20431,0.153364 -0.3125,0.21875 -0.007,0.0045 -0.0238,-0.0044 -0.0312,0 -0.232036,0.138728 -0.462545,0.274778 -0.718747,0.375 0.301527,-0.0968 0.596455,-0.204138 0.874997,-0.34375 0.55709,-0.279224 1.06006,-0.665694 1.5,-1.09375 0.21998,-0.214028 0.40937,-0.441865 0.59375,-0.6875 0.18439,-0.245635 0.35541,-0.507743 0.5,-0.78125 0.14012,-0.265048 0.27614,-0.524729 0.375,-0.8125 0.0104,-0.03078 0.0213,-0.06274 0.0312,-0.09375 0.0905,-0.278085 0.1388,-0.579404 0.1875,-0.875 0.0524,-0.31805 0.0937,-0.634029 0.0937,-0.96875 l 0,-2 0,-68 0,-2 c 0,-3.324 -2.676,-6 -5.999997,-6 l -72,0 z" />
  <path
     style="opacity:0.2;fill:url(#radialGradient3125);fill-opacity:1;fill-rule:nonzero;stroke:none"
     id="path3615"
     inkscape:connector-curvature="0"
     d="M 12,90 C 8.676,90 6,87.324 6,84 L 6,82 6,14 6,12 c 0,-0.334721 0.04135,-0.6507 0.09375,-0.96875 0.0487,-0.295596 0.09704,-0.596915 0.1875,-0.875 C 6.29113,10.12587 6.302142,10.09265 6.3125,10.0625 6.411365,9.774729 6.5473802,9.515048 6.6875,9.25 6.8320918,8.976493 7.0031161,8.714385 7.1875,8.46875 7.3718839,8.223115 7.5612765,7.995278 7.78125,7.78125 8.221197,7.353194 8.72416,6.966724 9.28125,6.6875 9.559795,6.547888 9.8547231,6.440553 10.15625,6.34375 9.9000482,6.443972 9.6695391,6.580022 9.4375,6.71875 c -0.00741,0.0044 -0.023866,-0.0045 -0.03125,0 -0.031933,0.0193 -0.062293,0.04251 -0.09375,0.0625 -0.120395,0.0767 -0.2310226,0.163513 -0.34375,0.25 -0.1061728,0.0808 -0.2132809,0.161112 -0.3125,0.25 C 8.4783201,7.442683 8.3087904,7.626638 8.15625,7.8125 8.0486711,7.942755 7.9378561,8.077785 7.84375,8.21875 7.818661,8.25713 7.805304,8.30462 7.78125,8.34375 7.716487,8.446782 7.6510225,8.548267 7.59375,8.65625 7.4927417,8.850956 7.3880752,9.071951 7.3125,9.28125 7.30454,9.30306 7.288911,9.3218 7.28125,9.34375 7.2494249,9.4357 7.2454455,9.530581 7.21875,9.625 7.1884177,9.731618 7.1483606,9.828031 7.125,9.9375 7.0521214,10.279012 7,10.635705 7,11 l 0,2 0,68 0,2 c 0,2.781848 2.2181517,5 5,5 l 2,0 68,0 2,0 c 2.781848,0 5,-2.218152 5,-5 l 0,-2 0,-68 0,-2 C 89,10.635705 88.94788,10.279012 88.875,9.9375 88.83085,9.730607 88.78662,9.539842 88.71875,9.34375 88.71105,9.3218 88.69545,9.30306 88.6875,9.28125 88.62476,9.107511 88.549117,8.913801 88.46875,8.75 88.42717,8.6672 88.38971,8.580046 88.34375,8.5 88.28915,8.40279 88.216976,8.31165 88.15625,8.21875 88.06214,8.077785 87.951329,7.942755 87.84375,7.8125 87.700576,7.63805 87.540609,7.465502 87.375,7.3125 87.36383,7.3023 87.35502,7.29135 87.34375,7.28125 87.205364,7.155694 87.058659,7.046814 86.90625,6.9375 86.803679,6.86435 86.701932,6.784136 86.59375,6.71875 c -0.0074,-0.0045 -0.02384,0.0044 -0.03125,0 -0.232039,-0.138728 -0.462548,-0.274778 -0.71875,-0.375 0.301527,0.0968 0.596455,0.204138 0.875,0.34375 0.55709,0.279224 1.060053,0.665694 1.5,1.09375 0.219973,0.214028 0.409366,0.441865 0.59375,0.6875 0.184384,0.245635 0.355408,0.507743 0.5,0.78125 0.14012,0.265048 0.276135,0.524729 0.375,0.8125 0.01041,0.03078 0.02133,0.06274 0.03125,0.09375 0.09046,0.278085 0.1388,0.579404 0.1875,0.875 C 89.95865,11.3493 90,11.665279 90,12 l 0,2 0,68 0,2 c 0,3.324 -2.676,6 -6,6 l -72,0 z" />
  <g
     id="layer5"
     style="display:inline">
    <rect
       width="66"
       height="66"
       rx="12"
       ry="12"
       x="15"
       y="15"
       clip-path="url(#clipPath3613)"
       id="rect3171"
       style="opacity:0.1;fill:url(#linearGradient3613);fill-opacity:1;fill-rule:nonzero;stroke:#ffffff;stroke-width:0.5;stroke-linecap:round;stroke-linejoin:miter;stroke-miterlimit:4;stroke-opacity:1;stroke-dasharray:none;stroke-dashoffset:0;filter:url(#filter3794)" />
  </g>
  <path
     style="fill:url(#linearGradient3211);fill-opacity:1;stroke:none"
     d="m 47.98394,7.5143183 -11.851818,11.8518177 -16.765987,0 0,16.798105 -11.8518173,11.851818 11.8518173,11.851818 0,16.765987 16.765987,0 11.851818,11.851818 11.851818,-11.851818 16.798105,0 0,-16.765987 11.851819,-11.851818 -11.851819,-11.851818 0,-16.798105 -16.798105,0 L 47.98394,7.5143183 z m -0.160594,3.7578927 a 1.4209859,1.4209859 0 0 1 1.188394,0.417544 l 9.924693,9.924694 14.035892,0 a 1.4209859,1.4209859 0 0 1 1.413225,1.413225 l 0,14.035892 9.956812,9.956813 a 1.4209859,1.4209859 0 0 1 0,1.991362 l -9.956812,9.956811 0,14.035893 a 1.4209859,1.4209859 0 0 1 -1.413225,1.413226 l -14.035892,0 -9.924693,9.924692 a 1.4209859,1.4209859 0 0 1 -2.023482,0 l -9.924693,-9.924692 -14.035892,0 a 1.4209859,1.4209859 0 0 1 -1.413225,-1.413226 l 0,-14.035893 -9.956812,-9.956811 a 1.4209859,1.4209859 0 0 1 0,-1.991362 l 9.956812,-9.956813 0,-14.035892 a 1.4209859,1.4209859 0 0 1 1.413225,-1.413225 l 14.035892,0 9.924693,-9.924694 a 1.4209859,1.4209859 0 0 1 0.835088,-0.417544 z"
     id="rect3598"
     inkscape:connector-curvature="0" />
  <g
     id="layer5-7">
    <rect
       width="66"
       height="66"
       rx="12"
       ry="12"
       x="15"
       y="15"
       clip-path="url(#clipPath3613-1)"
       id="rect3171-9"
       style="opacity:0.1;fill:url(#linearGradient3139);fill-opacity:1;fill-rule:nonzero;stroke:#ffffff;stroke-width:0.5;stroke-linecap:round;stroke-linejoin:miter;stroke-miterlimit:4;stroke-opacity:1;stroke-dasharray:none;stroke-dashoffset:0;filter:url(#filter3794-5)" />
  </g>
  <path
     inkscape:connector-curvature="0"
     id="path3213"
     d="m 47.984664,9.339413 -11.317538,11.317538 -16.010176,0 0,16.040846 -11.3175371,11.317538 11.3175371,11.317538 0,16.010176 16.010176,0 11.317538,11.317538 11.317538,-11.317538 16.040846,0 0,-16.010176 11.317539,-11.317538 -11.317539,-11.317538 0,-16.040846 -16.040846,0 L 47.984664,9.339413 z M 47.83131,12.9279 a 1.3569278,1.3569278 0 0 1 1.134821,0.398721 l 9.477287,9.477289 13.403154,0 a 1.3569278,1.3569278 0 0 1 1.349517,1.349517 l 0,13.403154 9.507959,9.507959 a 1.3569278,1.3569278 0 0 1 0,1.901592 l -9.507959,9.507958 0,13.403154 a 1.3569278,1.3569278 0 0 1 -1.349517,1.349518 l -13.403154,0 -9.477287,9.477287 a 1.3569278,1.3569278 0 0 1 -1.932264,0 l -9.477287,-9.477287 -13.403154,0 a 1.3569278,1.3569278 0 0 1 -1.349517,-1.349518 l 0,-13.403154 -9.507959,-9.507958 a 1.3569278,1.3569278 0 0 1 0,-1.901592 l 9.507959,-9.507959 0,-13.403154 a 1.3569278,1.3569278 0 0 1 1.349517,-1.349517 l 13.403154,0 9.477287,-9.477289 A 1.3569278,1.3569278 0 0 1 47.83131,12.9279 z"
     style="fill:#005522;fill-opacity:1;stroke:none;opacity:0.31481481" />
  <g
     transform="matrix(0.80728062,0.07198912,-0.07198912,0.80728062,-463.54841,-118.70659)"
     id="g4126"
     style="font-size:40px;font-style:normal;font-variant:normal;font-weight:normal;font-stretch:normal;line-height:125%;letter-spacing:0px;word-spacing:0px;writing-mode:lr-tb;opacity:0.65140842;fill:#333333;fill-opacity:1;stroke:none;font-family:Tholoth;-inkscape-font-specification:Tholoth" />
  <g
     id="g4216"
     transform="translate(-39.221225,-100.89876)">
    <g
       id="g4130"
       style="font-size:40px;font-style:normal;font-variant:normal;font-weight:normal;font-stretch:normal;line-height:125%;letter-spacing:0px;word-spacing:0px;opacity:0.7791304;fill:#333333;fill-opacity:1;stroke:none;font-family:Amiri;-inkscape-font-specification:Amiri"
       transform="matrix(0.78557144,0,0,0.78557144,-450.70245,40.004592)">
      <path
         sodipodi:nodetypes="ccssccccccccccccccccccccccccccccccccccccccccccccccccccccccccccccccccccccccccccccccccccccccccccccccccccccccccc"
         inkscape:connector-curvature="0"
         d="m 649.71513,124.25089 c -7.12856,1.40764 -17.28362,7.67126 -14.42039,16.11691 1.61853,0.58409 -0.0822,3.715 -0.32402,4.20056 -1.49324,2.99875 -4.06978,5.52141 -3.37252,5.39153 8.12406,-1.51335 19.30218,-9.78636 21.24006,-15.22144 3.7159,-3.38262 3.15583,-11.24264 -3.12313,-10.48756 z m 24.90795,-30.691537 c -4.06075,2.408179 -6.43817,12.866227 0.2699,13.996267 6.06325,0.56552 8.49151,-8.377127 3.23881,-10.950248 -0.0803,-1.807516 -1.6156,-3.668096 -3.50871,-3.046019 z m 37.16915,28.917907 c -3.43474,-0.42889 -3.20384,6.33695 -6.01492,3.00746 -5.79644,-2.83094 -8.12414,7.30111 -2.23632,8.40547 2.89078,1.10205 2.01761,7.97541 6.74751,6.51617 5.06708,-1.94501 -0.43904,-10.87433 5.51368,-10.91169 2.9327,-2.79761 -0.49203,-7.55847 -4.00995,-7.01741 z m -55.63805,44.6878 c -5.74121,1.35311 0.51575,8.37309 -4.43407,10.33333 -2.77164,1.70578 -8.46839,7.38995 -2.39055,8.48258 5.35181,-1.8478 8.32476,-7.90668 13.07089,-10.33333 2.68169,-4.15301 -2.11662,-8.6151 -6.24627,-8.48258 z m 9.40796,-49.85447 c -3.42997,3.19644 -5.37369,13.00143 1.27239,13.95771 3.88263,-0.11666 6.64931,-7.1634 2.00497,-8.21269 1.39184,-2.56594 0.5963,-7.27882 -3.27736,-5.74502 z m 21.59204,20.93656 c -8.23891,2.83279 -16.94623,5.12031 -24.36816,9.83209 -2.9962,3.47078 1.36525,7.88008 4.7811,4.66542 7.00129,-4.10067 16.07845,-4.77182 22.36317,-9.6393 1.02664,-2.01762 0.002,-5.38133 -2.77611,-4.85821 z m -12.72388,5.82214 c -3.67411,3.66622 -7.56499,12.63719 -1.6194,16.11691 5.29759,2.06343 7.76907,-6.64821 3.35447,-8.05845 1.49523,-2.54326 3.90617,-10.051 -1.73507,-8.05846 z m -34.16168,4.62686 c -3.6656,3.50916 -6.59374,12.59471 -0.61692,15.42289 5.26404,1.59947 7.68847,-7.14002 3.35448,-8.75249 1.47179,-2.51251 1.8534,-8.26181 -2.73756,-6.6704 z m 23.28855,-19.58706 c -3.37142,-0.20924 -2.83549,5.97186 -5.70647,3.27737 -5.51308,-2.56252 -7.93402,7.00098 -2.35199,8.2898 3.74863,0.32215 2.81783,7.75836 7.75,5.82213 4.38867,-2.55214 -0.56339,-9.54026 4.62686,-10.79601 1.95275,-2.80118 -1.23941,-6.93075 -4.3184,-6.59329 z m 19.58706,24.02114 c -4.22156,2.14893 -5.83819,10.14634 -11.87562,7.75 -3.00598,-2.79528 -4.99549,-9.56566 -10.37189,-6.86318 -7.97924,2.48733 -9.10747,12.09284 -13.68781,17.62064 -3.68917,-3.28988 0.6664,-10.83255 -5.05099,-12.3383 -5.59216,5.54111 -2.8255,16.92697 3.89428,20.43531 8.24951,1.1429 8.54706,-9.76509 12.76243,-14.30472 1.45023,-1.89556 4.54523,-4.01938 5.05099,-0.15423 3.30284,6.7297 13.39698,6.7719 17.6592,1.04105 0.25456,8.56133 5.16874,-7.05492 5.47513,-10.25622 -0.009,-1.96337 -1.85082,-4.00756 -3.85572,-2.93035 z m -38.78855,-4.74253 c -3.68272,1.56788 -5.3522,8.24672 -0.50124,9.56218 5.17569,5.64839 11.29918,-6.21696 4.54975,-8.25124 -1.28437,-0.65161 -2.45027,-1.87308 -4.04851,-1.31094 z m 1.31094,7.05597 c -3.60999,3.11467 -3.09841,8.72456 1.77364,10.14054 5.82292,3.22068 9.39885,-8.06309 2.9689,-9.3694 -2.01528,-0.93582 -2.77033,-4.83657 -4.74254,-0.77114 z m 75.64924,8.32835 c -6.0738,2.94541 -14.55301,2.84813 -19.16293,7.82711 -1.90712,5.34393 4.81151,5.51949 7.90422,2.96891 4.69503,-2.53926 12.43546,-1.7129 14.6903,-7.2102 0.31888,-2.14601 -1.10382,-4.1428 -3.43159,-3.58582 z m 5.93781,-8.09701 c -3.62804,0.167 -5.21023,4.71234 -3.47015,7.05597 -1.78096,5.66497 5.5754,7.62508 9.29229,4.62686 3.31842,-1.43439 7.86439,-7.37807 2.4291,-8.94527 -2.25907,0.6673 -5.61113,5.55706 -3.74005,0.92537 0.45737,-2.54449 -2.20423,-4.2114 -4.51119,-3.66293 z m -42.87561,9.60074 c -1.89258,2.55118 -6.22486,0.16805 -6.90174,4.16418 -0.65337,3.52241 3.79721,4.02433 4.39552,7.24875 3.24554,1.83449 5.33833,-2.06726 4.74253,-4.8582 3.96132,1.76284 2.45156,-8.47317 -2.23631,-6.55473 z m -1.81219,6.51617 c -5.20191,3.77566 -2.89835,11.41882 -0.38557,16.27114 5.93782,2.75874 4.34456,-5.66062 3.27736,-8.21268 6.00215,-1.51339 1.9526,-9.42709 -2.89179,-8.05846 z m 25.64054,-29.34203 c -5.88885,0.25303 -8.24061,6.47464 -12.87811,9.06094 -0.20734,5.43598 1.78582,10.91254 6.16916,14.07338 2.05146,4.43285 5.72234,-0.14767 9.0995,0 7.58414,-2.23689 14.11239,-7.6793 21.93904,-8.79104 3.46757,-2.86693 3.1922,-9.55329 -2.35198,-8.75249 -7.49986,-1.28667 -14.38633,-5.62694 -21.97761,-5.59079 z m -0.19279,9.17661 c 3.049,0.13297 5.83745,1.4386 8.79105,2.15921 -2.86956,1.06989 -8.30509,4.9776 -10.37189,2.31343 -0.524,-2.09127 -1.53117,-4.80248 1.58084,-4.47264 z M 708.939,93.135224 c -13.91234,2.763691 -27.19483,9.728156 -38.32586,18.507456 -3.18023,4.31345 -3.29503,11.05142 1.0796,14.6903 6.18248,9.69606 17.79732,14.6542 24.05969,23.82835 -5.37235,3.27986 -14.31547,0.23977 -16.38681,8.05845 -0.81651,6.29063 6.53355,15.48184 13.57214,11.14304 3.41993,-2.08181 3.07548,-6.85047 2.89179,-9.87065 8.42444,-3.57013 8.19004,-16.07382 1.11816,-21.01367 -4.84183,-4.98928 -12.60353,-8.90426 -15.61567,-14.34328 1.49018,-3.58242 -3.23749,-4.88546 -5.16667,-6.70896 9.95512,-6.52981 20.74352,-12.77608 32.31094,-15.11442 -4.14289,5.61391 -10.29031,11.24142 -10.95025,18.39178 3.72175,5.86913 6.99486,-3.46362 9.48508,-6.16915 4.16945,-5.26584 11.0933,-12.36525 7.71144,-19.471386 -1.22947,-1.899727 -3.70792,-2.073885 -5.78358,-1.92786 z"
         style="fill:#333333;fill-opacity:1"
         id="path4132" />
    </g>
    <g
       style="fill:#ffffff;fill-opacity:1;display:inline;filter:url(#filter16394)"
       id="g16291"
       transform="matrix(0.12310444,0,0,0.12310444,45.724895,87.601381)">
      <path
         style="fill:#ffffff;fill-opacity:1"
         d="m 497.34375,223 c -6.78996,0.0162 -15.53947,1.14786 -22.78125,3.15625 -5.225,1.449 -9.95,2.7472 -10.5,2.875 -4.1616,0.9672 -26.8709,8.60965 -35,11.78125 -19.8161,7.7313 -58.1004,24.9975 -68.1875,30.75 -0.99429,0.567 -4.2875,2.15075 -7.3125,3.53125 -6.78296,3.0957 -12.87171,6.4451 -35,19.3125 -18.96262,11.0267 -49.13156,31.22525 -55.5,37.15625 -6.7008,6.2404 -10.09957,11.5827 -10.875,17.0625 -0.11811,0.8347 -0.58971,2.098 -1.03125,2.8125 -0.44153,0.7143 -0.5195,1.57425 -0.1875,1.90625 0.33201,0.332 -0.001,1.5436 -0.75,2.6875 -1.19097,1.8195 -1.93575,11.0955 -1.90625,24.0625 0.0173,7.6256 0.31891,8.3691 4.71875,12.5625 2.4463,2.3314 8.50067,10.13815 13.46875,17.34375 4.96807,7.2057 10.51436,14.66875 12.3125,16.59375 1.79814,1.925 5.05169,5.75 7.25,8.5 7.50236,9.3852 27.08934,28.02935 42.0625,40.03125 8.22348,6.5918 15.1625,12.22715 15.4375,12.53125 0.275,0.304 2.28689,1.879 4.46875,3.5 2.18185,1.6209 4.69938,3.6125 5.59375,4.4375 0.89437,0.825 3.38248,2.92255 5.53125,4.65625 2.14878,1.7338 5.25625,4.37175 6.90625,5.84375 1.65,1.472 6.825,5.8892 11.5,9.8125 9.5173,7.987 37,35.0998 37,36.5 0,0.4971 1.14135,2.2144 2.53125,3.8125 3.5575,4.0903 7.6618,12.7622 8.1875,17.3125 0.3747,3.2438 0.0104,4.2733 -2.375,6.5 -3.9039,3.6442 -19.19335,11.1118 -27.59375,13.5 -2.0625,0.5864 -5.2863,1.548 -7.1875,2.125 -3.7575,1.1403 -5.2659,1.46955 -13.5625,2.90625 -8.4475,1.4628 -11.90844,1.90365 -19.5,2.53125 -11.88984,0.983 -13.91876,1.46495 -15.71875,3.78125 -0.95027,1.2229 -1.7378,2.78125 -1.75,3.46875 -0.0353,1.9828 -1.83266,1.4511 -2.53125,-0.75 -0.34913,-1.1 -0.99873,-2 -1.4375,-2 -2.59824,0 -7.40679,6.16115 -12.75,16.03125 -1.39994,2.58601 -2.83837,5.41558 -4.28125,8.46875 l 3.84375,9.0625 c 2.9837,-4.77838 4.11745,-4.43214 4.21875,0.1875 0.18908,8.6231 3.66256,20.7547 7.375,25.75 3.69784,6.63571 7.94404,11.07803 12.59375,13.90625 5.94478,4.0395 12.77358,5.93175 21.4375,5.96875 9.1945,0.039 12.13955,-1.12445 17.65625,-7.09375 3.9421,-4.2653 6.4822,-8.6071 7.25,-12.375 0.2673,-1.3115 0.8802,-3.75625 1.375,-5.40625 0.8967,-2.9899 0.89415,-4.1814 -0.21875,-16.5 -0.6324,-6.9994 -2.9625,-14.37185 -5.4375,-17.28125 -2.1905,-2.5751 -0.4762,-4.7466 4.9375,-6.25 18.5549,-5.1528 28.17635,-13.22885 35.71875,-29.96875 4.6051,-10.2208 6.06025,-17.7733 5.59375,-28.625 -0.5439,-12.6521 -2.7447,-19.8502 -9,-29.375 -10.9072,-16.6081 -21.29051,-26.4598 -63.3125,-60 -15.098,-12.0506 -23.27941,-18.7521 -26.15625,-21.5 -1.42564,-1.3617 -4.16576,-3.85 -6.09375,-5.5 -20.58585,-17.6177 -44.8125,-42.7427 -44.8125,-46.5 0,-0.8927 1.17855,-1.0515 4.25,-0.5625 11.85649,1.8877 12.68323,1.87745 13.34375,0.15625 0.81835,-2.1326 -1.81722,-5.05345 -7.59375,-8.40625 -2.47567,-1.4369 -5.04583,-3.12905 -5.71875,-3.78125 -0.67291,-0.6521 -2.92291,-2.2261 -5,-3.5 -2.07708,-1.2738 -4.23125,-2.7163 -4.78125,-3.1875 -1.55478,-1.3325 -8.37762,-5.2987 -15.25,-8.875 -4.73907,-2.4664 -6.25,-3.76545 -6.25,-5.40625 0,-3.8248 12.18583,-13.11815 45.59375,-34.71875 9.17492,-5.9323 22.02832,-13.2274 42.40625,-24.0625 4.125,-2.1932 7.66042,-4.3559 7.84375,-4.8125 0.18334,-0.4567 0.73486,-0.84375 1.21875,-0.84375 0.48388,0 9.61794,-4.275 20.3125,-9.5 10.6946,-5.225 19.67505,-9.5 19.96875,-9.5 0.2938,0 4.27435,-1.74 8.84375,-3.875 9.4091,-4.3963 29.045,-12.5486 32.8125,-13.625 1.375,-0.3929 3.85,-1.31135 5.5,-2.03125 3.5093,-1.531 18.4385,-6.2889 23.5,-7.5 1.925,-0.4608 6.875,-1.6638 11,-2.6875 7.9742,-1.979 18.80695,-2.19875 23.09375,-0.46875 1.4222,0.574 3.9514,2.3888 5.625,4.0625 2.5316,2.5316 3.00845,3.7135 2.78125,7.0625 -0.3526,5.1959 -7.6347,17.05195 -15.3125,24.90625 -1.6202,1.6574 -4.2416,4.73725 -5.8125,6.84375 -1.5709,2.1065 -3.1209,4.0375 -3.4375,4.3125 -0.3166,0.275 -2.3993,2.975 -4.625,6 -2.2257,3.025 -5.02765,6.3737 -6.21875,7.4375 -1.1911,1.0638 -3.14455,3.5388 -4.34375,5.5 -1.1991,1.9612 -2.80545,4.22415 -3.59375,5.03125 -3.8138,3.9043 -16.0318,24.79785 -24.875,42.53125 -6.5311,13.0968 -6.60245,13.2824 -4.09375,14.625 l 2.6875,-1.8125 1.9375,-3.40625 c 2.8643,-5.0015 10.3263,-16.19445 17.4375,-26.15625 3.4377,-4.8157 7.69895,-10.805 9.46875,-13.3125 2.9652,-4.201 15.10285,-19.1752 18.03125,-22.25 0.6922,-0.7268 1.26525,-1.6268 1.28125,-2 0.0156,-0.3732 1.8777,-2.7125 4.125,-5.1875 11.4908,-12.6553 19.3794,-27.0087 25.4375,-46.25 3.8425,-12.204 4.7785,-19.17375 3.3125,-24.90625 -0.9207,-3.6 -5.46185,-8.91125 -8.09375,-9.46875 -0.7257,-0.1537 -3.1125,-0.72965 -5.3125,-1.28125 -1.95122,-0.48928 -4.6324,-0.69485 -7.71875,-0.6875 z m -153.5625,408.75 c 7.44153,0.2232 20.85309,6.65275 25.90625,12.65625 3.7833,4.4949 6.875,9.83535 6.875,11.84375 0,1.8789 -2.16615,3.844 -3.15625,2.875 -0.1913,-0.1871 -2.36875,-0.4673 -4.84375,-0.625 -2.475,-0.1576 -6.075,-0.93665 -8,-1.71875 -1.925,-0.7821 -3.725,-1.4165 -4,-1.4375 -0.275,-0.0214 -2.37274,-1.45505 -4.65625,-3.15625 -4.77749,-3.5594 -12.16411,-13.91315 -12.5625,-17.59375 -0.2344,-2.1656 0.1651,-2.5373 3.03125,-2.8125 0.43885,-0.0421 0.91015,-0.0462 1.40625,-0.0312 z"
         id="path16293"
         inkscape:connector-curvature="0" />
      <path
         style="fill:#ffffff;fill-opacity:1"
         d="m 420.75788,587.13166 c 0.3408,6.5436 0.9035,12.0999 2.0937,20.5 0.8014,5.6557 5.3777,21.028 7.4063,24.9063 3.0303,5.7932 12.0128,14.7548 18.875,18.8437 6.1156,3.644 6.4659,4.0783 8.3125,10.0937 2.3648,7.7032 4.5757,8.026 6.6875,1 l 1.4063,-4.625 10.8124,0.2188 c 7.3105,0.1487 12.0298,-0.2385 14.5938,-1.1875 3.6153,-1.3379 8.5799,-2.8178 12.7188,-3.7813 6.9949,-1.6284 44.5937,-19.0948 44.5937,-20.7187 0,-0.4858 0.398,-0.6266 0.9063,-0.3125 0.5081,0.3142 7.3706,-2.6933 15.25,-6.6875 20.121,-10.1999 38.3884,-18.75 40.0312,-18.75 0.7658,0 1.8212,-0.3942 2.3438,-0.8437 1.806,-1.5541 11.9946,-3.495 18.9687,-3.625 7.8329,-0.1461 7.4046,0.2638 11.7813,-11.0313 5.9868,-15.4506 5.9971,-15.3437 -2.4063,-16.125 -2.9641,-0.2756 -7.85,-1.0126 -10.875,-1.625 -3.025,-0.6123 -6.4,-1.1998 -7.5,-1.3125 -2.0043,-0.2055 -14.7538,-3.8638 -26,-7.4375 -3.3,-1.0486 -8.7,-2.6498 -12,-3.5937 -9.7019,-2.7756 -41.8603,-13.4172 -43.75,-14.4688 -0.9551,-0.5315 -2.4658,-0.9375 -3.375,-0.9375 -0.9091,0 -5.7704,-1.3337 -10.7813,-2.9375 -11.9243,-3.8164 -16.8877,-4.736 -26.3124,-4.9375 -14.1138,-0.3018 -27.3,4.8184 -36.6876,14.2813 -10.7816,10.868 -15.1467,22.1266 -16.0624,41.375 -0.2727,5.7321 1.9079,15.9171 4.1874,19.5624 0.7723,1.2349 0.8739,1.5912 1.9063,6.125 0.6727,2.9543 0.672,2.9467 -1.7187,1.375 -7.3456,-4.8287 -13.4429,-22.6224 -14.4688,-42.3437 z m 64.6553,-22.094 c 5.8574,2e-4 12.3378,0.581 15.4062,1.5937 2.9751,0.9818 4.7378,1.4367 10.3438,2.5937 1.3225,0.2731 3.2086,0.9138 4.1874,1.4376 0.9788,0.5237 2.7516,0.9687 3.9688,0.9687 1.2172,0 4.9561,0.9032 8.3125,2.0313 3.3565,1.1278 7.475,2.5081 9.125,3.0624 1.65,0.5544 3.675,1.188 4.5,1.4063 7.1028,1.8793 20.1654,5.9635 23,7.1875 1.925,0.8313 4.306,1.6805 5.3125,1.875 1.0064,0.1944 2.5814,0.5472 3.5,0.8125 0.9185,0.2654 3.6,0.9898 5.9375,1.5937 2.3375,0.6041 4.25,1.464 4.25,1.9063 0,1.0271 -0.3031,1.1589 -43,21.25 -6.875,3.2351 -13.3502,6.3837 -14.375,6.9687 -1.0248,0.5849 -2.5998,1.2077 -3.5,1.4063 -0.9002,0.1986 -5.225,1.7679 -9.625,3.5 -4.4,1.732 -8.7322,3.3192 -9.625,3.5 -2.6523,0.537 -9.1575,1.6355 -12.375,2.0937 -4.7251,0.6686 -15.7034,1.0469 -19,0.6563 -6.8839,-0.8156 -9.6982,-3.4563 -9.7813,-9.25 0,-0.275 -0.3853,-1.8077 -0.8437,-3.4063 -0.4584,-1.5983 -1.0769,-4.5639 -1.375,-6.5624 -0.882,-5.9136 -1.2292,-7.1726 -4,-15.0313 -4.1202,-11.6859 -4.2897,-12.4055 -3.4687,-14.625 0.8815,-2.3828 9.6896,-10.0186 15.125,-13.125 2.009,-1.1482 6.0589,-2.5857 9,-3.1875 2.2117,-0.4526 5.4855,-0.6564 9,-0.6562 z"
         id="path16295"
         inkscape:connector-curvature="0"
         sodipodi:nodetypes="cscssccccsscssccssccccsssssscscccccccscccccccsscscccscccscccc" />
      <path
         style="fill:#ffffff;fill-opacity:1"
         d="m 331.28821,800.98593 c -0.48134,-0.31147 -1.33083,-2.61545 -1.88774,-5.11995 -0.5569,-2.5045 -1.22612,-5.1125 -1.48715,-5.79555 -0.26104,-0.68304 -0.56974,-1.61447 -0.68601,-2.06983 -0.34865,-1.36544 -6.18182,-18.94382 -6.73113,-20.28442 -2.14813,-5.2424 -2.97448,-14.82683 -1.61289,-18.70719 0.51707,-1.47356 1.9427,-3.80047 3.16806,-5.17095 2.04919,-2.29181 3.62181,-3.20436 9.98412,-5.7934 2.83229,-1.15257 2.87654,-2.18682 0.16945,-3.96059 -1.8448,-1.2087 -2.37655,-1.23694 -4.2677,-0.22603 -1.18818,0.63511 -2.67735,2.39133 -3.30927,3.90281 -2.07999,4.97514 -4.42929,1.16921 -2.46294,-3.98999 3.19059,-8.37125 5.34851,-10.47148 9.86681,-9.60297 3.67007,0.70548 11.93073,8.07659 12.63263,11.27234 1.11591,5.0807 -0.74497,8.47474 -5.23129,9.5412 -6.09786,1.44964 -16.31812,5.69694 -17.22001,7.15626 -1.11091,1.79745 -0.3513,6.51436 2.20785,13.70986 1.41822,3.98767 2.72683,7.80909 2.90804,8.49213 0.18121,0.68305 1.48279,5.34019 2.89242,10.34919 3.74163,13.29565 4.06509,18.23726 1.06675,16.29708 z"
         id="path16297"
         inkscape:connector-curvature="0" />
      <path
         style="fill:#ffffff;fill-opacity:1"
         d="m 328.19137,726.83416 c -0.64566,-0.70859 -1.50981,-2.33551 -1.92039,-3.61535 -1.17946,-3.67665 -6.2399,-14.76311 -7.62934,-16.71437 -1.07552,-1.51045 -1.33933,-1.63338 -1.78731,-0.83297 -0.28904,0.51649 -1.01511,0.93906 -1.61352,0.93906 -1.67429,0 -5.9346,-1.99041 -8.02476,-3.74912 -1.65093,-1.38915 -1.83865,-1.83532 -1.5464,-3.67426 1.31032,-8.24488 6.36551,-9.01692 12.57354,-1.9202 2.50673,2.86557 6.89651,10.96334 8.9297,16.47245 0.56007,1.51756 1.37737,3.0572 1.8162,3.42146 0.66088,0.54843 0.80309,0.0244 0.82768,-3.05056 0.16483,-20.59638 1.68559,-26.53728 7.82243,-30.55826 3.95379,-2.59063 10.30824,2.33667 8.98114,6.96405 -0.2859,0.99686 -0.51982,1.87977 -0.51982,1.96198 0,0.55518 -1.8334,-0.0414 -3.03716,-0.98825 -2.3263,-1.8299 -4.29411,-1.90448 -6.27474,-0.23788 -2.7025,2.27397 -3.36843,5.53871 -3.78652,18.56303 -0.44874,13.97993 -0.86398,16.82361 -2.59146,17.74811 -0.79639,0.42619 -1.325,0.25256 -2.21927,-0.72892 z"
         id="path16299"
         inkscape:connector-curvature="0" />
      <path
         style="fill:#ffffff;fill-opacity:1"
         d="m 607.35465,673.62591 c -2.86873,-1.5359 -5.23064,-4.60633 -6.21938,-8.08523 -0.55696,-1.95944 -0.97938,-3.88457 -0.93861,-4.27795 0.69693,-6.73593 4.79959,-15.21146 10.75591,-22.22024 2.5471,-2.99713 4.63107,-5.72989 4.63107,-6.07285 0,-0.92923 -2.39524,-2.03548 -4.3562,-2.01194 -5.61673,0.0672 -7.81322,0.75714 -10.08631,3.16705 -4.13912,4.38824 -5.78517,2.33473 -2.80035,-3.49357 3.33256,-6.50734 8.28942,-8.95672 17.24286,-8.5205 7.38358,0.35983 7.73633,6.86496 0.9308,17.16568 -1.49183,2.25799 -3.2581,4.74923 -3.92498,5.53599 -0.66689,0.78675 -1.99744,2.35219 -2.95678,3.47868 -3.3021,3.87742 -5.06958,8.38827 -4.85994,12.40274 0.12366,2.36735 3.33885,5.20324 6.01562,5.30595 9.34367,0.35848 17.10503,-1.4703 26.56207,-6.25887 8.2475,-4.17618 9.06208,-4.80401 20.74922,-15.99306 1.99586,-1.91081 2.74493,-2.27051 3.19889,-1.53604 0.62018,1.00355 -1.64296,5.6977 -4.01697,8.33184 -0.70794,0.78554 -3.00155,3.42991 -5.09683,5.87629 -6.95193,8.11683 -20.37072,15.25309 -31.95208,16.99239 -5.39973,0.81086 -11.57112,0.91328 -12.87801,0.21364 z"
         id="path16301"
         inkscape:connector-curvature="0" />
      <path
         style="fill:#ffffff;fill-opacity:1"
         d="m 462.00853,720.46751 c 0,-1.2375 0.4588,-3.8817 1.0127,-5.876 1.1256,-4.0522 -0.9112,-3.1583 33.9817,-14.9136 8.525,-2.872 22.025,-7.4531 30,-10.1801 7.975,-2.7269 18.775,-6.2881 24,-7.9137 5.225,-1.6256 12.7726,-4.2372 16.7724,-5.8035 7.0796,-2.7724 7.2999,-2.7964 8.3114,-0.9065 1.4022,2.62 -0.5602,8.4542 -3.4893,10.3734 -1.2248,0.8026 -6.2472,2.7617 -11.1607,4.3537 -4.9136,1.592 -15.9088,5.3531 -24.4338,8.3581 -8.525,3.005 -18.875,6.4951 -23,7.7557 -15.2579,4.6632 -27.7753,8.9215 -37.9435,12.908 -12.142,4.7604 -14.0588,5.012 -14.0509,1.8445 z"
         id="path16303"
         inkscape:connector-curvature="0" />
      <path
         style="fill:#ffffff;fill-opacity:1"
         d="m 104.64575,654.90004 c -2.2,-1.6166 -6.078882,-4.0326 -8.619742,-5.3689 -6.58192,-3.4615 -9.96749,-7.7369 -8.94628,-11.2977 1.46281,-5.1005 7.77362,-17.7007 10.0467,-20.0593 l 2.24468,-2.3292 2.692042,2.5792 c 1.48062,1.4185 3.19241,2.5791 3.80399,2.5791 0.61157,0 1.26194,0.3749 1.44528,0.8332 0.18333,0.4582 3.40956,2.5436 7.1694,4.6342 9.2447,5.1403 10.95548,7.0795 10.34965,11.7315 -0.64252,4.9338 -6.58513,17.6769 -8.79497,18.8596 -3.09228,1.6549 -7.27778,0.8606 -11.39075,-2.1617 z"
         id="path16305"
         inkscape:connector-curvature="0" />
      <path
         style="fill:#ffffff;fill-opacity:1"
         d="m 90.343078,611.47214 c -3.46647,-1.9295 -8.52117,-5.0342 -11.23267,-6.8994 -2.7115,-1.8652 -5.4123,-3.552 -6.00178,-3.7485 -2.12478,-0.7083 -1.60237,-4.4619 1.69481,-12.1772 5.74729,-13.4486 8.34954,-15.7331 13.45745,-11.814 1.31167,1.0064 3.05986,2.1432 3.88486,2.5263 5.38188,2.4993 15.689152,9.6686 16.648042,11.5798 0.93105,1.8556 0.75315,3.2592 -0.94119,7.4261 -1.14908,2.8259 -3.1282,6.705 -4.39805,8.6201 -1.26984,1.9152 -2.3088,4.0369 -2.3088,4.7148 0,1.0052 -2.962862,3.3359 -4.184262,3.2916 -0.17366,-0.01 -3.15194,-1.5901 -6.61841,-3.5196 z"
         id="path16307"
         inkscape:connector-curvature="0" />
      <path
         style="fill:#ffffff;fill-opacity:1"
         d="m 69.380295,654.17087 -0.0854,9.45963 0.5789,10.6962 c 1.5064,27.8311 12.9099,49.3054 26.8586,50.5784 5.229305,0.4773 8.992905,-1.223 13.954505,-6.304 4.3044,-4.408 10.5126,-13.2569 11.4741,-16.3546 0.3796,-1.223 1.4632,-3.3486 2.40809,-4.7236 0.9448,-1.375 3.8628,-7.9 6.4845,-14.5 6.2091,-15.6314 7.9377,-19.2997 13.9009,-29.5 11.4294,-19.5503 24.0985,-32.7593 38.1343,-39.7594 4.9309,-2.4592 10.9723,-4.4804 13.5,-4.5165 0.275,0 1.6617,-0.3403 3.0816,-0.7475 5.9684,-1.7117 13.4158,4.4197 19.4624,16.0234 13.5379,25.9799 24.2271,33.6476 46.6137,33.4375 5.012,-0.047 8.9112,-0.904 15.7745,-3.4671 14.4705,-5.404 22.9094,-13.2098 34.0364,-31.4832 4.9345,-8.1038 12.29311,-16.3 15.79841,-17.5967 3.6522,-1.351 4.3229,0.3413 4.6368,11.7001 l -9.366,23.1594 c -0.075,-7.4646 -5.90041,-2.8442 -13.55331,10.75 -4.0414,7.1789 -8.0267,12.601 -13.9845,19.0257 -7.5921,8.1872 -25.2562,15.6244 -37.1837,15.6555 -3.951,0.01 -7.611,-0.2453 -8.1333,-0.5681 -0.5223,-0.3228 -2.6896,-0.844 -4.8163,-1.1583 -8.7496,-1.2929 -12.6828,-3.1353 -19.1978,-8.9928 -6.5286,-5.8698 -10.8305,-11.8159 -16.5589,-22.8877 -7.2345,-13.9828 -10.1655,-16.2192 -19.9201,-15.1997 -13.0512,1.3641 -31.8536,16.1833 -43.086,33.9582 -3.0779,4.8708 -12.6039,23.9434 -12.6039,25.2352 0,1.0573 -6.0743,14.6778 -10.5239,23.5978 -5.19109,10.4066 -11.36789,18.4149 -17.49679,22.6848 -3.6521,2.5444 -5.4772,3.1372 -9.5,3.086 -2.738605,-0.035 -5.879305,-0.4337 -6.979305,-0.8864 -6.4717,-2.6633 -19.7029,-18.8789 -22.4797,-27.5502 -0.7045,-2.2 -1.6203,-4.45 -2.0352,-5 -2.3057,-3.0571 -5.8131,-24.2687 -5.9213,-35.81 l -0.064,-6.8101 c 0.22457,-4.42168 1.36305,-8.57358 2.5533,-12.79825 1.74316,-8.70802 4.84713,-10.33276 4.23844,-2.43368 z"
         id="path16309"
         inkscape:connector-curvature="0"
         sodipodi:nodetypes="ccscsscsssccsssssccsscscsssssssccsccccc" />
      <path
         style="fill:#ffffff;fill-opacity:1"
         d="m 187.44363,531.78729 c -1.2457,-1.3497 -3.35038,-5.7677 -4.67707,-9.8176 -2.70641,-8.2617 -11.56426,-24.7254 -13.75519,-25.5661 -0.7858,-0.3015 -2.00717,0.2428 -2.71416,1.2097 -1.14104,1.5605 -1.72538,1.6155 -5.20196,0.4901 -6.83724,-2.2133 -11.22128,-4.8747 -13.97298,-8.4823 -2.35244,-3.0842 -2.58852,-4.0624 -1.97228,-8.1718 0.77276,-5.1532 4.95062,-10.3431 8.32609,-10.3431 2.95771,0 10.02016,2.7113 12.83983,4.9292 1.37888,1.0847 4.14156,4.1318 6.13929,6.7715 1.99772,2.6396 3.99027,4.9493 4.42788,5.1326 0.43761,0.1834 0.79565,0.7773 0.79565,1.3199 0,0.5425 1.28297,2.8675 2.85104,5.1666 2.38907,3.5029 5.72132,10.9401 8.48162,18.9302 0.97262,2.8154 2.53394,2.0106 2.0505,-1.0568 -1.0576,-6.7106 -0.91788,-32.2817 0.21307,-38.9937 2.18647,-12.9766 8.50985,-21.6665 14.87987,-20.4488 2.8866,0.5518 10.2714,8.3951 11.13171,11.8228 0.69015,2.7498 -1.13838,6.4265 -3.19605,6.4265 -0.83483,0 -3.17345,-1.125 -5.19695,-2.5 -5.25108,-3.5682 -7.6044,-3.2696 -9.85087,1.25 -1.67429,3.3685 -1.87073,6.4971 -1.93066,30.75 -0.0528,21.3639 -0.36786,27.6262 -1.50936,30 -1.88071,3.9109 -5.19663,4.391 -8.15902,1.1811 z"
         id="path16311"
         inkscape:connector-curvature="0" />
      <path
         style="fill:#ffffff;fill-opacity:1"
         d="m 52.039957,644.72268 c -1.75234,-0.7699 -4.32973,-3.1281 -5.72753,-5.2403 -3.42832,-5.1805 -4.08769,-15.8821 -1.59809,-25.9366 4.52438,-18.2723 12.49059,-37.3733 15.58681,-37.3733 2.334,0 1.68823,4.7627 -2.16835,15.9921 -7.23749,21.0737 -8.64768,33.9937 -4.22427,38.7022 3.02377,3.2186 6.57364,3.0206 7.96346,-0.4443 2.406,-5.9982 3.26162,-7.25 4.95564,-7.25 5.52545,0 2.00525,16.2165 -4.55588,20.9876 -2.79611,2.0333 -6.43009,2.2331 -10.23179,0.5626 z"
         id="path16313"
         inkscape:connector-curvature="0" />
      <path
         style="fill:#ffffff;fill-opacity:1"
         d="m 262.71943,617.81641 c -5.087,-5.087 -6.5384,-9.6594 -5.752,-18.1206 1.0517,-11.3159 8.0494,-31.4271 16.3283,-46.9275 5.4035,-10.1166 7.3848,-6.7277 2.4044,4.1125 -2.9961,6.5212 -8.9639,22.7883 -9.6559,26.3198 -0.2155,1.1 -0.9015,4.1534 -1.5245,6.7854 -1.6906,7.1432 -0.4188,13.4119 3.5201,17.3508 3.8793,3.8793 6.7992,3.624 8.6121,-0.7529 1.5012,-3.6241 2.6439,-4.3836 4.4013,-2.9251 1.6097,1.3359 1.1124,5.7308 -1.2707,11.2317 -1.1933,2.7542 -2.6617,4.1862 -5.4276,5.2929 -5.6392,2.2564 -7.3627,1.9058 -11.6355,-2.367 z"
         id="path16315"
         inkscape:connector-curvature="0" />
      <path
         style="fill:#ffffff;fill-opacity:1"
         d="m 206.59186,578.60604 c -0.68553,-1.1093 1.2319,-8.3032 2.76653,-10.3797 1.41927,-1.9204 17.11575,-10.1893 26.11626,-13.758 3.3,-1.3084 6.45,-2.6986 7,-3.0892 0.55,-0.3905 3.925,-1.7273 7.5,-2.9704 3.575,-1.2432 8.3,-3.0457 10.5,-4.0055 2.2,-0.9598 8.05,-3.1786 13,-4.9307 4.95,-1.7521 11.7,-4.2373 15,-5.5226 9.2456,-3.6011 24.29949,-9.1225 31.5,-11.5535 3.575,-1.207 12.73595,-4.4111 20.35766,-7.1204 14.92511,-5.3053 17.12469,-5.3018 16.2406,0.026 -0.23859,1.4378 -0.4708,3.2021 -0.51603,3.9205 -0.0723,1.1478 -7.4624,5.0965 -10.47327,5.5961 -1.00314,0.1665 -10.43501,3.662 -18.10896,6.7113 -1.65,0.6556 -3.69533,1.3314 -4.54517,1.5017 -0.84984,0.1703 -11.64984,4.1562 -24,8.8576 -12.35016,4.7015 -24.92983,9.4849 -27.95483,10.63 -7.04329,2.6661 -14.94152,5.7641 -17.5,6.8642 -1.1,0.473 -5.6,2.3033 -10,4.0675 -8.35364,3.3492 -21.64465,9.4036 -29.73159,13.5433 -5.07065,2.5956 -6.36308,2.8869 -7.1512,1.6117 z"
         id="path16317"
         inkscape:connector-curvature="0" />
      <path
         style="fill:#ffffff;fill-opacity:1"
         d="m 215.81459,432.44768 c -3.3766,-3.3765 -6.1638,-11.9983 -5.531,-17.1089 1.3936,-11.2551 3.5118,-21.3155 5.3879,-25.5892 1.1803,-2.689 2.6831,-6.9141 3.3394,-9.3891 0.894,-3.3715 1.6785,-4.5 3.1279,-4.5 2.902,0 2.2566,6.4542 -1.8234,18.2338 -3.9337,11.3572 -4.757,20.4025 -2.2912,25.171 3.0191,5.8382 10.2791,5.071 12.9706,-1.3708 1.6346,-3.9119 3.0173,-4.4515 4.4668,-1.743 1.366,2.5523 -4.049,13.4672 -8.2834,16.6969 -4.3563,3.3228 -7.7602,3.2028 -11.3636,-0.4007 z"
         id="path16319"
         inkscape:connector-curvature="0" />
      <path
         style="fill:#ffffff;fill-opacity:1"
         d="m 157.189,695.54905 c -2.05712,-0.0741 -3.14852,0.77689 -3.76766,2.55296 -1.12896,3.23852 -0.89105,6.11014 0.63824,7.49414 0.97802,0.88526 1.26774,1.7107 0.98824,2.90292 -0.98238,4.19059 -1.12104,5.70912 -0.72059,8.37947 0.52189,3.48024 2.95659,5.99959 6.34118,6.54708 4.18267,0.67648 4.33816,1.07389 1.85296,4.96182 -5.07739,7.943 -24.16961,28.50633 -34.15599,36.79126 -5.60448,4.6496 -8.39386,7.17311 -14.47359,13.03243 -4.44275,4.28158 -5.46732,5.58263 -4.71472,6.0529 1.16107,0.72577 3.67737,-0.64795 7.20591,-3.93233 1.36253,-1.26825 3.64106,-3.1733 5.06472,-4.24119 1.42366,-1.06795 2.76552,-2.21359 2.9853,-2.5324 0.21978,-0.31867 1.14358,-1.08198 2.05883,-1.68817 9.94279,-6.58609 21.86002,-17.49446 29.50304,-27.03248 1.26816,-1.58257 2.61103,-3.21316 2.98531,-3.62354 2.063,-2.26194 5.10783,-7.09384 8.02943,-12.76475 0.98009,-1.90236 2.07255,-3.46542 2.45002,-3.45884 0.37745,0.006 1.96725,0.4677 3.5206,1.00886 1.55336,0.54096 3.77689,0.80976 4.94119,0.61758 2.25315,-0.37157 5.0323,-2.94646 5.16767,-4.79703 0.045,-0.6139 0.13871,-2.20358 0.22647,-3.54119 0.27569,-4.20206 -1.76421,-8.8624 -5.33237,-12.1471 -4.91834,-4.52772 -7.98801,-6.45051 -14.04123,-8.77062 -2.97864,-1.14168 -5.15298,-1.75413 -6.75296,-1.81178 z m 5.92943,11.77651 c 0.2668,-0.0184 0.53702,0.006 0.84412,0.0823 1.95026,0.49485 2.93372,2.02325 3.5206,5.49711 0.51861,3.06959 -0.0997,3.59778 -3.25295,2.77939 -1.08707,-0.28212 -2.79177,-0.67906 -3.78824,-0.88527 -2.43551,-0.50426 -2.41777,-2.78077 0.0617,-5.62065 1.10455,-1.26507 1.81434,-1.79687 2.61471,-1.85294 z m 8.87357,3.41766 c 1.07398,-0.0727 7.06178,5.69997 7.06178,6.8765 0,1.12316 -2.23816,1.24683 -5.1059,0.28824 -2.72258,-0.91004 -2.80001,-1.0173 -2.80001,-3.80887 0,-1.57901 0.34358,-3.07685 0.76176,-3.33524 0.024,-0.0151 0.0477,-0.0184 0.0823,-0.0204 z"
         id="path16321"
         inkscape:connector-curvature="0" />
      <path
         style="fill:#ffffff;fill-opacity:1"
         d="m 491.08517,493.7612 c -0.70118,-0.2819 -1.9897,-2.1589 -2.86339,-4.171 -3.14664,-7.2467 -6.20609,-15.1584 -5.86175,-15.1584 0.69936,0 -4.49662,-12.3185 -6.99212,-16.5768 -2.30879,-3.9396 -2.8434,-4.3061 -5.50514,-3.7737 -5.73852,1.1477 -17.06937,-5.2 -19.46887,-10.9068 -1.02739,-2.4434 -1.00736,-3.8418 0.10813,-7.5483 3.53097,-11.7325 11.59639,-11.8062 23.5525,-0.215 6.52294,6.3238 10.90256,14.4532 15.79919,29.3263 1.77556,5.3931 3.43611,9.5978 3.6901,9.3438 0.254,-0.254 0.63692,-6.7431 0.85092,-14.4204 0.21401,-7.6772 0.59557,-15.2569 0.84791,-16.8438 0.25234,-1.5869 0.80483,-5.3603 1.22777,-8.3853 0.42293,-3.025 0.81118,-5.725 0.86276,-6 0.65505,-3.4922 4.50002,-11.1947 6.84079,-13.7038 2.85675,-3.0622 7.4782,-4.9706 10.68606,-4.4127 3.43592,0.5976 9.06319,5.3312 10.54922,8.8738 1.41793,3.3804 1.4205,4.0574 0.0265,6.9927 -0.84886,1.7875 -2.03026,3.25 -2.62531,3.25 -1.60482,0 -4.83615,-1.8857 -7.08509,-4.1346 -1.33018,-1.3302 -3.01685,-1.8816 -5.12198,-1.6744 -7.19298,0.7081 -10.19786,14.4736 -10.81252,49.5327 -0.32773,18.693 -2.23519,23.2078 -8.70571,20.6057 z"
         id="path16323"
         inkscape:connector-curvature="0" />
      <path
         style="fill:#ffffff;fill-opacity:1"
         d="m 276.17245,225.53525 c -0.2725,-0.0115 -0.57202,0.04 -0.875,0.1562 -0.76716,0.2944 -3.56407,7.3743 -6.21875,15.75 -5.76449,18.1874 -5.68161,17.8047 -5.875,26.0626 -0.18599,7.9414 1.89517,12.1171 7.40625,14.8437 3.81853,1.8893 5.37998,1.9242 12,0.2813 5.42688,-1.3469 9.35876,-4.8949 12.78125,-11.5626 4.83513,-9.4199 3.72604,-16.0382 -3.78125,-22.8124 -2.2548,-2.0346 -6.34572,-4.6482 -9.125,-5.8438 -5.46422,-2.3507 -5.78896,-3.1273 -4.15625,-10.1562 0.8385,-3.6098 -0.24877,-6.6385 -2.15625,-6.7188 z m -2.71875,26.9375 c 2.28559,0 14.26554,6.5763 16,8.7813 2.65058,3.3695 2.54388,3.8045 -1.8125,6.6874 -2.08076,1.377 -5.84651,2.7784 -8.375,3.125 -3.85969,0.529 -4.93927,0.3108 -6.71875,-1.4687 -2.12525,-2.1252 -2.49902,-3.4747 -2.1875,-8.125 0.24577,-3.6687 2.08133,-9 3.09375,-9 z"
         id="path16325"
         inkscape:connector-curvature="0" />
      <path
         inkscape:connector-curvature="0"
         id="path16327"
         style="font-size:20px;font-style:normal;font-variant:normal;font-weight:normal;font-stretch:normal;line-height:125%;letter-spacing:0px;word-spacing:0px;writing-mode:lr-tb;fill:#ffffff;fill-opacity:1;stroke:none;font-family:Nafees Naskh;-inkscape-font-specification:Nafees Naskh"
         d="m 32.815727,492.58255 c 3e-4,1.76159 0.3086,3.61335 0.9254,5.55526 0.617,1.94214 1.456,3.70772 2.5171,5.29679 1.0616,1.58913 2.3851,2.91307 3.9716,3.9716 1.5865,1.05902 3.3522,1.58791 5.2967,1.5877 6.0012,2.1e-4 11.1644,-1.63226 15.4901,-4.89674 4.3258,-3.26444 6.4886,-8.07494 6.4886,-14.43164 -2.2948,1.41138 -4.8549,2.73531 -7.6803,3.97155 -2.8255,1.23653 -5.7386,1.85453 -8.7392,1.85441 -3.0005,1.2e-4 -5.8691,-1.23522 -8.6056,-3.7048 -2.7366,-2.46991 -4.1049,-5.20507 -4.1049,-8.2057 0,-0.88304 0.2647,-1.85584 0.7958,-2.91708 0.5308,-1.0617 1.1929,-2.12101 1.9877,-3.1796 0.7943,-1.05913 1.5892,-2.02818 2.3838,-2.90896 0.7944,-0.88039 1.4558,-1.58776 1.9838,-2.12118 3.3507,-3.5283 7.6305,-7.49854 12.8398,-11.91062 5.209,-4.41172 10.8588,-8.51524 16.9486,-12.31052 6.0899,-3.79494 12.2675,-6.9732 18.5327,-9.53478 6.264803,-2.56136 12.223003,-3.84216 17.873903,-3.84225 2.8225,9e-5 5.3814,0.48615 7.6764,1.45835 2.2948,0.97316 3.8839,2.95894 4.7673,5.95945 0.8831,3.00062 0.9282,5.82479 0.1352,8.47228 -0.7944,2.64776 -1.8545,5.07468 -3.1796,7.2805 -1.3255,2.20599 -2.6048,4.2356 -3.8383,6.08858 -1.2339,1.85325 -1.8505,3.31047 -1.8505,4.3716 1.7614,-1.23921 3.7022,-3.1378 5.8222,-5.69675 2.1196,-2.55872 4.1059,-5.33839 5.9592,-8.33901 1.8528,-3.00044 3.3088,-6.17745 4.3673,-9.53091 1.0593,-3.35328 1.4988,-6.44124 1.3213,-9.2642 -0.3492,-4.06162 -1.8059,-7.41642 -4.3675,-10.06418 -2.5615,-2.64755 -5.8704,-3.97145 -9.9266,-3.97157 -5.6512,1.2e-4 -11.3007,1.10283 -16.9489,3.30901 -5.648103,2.20602 -10.856003,4.54533 -15.623403,7.01783 -5.6457,2.64514 -11.6023,5.99845 -17.8698,10.06019 -6.2679,4.06181 -12.0049,8.65156 -17.2115,13.76908 -5.2064,5.11764 -9.5308,10.76578 -12.9731,16.94454 -3.4425,6.17891 -5.1635,12.79958 -5.1635,19.86177 z"
         sodipodi:nodetypes="cccccsccccscccccccccccccccccccccccsscc" />
      <g
         style="font-size:40px;font-style:normal;font-variant:normal;font-weight:normal;font-stretch:normal;line-height:125%;letter-spacing:0px;word-spacing:0px;writing-mode:lr-tb;fill:#ffffff;fill-opacity:1;stroke:none;font-family:Tholoth;-inkscape-font-specification:Tholoth"
         id="g16329"
         transform="matrix(6.3561189,0.56680586,-0.56680586,6.3561189,-4074.9488,-844.90649)">
        <path
           style="fill:#ffffff;fill-opacity:1"
           d="m 664.92429,158.23114 c -1.82386,1.459 -3.96321,2.65432 -5.82486,3.45811 -1.29726,0.55682 -1.96919,0.75578 -2.01581,0.59686 -0.0183,-0.0636 0.14521,-0.17723 0.49055,-0.34079 0.34534,-0.1635 0.88145,-0.42434 1.60832,-0.78252 0.72688,-0.35813 1.28049,-0.73285 1.91236,-1.1466 l 1.46572,-1.04592 z"
           id="path16331"
           inkscape:connector-curvature="0"
           sodipodi:nodetypes="cccccccc" />
      </g>
      <g
         id="g16333"
         style="font-size:40px;font-style:normal;font-variant:normal;font-weight:normal;font-stretch:normal;line-height:125%;letter-spacing:0px;word-spacing:0px;fill:#ffffff;fill-opacity:1;stroke:none;font-family:Amiri;-inkscape-font-specification:Amiri"
         transform="matrix(6.3813413,0,0,6.3813413,-4032.6612,-386.74222)">
        <path
           style="fill:#ffffff;fill-opacity:1"
           id="path16335"
           d="m 646.39513,133.50058 c 0.0521,-0.013 0.10415,-0.0195 0.15625,-0.0195 0.39061,5e-5 0.72264,0.2214 0.99609,0.66407 0.32551,0.50785 0.48827,1.10681 0.48828,1.79687 -10e-6,0.70317 -0.16928,1.49744 -0.50781,2.38281 0.42967,0.24744 0.74217,0.41671 0.9375,0.50782 0.23436,0.0912 0.35155,0.23441 0.35156,0.42968 -10e-6,0.10421 -0.0391,0.22791 -0.11719,0.3711 l -0.44921,0.85937 c -0.10418,0.20837 -0.2409,0.31254 -0.41016,0.3125 -0.0651,4e-5 -0.13022,-0.013 -0.19531,-0.0391 -0.24741,-0.0911 -0.60548,-0.26689 -1.07422,-0.52734 -1.83595,2.43493 -3.92579,4.23831 -6.26953,5.41015 -0.23438,0.11722 -0.43621,0.17582 -0.60547,0.17578 -0.19532,4e-5 -0.34506,-0.0911 -0.44922,-0.27343 -0.0521,-0.10414 -2.69818,1.59754 -2.69818,1.50636 3.98915,-2.40579 6.96764,-4.56733 8.98727,-7.4048 -0.75522,-0.39058 -1.31511,-0.76819 -1.67969,-1.13281 -0.44271,-0.41663 -0.66407,-0.85283 -0.66406,-1.3086 -1e-5,-0.20829 0.0456,-0.42313 0.13672,-0.64453 0.76822,-1.84891 1.79035,-2.87105 3.06641,-3.0664 z m -0.41016,2.59766 c -0.28647,-0.26037 -0.54038,-0.39058 -0.76172,-0.39063 -0.26043,5e-5 -0.48829,0.16281 -0.68359,0.48828 -0.026,0.0391 -0.0391,0.0847 -0.0391,0.13672 -10e-6,0.13025 0.0846,0.27999 0.2539,0.44922 0.23437,0.26046 0.78124,0.599 1.64063,1.01563 0.026,-0.18225 0.0391,-0.35152 0.0391,-0.50782 -10e-6,-0.53381 -0.14975,-0.93094 -0.44922,-1.1914 z"
           inkscape:connector-curvature="0"
           sodipodi:nodetypes="cccccccccccccccccccccccccccccc" />
      </g>
    </g>
  </g>
  <g
     id="layer5-7-6">
    <rect
       width="66"
       height="66"
       rx="12"
       ry="12"
       x="15"
       y="15"
       clip-path="url(#clipPath3613-1-3)"
       id="rect3171-9-0"
       style="opacity:0.1;fill:url(#linearGradient3114);fill-opacity:1;fill-rule:nonzero;stroke:#ffffff;stroke-width:0.5;stroke-linecap:round;stroke-linejoin:miter;stroke-miterlimit:4;stroke-opacity:1;stroke-dasharray:none;stroke-dashoffset:0;filter:url(#filter3794-5-9)" />
  </g>
  <path
     style="opacity:0.4;fill:url(#linearGradient3105);fill-opacity:1;fill-rule:nonzero;stroke:none"
     id="rect3690"
     inkscape:connector-curvature="0"
     d="m 11.999995,5.297335 c -3.3239995,0 -5.9999995,2.676 -5.9999995,6 l 0,46.875 c 17.6085595,-11.522031 44.2287435,-18.875 74.0000095,-18.875 3.377989,0 6.71203,0.09685 10,0.28125 l 0,-28.28125 c 0,-3.324 -2.676001,-6 -6,-6 l -72.00001,0 z" />
</svg>
