<?xml version="1.0" encoding="UTF-8" standalone="no"?>
<!-- Created with Inkscape (http://www.inkscape.org/) -->

<svg
   xmlns:dc="http://purl.org/dc/elements/1.1/"
   xmlns:cc="http://creativecommons.org/ns#"
   xmlns:rdf="http://www.w3.org/1999/02/22-rdf-syntax-ns#"
   xmlns:svg="http://www.w3.org/2000/svg"
   xmlns="http://www.w3.org/2000/svg"
   xmlns:xlink="http://www.w3.org/1999/xlink"
   xmlns:sodipodi="http://sodipodi.sourceforge.net/DTD/sodipodi-0.dtd"
   xmlns:inkscape="http://www.inkscape.org/namespaces/inkscape"
   version="1.0"
   width="96"
   height="96"
   id="svg2408"
   inkscape:version="0.48.1 "
   sodipodi:docname="islamic-menu.svg">
  <sodipodi:namedview
     pagecolor="#ffffff"
     bordercolor="#666666"
     borderopacity="1"
     objecttolerance="10"
     gridtolerance="10"
     guidetolerance="10"
     inkscape:pageopacity="0"
     inkscape:pageshadow="2"
     inkscape:window-width="1152"
     inkscape:window-height="808"
     id="namedview4082"
     showgrid="false"
     inkscape:zoom="0.96858898"
     inkscape:cx="42.699852"
     inkscape:cy="77.201521"
     inkscape:window-x="-4"
     inkscape:window-y="-4"
     inkscape:window-maximized="1"
     inkscape:current-layer="svg2408" />
  <defs
     id="defs2410">
    <linearGradient
       inkscape:collect="always"
       id="linearGradient4919">
      <stop
         style="stop-color:#ffffff;stop-opacity:1;"
         offset="0"
         id="stop4921" />
      <stop
         style="stop-color:#ffffff;stop-opacity:0;"
         offset="1"
         id="stop4923" />
    </linearGradient>
    <linearGradient
       inkscape:collect="always"
       id="linearGradient4909">
      <stop
         style="stop-color:#4b4e1c;stop-opacity:1"
         offset="0"
         id="stop4911" />
      <stop
         style="stop-color:#f4ff4a;stop-opacity:1"
         offset="1"
         id="stop4913" />
    </linearGradient>
    <linearGradient
       id="linearGradient4135">
      <stop
         offset="0"
         style="stop-color:#007d00;stop-opacity:1"
         id="stop4137" />
      <stop
         offset="1"
         style="stop-color:#5ebb00;stop-opacity:1"
         id="stop4139" />
    </linearGradient>
    <radialGradient
       gradientUnits="userSpaceOnUse"
       id="radialGradient4120"
       fy="133.10451"
       fx="115.8989"
       r="154.62019"
       cy="133.10451"
       cx="115.8989">
      <stop
         offset="0"
         style="stop-color:#7fff2a;stop-opacity:1"
         id="stop4122" />
      <stop
         offset="1"
         style="stop-color:#048000;stop-opacity:1"
         id="stop4124" />
    </radialGradient>
    <linearGradient
       x1="45.447727"
       y1="92.539597"
       x2="45.447727"
       y2="7.0165396"
       id="ButtonShadow"
       gradientUnits="userSpaceOnUse"
       gradientTransform="scale(1.0058652,0.994169)">
      <stop
         id="stop3750"
         style="stop-color:#000000;stop-opacity:1"
         offset="0" />
      <stop
         id="stop3752"
         style="stop-color:#000000;stop-opacity:0.58823532"
         offset="1" />
    </linearGradient>
    <linearGradient
       id="linearGradient3737">
      <stop
         id="stop3739"
         style="stop-color:#ffffff;stop-opacity:1"
         offset="0" />
      <stop
         id="stop3741"
         style="stop-color:#ffffff;stop-opacity:0"
         offset="1" />
    </linearGradient>
    <filter
       color-interpolation-filters="sRGB"
       id="filter3174">
      <feGaussianBlur
         id="feGaussianBlur3176"
         stdDeviation="1.71" />
    </filter>
    <linearGradient
       x1="36.357143"
       y1="6"
       x2="36.357143"
       y2="63.893143"
       id="linearGradient3188"
       xlink:href="#linearGradient3737"
       gradientUnits="userSpaceOnUse" />
    <filter
       x="-0.192"
       y="-0.192"
       width="1.3839999"
       height="1.3839999"
       color-interpolation-filters="sRGB"
       id="filter3794">
      <feGaussianBlur
         id="feGaussianBlur3796"
         stdDeviation="5.28" />
    </filter>
    <linearGradient
       x1="48"
       y1="20.220806"
       x2="48"
       y2="138.66119"
       id="linearGradient3613"
       xlink:href="#linearGradient3737"
       gradientUnits="userSpaceOnUse" />
    <radialGradient
       cx="48"
       cy="90.171875"
       r="42"
       fx="48"
       fy="90.171875"
       id="radialGradient3619"
       xlink:href="#linearGradient3737"
       gradientUnits="userSpaceOnUse"
       gradientTransform="matrix(1.1573129,0,0,0.99590774,-7.5510206,0.19713193)" />
    <clipPath
       id="clipPath3613">
      <rect
         width="84"
         height="84"
         rx="6"
         ry="6"
         x="6"
         y="6"
         id="rect3615"
         style="fill:#ffffff;fill-opacity:1;fill-rule:nonzero;stroke:none" />
    </clipPath>
    <linearGradient
       x1="45.447727"
       y1="92.539597"
       x2="45.447727"
       y2="7.0165396"
       id="ButtonShadow-0"
       gradientUnits="userSpaceOnUse"
       gradientTransform="matrix(1.0058652,0,0,0.994169,100,0)">
      <stop
         id="stop3750-8"
         style="stop-color:#000000;stop-opacity:1"
         offset="0" />
      <stop
         id="stop3752-5"
         style="stop-color:#000000;stop-opacity:0.58823532"
         offset="1" />
    </linearGradient>
    <linearGradient
       x1="32.251034"
       y1="6.1317081"
       x2="32.251034"
       y2="90.238609"
       id="linearGradient3780"
       xlink:href="#ButtonShadow-0"
       gradientUnits="userSpaceOnUse"
       gradientTransform="matrix(1.0238095,0,0,1.0119048,-1.1428571,-98.071429)" />
    <linearGradient
       x1="32.251034"
       y1="6.1317081"
       x2="32.251034"
       y2="90.238609"
       id="linearGradient3772"
       xlink:href="#ButtonShadow-0"
       gradientUnits="userSpaceOnUse"
       gradientTransform="matrix(1.0238095,0,0,1.0119048,-1.1428571,-98.071429)" />
    <linearGradient
       x1="32.251034"
       y1="6.1317081"
       x2="32.251034"
       y2="90.238609"
       id="linearGradient3725"
       xlink:href="#ButtonShadow-0"
       gradientUnits="userSpaceOnUse"
       gradientTransform="matrix(1.0238095,0,0,1.0119048,-1.1428571,-98.071429)" />
    <linearGradient
       x1="32.251034"
       y1="6.1317081"
       x2="32.251034"
       y2="90.238609"
       id="linearGradient3721"
       xlink:href="#ButtonShadow-0"
       gradientUnits="userSpaceOnUse"
       gradientTransform="translate(0,-97)" />
    <linearGradient
       x1="32.251034"
       y1="6.1317081"
       x2="32.251034"
       y2="90.238609"
       id="linearGradient3026"
       xlink:href="#ButtonShadow-0"
       gradientUnits="userSpaceOnUse"
       gradientTransform="matrix(1.0238095,0,0,1.0119048,-1.1428571,-98.071429)" />
    <linearGradient
       x1="48"
       y1="90"
       x2="48"
       y2="5.9877172"
       id="linearGradient3121"
       xlink:href="#linearGradient3925-3"
       gradientUnits="userSpaceOnUse" />
    <radialGradient
       cx="48"
       cy="48"
       r="35.25"
       fx="48"
       fy="48"
       id="radialGradient3891"
       xlink:href="#radialGradient3897"
       gradientUnits="userSpaceOnUse" />
    <radialGradient
       cx="115.8989"
       cy="133.10451"
       r="154.62019"
       fx="115.8989"
       fy="133.10451"
       id="radialGradient3897"
       gradientUnits="userSpaceOnUse">
      <stop
         id="stop3899"
         style="stop-color:#294172;stop-opacity:0.37404579"
         offset="0" />
      <stop
         id="stop3901"
         style="stop-color:#294172;stop-opacity:1"
         offset="1" />
    </radialGradient>
    <linearGradient
       id="linearGradient3925-3">
      <stop
         id="stop3927-9"
         style="stop-color:#3c6eb4;stop-opacity:1"
         offset="0" />
      <stop
         id="stop3929-8"
         style="stop-color:#81a4d5;stop-opacity:1"
         offset="1" />
    </linearGradient>
    <radialGradient
       inkscape:collect="always"
       xlink:href="#radialGradient4120"
       id="radialGradient4097"
       gradientUnits="userSpaceOnUse"
       cx="48"
       cy="48"
       fx="48"
       fy="48"
       r="35.25" />
    <radialGradient
       inkscape:collect="always"
       xlink:href="#linearGradient3590"
       id="radialGradient3596"
       cx="69.913361"
       cy="38.741215"
       fx="69.913361"
       fy="38.741215"
       r="57.836987"
       gradientUnits="userSpaceOnUse"
       gradientTransform="matrix(1.3713225,2.0169422e-8,-1.7232786e-8,1.1716601,-25.960404,-6.6503233)" />
    <linearGradient
       id="linearGradient3590">
      <stop
         style="stop-color:#c5ff00;stop-opacity:1;"
         offset="0"
         id="stop3592" />
      <stop
         style="stop-color:#007d00;stop-opacity:1;"
         offset="1"
         id="stop3594" />
    </linearGradient>
    <radialGradient
       inkscape:collect="always"
       xlink:href="#linearGradient3737"
       id="radialGradient4127"
       gradientUnits="userSpaceOnUse"
       gradientTransform="matrix(1.1573129,0,0,0.99590774,-7.5510206,0.19713193)"
       cx="48"
       cy="90.171875"
       fx="48"
       fy="90.171875"
       r="42" />
    <linearGradient
       inkscape:collect="always"
       xlink:href="#linearGradient3737"
       id="linearGradient4130"
       gradientUnits="userSpaceOnUse"
       x1="36.357143"
       y1="6"
       x2="36.357143"
       y2="63.893143" />
    <linearGradient
       inkscape:collect="always"
       xlink:href="#linearGradient4135"
       id="linearGradient4133"
       gradientUnits="userSpaceOnUse"
       x1="48"
       y1="90"
       x2="48"
       y2="5.9877172" />
    <radialGradient
       inkscape:collect="always"
       xlink:href="#linearGradient4909"
       id="radialGradient4915"
       cx="48"
       cy="48"
       fx="48"
       fy="48"
       r="27.527387"
       gradientTransform="matrix(0.90717851,0,0,0.92043872,4.4554316,3.8189375)"
       gradientUnits="userSpaceOnUse" />
    <linearGradient
       inkscape:collect="always"
       xlink:href="#linearGradient4919"
       id="linearGradient4925"
       x1="9.887063"
       y1="31.209126"
       x2="59.466553"
       y2="54.570343"
       gradientUnits="userSpaceOnUse" />
    <linearGradient
       gradientUnits="userSpaceOnUse"
       xlink:href="#linearGradient3697"
       id="linearGradient3703"
       y2="64"
       x2="16"
       y1="16"
       x1="96" />
    <linearGradient
       gradientTransform="matrix(1.0238095,0,0,1.0119048,-1.1428571,-98.071429)"
       gradientUnits="userSpaceOnUse"
       xlink:href="#ButtonShadow-0-2"
       id="linearGradient3026-2"
       y2="90.238609"
       x2="32.251034"
       y1="6.1317081"
       x1="32.251034" />
    <linearGradient
       gradientTransform="translate(0,-97)"
       gradientUnits="userSpaceOnUse"
       xlink:href="#ButtonShadow-0-2"
       id="linearGradient3721-3"
       y2="90.238609"
       x2="32.251034"
       y1="6.1317081"
       x1="32.251034" />
    <linearGradient
       gradientTransform="matrix(1.0238095,0,0,1.0119048,-1.1428571,-98.071429)"
       gradientUnits="userSpaceOnUse"
       xlink:href="#ButtonShadow-0-2"
       id="linearGradient3725-2"
       y2="90.238609"
       x2="32.251034"
       y1="6.1317081"
       x1="32.251034" />
    <linearGradient
       gradientTransform="matrix(1.0238095,0,0,1.0119048,-1.1428571,-98.071429)"
       gradientUnits="userSpaceOnUse"
       xlink:href="#ButtonShadow-0-2"
       id="linearGradient3772-4"
       y2="90.238609"
       x2="32.251034"
       y1="6.1317081"
       x1="32.251034" />
    <linearGradient
       gradientTransform="matrix(1.0238095,0,0,1.0119048,-1.1428571,-98.071429)"
       gradientUnits="userSpaceOnUse"
       xlink:href="#ButtonShadow-0-2"
       id="linearGradient3780-1"
       y2="90.238609"
       x2="32.251034"
       y1="6.1317081"
       x1="32.251034" />
    <linearGradient
       gradientTransform="matrix(1.0058652,0,0,0.994169,100,0)"
       gradientUnits="userSpaceOnUse"
       id="ButtonShadow-0-2"
       y2="7.0165396"
       x2="45.447727"
       y1="92.539597"
       x1="45.447727">
      <stop
         offset="0"
         style="stop-color:#000000;stop-opacity:1"
         id="stop3750-8-7" />
      <stop
         offset="1"
         style="stop-color:#000000;stop-opacity:0.58823532"
         id="stop3752-5-6" />
    </linearGradient>
    <linearGradient
       gradientUnits="userSpaceOnUse"
       xlink:href="#linearGradient3700"
       id="linearGradient3617"
       y2="5.9877172"
       x2="48"
       y1="90"
       x1="48" />
    <clipPath
       id="clipPath3613-1">
      <rect
         style="fill:#ffffff;fill-opacity:1;fill-rule:nonzero;stroke:none"
         id="rect3615-5"
         y="6"
         x="6"
         ry="6"
         rx="6"
         height="84"
         width="84" />
    </clipPath>
    <radialGradient
       gradientTransform="matrix(1.1573129,0,0,0.99590774,-7.5510206,0.19713193)"
       gradientUnits="userSpaceOnUse"
       xlink:href="#linearGradient3737-4"
       id="radialGradient3619-1"
       fy="90.171875"
       fx="48"
       r="42"
       cy="90.171875"
       cx="48" />
    <linearGradient
       gradientUnits="userSpaceOnUse"
       xlink:href="#linearGradient3737-4"
       id="linearGradient3613-7"
       y2="138.66119"
       x2="48"
       y1="20.220806"
       x1="48" />
    <filter
       id="filter3794-5"
       color-interpolation-filters="sRGB"
       height="1.3839999"
       width="1.3839999"
       y="-0.192"
       x="-0.192">
      <feGaussianBlur
         stdDeviation="5.28"
         id="feGaussianBlur3796-1" />
    </filter>
    <linearGradient
       gradientUnits="userSpaceOnUse"
       xlink:href="#linearGradient3737-4"
       id="linearGradient3188-5"
       y2="63.893143"
       x2="36.357143"
       y1="6"
       x1="36.357143" />
    <filter
       id="filter3174-2"
       color-interpolation-filters="sRGB">
      <feGaussianBlur
         stdDeviation="1.71"
         id="feGaussianBlur3176-4" />
    </filter>
    <linearGradient
       id="linearGradient3700">
      <stop
         offset="0"
         style="stop-color:#ca0019;stop-opacity:1"
         id="stop3702" />
      <stop
         offset="1"
         style="stop-color:#e68995;stop-opacity:1"
         id="stop3704" />
    </linearGradient>
    <linearGradient
       id="linearGradient3737-4">
      <stop
         offset="0"
         style="stop-color:#ffffff;stop-opacity:1"
         id="stop3739-8" />
      <stop
         offset="1"
         style="stop-color:#ffffff;stop-opacity:0"
         id="stop3741-8" />
    </linearGradient>
    <linearGradient
       gradientTransform="scale(1.0058652,0.994169)"
       gradientUnits="userSpaceOnUse"
       id="ButtonShadow-4"
       y2="7.0165396"
       x2="45.447727"
       y1="92.539597"
       x1="45.447727">
      <stop
         offset="0"
         style="stop-color:#000000;stop-opacity:1"
         id="stop3750-0" />
      <stop
         offset="1"
         style="stop-color:#000000;stop-opacity:0.58823532"
         id="stop3752-9" />
    </linearGradient>
    <linearGradient
       id="linearGradient3697">
      <stop
         offset="0"
         style="stop-color:#ffffff;stop-opacity:1"
         id="stop3699" />
      <stop
         offset="1"
         style="stop-color:#ffffff;stop-opacity:0"
         id="stop3701" />
    </linearGradient>
    <linearGradient
       inkscape:collect="always"
       xlink:href="#linearGradient3737-4"
       id="linearGradient5406"
       gradientUnits="userSpaceOnUse"
       x1="48"
       y1="20.220806"
       x2="48"
       y2="138.66119" />
    <linearGradient
       inkscape:collect="always"
       xlink:href="#linearGradient3700"
       id="linearGradient5408"
       gradientUnits="userSpaceOnUse"
       x1="48"
       y1="90"
       x2="48"
       y2="5.9877172" />
    <linearGradient
       inkscape:collect="always"
       xlink:href="#linearGradient3737-4"
       id="linearGradient5410"
       gradientUnits="userSpaceOnUse"
       x1="36.357143"
       y1="6"
       x2="36.357143"
       y2="63.893143" />
    <radialGradient
       inkscape:collect="always"
       xlink:href="#linearGradient3737-4"
       id="radialGradient5412"
       gradientUnits="userSpaceOnUse"
       gradientTransform="matrix(1.1573129,0,0,0.99590774,-7.5510206,0.19713193)"
       cx="48"
       cy="90.171875"
       fx="48"
       fy="90.171875"
       r="42" />
    <linearGradient
       inkscape:collect="always"
       xlink:href="#linearGradient3697"
       id="linearGradient5414"
       gradientUnits="userSpaceOnUse"
       x1="96"
       y1="16"
       x2="16"
       y2="64" />
    <linearGradient
       inkscape:collect="always"
       xlink:href="#linearGradient3697"
       id="linearGradient5417"
       gradientUnits="userSpaceOnUse"
       x1="96"
       y1="16"
       x2="16"
       y2="64"
       gradientTransform="translate(-1.4e-7,0.04066465)" />
    <radialGradient
       inkscape:collect="always"
       xlink:href="#linearGradient3737-4"
       id="radialGradient5421"
       gradientUnits="userSpaceOnUse"
       gradientTransform="matrix(1.1573129,0,0,0.99590774,101.37829,-60.675554)"
       cx="48"
       cy="90.171875"
       fx="48"
       fy="90.171875"
       r="42" />
    <linearGradient
       inkscape:collect="always"
       xlink:href="#linearGradient3737-4"
       id="linearGradient5424"
       gradientUnits="userSpaceOnUse"
       x1="36.357143"
       y1="6"
       x2="36.357143"
       y2="63.893143"
       gradientTransform="translate(108.92931,-60.872686)" />
    <linearGradient
       inkscape:collect="always"
       xlink:href="#linearGradient3700"
       id="linearGradient5430"
       gradientUnits="userSpaceOnUse"
       x1="48"
       y1="90"
       x2="48"
       y2="5.9877172"
       gradientTransform="translate(108.92931,-60.872686)" />
  </defs>
  <metadata
     id="metadata2413">
    <rdf:RDF>
      <cc:Work
         rdf:about="">
        <dc:format>image/svg+xml</dc:format>
        <dc:type
           rdf:resource="http://purl.org/dc/dcmitype/StillImage" />
        <dc:title></dc:title>
      </cc:Work>
    </rdf:RDF>
  </metadata>
  <g
     id="layer2"
     style="display:none">
    <rect
       width="86"
       height="85"
       rx="6"
       ry="6"
       x="5"
       y="7"
       id="rect3745"
       style="opacity:0.9;fill:url(#ButtonShadow);fill-opacity:1;fill-rule:nonzero;stroke:none;filter:url(#filter3174)" />
  </g>
  <g
     id="layer2-1"
     style="display:none"
     transform="translate(116.15632,-78.42399)">
    <rect
       width="86"
       height="85"
       rx="6"
       ry="6"
       x="5"
       y="7"
       id="rect3745-6"
       style="opacity:0.9;fill:url(#ButtonShadow-4);fill-opacity:1;fill-rule:nonzero;stroke:none;filter:url(#filter3174-2)" />
  </g>
  <g
     id="g5432">
    <g
       id="layer3">
      <path
         style="opacity:0.07999998;fill:url(#linearGradient3026);fill-opacity:1;fill-rule:nonzero;stroke:none;display:inline"
         id="path3786"
         transform="scale(1,-1)"
         d="m 12,-95.03125 c -5.5110903,0 -10.03125,4.52016 -10.03125,10.03125 l 0,71 c 0,5.5110902 4.5201598,10.03125 10.03125,10.03125 l 72,0 c 5.51109,0 10.03125,-4.5201597 10.03125,-10.03125 l 0,-71 c 0,-5.51109 -4.52016,-10.03125 -10.03125,-10.03125 l -72,0 z" />
      <path
         style="opacity:0.1;fill:url(#linearGradient3780);fill-opacity:1;fill-rule:nonzero;stroke:none;display:inline"
         id="path3778"
         transform="scale(1,-1)"
         d="m 12,-94.03125 c -4.971633,0 -9.03125,4.059617 -9.03125,9.03125 l 0,71 c 0,4.9716329 4.0596171,9.03125 9.03125,9.03125 l 72,0 c 4.971633,0 9.03125,-4.059617 9.03125,-9.03125 l 0,-71 c 0,-4.971633 -4.059617,-9.03125 -9.03125,-9.03125 l -72,0 z" />
      <path
         style="opacity:0.2;fill:url(#linearGradient3772);fill-opacity:1;fill-rule:nonzero;stroke:none;display:inline"
         id="path3770"
         transform="scale(1,-1)"
         d="m 12,-93 c -4.4091333,0 -8,3.590867 -8,8 l 0,71 c 0,4.4091333 3.5908667,8 8,8 l 72,0 c 4.409133,0 8,-3.5908667 8,-8 l 0,-71 c 0,-4.409133 -3.590867,-8 -8,-8 l -72,0 z" />
      <rect
         style="opacity:0.3;fill:url(#linearGradient3725);fill-opacity:1;fill-rule:nonzero;stroke:none;display:inline"
         id="rect3723"
         transform="scale(1,-1)"
         y="-92"
         x="5"
         ry="7"
         rx="7"
         height="85"
         width="86" />
      <rect
         style="opacity:0.45;fill:url(#linearGradient3721);fill-opacity:1;fill-rule:nonzero;stroke:none;display:inline"
         id="rect3716"
         transform="scale(1,-1)"
         y="-91"
         x="6"
         ry="6"
         rx="6"
         height="84"
         width="84" />
    </g>
    <rect
       width="84"
       height="84"
       rx="6"
       ry="6"
       x="6"
       y="6"
       id="rect2419-5"
       style="fill:url(#linearGradient4133);fill-opacity:1;fill-rule:nonzero;stroke:none;display:inline" />
    <path
       d="M 12,6 C 8.6759996,6 5.9999996,8.676 5.9999996,12 l 0,2 0,68 0,2 c 0,0.334721 0.04135,0.6507 0.09375,0.96875 0.0487,0.295596 0.09704,0.596915 0.1875,0.875 0.0099,0.03038 0.02089,0.0636 0.03125,0.09375 0.09886,0.287771 0.234881,0.547452 0.375,0.8125 0.144592,0.273507 0.315617,0.535615 0.5,0.78125 0.184384,0.245635 0.373777,0.473472 0.59375,0.6875 0.439947,0.428056 0.94291,0.814526 1.5,1.09375 0.278545,0.139612 0.573474,0.246947 0.8750004,0.34375 -0.2562014,-0.100222 -0.4867104,-0.236272 -0.7187504,-0.375 -0.0074,-0.0044 -0.02387,0.0045 -0.03125,0 -0.03193,-0.0193 -0.06229,-0.04251 -0.09375,-0.0625 -0.120395,-0.0767 -0.231022,-0.163513 -0.34375,-0.25 -0.106172,-0.0808 -0.21328,-0.161112 -0.3125,-0.25 -0.177929,-0.161433 -0.347459,-0.345388 -0.5,-0.53125 -0.107578,-0.130255 -0.218393,-0.265285 -0.3125,-0.40625 -0.02509,-0.03838 -0.03845,-0.08587 -0.0625,-0.125 -0.06476,-0.103032 -0.130227,-0.204517 -0.1875,-0.3125 -0.101008,-0.194706 -0.205674,-0.415701 -0.28125,-0.625 -0.008,-0.02181 -0.02359,-0.04055 -0.03125,-0.0625 -0.03183,-0.09195 -0.0358,-0.186831 -0.0625,-0.28125 -0.03033,-0.106618 -0.07039,-0.203031 -0.09375,-0.3125 -0.07288,-0.341512 -0.125,-0.698205 -0.125,-1.0625 l 0,-2 0,-68 0,-2 c 0,-2.781848 2.218152,-5 5.0000004,-5 l 2,0 68,0 2,0 c 2.781847,0 4.999997,2.218152 4.999997,5 l 0,2 0,68 0,2 c 0,0.364295 -0.0521,0.720988 -0.125,1.0625 -0.0442,0.206893 -0.0884,0.397658 -0.15625,0.59375 -0.008,0.02195 -0.0233,0.04069 -0.0312,0.0625 -0.0627,0.173739 -0.13838,0.367449 -0.21875,0.53125 -0.0416,0.0828 -0.079,0.169954 -0.125,0.25 -0.0546,0.09721 -0.12677,0.18835 -0.1875,0.28125 -0.0941,0.140965 -0.20492,0.275995 -0.3125,0.40625 -0.14317,0.17445 -0.30314,0.346998 -0.46875,0.5 -0.0112,0.0102 -0.02,0.02115 -0.0312,0.03125 -0.13838,0.125556 -0.28509,0.234436 -0.4375,0.34375 -0.10257,0.07315 -0.20431,0.153364 -0.3125,0.21875 -0.007,0.0045 -0.0238,-0.0044 -0.0312,0 -0.232036,0.138728 -0.462545,0.274778 -0.718747,0.375 0.301527,-0.0968 0.596455,-0.204138 0.874997,-0.34375 0.55709,-0.279224 1.06006,-0.665694 1.5,-1.09375 0.21998,-0.214028 0.40937,-0.441865 0.59375,-0.6875 0.18439,-0.245635 0.35541,-0.507743 0.5,-0.78125 0.14012,-0.265048 0.27614,-0.524729 0.375,-0.8125 0.0104,-0.03078 0.0213,-0.06274 0.0312,-0.09375 0.0905,-0.278085 0.1388,-0.579404 0.1875,-0.875 0.0524,-0.31805 0.0937,-0.634029 0.0937,-0.96875 l 0,-2 0,-68 0,-2 c 0,-3.324 -2.676,-6 -5.999997,-6 l -72,0 z"
       inkscape:connector-curvature="0"
       id="rect3728"
       style="opacity:0.35;fill:url(#linearGradient4130);fill-opacity:1;fill-rule:nonzero;stroke:none" />
    <path
       d="M 12,90 C 8.676,90 6,87.324 6,84 L 6,82 6,14 6,12 c 0,-0.334721 0.04135,-0.6507 0.09375,-0.96875 0.0487,-0.295596 0.09704,-0.596915 0.1875,-0.875 C 6.29113,10.12587 6.302142,10.09265 6.3125,10.0625 6.411365,9.774729 6.5473802,9.515048 6.6875,9.25 6.8320918,8.976493 7.0031161,8.714385 7.1875,8.46875 7.3718839,8.223115 7.5612765,7.995278 7.78125,7.78125 8.221197,7.353194 8.72416,6.966724 9.28125,6.6875 9.559795,6.547888 9.8547231,6.440553 10.15625,6.34375 9.9000482,6.443972 9.6695391,6.580022 9.4375,6.71875 c -0.00741,0.0044 -0.023866,-0.0045 -0.03125,0 -0.031933,0.0193 -0.062293,0.04251 -0.09375,0.0625 -0.120395,0.0767 -0.2310226,0.163513 -0.34375,0.25 -0.1061728,0.0808 -0.2132809,0.161112 -0.3125,0.25 C 8.4783201,7.442683 8.3087904,7.626638 8.15625,7.8125 8.0486711,7.942755 7.9378561,8.077785 7.84375,8.21875 7.818661,8.25713 7.805304,8.30462 7.78125,8.34375 7.716487,8.446782 7.6510225,8.548267 7.59375,8.65625 7.4927417,8.850956 7.3880752,9.071951 7.3125,9.28125 7.30454,9.30306 7.288911,9.3218 7.28125,9.34375 7.2494249,9.4357 7.2454455,9.530581 7.21875,9.625 7.1884177,9.731618 7.1483606,9.828031 7.125,9.9375 7.0521214,10.279012 7,10.635705 7,11 l 0,2 0,68 0,2 c 0,2.781848 2.2181517,5 5,5 l 2,0 68,0 2,0 c 2.781848,0 5,-2.218152 5,-5 l 0,-2 0,-68 0,-2 C 89,10.635705 88.94788,10.279012 88.875,9.9375 88.83085,9.730607 88.78662,9.539842 88.71875,9.34375 88.71105,9.3218 88.69545,9.30306 88.6875,9.28125 88.62476,9.107511 88.549117,8.913801 88.46875,8.75 88.42717,8.6672 88.38971,8.580046 88.34375,8.5 88.28915,8.40279 88.216976,8.31165 88.15625,8.21875 88.06214,8.077785 87.951329,7.942755 87.84375,7.8125 87.700576,7.63805 87.540609,7.465502 87.375,7.3125 87.36383,7.3023 87.35502,7.29135 87.34375,7.28125 87.205364,7.155694 87.058659,7.046814 86.90625,6.9375 86.803679,6.86435 86.701932,6.784136 86.59375,6.71875 c -0.0074,-0.0045 -0.02384,0.0044 -0.03125,0 -0.232039,-0.138728 -0.462548,-0.274778 -0.71875,-0.375 0.301527,0.0968 0.596455,0.204138 0.875,0.34375 0.55709,0.279224 1.060053,0.665694 1.5,1.09375 0.219973,0.214028 0.409366,0.441865 0.59375,0.6875 0.184384,0.245635 0.355408,0.507743 0.5,0.78125 0.14012,0.265048 0.276135,0.524729 0.375,0.8125 0.01041,0.03078 0.02133,0.06274 0.03125,0.09375 0.09046,0.278085 0.1388,0.579404 0.1875,0.875 C 89.95865,11.3493 90,11.665279 90,12 l 0,2 0,68 0,2 c 0,3.324 -2.676,6 -6,6 l -72,0 z"
       inkscape:connector-curvature="0"
       id="path3615"
       style="opacity:0.2;fill:url(#radialGradient4127);fill-opacity:1;fill-rule:nonzero;stroke:none" />
    <g
       style="display:inline"
       id="layer5">
      <rect
         style="opacity:0.1;fill:url(#linearGradient3613);fill-opacity:1;fill-rule:nonzero;stroke:#ffffff;stroke-width:0.5;stroke-linecap:round;stroke-linejoin:miter;stroke-miterlimit:4;stroke-opacity:1;stroke-dasharray:none;stroke-dashoffset:0;filter:url(#filter3794)"
         id="rect3171"
         clip-path="url(#clipPath3613)"
         y="15"
         x="15"
         ry="12"
         rx="12"
         height="66"
         width="66" />
    </g>
    <path
       d="m 40.625,12.75 c -4.47894,0.933301 -8.644572,2.72742 -12.34375,5.15625 0.107811,2.695429 -0.851192,5.413692 -2.90625,7.46875 -2.055058,2.055058 -4.773321,3.014061 -7.46875,2.90625 C 15.47742,31.980428 13.683301,36.14606 12.75,40.625 14.748159,42.453374 16,45.078115 16,48 c 0,2.921885 -1.251841,5.546626 -3.25,7.375 0.933301,4.47894 2.72742,8.644572 5.15625,12.34375 2.695429,-0.107811 5.413692,0.851192 7.46875,2.90625 2.055058,2.055058 3.014061,4.773321 2.90625,7.46875 C 31.980428,80.52258 36.14606,82.316699 40.625,83.25 42.453374,81.251841 45.078115,80 48,80 c 2.921885,0 5.546626,1.251841 7.375,3.25 4.464448,-0.930281 8.622233,-2.708308 12.3125,-5.125 -0.0063,-0.144349 0,-0.293178 0,-0.4375 0,-2.559223 0.984879,-5.109879 2.9375,-7.0625 2.055058,-2.055058 4.773321,-3.014061 7.46875,-2.90625 C 80.52258,64.019572 82.316699,59.85394 83.25,55.375 81.251841,53.546626 80,50.921885 80,48 80,45.078115 81.251841,42.453374 83.25,40.625 82.316699,36.14606 80.52258,31.980428 78.09375,28.28125 75.398321,28.389061 72.680058,27.430058 70.625,25.375 c -1.952621,-1.952621 -2.9375,-4.503277 -2.9375,-7.0625 0,-0.144322 -0.0063,-0.293151 0,-0.4375 C 63.997233,15.458308 59.839448,13.680281 55.375,12.75 53.546626,14.748159 50.921885,16 48,16 45.078115,16 42.453374,14.748159 40.625,12.75 z"
       inkscape:connector-curvature="0"
       id="path3683"
       style="color:#000000;fill:url(#radialGradient4097);fill-opacity:1;fill-rule:nonzero;stroke:none;stroke-width:1;marker:none;visibility:visible;display:inline;overflow:visible;enable-background:accumulate" />
    <path
       d="m 40.625,12.75 c -4.47894,0.933301 -8.644572,2.72742 -12.34375,5.15625 0.107811,2.695429 -0.851192,5.413692 -2.90625,7.46875 -2.055058,2.055058 -4.773321,3.014061 -7.46875,2.90625 C 15.47742,31.980428 13.683301,36.14606 12.75,40.625 14.748159,42.453374 16,45.078115 16,48 c 0,2.921885 -1.251841,5.546626 -3.25,7.375 0.933301,4.47894 2.72742,8.644572 5.15625,12.34375 2.695429,-0.107811 5.413692,0.851192 7.46875,2.90625 2.055058,2.055058 3.014061,4.773321 2.90625,7.46875 C 31.980428,80.52258 36.14606,82.316699 40.625,83.25 42.453374,81.251841 45.078115,80 48,80 c 2.921885,0 5.546626,1.251841 7.375,3.25 4.464448,-0.930281 8.622233,-2.708308 12.3125,-5.125 -0.0063,-0.144349 0,-0.293178 0,-0.4375 0,-2.559223 0.984879,-5.109879 2.9375,-7.0625 2.055058,-2.055058 4.773321,-3.014061 7.46875,-2.90625 C 80.52258,64.019572 82.316699,59.85394 83.25,55.375 81.251841,53.546626 80,50.921885 80,48 80,45.078115 81.251841,42.453374 83.25,40.625 82.316699,36.14606 80.52258,31.980428 78.09375,28.28125 75.398321,28.389061 72.680058,27.430058 70.625,25.375 c -1.952621,-1.952621 -2.9375,-4.503277 -2.9375,-7.0625 0,-0.144322 -0.0063,-0.293151 0,-0.4375 C 63.997233,15.458308 59.839448,13.680281 55.375,12.75 53.546626,14.748159 50.921885,16 48,16 45.078115,16 42.453374,14.748159 40.625,12.75 z M 40,15.59375 c 2.176519,1.817085 4.956334,2.9375 8,2.9375 3.043666,0 5.823481,-1.120415 8,-2.9375 3.34935,0.830734 6.531149,2.1444 9.40625,3.90625 0.274213,2.794605 1.312565,5.531315 3.4375,7.65625 2.141486,2.141486 4.88346,3.301918 7.6875,3.5625 1.737768,2.852158 3.051926,5.969107 3.875,9.28125 -1.817085,2.176519 -2.9375,4.956334 -2.9375,8 0,3.043666 1.120415,5.823481 2.9375,8 -0.823074,3.312143 -2.137232,6.429092 -3.875,9.28125 -2.80404,0.260582 -5.546014,1.421014 -7.6875,3.5625 -2.124935,2.124935 -3.163287,4.861645 -3.4375,7.65625 -2.875101,1.76185 -6.0569,3.075516 -9.40625,3.90625 -2.176519,-1.817085 -4.956334,-2.9375 -8,-2.9375 -3.043666,0 -5.823481,1.120415 -8,2.9375 -3.312143,-0.823074 -6.429092,-2.137232 -9.28125,-3.875 -0.260582,-2.80404 -1.421014,-5.546014 -3.5625,-7.6875 -2.141486,-2.141486 -4.88346,-3.301918 -7.6875,-3.5625 -1.737768,-2.852158 -3.051926,-5.969107 -3.875,-9.28125 1.817085,-2.176519 2.9375,-4.956334 2.9375,-8 0,-3.043666 -1.120415,-5.823481 -2.9375,-8 0.823074,-3.312143 2.137232,-6.429092 3.875,-9.28125 2.80404,-0.260582 5.546014,-1.421014 7.6875,-3.5625 2.141486,-2.141486 3.301918,-4.88346 3.5625,-7.6875 2.852158,-1.737768 5.969107,-3.051926 9.28125,-3.875 z"
       inkscape:connector-curvature="0"
       id="path3937"
       style="opacity:0.05;color:#000000;fill:#000000;fill-opacity:1;fill-rule:nonzero;stroke:none;stroke-width:1;marker:none;visibility:visible;display:inline;overflow:visible;enable-background:accumulate" />
    <path
       d="m 40.625,12.75 c -4.47894,0.933301 -8.644572,2.72742 -12.34375,5.15625 0.107811,2.695429 -0.851192,5.413692 -2.90625,7.46875 -2.055058,2.055058 -4.773321,3.014061 -7.46875,2.90625 C 15.47742,31.980428 13.683301,36.14606 12.75,40.625 14.748159,42.453374 16,45.078115 16,48 c 0,2.921885 -1.251841,5.546626 -3.25,7.375 0.933301,4.47894 2.72742,8.644572 5.15625,12.34375 2.695429,-0.107811 5.413692,0.851192 7.46875,2.90625 2.055058,2.055058 3.014061,4.773321 2.90625,7.46875 C 31.980428,80.52258 36.14606,82.316699 40.625,83.25 42.453374,81.251841 45.078115,80 48,80 c 2.921885,0 5.546626,1.251841 7.375,3.25 4.464448,-0.930281 8.622233,-2.708308 12.3125,-5.125 -0.0063,-0.144349 0,-0.293178 0,-0.4375 0,-2.559223 0.984879,-5.109879 2.9375,-7.0625 2.055058,-2.055058 4.773321,-3.014061 7.46875,-2.90625 C 80.52258,64.019572 82.316699,59.85394 83.25,55.375 81.251841,53.546626 80,50.921885 80,48 80,45.078115 81.251841,42.453374 83.25,40.625 82.316699,36.14606 80.52258,31.980428 78.09375,28.28125 75.398321,28.389061 72.680058,27.430058 70.625,25.375 c -1.952621,-1.952621 -2.9375,-4.503277 -2.9375,-7.0625 0,-0.144322 -0.0063,-0.293151 0,-0.4375 C 63.997233,15.458308 59.839448,13.680281 55.375,12.75 53.546626,14.748159 50.921885,16 48,16 45.078115,16 42.453374,14.748159 40.625,12.75 z m -0.28125,2 c 2.079603,1.816844 4.687085,3.0625 7.65625,3.0625 2.969165,0 5.576647,-1.245656 7.65625,-3.0625 3.726866,0.858824 7.217179,2.338387 10.375,4.3125 0.181752,2.766523 1.209381,5.490631 3.3125,7.59375 2.092955,2.092955 4.788624,3.060362 7.53125,3.25 1.998156,3.17731 3.509274,6.685072 4.375,10.4375 -1.816844,2.079603 -3.0625,4.687085 -3.0625,7.65625 0,2.969165 1.245656,5.576647 3.0625,7.65625 -0.865726,3.752428 -2.376844,7.26019 -4.375,10.4375 -2.742626,0.189638 -5.438295,1.157045 -7.53125,3.25 -2.103119,2.103119 -3.130748,4.827227 -3.3125,7.59375 -3.157821,1.974113 -6.648134,3.453676 -10.375,4.3125 C 53.576647,79.433156 50.969165,78.1875 48,78.1875 c -2.969165,0 -5.576647,1.245656 -7.65625,3.0625 -3.752428,-0.865726 -7.26019,-2.376844 -10.4375,-4.375 -0.189638,-2.742626 -1.157045,-5.438295 -3.25,-7.53125 -2.092955,-2.092955 -4.788624,-3.060362 -7.53125,-3.25 -1.998156,-3.17731 -3.509274,-6.685072 -4.375,-10.4375 1.816844,-2.079603 3.0625,-4.687085 3.0625,-7.65625 0,-2.969165 -1.245656,-5.576647 -3.0625,-7.65625 0.865726,-3.752428 2.376844,-7.26019 4.375,-10.4375 2.742626,-0.189638 5.438295,-1.157045 7.53125,-3.25 2.092955,-2.092955 3.060362,-4.788624 3.25,-7.53125 3.17731,-1.998156 6.685072,-3.509274 10.4375,-4.375 z"
       inkscape:connector-curvature="0"
       id="path3927"
       style="opacity:0.1;color:#000000;fill:#000000;fill-opacity:1;fill-rule:nonzero;stroke:none;stroke-width:1;marker:none;visibility:visible;display:inline;overflow:visible;enable-background:accumulate" />
    <path
       d="m 40.625,12.75 c -4.47894,0.933301 -8.644572,2.72742 -12.34375,5.15625 0.01348,0.336929 0.01992,0.663698 0,1 C 31.980428,16.47742 36.14606,14.683301 40.625,13.75 42.453374,15.748159 45.078115,17 48,17 c 2.921885,0 5.546626,-1.251841 7.375,-3.25 4.464448,0.930281 8.622233,2.708308 12.3125,5.125 -0.0063,0.144349 0,0.293178 0,0.4375 0,2.559223 0.984879,5.109879 2.9375,7.0625 2.055058,2.055058 4.773321,3.014061 7.46875,2.90625 2.279753,3.472129 3.994348,7.363861 4.96875,11.53125 0.06355,-0.0613 0.122343,-0.127879 0.1875,-0.1875 -0.933301,-4.47894 -2.72742,-8.644572 -5.15625,-12.34375 -2.695429,0.107811 -5.413692,-0.851192 -7.46875,-2.90625 -1.952621,-1.952621 -2.9375,-4.503277 -2.9375,-7.0625 0,-0.144322 -0.0063,-0.293151 0,-0.4375 C 63.997233,15.458308 59.839448,13.680281 55.375,12.75 53.546626,14.748159 50.921885,16 48,16 45.078115,16 42.453374,14.748159 40.625,12.75 z m -12.34375,6.15625 c -0.139431,2.354116 -1.108074,4.670574 -2.90625,6.46875 -2.055058,2.055058 -4.773321,3.014061 -7.46875,2.90625 -2.42883,3.699178 -4.222949,7.86481 -5.15625,12.34375 0.06516,0.05962 0.123947,0.126203 0.1875,0.1875 0.974402,-4.167389 2.688997,-8.059121 4.96875,-11.53125 2.695429,0.107811 5.413692,-0.851192 7.46875,-2.90625 2.055058,-2.055058 3.014061,-4.773321 2.90625,-7.46875 z M 15.96875,48.5 c -0.133374,2.721303 -1.334806,5.151136 -3.21875,6.875 0.05728,0.27491 0.123782,0.539987 0.1875,0.8125 C 14.822896,54.369017 16,51.826606 16,49 16,48.832984 15.97684,48.664981 15.96875,48.5 z m 64.0625,0 C 80.023164,48.664981 80,48.832984 80,49 c 0,2.826606 1.177104,5.369017 3.0625,7.1875 0.06372,-0.272513 0.130216,-0.53759 0.1875,-0.8125 -1.883944,-1.723864 -3.085376,-4.153697 -3.21875,-6.875 z"
       inkscape:connector-curvature="0"
       id="path3914"
       style="opacity:0.3;color:#000000;fill:#000000;fill-opacity:1;fill-rule:nonzero;stroke:none;stroke-width:1;marker:none;visibility:visible;display:inline;overflow:visible;enable-background:accumulate" />
    <path
       d="m 40.625,12.75 c -4.47894,0.933301 -8.644572,2.72742 -12.34375,5.15625 0.107811,2.695429 -0.851192,5.413692 -2.90625,7.46875 -2.055058,2.055058 -4.773321,3.014061 -7.46875,2.90625 C 15.47742,31.980428 13.683301,36.14606 12.75,40.625 14.748159,42.453374 16,45.078115 16,48 c 0,2.921885 -1.251841,5.546626 -3.25,7.375 0.933301,4.47894 2.72742,8.644572 5.15625,12.34375 2.695429,-0.107811 5.413692,0.851192 7.46875,2.90625 2.055058,2.055058 3.014061,4.773321 2.90625,7.46875 C 31.980428,80.52258 36.14606,82.316699 40.625,83.25 42.453374,81.251841 45.078115,80 48,80 c 2.921885,0 5.546626,1.251841 7.375,3.25 4.464448,-0.930281 8.622233,-2.708308 12.3125,-5.125 -0.0063,-0.144349 0,-0.293178 0,-0.4375 0,-2.559223 0.984879,-5.109879 2.9375,-7.0625 2.055058,-2.055058 4.773321,-3.014061 7.46875,-2.90625 C 80.52258,64.019572 82.316699,59.85394 83.25,55.375 81.251841,53.546626 80,50.921885 80,48 80,45.078115 81.251841,42.453374 83.25,40.625 82.316699,36.14606 80.52258,31.980428 78.09375,28.28125 75.398321,28.389061 72.680058,27.430058 70.625,25.375 c -1.952621,-1.952621 -2.9375,-4.503277 -2.9375,-7.0625 0,-0.144322 -0.0063,-0.293151 0,-0.4375 C 63.997233,15.458308 59.839448,13.680281 55.375,12.75 53.546626,14.748159 50.921885,16 48,16 45.078115,16 42.453374,14.748159 40.625,12.75 z m -0.1875,1 c 1.962068,1.914304 4.608688,3.15625 7.5625,3.15625 2.962199,0 5.630234,-1.232333 7.59375,-3.15625 4.046471,0.896687 7.826215,2.49224 11.21875,4.65625 C 66.83751,21.161073 67.903933,23.903933 70,26 c 2.083183,2.083183 4.798288,3.086687 7.53125,3.125 2.193006,3.419516 3.817099,7.227944 4.71875,11.3125 -1.914304,1.962068 -3.15625,4.608688 -3.15625,7.5625 0,2.953812 1.241946,5.600432 3.15625,7.5625 -0.901651,4.084556 -2.525744,7.892984 -4.71875,11.3125 C 74.798288,66.913313 72.083183,67.916817 70,70 67.903933,72.096067 66.837507,74.838927 66.8125,77.59375 63.419965,79.75776 59.640221,81.353313 55.59375,82.25 53.630234,80.326083 50.962199,79.09375 48,79.09375 c -2.953812,0 -5.600432,1.241946 -7.5625,3.15625 C 36.352944,81.348349 32.544516,79.724256 29.125,77.53125 29.086687,74.798288 28.083183,72.083183 26,70 23.916817,67.916817 21.201712,66.913313 18.46875,66.875 16.275744,63.455484 14.651651,59.647056 13.75,55.5625 15.664304,53.600432 16.90625,50.953812 16.90625,48 c 0,-2.953812 -1.241946,-5.600432 -3.15625,-7.5625 0.901651,-4.084556 2.525744,-7.892984 4.71875,-11.3125 C 21.201712,29.086687 23.916817,28.083183 26,26 c 2.083183,-2.083183 3.086687,-4.798288 3.125,-7.53125 3.419516,-2.193006 7.227944,-3.817099 11.3125,-4.71875 z"
       inkscape:connector-curvature="0"
       id="path3923"
       style="opacity:0.15;color:#000000;fill:#000000;fill-opacity:1;fill-rule:nonzero;stroke:none;stroke-width:1;marker:none;visibility:visible;display:inline;overflow:visible;enable-background:accumulate" />
    <path
       d="m 12.9375,40.8125 c -0.06372,0.272513 -0.130216,0.53759 -0.1875,0.8125 1.883944,1.723864 3.085376,4.153697 3.21875,6.875 C 15.976836,48.335019 16,48.167016 16,48 16,45.173394 14.822896,42.630983 12.9375,40.8125 z m 70.125,0 C 81.177104,42.630983 80,45.173394 80,48 c 0,0.167016 0.02316,0.335019 0.03125,0.5 0.133374,-2.721303 1.334806,-5.151136 3.21875,-6.875 -0.05728,-0.27491 -0.123782,-0.539987 -0.1875,-0.8125 z m -70.125,15.375 c -0.06355,0.0613 -0.122343,0.127879 -0.1875,0.1875 0.933301,4.47894 2.72742,8.644572 5.15625,12.34375 2.695429,-0.107811 5.413692,0.851192 7.46875,2.90625 1.798176,1.798176 2.766819,4.114634 2.90625,6.46875 C 28.389061,75.398321 27.430058,72.680058 25.375,70.625 23.319942,68.569942 20.601679,67.610939 17.90625,67.71875 15.626497,64.246621 13.911902,60.354889 12.9375,56.1875 z m 15.34375,21.90625 c 0.01992,0.336302 0.01348,0.663071 0,1 C 31.980428,81.52258 36.14606,83.316699 40.625,84.25 42.453374,82.251841 45.078115,81 48,81 c 2.921885,0 5.546626,1.251841 7.375,3.25 4.464448,-0.930281 8.622233,-2.708308 12.3125,-5.125 -0.0063,-0.144349 0,-0.293178 0,-0.4375 0,-2.559223 0.984879,-5.109879 2.9375,-7.0625 2.055058,-2.055058 4.773321,-3.014061 7.46875,-2.90625 2.42883,-3.699178 4.222949,-7.86481 5.15625,-12.34375 -0.06516,-0.05962 -0.123947,-0.126203 -0.1875,-0.1875 -0.974402,4.167389 -2.688997,8.059121 -4.96875,11.53125 -2.695429,-0.107811 -5.413692,0.851192 -7.46875,2.90625 -1.952621,1.952621 -2.9375,4.503277 -2.9375,7.0625 0,0.144322 -0.0063,0.293151 0,0.4375 C 63.997233,80.541692 59.839448,82.319719 55.375,83.25 53.546626,81.251841 50.921885,80 48,80 c -2.921885,0 -5.546626,1.251841 -7.375,3.25 -4.47894,-0.933301 -8.644572,-2.72742 -12.34375,-5.15625 z"
       inkscape:connector-curvature="0"
       id="path3950"
       style="opacity:0.2;color:#000000;fill:#ffffff;fill-opacity:1;fill-rule:nonzero;stroke:none;stroke-width:1;marker:none;visibility:visible;display:inline;overflow:visible;enable-background:accumulate" />
    <path
       d="m 63.75,10.375 a 2.0741598,2.0741598 0 0 0 -1.21875,0.59375 l -14.5,14.5 -20.5,0 a 2.0741598,2.0741598 0 0 0 -2.0625,2.0625 l 0,20.5 -14.5,14.5 a 2.0741598,2.0741598 0 0 0 0,2.9375 l 14.5,14.5 0,20.5 a 2.0741598,2.0741598 0 0 0 2.0625,2.0625 l 20.5,0 14.5,14.5 a 2.0741598,2.0741598 0 0 0 2.9375,0 l 14.5,-14.5 20.5,0 a 2.0741598,2.0741598 0 0 0 2.0625,-2.0625 l 0,-20.5 14.5,-14.5 a 2.0741598,2.0741598 0 0 0 0,-2.9375 l -14.5,-14.5 0,-20.5 a 2.0741598,2.0741598 0 0 0 -2.0625,-2.0625 l -20.5,0 -14.5,-14.5 A 2.0741598,2.0741598 0 0 0 63.75,10.375 z M 64,26.5 74.125,36.84375 a 2.0741598,2.0741598 0 0 0 1.46875,0.625 l 14.34375,0 0,14.6875 a 2.0741598,2.0741598 0 0 0 0.59375,1.4375 L 100.6875,64 90.53125,74.40625 a 2.0741598,2.0741598 0 0 0 -0.59375,1.4375 l 0,14.6875 -14.34375,0 a 2.0741598,2.0741598 0 0 0 -1.46875,0.625 L 64,101.5 53.875,91.15625 a 2.0741598,2.0741598 0 0 0 -1.46875,-0.625 l -14.34375,0 0,-14.6875 a 2.0741598,2.0741598 0 0 0 -0.59375,-1.4375 L 27.3125,64 37.46875,53.59375 a 2.0741598,2.0741598 0 0 0 0.59375,-1.4375 l 0,-14.6875 14.34375,0 a 2.0741598,2.0741598 0 0 0 1.46875,-0.625 L 64,26.5 z"
       id="path3633"
       style="fill:#808000;fill-opacity:0.4388186;stroke:none"
       inkscape:original="M 64 12.4375 L 48.90625 27.53125 L 27.53125 27.53125 L 27.53125 48.90625 L 12.4375 64 L 27.53125 79.09375 L 27.53125 100.46875 L 48.90625 100.46875 L 64 115.5625 L 79.09375 100.46875 L 100.46875 100.46875 L 100.46875 79.09375 L 115.5625 64 L 100.46875 48.90625 L 100.46875 27.53125 L 79.09375 27.53125 L 64 12.4375 z M 64 23.5625 L 75.59375 35.40625 L 92 35.40625 L 92 52.15625 L 103.5625 64 L 92 75.84375 L 92 92.59375 L 75.59375 92.59375 L 64 104.4375 L 52.40625 92.59375 L 36 92.59375 L 36 75.84375 L 24.4375 64 L 36 52.15625 L 36 35.40625 L 52.40625 35.40625 L 64 23.5625 z "
       inkscape:radius="2.0739524"
       sodipodi:type="inkscape:offset"
       transform="matrix(0.53386445,0,0,0.53386445,13.832675,13.8325)" />
    <path
       id="rect3598"
       d="m 48.000002,20.472611 -8.058017,8.058017 -11.411351,0 0,11.411352 -8.05802,8.058017 8.058019,8.058017 0,11.411355 11.411351,0 8.058017,8.058019 8.058013,-8.058019 11.411354,0 0,-11.411355 8.058019,-8.058017 -8.058019,-8.058017 0,-11.411352 -11.411354,0 -8.058013,-8.058017 z m 0,5.939242 6.189487,6.322958 8.758714,0 0,8.942229 6.17281,6.322957 -6.17281,6.322957 0,8.942234 -8.758714,0 -6.189487,6.32295 -6.189492,-6.32295 -8.75871,0 0,-8.942233 -6.172814,-6.322958 6.172814,-6.322957 0,-8.942229 8.75871,0 6.189492,-6.322958 z"
       style="fill:url(#radialGradient4915);fill-opacity:1;stroke:none"
       inkscape:connector-curvature="0" />
    <path
       inkscape:connector-curvature="0"
       style="fill:url(#linearGradient4925);fill-opacity:1;stroke:none"
       d="m 48.000002,20.472611 -8.058017,8.058017 -11.411351,0 0,11.411352 -8.05802,8.058017 8.058019,8.058017 0,11.411355 11.411351,0 8.058017,8.058019 8.058013,-8.058019 11.411354,0 0,-11.411355 8.058019,-8.058017 -8.058019,-8.058017 0,-11.411352 -11.411354,0 -8.058013,-8.058017 z m 0,5.939242 6.189487,6.322958 8.758714,0 0,8.942229 6.17281,6.322957 -6.17281,6.322957 0,8.942234 -8.758714,0 -6.189487,6.32295 -6.189492,-6.32295 -8.75871,0 0,-8.942233 -6.172814,-6.322958 6.172814,-6.322957 0,-8.942229 8.75871,0 6.189492,-6.322958 z"
       id="path4917" />
    <path
       d="m 12,6.0406647 c -3.3240001,0 -6.0000001,2.676 -6.0000001,6.0000003 l 0,46.875 C 23.60856,47.393634 50.22874,40.040665 80,40.040665 c 3.37799,0 6.71203,0.09685 10,0.28125 l 0,-28.28125 C 90,8.7166647 87.324,6.0406647 84,6.0406647 l -72,0 z"
       inkscape:connector-curvature="0"
       id="rect3690"
       style="opacity:0.4;fill:url(#linearGradient5417);fill-opacity:1;fill-rule:nonzero;stroke:none" />
    <g
       id="layer5-7">
      <rect
         style="opacity:0.1;fill:url(#linearGradient5406);fill-opacity:1;fill-rule:nonzero;stroke:#ffffff;stroke-width:0.5;stroke-linecap:round;stroke-linejoin:miter;stroke-miterlimit:4;stroke-opacity:1;stroke-dasharray:none;stroke-dashoffset:0;filter:url(#filter3794-5)"
         id="rect3171-9"
         clip-path="url(#clipPath3613-1)"
         y="15"
         x="15"
         ry="12"
         rx="12"
         height="66"
         width="66" />
    </g>
  </g>
</svg>
