<?xml version="1.0" encoding="UTF-8" standalone="no"?>
<!-- Created with Inkscape (http://www.inkscape.org/) -->

<svg
   xmlns:dc="http://purl.org/dc/elements/1.1/"
   xmlns:cc="http://creativecommons.org/ns#"
   xmlns:rdf="http://www.w3.org/1999/02/22-rdf-syntax-ns#"
   xmlns:svg="http://www.w3.org/2000/svg"
   xmlns="http://www.w3.org/2000/svg"
   xmlns:xlink="http://www.w3.org/1999/xlink"
   xmlns:sodipodi="http://sodipodi.sourceforge.net/DTD/sodipodi-0.dtd"
   xmlns:inkscape="http://www.inkscape.org/namespaces/inkscape"
   version="1.0"
   width="96"
   height="96"
   id="svg2408"
   inkscape:version="0.48.2 r9819"
   sodipodi:docname="monajat.svg"
   inkscape:export-filename="C:\Documents and Settings\yas\Bureau\faenza-iap\monajat.png"
   inkscape:export-xdpi="127"
   inkscape:export-ydpi="127">
  <sodipodi:namedview
     pagecolor="#ffffff"
     bordercolor="#666666"
     borderopacity="1"
     objecttolerance="10"
     gridtolerance="10"
     guidetolerance="10"
     inkscape:pageopacity="0"
     inkscape:pageshadow="2"
     inkscape:window-width="1024"
     inkscape:window-height="714"
     id="namedview180"
     showgrid="false"
     inkscape:zoom="1.4142136"
     inkscape:cx="112.26686"
     inkscape:cy="43.395571"
     inkscape:window-x="-4"
     inkscape:window-y="-4"
     inkscape:window-maximized="1"
     inkscape:current-layer="svg2408"
     showguides="true"
     inkscape:guide-bbox="true" />
  <defs
     id="defs2410">
    <linearGradient
       inkscape:collect="always"
       id="linearGradient3943">
      <stop
         style="stop-color:#ffffff;stop-opacity:1"
         offset="0"
         id="stop3945" />
      <stop
         style="stop-color:#ffffff;stop-opacity:0;"
         offset="1"
         id="stop3947" />
    </linearGradient>
    <linearGradient
       inkscape:collect="always"
       id="linearGradient3933">
      <stop
         style="stop-color:#f3c846;stop-opacity:1"
         offset="0"
         id="stop3935" />
      <stop
         style="stop-color:#e4f915;stop-opacity:1"
         offset="1"
         id="stop3937" />
    </linearGradient>
    <linearGradient
       inkscape:collect="always"
       id="linearGradient3923">
      <stop
         style="stop-color:#ffdd55;stop-opacity:1;"
         offset="0"
         id="stop3925" />
      <stop
         style="stop-color:#b2992d;stop-opacity:1"
         offset="1"
         id="stop3927" />
    </linearGradient>
    <linearGradient
       id="linearGradient4038">
      <stop
         id="stop4040"
         offset="0"
         style="stop-color:#b2b81c;stop-opacity:1;" />
      <stop
         style="stop-color:#bbc21f;stop-opacity:1"
         offset="0.5"
         id="stop4042" />
      <stop
         id="stop4044"
         offset="1"
         style="stop-color:#0c0c09;stop-opacity:1" />
    </linearGradient>
    <linearGradient
       id="linearGradient3995">
      <stop
         style="stop-color:#b2b81c;stop-opacity:1;"
         offset="0"
         id="stop3997" />
      <stop
         id="stop4036"
         offset="0.5"
         style="stop-color:#b1b719;stop-opacity:1;" />
      <stop
         style="stop-color:#b1b717;stop-opacity:1"
         offset="1"
         id="stop3999" />
    </linearGradient>
    <linearGradient
       gradientUnits="userSpaceOnUse"
       id="linearGradient3977"
       y2="0.99929649"
       x2="10.31979"
       y1="21"
       x1="10.31979">
      <stop
         offset="0"
         style="stop-color:#338000;stop-opacity:1"
         id="stop3979" />
      <stop
         offset="1"
         style="stop-color:#55d400;stop-opacity:1"
         id="stop3981" />
    </linearGradient>
    <linearGradient
       id="linearGradient4912">
      <stop
         id="stop4914"
         style="stop-color:#f9a842;stop-opacity:1"
         offset="0" />
      <stop
         id="stop4916"
         style="stop-color:#f9be42;stop-opacity:1"
         offset="1" />
    </linearGradient>
    <linearGradient
       id="linearGradient4888">
      <stop
         id="stop4890"
         style="stop-color:#2c6128;stop-opacity:1"
         offset="0" />
      <stop
         id="stop4892"
         style="stop-color:#2c6128;stop-opacity:0"
         offset="1" />
    </linearGradient>
    <linearGradient
       id="linearGradient4813">
      <stop
         id="stop4815"
         style="stop-color:#1b538d;stop-opacity:1"
         offset="0" />
      <stop
         id="stop4817"
         style="stop-color:#1b538d;stop-opacity:0"
         offset="1" />
    </linearGradient>
    <linearGradient
       id="linearGradient4581">
      <stop
         id="stop4583"
         style="stop-color:#2b6028;stop-opacity:1"
         offset="0" />
      <stop
         id="stop4585"
         style="stop-color:#2b6028;stop-opacity:0"
         offset="1" />
    </linearGradient>
    <linearGradient
       id="linearGradient4537">
      <stop
         id="stop4539"
         style="stop-color:#59af3f;stop-opacity:1"
         offset="0" />
      <stop
         id="stop4547"
         style="stop-color:#7dd06e;stop-opacity:1"
         offset="0.28080305" />
      <stop
         id="stop4545"
         style="stop-color:#95db83;stop-opacity:1"
         offset="0.42996103" />
      <stop
         id="stop4549"
         style="stop-color:#73b661;stop-opacity:1"
         offset="0.60335064" />
      <stop
         id="stop4541"
         style="stop-color:#2f7829;stop-opacity:1"
         offset="1" />
    </linearGradient>
    <linearGradient
       id="linearGradient4529">
      <stop
         id="stop4531"
         style="stop-color:#2b6128;stop-opacity:1"
         offset="0" />
      <stop
         id="stop4533"
         style="stop-color:#59a24c;stop-opacity:1"
         offset="1" />
    </linearGradient>
    <linearGradient
       id="linearGradient4521">
      <stop
         id="stop4523"
         style="stop-color:#2b6028;stop-opacity:1"
         offset="0" />
      <stop
         id="stop4525"
         style="stop-color:#2b6028;stop-opacity:0"
         offset="1" />
    </linearGradient>
    <linearGradient
       id="linearGradient4504">
      <stop
         id="stop4506"
         style="stop-color:#c7fbb5;stop-opacity:1"
         offset="0" />
      <stop
         id="stop4512"
         style="stop-color:#7dd067;stop-opacity:1"
         offset="0.40000001" />
      <stop
         id="stop4508"
         style="stop-color:#387633;stop-opacity:1"
         offset="1" />
    </linearGradient>
    <linearGradient
       id="linearGradient4466">
      <stop
         id="stop4468"
         style="stop-color:#1f669e;stop-opacity:1"
         offset="0" />
      <stop
         id="stop4470"
         style="stop-color:#1f669e;stop-opacity:0"
         offset="1" />
    </linearGradient>
    <linearGradient
       id="linearGradient4391">
      <stop
         id="stop4393"
         style="stop-color:#ffffff;stop-opacity:1"
         offset="0" />
      <stop
         id="stop4395"
         style="stop-color:#ffffff;stop-opacity:0"
         offset="1" />
    </linearGradient>
    <linearGradient
       id="linearGradient4383">
      <stop
         id="stop4385"
         style="stop-color:#1b528b;stop-opacity:1"
         offset="0" />
      <stop
         id="stop4387"
         style="stop-color:#267bc4;stop-opacity:0.2248062"
         offset="1" />
    </linearGradient>
    <linearGradient
       id="linearGradient4363">
      <stop
         id="stop4365"
         style="stop-color:#1c508a;stop-opacity:1"
         offset="0" />
      <stop
         id="stop4367"
         style="stop-color:#438dc6;stop-opacity:1"
         offset="1" />
    </linearGradient>
    <linearGradient
       id="linearGradient4355">
      <stop
         id="stop4357"
         style="stop-color:#1a4a7f;stop-opacity:1"
         offset="0" />
      <stop
         id="stop4359"
         style="stop-color:#1a4a7f;stop-opacity:0"
         offset="1" />
    </linearGradient>
    <linearGradient
       id="linearGradient4341">
      <stop
         id="stop4343"
         style="stop-color:#5aa6c8;stop-opacity:1"
         offset="0" />
      <stop
         id="stop4351"
         style="stop-color:#8bcae9;stop-opacity:1"
         offset="0.21075311" />
      <stop
         id="stop4349"
         style="stop-color:#8ad2eb;stop-opacity:1"
         offset="0.40000001" />
      <stop
         id="stop4353"
         style="stop-color:#4e91bb;stop-opacity:1"
         offset="0.63987231" />
      <stop
         id="stop4345"
         style="stop-color:#27649a;stop-opacity:1"
         offset="1" />
    </linearGradient>
    <linearGradient
       id="linearGradient4295">
      <stop
         id="stop4297"
         style="stop-color:#d8effd;stop-opacity:1"
         offset="0" />
      <stop
         id="stop4303"
         style="stop-color:#80bee7;stop-opacity:1"
         offset="0.40000001" />
      <stop
         id="stop4299"
         style="stop-color:#276296;stop-opacity:1"
         offset="1" />
    </linearGradient>
    <linearGradient
       x1="45.447727"
       y1="92.539597"
       x2="45.447727"
       y2="7.0165396"
       id="ButtonShadow"
       gradientUnits="userSpaceOnUse"
       gradientTransform="scale(1.0058652,0.994169)">
      <stop
         id="stop3750"
         style="stop-color:#000000;stop-opacity:1"
         offset="0" />
      <stop
         id="stop3752"
         style="stop-color:#000000;stop-opacity:0.58823532"
         offset="1" />
    </linearGradient>
    <linearGradient
       id="linearGradient3737">
      <stop
         id="stop3739"
         style="stop-color:#ffffff;stop-opacity:1"
         offset="0" />
      <stop
         id="stop3741"
         style="stop-color:#ffffff;stop-opacity:0"
         offset="1" />
    </linearGradient>
    <linearGradient
       id="linearGradient3700">
      <stop
         id="stop3702"
         style="stop-color:#2276c5;stop-opacity:1"
         offset="0" />
      <stop
         id="stop3704"
         style="stop-color:#68baf4;stop-opacity:1"
         offset="1" />
    </linearGradient>
    <filter
       color-interpolation-filters="sRGB"
       id="filter3174">
      <feGaussianBlur
         id="feGaussianBlur3176"
         stdDeviation="1.71" />
    </filter>
    <linearGradient
       x1="48"
       y1="20.220806"
       x2="48"
       y2="138.66119"
       id="linearGradient3613"
       xlink:href="#linearGradient3737"
       gradientUnits="userSpaceOnUse" />
    <clipPath
       id="clipPath3613">
      <rect
         width="84"
         height="84"
         rx="6"
         ry="6"
         x="6"
         y="6"
         id="rect3615"
         style="fill:#ffffff;fill-opacity:1;fill-rule:nonzero;stroke:none" />
    </clipPath>
    <linearGradient
       x1="48"
       y1="90"
       x2="48"
       y2="5.9877172"
       id="linearGradient3151"
       xlink:href="#linearGradient3700"
       gradientUnits="userSpaceOnUse"
       gradientTransform="translate(-110,0)" />
    <linearGradient
       x1="36.357143"
       y1="6"
       x2="36.357143"
       y2="63.893143"
       id="linearGradient3153"
       xlink:href="#linearGradient3737"
       gradientUnits="userSpaceOnUse"
       gradientTransform="translate(-110,0)" />
    <radialGradient
       cx="48"
       cy="90.171875"
       r="42"
       fx="48"
       fy="90.171875"
       id="radialGradient3155"
       xlink:href="#linearGradient3737"
       gradientUnits="userSpaceOnUse"
       gradientTransform="matrix(1.1573129,0,0,0.99590774,-117.55102,0.19713193)" />
    <linearGradient
       x1="10.31979"
       y1="21"
       x2="10.31979"
       y2="0.99929649"
       id="ButtonColor"
       gradientUnits="userSpaceOnUse">
      <stop
         id="stop3189"
         style="stop-color:#95c2e6;stop-opacity:1"
         offset="0" />
      <stop
         id="stop3191"
         style="stop-color:#d9ecfd;stop-opacity:1"
         offset="1" />
    </linearGradient>
    <linearGradient
       x1="48"
       y1="90"
       x2="48"
       y2="5.9877172"
       id="linearGradient3948"
       xlink:href="#ButtonColor"
       gradientUnits="userSpaceOnUse" />
    <linearGradient
       x1="44"
       y1="6"
       x2="44"
       y2="64.215118"
       id="linearGradient3967"
       xlink:href="#linearGradient3737"
       gradientUnits="userSpaceOnUse" />
    <radialGradient
       cx="48"
       cy="72"
       r="42"
       fx="48"
       fy="72"
       id="radialGradient3982"
       xlink:href="#linearGradient3737"
       gradientUnits="userSpaceOnUse"
       gradientTransform="matrix(1.1428571,0,0,0.95238095,-6.8571426,3.4285712)" />
    <linearGradient
       x1="48"
       y1="90"
       x2="48"
       y2="5.9877172"
       id="linearGradient3989"
       xlink:href="#ButtonShadow"
       gradientUnits="userSpaceOnUse"
       gradientTransform="translate(0,1)" />
    <linearGradient
       x1="48"
       y1="90.868095"
       x2="48"
       y2="5.9877172"
       id="linearGradient4001"
       xlink:href="#ButtonShadow"
       gradientUnits="userSpaceOnUse"
       gradientTransform="translate(-1,1)" />
    <linearGradient
       x1="48"
       y1="90.868095"
       x2="48"
       y2="5.9877172"
       id="linearGradient4009"
       xlink:href="#ButtonShadow"
       gradientUnits="userSpaceOnUse"
       gradientTransform="translate(-1,1)" />
    <linearGradient
       x1="48"
       y1="90.868095"
       x2="48"
       y2="5.9877172"
       id="linearGradient4023"
       xlink:href="#ButtonShadow"
       gradientUnits="userSpaceOnUse"
       gradientTransform="translate(-1,1)" />
    <linearGradient
       x1="48"
       y1="90.868095"
       x2="48"
       y2="5.9877172"
       id="linearGradient4031"
       xlink:href="#ButtonShadow"
       gradientUnits="userSpaceOnUse"
       gradientTransform="translate(-1,1)" />
    <filter
       x="-0.19410552"
       y="-0.19410552"
       width="1.388211"
       height="1.388211"
       color-interpolation-filters="sRGB"
       id="filter4055">
      <feGaussianBlur
         id="feGaussianBlur4057"
         stdDeviation="5.3379019" />
    </filter>
    <clipPath
       id="clipPath4713">
      <path
         d="m 12.4375,22.46875 c -1.108,0 -2,0.892 -2,2 l 0,41.75 c 0,1.108 0.892,2 2,2 l 70,0 c 1.108,0 2,-0.892 2,-2 l 0,-41.75 c 0,-1.108 -0.892,-2 -2,-2 l -70,0 z m 10.9375,26.6875 24.8125,0 L 44.71875,58 44.625,58.21875 44.40625,58.3125 c 0,0 -2.753829,0.78502 -6.25,1.125 -3.496171,0.33998 -7.771728,0.246498 -10.84375,-1.625 L 27.1875,57.75 27.125,57.59375 c -0.32773,-0.794793 -0.37487,-1.948058 -0.34375,-3.1875 -0.275422,0.05906 -0.468409,0.13113 -1,0.15625 -0.406238,0.0192 -0.834811,0.02175 -1.25,-0.09375 -0.415189,-0.115499 -0.871601,-0.368201 -1.09375,-0.8125 l -0.03125,-0.09375 0,-0.09375 C 23.275382,51.912876 23.27128,50.48051 23.375,49.15625 z"
         inkscape:connector-curvature="0"
         id="path4715"
         style="opacity:0.6;color:#000000;fill:#ff00ff;fill-opacity:1;fill-rule:nonzero;stroke:#ff00ff;stroke-width:1;stroke-linecap:round;stroke-linejoin:miter;stroke-miterlimit:4;stroke-opacity:1;stroke-dasharray:none;stroke-dashoffset:8.6;marker:none;visibility:visible;display:inline;overflow:visible;enable-background:accumulate" />
    </clipPath>
    <linearGradient
       x1="72.557053"
       y1="47.439873"
       x2="98.41127"
       y2="49.746658"
       id="linearGradient4717"
       xlink:href="#linearGradient4341"
       gradientUnits="userSpaceOnUse"
       gradientTransform="translate(-30,0)" />
    <linearGradient
       x1="69.537895"
       y1="53.947376"
       x2="42.846367"
       y2="37.499023"
       id="linearGradient4719"
       xlink:href="#linearGradient4363"
       gradientUnits="userSpaceOnUse" />
    <linearGradient
       x1="55.475563"
       y1="59.935955"
       x2="54.16576"
       y2="39.576107"
       id="linearGradient4721"
       xlink:href="#linearGradient4355"
       gradientUnits="userSpaceOnUse" />
    <radialGradient
       cx="56.270916"
       cy="42.18652"
       r="9.7675409"
       fx="56.270916"
       fy="42.18652"
       id="radialGradient4723"
       xlink:href="#linearGradient4391"
       gradientUnits="userSpaceOnUse"
       gradientTransform="matrix(1.2075346e-7,2.2032292,-2.0090302,1.2802398e-7,141.0249,-84.46424)" />
    <radialGradient
       cx="56.270916"
       cy="42.18652"
       r="9.7675409"
       fx="56.270916"
       fy="42.18652"
       id="radialGradient4725"
       xlink:href="#linearGradient4391"
       gradientUnits="userSpaceOnUse"
       gradientTransform="matrix(1.2075346e-7,2.2032292,-2.0090302,1.2802398e-7,141.0249,-84.46424)" />
    <radialGradient
       cx="56.270916"
       cy="42.18652"
       r="9.7675409"
       fx="56.270916"
       fy="42.18652"
       id="radialGradient4727"
       xlink:href="#linearGradient4391"
       gradientUnits="userSpaceOnUse"
       gradientTransform="matrix(1.2075346e-7,2.2032292,-2.0090302,1.2802398e-7,141.0249,-84.46424)" />
    <radialGradient
       cx="51.742218"
       cy="24.501904"
       r="9.5280094"
       fx="51.742218"
       fy="24.501904"
       id="radialGradient4729"
       xlink:href="#linearGradient4295"
       gradientUnits="userSpaceOnUse"
       gradientTransform="matrix(1.1980038,-2.1543406e-8,2.1342168e-8,1.1868132,-10.245158,-4.5772777)" />
    <linearGradient
       x1="70.929146"
       y1="33.646538"
       x2="57.423737"
       y2="20.141127"
       id="linearGradient4731"
       xlink:href="#linearGradient4466"
       gradientUnits="userSpaceOnUse" />
    <linearGradient
       x1="71.872765"
       y1="32.917397"
       x2="58.630184"
       y2="20.280247"
       id="linearGradient4733"
       xlink:href="#linearGradient4383"
       gradientUnits="userSpaceOnUse" />
    <linearGradient
       x1="23.29822"
       y1="46.910316"
       x2="48.157101"
       y2="48.890137"
       id="linearGradient4735"
       xlink:href="#linearGradient4537"
       gradientUnits="userSpaceOnUse" />
    <linearGradient
       x1="45.076241"
       y1="55.112427"
       x2="29.773056"
       y2="34.607147"
       id="linearGradient4737"
       xlink:href="#linearGradient4529"
       gradientUnits="userSpaceOnUse" />
    <radialGradient
       cx="44.895283"
       cy="57.701195"
       r="13.272889"
       fx="44.895283"
       fy="57.701195"
       id="radialGradient4739"
       xlink:href="#linearGradient4581"
       gradientUnits="userSpaceOnUse"
       gradientTransform="matrix(0.60710614,0,0,0.90525968,18.741147,4.4589757)" />
    <radialGradient
       cx="36.155109"
       cy="38.148655"
       r="11.34092"
       fx="36.155109"
       fy="38.148655"
       id="radialGradient4741"
       xlink:href="#linearGradient4391"
       gradientUnits="userSpaceOnUse"
       gradientTransform="matrix(-1.1448236,0,0,-1.4739932,75.161918,95.096158)" />
    <radialGradient
       cx="36.155109"
       cy="38.148655"
       r="11.34092"
       fx="36.155109"
       fy="38.148655"
       id="radialGradient4743"
       xlink:href="#linearGradient4391"
       gradientUnits="userSpaceOnUse"
       gradientTransform="matrix(-1.1448236,0,0,-1.4739932,75.161918,95.096158)" />
    <radialGradient
       cx="36.155109"
       cy="38.148655"
       r="11.34092"
       fx="36.155109"
       fy="38.148655"
       id="radialGradient4745"
       xlink:href="#linearGradient4391"
       gradientUnits="userSpaceOnUse"
       gradientTransform="matrix(-1.1448236,0,0,-1.4739932,75.161918,95.096158)" />
    <radialGradient
       cx="35.381287"
       cy="26.461763"
       r="7.2122016"
       fx="35.381287"
       fy="26.461763"
       id="radialGradient4747"
       xlink:href="#linearGradient4504"
       gradientUnits="userSpaceOnUse"
       gradientTransform="matrix(1.173057,7.7333582e-8,-7.8642098e-8,1.1929056,-6.1229775,-5.1046256)" />
    <linearGradient
       x1="42.437229"
       y1="33.534683"
       x2="31.990175"
       y2="23.087629"
       id="linearGradient4749"
       xlink:href="#linearGradient4521"
       gradientUnits="userSpaceOnUse" />
    <linearGradient
       x1="60.798229"
       y1="64.709518"
       x2="60.798229"
       y2="33.729588"
       id="linearGradient4819"
       xlink:href="#linearGradient4813"
       gradientUnits="userSpaceOnUse" />
    <linearGradient
       x1="60.798229"
       y1="64.709518"
       x2="60.798229"
       y2="33.729588"
       id="linearGradient4827"
       xlink:href="#linearGradient4813"
       gradientUnits="userSpaceOnUse" />
    <linearGradient
       x1="60.798229"
       y1="64.709518"
       x2="60.798229"
       y2="33.729588"
       id="linearGradient4841"
       xlink:href="#linearGradient4813"
       gradientUnits="userSpaceOnUse" />
    <linearGradient
       x1="34.553753"
       y1="59.359638"
       x2="34.553753"
       y2="33.541145"
       id="linearGradient4894"
       xlink:href="#linearGradient4888"
       gradientUnits="userSpaceOnUse" />
    <linearGradient
       x1="34.553753"
       y1="59.359638"
       x2="34.553753"
       y2="33.541145"
       id="linearGradient4902"
       xlink:href="#linearGradient4888"
       gradientUnits="userSpaceOnUse" />
    <linearGradient
       x1="34.553753"
       y1="59.359638"
       x2="34.553753"
       y2="33.541145"
       id="linearGradient4910"
       xlink:href="#linearGradient4888"
       gradientUnits="userSpaceOnUse" />
    <linearGradient
       x1="19.017595"
       y1="47.671322"
       x2="76.788734"
       y2="47.671322"
       id="linearGradient4918"
       xlink:href="#linearGradient4912"
       gradientUnits="userSpaceOnUse" />
    <filter
       color-interpolation-filters="sRGB"
       id="filter4920">
      <feGaussianBlur
         id="feGaussianBlur4922"
         stdDeviation="0.4564276" />
    </filter>
    <radialGradient
       inkscape:collect="always"
       xlink:href="#linearGradient3737"
       id="radialGradient3158"
       gradientUnits="userSpaceOnUse"
       gradientTransform="matrix(1.1428571,0,0,0.95238095,-6.8571426,3.4285712)"
       cx="48"
       cy="72"
       fx="48"
       fy="72"
       r="42" />
    <linearGradient
       inkscape:collect="always"
       xlink:href="#linearGradient3737"
       id="linearGradient3161"
       gradientUnits="userSpaceOnUse"
       x1="44"
       y1="6"
       x2="44"
       y2="64.215118" />
    <linearGradient
       inkscape:collect="always"
       xlink:href="#linearGradient3977"
       id="linearGradient3173"
       gradientUnits="userSpaceOnUse"
       x1="50.190113"
       y1="97.300377"
       x2="48"
       y2="5.9877181" />
    <radialGradient
       inkscape:collect="always"
       xlink:href="#linearGradient3871"
       id="radialGradient3877"
       cx="-62.150391"
       cy="13.335935"
       fx="-62.150391"
       fy="13.335935"
       r="42"
       gradientUnits="userSpaceOnUse"
       gradientTransform="matrix(-2.07886e-8,1.707188,1.7473843,0,58.185694,121.08863)" />
    <linearGradient
       inkscape:collect="always"
       id="linearGradient3871">
      <stop
         style="stop-color:#008000;stop-opacity:1;"
         offset="0"
         id="stop3873" />
      <stop
         style="stop-color:#008000;stop-opacity:0;"
         offset="1"
         id="stop3875" />
    </linearGradient>
    <radialGradient
       r="42"
       fy="13.335935"
       fx="-62.150391"
       cy="13.335935"
       cx="-62.150391"
       gradientTransform="matrix(-2.0246584e-8,1.3659359,1.7018252,0,58.967832,96.837309)"
       gradientUnits="userSpaceOnUse"
       id="radialGradient4240"
       xlink:href="#linearGradient3871"
       inkscape:collect="always" />
    <linearGradient
       inkscape:collect="always"
       xlink:href="#linearGradient4169"
       id="linearGradient4175"
       x1="47.498047"
       y1="-77.96875"
       x2="47.279297"
       y2="-0.96875024"
       gradientUnits="userSpaceOnUse"
       gradientTransform="matrix(1,0,0,-1,0.28320305,0)" />
    <linearGradient
       inkscape:collect="always"
       id="linearGradient4169">
      <stop
         style="stop-color:#002f00;stop-opacity:1"
         offset="0"
         id="stop4171" />
      <stop
         style="stop-color:#007c00;stop-opacity:1"
         offset="1"
         id="stop4173" />
    </linearGradient>
    <linearGradient
       inkscape:collect="always"
       xlink:href="#linearGradient4169-3"
       id="linearGradient4175-2"
       x1="47.498047"
       y1="-77.96875"
       x2="47.279297"
       y2="-0.96875024"
       gradientUnits="userSpaceOnUse"
       gradientTransform="matrix(1,0,0,-1,-85.09994,-44.547727)" />
    <linearGradient
       inkscape:collect="always"
       id="linearGradient4169-3">
      <stop
         style="stop-color:#002f00;stop-opacity:1"
         offset="0"
         id="stop4171-1" />
      <stop
         style="stop-color:#007c00;stop-opacity:1"
         offset="1"
         id="stop4173-6" />
    </linearGradient>
    <linearGradient
       inkscape:collect="always"
       xlink:href="#linearGradient3923"
       id="linearGradient3929"
       x1="50.667419"
       y1="22.755886"
       x2="51.519768"
       y2="72.783691"
       gradientUnits="userSpaceOnUse" />
    <linearGradient
       inkscape:collect="always"
       xlink:href="#linearGradient3933"
       id="linearGradient3939"
       x1="47.309925"
       y1="68.506783"
       x2="48.690079"
       y2="13.006779"
       gradientUnits="userSpaceOnUse" />
    <linearGradient
       inkscape:collect="always"
       xlink:href="#linearGradient3943"
       id="linearGradient3949"
       x1="16.81749"
       y1="12.573299"
       x2="84.81749"
       y2="50.573299"
       gradientUnits="userSpaceOnUse"
       gradientTransform="matrix(-1,0,0,1,95.634981,0)" />
  </defs>
  <metadata
     id="metadata2413">
    <rdf:RDF>
      <cc:Work
         rdf:about="">
        <dc:format>image/svg+xml</dc:format>
        <dc:type
           rdf:resource="http://purl.org/dc/dcmitype/StillImage" />
        <dc:title />
      </cc:Work>
    </rdf:RDF>
  </metadata>
  <g
     id="layer2"
     style="display:none">
    <rect
       width="86"
       height="85"
       rx="6"
       ry="6"
       x="5"
       y="7"
       id="rect3745"
       style="opacity:0.9;fill:url(#ButtonShadow);fill-opacity:1;fill-rule:nonzero;stroke:none;filter:url(#filter3174)" />
  </g>
  <g
     id="g3917">
    <g
       id="layer3">
      <path
         style="opacity:0.07999998;fill:url(#linearGradient4031);fill-opacity:1;fill-rule:nonzero;stroke:none"
         id="path4029"
         d="m 12,4.03125 c -6.0701637,-0.1617408 -10.6911509,5.6895113 -9.96875,11.5 7.16e-5,0.04167 -7.01e-5,0.08333 0,0.125 0.030431,18.086218 -0.077787,36.153437 0.03125,54.25 a 0.93232674,0.93232674 0 0 0 0,0.0625 c 0.4297709,5.831518 6.2168912,9.674679 11.71875,9 0.0418,-0.0051 0.08323,0.0056 0.125,0 l 5.3125,0 c -0.679778,4.428501 -1.596836,8.895227 -2.0625,13.40625 a 0.93232674,0.93232674 0 0 0 0.03125,0.28125 c 0.279995,1.294203 1.371731,2.108795 2.46875,2.25 1.023884,0.131791 2.065552,-0.225148 2.84375,-1 l 0,0.03125 22.84375,-14.96875 c 13.185056,-0.02898 26.362788,0.07707 39.5625,-0.03125 a 0.93232674,0.93232674 0 0 0 0.0625,0 c 5.831518,-0.429771 9.674679,-6.216892 9,-11.71875 -0.0051,-0.0418 0.0056,-0.08323 0,-0.125 -0.03043,-18.00176 0.07779,-35.987855 -0.03125,-54 a 0.93232674,0.93232674 0 0 0 0,-0.0625 c -0.429771,-5.8315178 -6.216892,-9.6746792 -11.71875,-9 l -0.125,0 -70.0625,0 -0.03125,0 z" />
      <path
         style="opacity:0.1;fill:url(#linearGradient4023);fill-opacity:1;fill-rule:nonzero;stroke:none"
         id="path4015"
         inkscape:connector-curvature="0"
         d="M 12,4.96875 C 6.498217,4.8031106 2.2406967,10.230306 2.96875,15.520213 c 0.031153,18.132768 -0.06237,36.268711 0.046873,54.39949 0.3891125,5.279828 5.7301904,8.791471 10.757959,8.111547 2.17964,0 4.359279,0 6.538918,0 -0.693629,4.811167 -1.723208,9.637038 -2.21875,14.4375 0.399566,1.846889 2.79006,1.976363 3.910163,0.694482 C 29.700525,88.119238 37.397138,83.075244 45.09375,78.03125 58.368678,78.00033 71.646761,78.0933 84.919703,77.98438 90.199531,77.595267 93.711174,72.254189 93.03125,67.226421 93.000098,49.178106 93.093619,31.12662 92.984377,13.080297 92.595264,7.8004692 87.254186,4.2888256 82.226418,4.96875 c -23.408806,0 -46.817612,0 -70.226418,0 z" />
      <path
         style="opacity:0.15;fill:url(#linearGradient4009);fill-opacity:1;fill-rule:nonzero;stroke:none"
         id="path4007"
         d="M 12,6 C 7.5921478,6 4,9.5921478 4,14 l 0,55 c 0,4.407852 3.5921478,8 8,8 l 9.5,0 -2.40625,14.90625 a 0.98733463,0.98733463 0 0 0 1.5,0.96875 L 44.8125,77 84,77 c 4.407852,0 8,-3.592148 8,-8 L 92,14 C 92,9.5921478 88.407852,6 84,6 L 12,6 z" />
      <path
         style="opacity:0.3;fill:url(#linearGradient4001);fill-opacity:1;fill-rule:nonzero;stroke:none"
         id="rect3991"
         inkscape:connector-curvature="0"
         d="M 12,7 C 8.122,7 5,10.122 5,14 l 0,55 c 0,3.878 3.122,7 7,7 L 22.65625,76 20.0625,92.0625 44.5625,76 84,76 c 3.878,0 7,-3.122 7,-7 L 91,14 C 91,10.122 87.878,7 84,7 L 12,7 z" />
      <path
         style="opacity:0.45;fill:url(#linearGradient3989);fill-opacity:1;fill-rule:nonzero;stroke:none"
         id="path3984"
         inkscape:connector-curvature="0"
         d="M 12,7 C 8.676,7 6,9.676 6,13 l 0,56 c 0,3.324 2.676,6 6,6 l 12,0 -3,16 23,-16 40,0 c 3.324,0 6,-2.676 6,-6 L 90,13 C 90,9.676 87.324,7 84,7 L 12,7 z" />
    </g>
    <path
       d="M 12,6 C 8.676,6 6,8.676 6,12 l 0,56 c 0,3.324 2.676,6 6,6 l 12,0 -3,16 23,-16 40,0 c 3.324,0 6,-2.676 6,-6 L 90,12 C 90,8.676 87.324,6 84,6 L 12,6 z"
       inkscape:connector-curvature="0"
       id="rect2419"
       style="fill:url(#linearGradient3173);fill-opacity:1;fill-rule:nonzero;stroke:none" />
    <path
       sodipodi:nodetypes="cccccccccccccccccsccccccsscccccccccccccccccccssscc"
       inkscape:connector-curvature="0"
       id="rect3844"
       d="M 83.283931,6.0742946 7.7741366,65.15732 l 0,-12.45169 L 81.823041,6.0742946 z m -2.31307,0 -73.1967244,43.5309144 0,-14.65199 L 79.631711,6.0742946 z m -3.02752,0 -70.1692044,26.1285504 0,-11.12651 L 75.218598,6.0742946 z m -4.706803,0 -65.4624014,12.4266904 0,-7.626038 c 0,-1.0420141 0.383883,-1.9901311 1.065233,-2.7753771 L 54.248727,6.0742946 z m 11.082193,0.025 c 0.37446,0.03105 0.74584,0.114077 1.09567,0.200027 l -61.570465,66.9841044 -10.226236,0 c -3.237334,0 -5.8435634,-2.141094 -5.8435634,-4.800657 l 0,-0.525071 L 84.136121,6.0992946 c 0.0626,0.0035 0.12061,-0.0051 0.18261,0 z m 1.30872,0.250034 c 0.24313,0.06839 0.47271,0.132084 0.70001,0.225031 l -45.196317,66.7090664 -14.061074,0 z m 0.94349,0.325044 c 0.30953,0.141591 0.61125,0.316233 0.88262,0.500068 l -28.061282,66.1089854 -14.730649,0 z m 1.06523,0.650089 c 0.39524,0.293821 0.74968,0.6275363 1.0348,1.0001363 l -9.89145,64.9588281 -15.582838,0 z m 1.33915,1.4501973 c 0.3738,0.633581 0.60871,1.3464431 0.60871,2.1002851 l 0,57.607825 c 0,2.659563 -2.60623,4.800657 -5.84357,4.800657 l -2.13046,0 z"
       style="fill:url(#radialGradient4240);fill-opacity:1;fill-rule:nonzero;stroke:none" />
    <path
       d="M 12,6 C 8.676,6 6,8.676 6,12 l 0,56 c 0,2.9085 2.0422266,5.317352 4.78125,5.875 C 8.5791143,73.33731 6.96875,71.37778 6.96875,69 l 0,-56 C 6.96875,10.202611 9.2026115,7.96875 12,7.96875 l 72,0 c 2.797388,0 5.03125,2.233861 5.03125,5.03125 l 0,56 c 0,2.37778 -1.610365,4.33731 -3.8125,4.875 C 87.957773,73.317352 90,70.9085 90,68 L 90,12 C 90,8.676 87.324,6 84,6 L 12,6 z M 24,74.03125 21,90 43.96875,74.03125 A 0.98129583,0.98129583 0 0 0 43.4375,74.1875 l -21.03125,14.625 2.5625,-13.625 A 0.98129583,0.98129583 0 0 0 24,74.03125 z"
       inkscape:connector-curvature="0"
       id="path3953"
       style="opacity:0.4;fill:url(#linearGradient3161);fill-opacity:1;fill-rule:nonzero;stroke:none" />
    <path
       d="M 12,6 C 8.676,6 6,8.676 6,12 l 0,56 c 0,3.324 2.676,6 6,6 l 12,0 -3,16 23,-16 40,0 c 3.324,0 6,-2.676 6,-6 L 90,12 C 90,8.676 87.324,6 84,6 L 12,6 z m 0,2 72,0 c 2.251468,0 4,1.7485321 4,4 l 0,56 c 0,2.251468 -1.748532,4 -4,4 l -40,0 a 1.9985725,1.9985725 0 0 0 -1.15625,0.375 L 23.875,85.5625 25.96875,74.375 A 1.9985725,1.9985725 0 0 0 24,72 L 12,72 C 9.7485321,72 8,70.251468 8,68 L 8,12 C 8,9.7485321 9.7485321,8 12,8 z"
       inkscape:connector-curvature="0"
       id="path3969"
       style="opacity:0.2;fill:url(#radialGradient3158);fill-opacity:1;fill-rule:nonzero;stroke:none" />
    <g
       transform="translate(0,1.095057)"
       style="display:inline"
       id="layer5">
      <rect
         style="opacity:0.1;fill:url(#linearGradient3613);fill-opacity:1;fill-rule:nonzero;stroke:#ffffff;stroke-width:0.57973403;stroke-linecap:round;stroke-linejoin:miter;stroke-miterlimit:4;stroke-opacity:1;stroke-dasharray:none;stroke-dashoffset:0;filter:url(#filter4055)"
         id="rect3171"
         clip-path="url(#clipPath3613)"
         transform="matrix(1,0,0,0.74384496,0,3.8423256)"
         y="15"
         x="15"
         ry="12"
         rx="12"
         height="66"
         width="66" />
    </g>
    <path
       sodipodi:nodetypes="scccscccsccccsccccssccccccccs"
       inkscape:connector-curvature="0"
       id="path3912"
       d="m 56.984375,14.663966 c -5.223082,0 -9.738715,1.589314 -13.15625,4.78125 -0.830306,0.754865 -1.529394,1.603152 -2.1875,2.5 -5.651544,0.184323 -10.609945,2.104499 -14.5,5.875 -4.189401,4.000176 -6.250005,9.192608 -6.25,15.21875 -5e-6,6.933756 3.401277,14.153515 10.0625,21.53125 0.01011,0.01071 0.02054,0.02114 0.03125,0.03125 2.103185,2.2444 5.199126,1.259116 5.03125,-1.34375 -2.540472,-9.006955 -3.812512,-15.694124 -3.8125,-19.71875 -6e-6,-5.364151 0.945994,-9.3091 2.5,-11.8125 1.102423,-1.77619 2.577292,-2.770737 4.40625,-3.375 -0.193042,1.051468 -0.406262,2.079768 -0.40625,3.21875 -2.2e-5,5.140066 1.705105,9.522519 5.125,12.78125 3.357463,3.163749 7.750565,4.6875 12.90625,4.6875 5.156547,0 9.651551,-1.424033 13.03125,-4.46875 l 0,-0.03125 c 3.554166,-3.176097 5.343691,-7.575435 5.34375,-12.71875 -5.9e-5,-5.118361 -1.723498,-9.452915 -5.21875,-12.625 -3.369639,-3.077654 -7.794582,-4.53125 -12.90625,-4.53125 z m -0.09375,4.34375 c 3.073467,0 4.970831,1.14212 6.40625,3.9375 -2.11e-4,0.01041 -2.11e-4,0.02084 0,0.03125 1.09322,2.062344 1.687454,4.966703 1.6875,8.75 -4.6e-5,3.753429 -0.584497,6.781445 -1.6875,8.9375 -1.391134,2.832802 -3.178033,3.968508 -6.15625,3.96875 -3.111034,-2.43e-4 -4.965697,-1.150228 -6.375,-3.96875 -1.102033,-2.128982 -1.718777,-5.127592 -1.71875,-8.9375 -2.7e-5,-3.628149 0.601044,-6.571407 1.71875,-8.78125 1.450302,-2.824403 3.217831,-3.9375 6.125,-3.9375 z"
       style="font-size:30.1586628px;font-style:normal;font-variant:normal;font-weight:bold;font-stretch:normal;text-align:start;line-height:125%;letter-spacing:0px;word-spacing:0px;writing-mode:lr-tb;text-anchor:start;fill:#4d4d4d;fill-opacity:1;stroke:none;font-family:AlYarmook;-inkscape-font-specification:AlYarmook Bold" />
    <path
       sodipodi:nodetypes="ccscccccccsccscccscccsccc"
       inkscape:connector-curvature="0"
       d="m 47.389093,31.714497 c -2.8e-5,3.985444 0.639973,7.214705 1.920006,9.687309 1.629064,3.258209 4.24725,4.88731 7.854567,4.88731 3.49088,0 6.03634,-1.629101 7.636389,-4.88731 1.27996,-2.501787 1.91996,-5.716221 1.92001,-9.643534 -5e-5,-3.956497 -0.64005,-7.141982 -1.92001,-9.556454 -1.658232,-3.229025 -4.276418,-4.843538 -7.854568,-4.843773 -3.432774,2.35e-4 -5.978234,1.614748 -7.636388,4.843773 -1.280033,2.530971 -1.920034,5.701864 -1.920006,9.512679 m -6.021837,-5.716221 c -7.185492,0.58179 -10.778227,6.4291 -10.778214,17.5417 -1.3e-5,4.36366 1.27999,11.08365 3.840011,20.16022 -0.583676,1.18871 -1.683566,-0.0746 -2.138188,-0.30548 -6.4873,-7.18553 -9.730942,-13.96365 -9.730939,-20.334621 -3e-6,-5.643734 1.934546,-10.312875 5.803655,-14.007425 3.781816,-3.665368 8.509098,-5.498052 14.181862,-5.498052 0.698159,-1.076498 1.52725,-2.051089 2.487279,-2.923773 3.083618,-2.879998 7.069079,-4.31988 11.956401,-4.31988 4.799971,0 8.712702,1.381749 11.738212,4.145484 3.14178,2.850815 4.71269,6.647273 4.71274,11.389139 -5e-5,4.770813 -1.60005,8.581627 -4.80001,11.432677 -3.02551,2.734551 -6.967336,4.101711 -11.825488,4.101711 -4.829139,0 -8.756421,-1.42529 -11.781855,-4.276342 -3.08367,-2.93813 -4.625489,-6.792718 -4.625468,-11.563533 -2.1e-5,-2.007315 0.31998,-3.854588 0.960002,-5.541825"
       style="font-size:33.37375640999999900px;font-style:normal;font-variant:normal;font-weight:bold;font-stretch:normal;text-align:start;line-height:125%;letter-spacing:0px;word-spacing:0px;writing-mode:lr-tb;text-anchor:start;fill:url(#linearGradient3929);fill-opacity:1;stroke:none;font-family:AlYarmook;-inkscape-font-specification:AlYarmook Bold"
       id="path4037" />
    <path
       id="path3931"
       style="font-size:33.37375640999999900px;font-style:normal;font-variant:normal;font-weight:bold;font-stretch:normal;text-align:start;line-height:125%;letter-spacing:0px;word-spacing:0px;writing-mode:lr-tb;text-anchor:start;fill:url(#linearGradient3939);fill-opacity:1;stroke:none;font-family:AlYarmook;-inkscape-font-specification:AlYarmook Bold;opacity:0.9212963"
       d="m 47.389093,31.714497 c -2.8e-5,3.985444 0.639973,7.214705 1.920006,9.687309 1.629064,3.258209 4.24725,4.88731 7.854567,4.88731 3.49088,0 6.03634,-1.629101 7.636389,-4.88731 1.27996,-2.501787 1.91996,-5.716221 1.92001,-9.643534 -5e-5,-3.956497 -0.64005,-7.141982 -1.92001,-9.556454 -1.658232,-3.229025 -4.276418,-4.843538 -7.854568,-4.843773 -3.432774,2.35e-4 -5.978234,1.614748 -7.636388,4.843773 -1.280033,2.530971 -1.920034,5.701864 -1.920006,9.512679 m -6.021837,-5.716221 c -7.185492,0.58179 -10.778227,6.4291 -10.778214,17.5417 -1.3e-5,4.36366 1.27999,11.08365 3.840011,20.16022 -0.583676,1.18871 -1.683566,-0.0746 -2.138188,-0.30548 -6.4873,-7.18553 -9.730942,-13.96365 -9.730939,-20.334621 -3e-6,-5.643734 1.934546,-10.312875 5.803655,-14.007425 3.781816,-3.665368 8.509098,-5.498052 14.181862,-5.498052 0.698159,-1.076498 1.52725,-2.051089 2.487279,-2.923773 3.083618,-2.879998 7.069079,-4.31988 11.956401,-4.31988 4.799971,0 8.712702,1.381749 11.738212,4.145484 3.14178,2.850815 4.71269,6.647273 4.71274,11.389139 -5e-5,4.770813 -1.60005,8.581627 -4.80001,11.432677 -3.02551,2.734551 -6.967336,4.101711 -11.825488,4.101711 -4.829139,0 -8.756421,-1.42529 -11.781855,-4.276342 -3.08367,-2.93813 -4.625489,-6.792718 -4.625468,-11.563533 -2.1e-5,-2.007315 0.31998,-3.854588 0.960002,-5.541825"
       inkscape:connector-curvature="0"
       sodipodi:nodetypes="ccscccccccsccscccscccsccc" />
    <path
       sodipodi:nodetypes="csssscc"
       inkscape:connector-curvature="0"
       id="rect2419-8"
       d="m 5.8174907,45.18676 0,-33.627377 c 0,-3.3239999 2.676,-5.9999999 6.0000003,-5.9999999 l 72,0 c 3.323999,0 5.999999,2.676 5.999999,5.9999999 l 0,26.509506 C 79.419352,69.289113 13.908092,10.710366 5.8174907,45.18676 z"
       style="opacity:0.42129630000000001;fill:url(#linearGradient3949);fill-opacity:1;fill-rule:nonzero;stroke:none" />
  </g>
</svg>
