<?xml version="1.0" encoding="UTF-8" standalone="no"?>
<!-- Created with Inkscape (http://www.inkscape.org/) -->

<svg
   xmlns:dc="http://purl.org/dc/elements/1.1/"
   xmlns:cc="http://creativecommons.org/ns#"
   xmlns:rdf="http://www.w3.org/1999/02/22-rdf-syntax-ns#"
   xmlns:svg="http://www.w3.org/2000/svg"
   xmlns="http://www.w3.org/2000/svg"
   xmlns:xlink="http://www.w3.org/1999/xlink"
   xmlns:sodipodi="http://sodipodi.sourceforge.net/DTD/sodipodi-0.dtd"
   xmlns:inkscape="http://www.inkscape.org/namespaces/inkscape"
   version="1.0"
   width="96"
   height="96"
   id="svg2408"
   style="display:inline"
   inkscape:version="0.48.2 r9819"
   sodipodi:docname="noor.svg"
   inkscape:export-filename="F:\faenza-iap\noor.png"
   inkscape:export-xdpi="127"
   inkscape:export-ydpi="127">
  <sodipodi:namedview
     pagecolor="#ffffff"
     bordercolor="#666666"
     borderopacity="1"
     objecttolerance="10"
     gridtolerance="10"
     guidetolerance="10"
     inkscape:pageopacity="0"
     inkscape:pageshadow="2"
     inkscape:window-width="1024"
     inkscape:window-height="714"
     id="namedview77"
     showgrid="false"
     inkscape:zoom="1.937178"
     inkscape:cx="10.440437"
     inkscape:cy="99.102662"
     inkscape:window-x="-4"
     inkscape:window-y="-4"
     inkscape:window-maximized="1"
     inkscape:current-layer="svg2408" />
  <defs
     id="defs2410">
    <linearGradient
       id="linearGradient3968">
      <stop
         style="stop-color:#2f960f;stop-opacity:1"
         offset="0"
         id="stop3970" />
      <stop
         id="stop3972"
         offset="0.65384084"
         style="stop-color:#00aa00;stop-opacity:1" />
      <stop
         style="stop-color:#9ce479;stop-opacity:1"
         offset="1"
         id="stop3974" />
    </linearGradient>
    <linearGradient
       x1="45.447727"
       y1="92.539597"
       x2="45.447727"
       y2="7.0165396"
       id="ButtonShadow"
       gradientUnits="userSpaceOnUse"
       gradientTransform="matrix(1.0058652,0,0,0.994169,100,0)">
      <stop
         id="stop3750"
         style="stop-color:#000000;stop-opacity:1"
         offset="0" />
      <stop
         id="stop3752"
         style="stop-color:#000000;stop-opacity:0.58823532"
         offset="1" />
    </linearGradient>
    <linearGradient
       id="linearGradient3737">
      <stop
         id="stop3739"
         style="stop-color:#ffffff;stop-opacity:1"
         offset="0" />
      <stop
         id="stop3741"
         style="stop-color:#ffffff;stop-opacity:0"
         offset="1" />
    </linearGradient>
    <linearGradient
       id="linearGradient3700">
      <stop
         id="stop3702"
         style="stop-color:#70a83e;stop-opacity:1"
         offset="0" />
      <stop
         id="stop3704"
         style="stop-color:#9fd058;stop-opacity:1"
         offset="1" />
    </linearGradient>
    <filter
       color-interpolation-filters="sRGB"
       id="filter3174">
      <feGaussianBlur
         id="feGaussianBlur3176"
         stdDeviation="1.71" />
    </filter>
    <linearGradient
       x1="36.357143"
       y1="6"
       x2="36.357143"
       y2="63.893143"
       id="linearGradient3188"
       xlink:href="#linearGradient3737"
       gradientUnits="userSpaceOnUse" />
    <filter
       x="-0.192"
       y="-0.192"
       width="1.3839999"
       height="1.3839999"
       color-interpolation-filters="sRGB"
       id="filter3794">
      <feGaussianBlur
         id="feGaussianBlur3796"
         stdDeviation="5.28" />
    </filter>
    <linearGradient
       x1="48"
       y1="20.220806"
       x2="48"
       y2="138.66119"
       id="linearGradient3613"
       xlink:href="#linearGradient3737"
       gradientUnits="userSpaceOnUse" />
    <radialGradient
       cx="48"
       cy="90.171875"
       r="42"
       fx="48"
       fy="90.171875"
       id="radialGradient3619"
       xlink:href="#linearGradient3737"
       gradientUnits="userSpaceOnUse"
       gradientTransform="matrix(1.1573129,0,0,0.99590774,-7.5510206,0.19713193)" />
    <clipPath
       id="clipPath3613">
      <rect
         width="84"
         height="84"
         rx="6"
         ry="6"
         x="6"
         y="6"
         id="rect3615"
         style="fill:#ffffff;fill-opacity:1;fill-rule:nonzero;stroke:none" />
    </clipPath>
    <linearGradient
       x1="48"
       y1="90"
       x2="48"
       y2="5.9877172"
       id="linearGradient3617"
       xlink:href="#linearGradient3700"
       gradientUnits="userSpaceOnUse" />
    <linearGradient
       x1="48"
       y1="90"
       x2="48"
       y2="5.9877172"
       id="linearGradient3878"
       xlink:href="#linearGradient3700"
       gradientUnits="userSpaceOnUse" />
    <linearGradient
       id="linearGradient3700-4">
      <stop
         id="stop3702-4"
         style="stop-color:#2b930b;stop-opacity:1"
         offset="0" />
      <stop
         id="stop3704-4"
         style="stop-color:#67d441;stop-opacity:1"
         offset="1" />
    </linearGradient>
    <clipPath
       id="clipPath2973">
      <rect
         width="84"
         height="84"
         rx="6"
         ry="6"
         x="6"
         y="6"
         id="rect2975"
         style="fill:url(#linearGradient2977);fill-opacity:1;fill-rule:nonzero;stroke:none" />
    </clipPath>
    <linearGradient
       x1="48"
       y1="90"
       x2="48"
       y2="5.9877172"
       id="linearGradient2977"
       xlink:href="#linearGradient3700-4"
       gradientUnits="userSpaceOnUse" />
    <linearGradient
       x1="48"
       y1="90"
       x2="48"
       y2="5.9877172"
       id="linearGradient3708"
       xlink:href="#linearGradient3700-4"
       gradientUnits="userSpaceOnUse" />
    <linearGradient
       x1="32.251034"
       y1="6.1317081"
       x2="32.251034"
       y2="90.238609"
       id="linearGradient3721"
       xlink:href="#ButtonShadow"
       gradientUnits="userSpaceOnUse"
       gradientTransform="translate(0,-97)" />
    <linearGradient
       x1="32.251034"
       y1="6.1317081"
       x2="32.251034"
       y2="90.238609"
       id="linearGradient3725"
       xlink:href="#ButtonShadow"
       gradientUnits="userSpaceOnUse"
       gradientTransform="matrix(1.0238095,0,0,1.0119048,-1.1428571,-98.071429)" />
    <linearGradient
       x1="32.251034"
       y1="6.1317081"
       x2="32.251034"
       y2="90.238609"
       id="linearGradient3772"
       xlink:href="#ButtonShadow"
       gradientUnits="userSpaceOnUse"
       gradientTransform="matrix(1.0238095,0,0,1.0119048,-1.1428571,-98.071429)" />
    <linearGradient
       x1="32.251034"
       y1="6.1317081"
       x2="32.251034"
       y2="90.238609"
       id="linearGradient3780"
       xlink:href="#ButtonShadow"
       gradientUnits="userSpaceOnUse"
       gradientTransform="matrix(1.0238095,0,0,1.0119048,-1.1428571,-98.071429)" />
    <linearGradient
       x1="32.251034"
       y1="6.1317081"
       x2="32.251034"
       y2="90.238609"
       id="linearGradient3788"
       xlink:href="#ButtonShadow"
       gradientUnits="userSpaceOnUse"
       gradientTransform="matrix(1.0238095,0,0,1.0119048,-1.1428571,-98.071429)" />
    <linearGradient
       inkscape:collect="always"
       id="linearGradient3967">
      <stop
         style="stop-color:#a48c2f;stop-opacity:1"
         offset="0"
         id="stop3969" />
      <stop
         style="stop-color:#554400;stop-opacity:0;"
         offset="1"
         id="stop3971" />
    </linearGradient>
    <linearGradient
       id="linearGradient3927">
      <stop
         style="stop-color:#f8f800;stop-opacity:1"
         offset="0"
         id="stop3929" />
      <stop
         id="stop3943"
         offset="0.7186951"
         style="stop-color:#b4b400;stop-opacity:1" />
      <stop
         style="stop-color:#bcbc00;stop-opacity:1"
         offset="1"
         id="stop3931" />
    </linearGradient>
    <linearGradient
       id="linearGradient3639">
      <stop
         id="stop3641"
         offset="0"
         style="stop-color:#2f960f;stop-opacity:1" />
      <stop
         style="stop-color:#00aa00;stop-opacity:1"
         offset="0.65384084"
         id="stop3649" />
      <stop
         id="stop3643"
         offset="1"
         style="stop-color:#80d759;stop-opacity:1" />
    </linearGradient>
    <linearGradient
       id="linearGradient3935">
      <stop
         style="stop-color:#ffff00;stop-opacity:1;"
         offset="0"
         id="stop3937" />
      <stop
         id="stop3939"
         offset="0.5"
         style="stop-color:#9d800e;stop-opacity:1" />
      <stop
         style="stop-color:#ede803;stop-opacity:1"
         offset="1"
         id="stop3941" />
    </linearGradient>
    <linearGradient
       inkscape:collect="always"
       xlink:href="#linearGradient3935"
       id="linearGradient3123"
       gradientUnits="userSpaceOnUse"
       x1="70.772949"
       y1="56.21796"
       x2="-23.770445"
       y2="-48.439365" />
    <radialGradient
       inkscape:collect="always"
       xlink:href="#linearGradient3639"
       id="radialGradient3125"
       gradientUnits="userSpaceOnUse"
       cx="21.480547"
       cy="11.077473"
       fx="21.480547"
       fy="11.077473"
       r="60.047894" />
    <radialGradient
       inkscape:collect="always"
       xlink:href="#linearGradient3927"
       id="radialGradient3127"
       gradientUnits="userSpaceOnUse"
       gradientTransform="matrix(2.076586,0.00313575,-0.00267491,1.7714066,-488.64744,-100.20599)"
       cx="219.05193"
       cy="67.102104"
       fx="219.05193"
       fy="67.102104"
       r="28.630066" />
    <linearGradient
       inkscape:collect="always"
       xlink:href="#linearGradient3967"
       id="linearGradient3129"
       gradientUnits="userSpaceOnUse"
       gradientTransform="matrix(0.964809,0,0,0.964809,-170.68802,-46.232993)"
       x1="138.27881"
       y1="127.01383"
       x2="139.53505"
       y2="70.575806" />
    <linearGradient
       inkscape:collect="always"
       xlink:href="#linearGradient3935"
       id="linearGradient3167"
       gradientUnits="userSpaceOnUse"
       x1="70.772949"
       y1="56.21796"
       x2="-23.770445"
       y2="-48.439365" />
    <radialGradient
       inkscape:collect="always"
       xlink:href="#linearGradient3639"
       id="radialGradient3169"
       gradientUnits="userSpaceOnUse"
       cx="21.480547"
       cy="11.077473"
       fx="21.480547"
       fy="11.077473"
       r="60.047894" />
    <radialGradient
       inkscape:collect="always"
       xlink:href="#linearGradient3927"
       id="radialGradient3171"
       gradientUnits="userSpaceOnUse"
       gradientTransform="matrix(2.076586,0.00313575,-0.00267491,1.7714066,-488.64744,-100.20599)"
       cx="219.05193"
       cy="67.102104"
       fx="219.05193"
       fy="67.102104"
       r="28.630066" />
    <linearGradient
       inkscape:collect="always"
       xlink:href="#linearGradient3967"
       id="linearGradient3173"
       gradientUnits="userSpaceOnUse"
       gradientTransform="matrix(0.964809,0,0,0.964809,-170.68802,-46.232993)"
       x1="138.27881"
       y1="127.01383"
       x2="139.53505"
       y2="70.575806" />
    <linearGradient
       inkscape:collect="always"
       xlink:href="#linearGradient3967"
       id="linearGradient3177"
       gradientUnits="userSpaceOnUse"
       gradientTransform="matrix(0.964809,0,0,0.964809,-171.96559,-109.19877)"
       x1="138.27881"
       y1="127.01383"
       x2="139.53505"
       y2="70.575806" />
    <radialGradient
       inkscape:collect="always"
       xlink:href="#linearGradient3927"
       id="radialGradient3180"
       gradientUnits="userSpaceOnUse"
       gradientTransform="matrix(2.076586,0.00313575,-0.00267491,1.7714066,-489.92501,-163.17177)"
       cx="219.05193"
       cy="67.102104"
       fx="219.05193"
       fy="67.102104"
       r="28.630066" />
    <linearGradient
       inkscape:collect="always"
       xlink:href="#linearGradient3935"
       id="linearGradient3187"
       gradientUnits="userSpaceOnUse"
       x1="70.772949"
       y1="56.21796"
       x2="-23.770445"
       y2="-48.439365" />
    <linearGradient
       inkscape:collect="always"
       xlink:href="#linearGradient3935"
       id="linearGradient3191"
       gradientUnits="userSpaceOnUse"
       x1="70.772949"
       y1="56.21796"
       x2="-23.770445"
       y2="-48.439365" />
    <radialGradient
       inkscape:collect="always"
       xlink:href="#linearGradient3968"
       id="radialGradient3193"
       gradientUnits="userSpaceOnUse"
       cx="21.480547"
       cy="11.077473"
       fx="21.480547"
       fy="11.077473"
       r="60.047894" />
    <radialGradient
       inkscape:collect="always"
       xlink:href="#linearGradient3927"
       id="radialGradient3195"
       gradientUnits="userSpaceOnUse"
       gradientTransform="matrix(2.076586,0.00313575,-0.00267491,1.7714066,-488.64744,-100.20599)"
       cx="219.05193"
       cy="67.102104"
       fx="219.05193"
       fy="67.102104"
       r="28.630066" />
    <linearGradient
       inkscape:collect="always"
       xlink:href="#linearGradient3967"
       id="linearGradient3197"
       gradientUnits="userSpaceOnUse"
       gradientTransform="matrix(0.964809,0,0,0.964809,-170.68802,-46.232993)"
       x1="138.27881"
       y1="127.01383"
       x2="139.53505"
       y2="70.575806" />
    <linearGradient
       inkscape:collect="always"
       xlink:href="#linearGradient3697"
       id="linearGradient5417"
       gradientUnits="userSpaceOnUse"
       x1="96"
       y1="16"
       x2="16"
       y2="64"
       gradientTransform="translate(-1.4e-7,0.04066465)" />
    <linearGradient
       id="linearGradient3697">
      <stop
         offset="0"
         style="stop-color:#ffffff;stop-opacity:1"
         id="stop3699" />
      <stop
         offset="1"
         style="stop-color:#ffffff;stop-opacity:0"
         id="stop3701" />
    </linearGradient>
    <linearGradient
       y2="64"
       x2="16"
       y1="16"
       x1="96"
       gradientTransform="translate(1.79e-6,0.32618386)"
       gradientUnits="userSpaceOnUse"
       id="linearGradient5472"
       xlink:href="#linearGradient3697"
       inkscape:collect="always" />
  </defs>
  <metadata
     id="metadata2413">
    <rdf:RDF>
      <cc:Work
         rdf:about="">
        <dc:format>image/svg+xml</dc:format>
        <dc:type
           rdf:resource="http://purl.org/dc/dcmitype/StillImage" />
        <dc:title />
      </cc:Work>
    </rdf:RDF>
  </metadata>
  <g
     id="layer2"
     style="display:none">
    <rect
       width="86"
       height="85"
       rx="6"
       ry="6"
       x="105"
       y="7"
       id="rect3745"
       style="opacity:0.9;fill:url(#ButtonShadow);fill-opacity:1;fill-rule:nonzero;stroke:none;filter:url(#filter3174)" />
  </g>
  <g
     id="g3098">
    <g
       id="layer3">
      <path
         style="opacity:0.07999998;fill:url(#linearGradient3788);fill-opacity:1;fill-rule:nonzero;stroke:none;display:inline"
         id="path3786"
         transform="scale(1,-1)"
         d="m 12,-95.03125 c -5.5110903,0 -10.03125,4.52016 -10.03125,10.03125 l 0,71 c 0,5.5110902 4.5201598,10.03125 10.03125,10.03125 l 72,0 c 5.51109,0 10.03125,-4.5201597 10.03125,-10.03125 l 0,-71 c 0,-5.51109 -4.52016,-10.03125 -10.03125,-10.03125 l -72,0 z" />
      <path
         style="opacity:0.1;fill:url(#linearGradient3780);fill-opacity:1;fill-rule:nonzero;stroke:none;display:inline"
         id="path3778"
         transform="scale(1,-1)"
         d="m 12,-94.03125 c -4.971633,0 -9.03125,4.059617 -9.03125,9.03125 l 0,71 c 0,4.9716329 4.0596171,9.03125 9.03125,9.03125 l 72,0 c 4.971633,0 9.03125,-4.059617 9.03125,-9.03125 l 0,-71 c 0,-4.971633 -4.059617,-9.03125 -9.03125,-9.03125 l -72,0 z" />
      <path
         style="opacity:0.2;fill:url(#linearGradient3772);fill-opacity:1;fill-rule:nonzero;stroke:none;display:inline"
         id="path3770"
         transform="scale(1,-1)"
         d="m 12,-93 c -4.4091333,0 -8,3.590867 -8,8 l 0,71 c 0,4.4091333 3.5908667,8 8,8 l 72,0 c 4.409133,0 8,-3.5908667 8,-8 l 0,-71 c 0,-4.409133 -3.590867,-8 -8,-8 l -72,0 z" />
      <rect
         style="opacity:0.3;fill:url(#linearGradient3725);fill-opacity:1;fill-rule:nonzero;stroke:none;display:inline"
         id="rect3723"
         transform="scale(1,-1)"
         y="-92"
         x="5"
         ry="7"
         rx="7"
         height="85"
         width="86" />
      <rect
         style="opacity:0.45;fill:url(#linearGradient3721);fill-opacity:1;fill-rule:nonzero;stroke:none;display:inline"
         id="rect3716"
         transform="scale(1,-1)"
         y="-91"
         x="6"
         ry="6"
         rx="6"
         height="84"
         width="84" />
    </g>
    <g
       id="layer1">
      <rect
         style="fill:url(#linearGradient3708);fill-opacity:1;fill-rule:nonzero;stroke:none"
         id="rect2419"
         y="6"
         x="6"
         ry="6"
         rx="6"
         height="84"
         width="84" />
      <path
         style="opacity:0.4;fill:url(#linearGradient3188);fill-opacity:1;fill-rule:nonzero;stroke:none"
         id="rect3728"
         inkscape:connector-curvature="0"
         d="M 12,6 C 8.676,6 6,8.676 6,12 l 0,2 0,68 0,2 c 0,0.334721 0.04135,0.6507 0.09375,0.96875 0.0487,0.295596 0.09704,0.596915 0.1875,0.875 0.00988,0.03038 0.020892,0.0636 0.03125,0.09375 0.098865,0.287771 0.2348802,0.547452 0.375,0.8125 0.1445918,0.273507 0.3156161,0.535615 0.5,0.78125 0.1843839,0.245635 0.3737765,0.473472 0.59375,0.6875 0.439947,0.428056 0.94291,0.814526 1.5,1.09375 0.278545,0.139612 0.5734731,0.246947 0.875,0.34375 -0.2562018,-0.100222 -0.4867109,-0.236272 -0.71875,-0.375 -0.00741,-0.0044 -0.023866,0.0045 -0.03125,0 -0.031933,-0.0193 -0.062293,-0.04251 -0.09375,-0.0625 -0.120395,-0.0767 -0.2310226,-0.163513 -0.34375,-0.25 -0.1061728,-0.0808 -0.2132809,-0.161112 -0.3125,-0.25 C 8.4783201,88.557317 8.3087904,88.373362 8.15625,88.1875 8.0486711,88.057245 7.9378561,87.922215 7.84375,87.78125 7.818661,87.74287 7.805304,87.69538 7.78125,87.65625 7.716487,87.553218 7.6510225,87.451733 7.59375,87.34375 7.4927417,87.149044 7.3880752,86.928049 7.3125,86.71875 7.30454,86.69694 7.288911,86.6782 7.28125,86.65625 7.2494249,86.5643 7.2454455,86.469419 7.21875,86.375 7.1884177,86.268382 7.1483606,86.171969 7.125,86.0625 7.0521214,85.720988 7,85.364295 7,85 L 7,83 7,15 7,13 C 7,10.218152 9.2181517,8 12,8 l 2,0 68,0 2,0 c 2.781848,0 5,2.218152 5,5 l 0,2 0,68 0,2 c 0,0.364295 -0.05212,0.720988 -0.125,1.0625 -0.04415,0.206893 -0.08838,0.397658 -0.15625,0.59375 -0.0077,0.02195 -0.0233,0.04069 -0.03125,0.0625 -0.06274,0.173739 -0.138383,0.367449 -0.21875,0.53125 -0.04158,0.0828 -0.07904,0.169954 -0.125,0.25 -0.0546,0.09721 -0.126774,0.18835 -0.1875,0.28125 -0.09411,0.140965 -0.204921,0.275995 -0.3125,0.40625 -0.143174,0.17445 -0.303141,0.346998 -0.46875,0.5 -0.01117,0.0102 -0.01998,0.02115 -0.03125,0.03125 -0.138386,0.125556 -0.285091,0.234436 -0.4375,0.34375 -0.102571,0.07315 -0.204318,0.153364 -0.3125,0.21875 -0.0074,0.0045 -0.02384,-0.0044 -0.03125,0 -0.232039,0.138728 -0.462548,0.274778 -0.71875,0.375 0.301527,-0.0968 0.596455,-0.204138 0.875,-0.34375 0.55709,-0.279224 1.060053,-0.665694 1.5,-1.09375 0.219973,-0.214028 0.409366,-0.441865 0.59375,-0.6875 0.184384,-0.245635 0.355408,-0.507743 0.5,-0.78125 0.14012,-0.265048 0.276135,-0.524729 0.375,-0.8125 0.01041,-0.03078 0.02133,-0.06274 0.03125,-0.09375 0.09046,-0.278085 0.1388,-0.579404 0.1875,-0.875 C 89.95865,84.6507 90,84.334721 90,84 l 0,-2 0,-68 0,-2 C 90,8.676 87.324,6 84,6 L 12,6 z" />
      <path
         style="opacity:0.2;fill:url(#radialGradient3619);fill-opacity:1;fill-rule:nonzero;stroke:none"
         id="path3615"
         inkscape:connector-curvature="0"
         d="M 12,90 C 8.676,90 6,87.324 6,84 L 6,82 6,14 6,12 c 0,-0.334721 0.04135,-0.6507 0.09375,-0.96875 0.0487,-0.295596 0.09704,-0.596915 0.1875,-0.875 C 6.29113,10.12587 6.302142,10.09265 6.3125,10.0625 6.411365,9.774729 6.5473802,9.515048 6.6875,9.25 6.8320918,8.976493 7.0031161,8.714385 7.1875,8.46875 7.3718839,8.223115 7.5612765,7.995278 7.78125,7.78125 8.221197,7.353194 8.72416,6.966724 9.28125,6.6875 9.559795,6.547888 9.8547231,6.440553 10.15625,6.34375 9.9000482,6.443972 9.6695391,6.580022 9.4375,6.71875 c -0.00741,0.0044 -0.023866,-0.0045 -0.03125,0 -0.031933,0.0193 -0.062293,0.04251 -0.09375,0.0625 -0.120395,0.0767 -0.2310226,0.163513 -0.34375,0.25 -0.1061728,0.0808 -0.2132809,0.161112 -0.3125,0.25 C 8.4783201,7.442683 8.3087904,7.626638 8.15625,7.8125 8.0486711,7.942755 7.9378561,8.077785 7.84375,8.21875 7.818661,8.25713 7.805304,8.30462 7.78125,8.34375 7.716487,8.446782 7.6510225,8.548267 7.59375,8.65625 7.4927417,8.850956 7.3880752,9.071951 7.3125,9.28125 7.30454,9.30306 7.288911,9.3218 7.28125,9.34375 7.2494249,9.4357 7.2454455,9.530581 7.21875,9.625 7.1884177,9.731618 7.1483606,9.828031 7.125,9.9375 7.0521214,10.279012 7,10.635705 7,11 l 0,2 0,68 0,2 c 0,2.781848 2.2181517,5 5,5 l 2,0 68,0 2,0 c 2.781848,0 5,-2.218152 5,-5 l 0,-2 0,-68 0,-2 C 89,10.635705 88.94788,10.279012 88.875,9.9375 88.83085,9.730607 88.78662,9.539842 88.71875,9.34375 88.71105,9.3218 88.69545,9.30306 88.6875,9.28125 88.62476,9.107511 88.549117,8.913801 88.46875,8.75 88.42717,8.6672 88.38971,8.580046 88.34375,8.5 88.28915,8.40279 88.216976,8.31165 88.15625,8.21875 88.06214,8.077785 87.951329,7.942755 87.84375,7.8125 87.700576,7.63805 87.540609,7.465502 87.375,7.3125 87.36383,7.3023 87.35502,7.29135 87.34375,7.28125 87.205364,7.155694 87.058659,7.046814 86.90625,6.9375 86.803679,6.86435 86.701932,6.784136 86.59375,6.71875 c -0.0074,-0.0045 -0.02384,0.0044 -0.03125,0 -0.232039,-0.138728 -0.462548,-0.274778 -0.71875,-0.375 0.301527,0.0968 0.596455,0.204138 0.875,0.34375 0.55709,0.279224 1.060053,0.665694 1.5,1.09375 0.219973,0.214028 0.409366,0.441865 0.59375,0.6875 0.184384,0.245635 0.355408,0.507743 0.5,0.78125 0.14012,0.265048 0.276135,0.524729 0.375,0.8125 0.01041,0.03078 0.02133,0.06274 0.03125,0.09375 0.09046,0.278085 0.1388,0.579404 0.1875,0.875 C 89.95865,11.3493 90,11.665279 90,12 l 0,2 0,68 0,2 c 0,3.324 -2.676,6 -6,6 l -72,0 z" />
    </g>
    <g
       style="display:inline"
       id="layer7">
      <g
         style="opacity:0.9;fill:#dcffaa;fill-opacity:1"
         id="g3855"
         clip-path="url(#clipPath2973)">
        <path
           style="opacity:0.15;fill:#dcffaa;fill-opacity:1;stroke:none"
           id="path3819"
           inkscape:connector-curvature="0"
           d="M 48,48 72,-8 88,-8 48,48 z" />
        <path
           style="opacity:0.15;fill:#dcffaa;fill-opacity:1;stroke:none"
           id="path3821"
           inkscape:connector-curvature="0"
           d="M 48,48 103.25122,73.67688 102.769,89.669611 48,48 z" />
        <path
           style="opacity:0.15;fill:#dcffaa;fill-opacity:1;stroke:none"
           id="path3823"
           inkscape:connector-curvature="0"
           d="M 48,47.999999 -11.82794,59.515947 -20.796753,46.266027 48,47.999999 z" />
        <path
           style="opacity:0.15;fill:#dcffaa;fill-opacity:1;stroke:none"
           id="path3825"
           inkscape:connector-curvature="0"
           d="M 48,48 -1.3111997,12.217252 2.2248524,-3.3871168 48,48 z" />
        <path
           style="opacity:0.15;fill:#dcffaa;fill-opacity:1;stroke:none"
           id="path3827"
           inkscape:connector-curvature="0"
           d="M 48,48 65.519239,-14.073153 95.955194,-1.3588835 48,48 z" />
        <path
           style="opacity:0.15;fill:#dcffaa;fill-opacity:1;stroke:none"
           id="path3829"
           inkscape:connector-curvature="0"
           d="M 48,48 109.6356,28.998609 115.4895,61.459846 48,48 z" />
        <path
           style="opacity:0.15;fill:#dcffaa;fill-opacity:1;stroke:none"
           id="path3831"
           inkscape:connector-curvature="0"
           d="M 48,48 16.754067,104.42421 -9.9692451,85.088633 48,48 z" />
        <path
           style="opacity:0.15;fill:#dcffaa;fill-opacity:1;stroke:none"
           id="path3833"
           inkscape:connector-curvature="0"
           d="M 48,48 -14.811967,33.348835 -3.5083336,2.3612922 48,48 z" />
        <path
           style="opacity:0.15;fill:#dcffaa;fill-opacity:1;stroke:none"
           id="path3835"
           inkscape:connector-curvature="0"
           d="M 48,48 93.809637,93.403493 90.117903,102.42501 48,48 z" />
        <path
           style="opacity:0.15;fill:#dcffaa;fill-opacity:1;stroke:none"
           id="path3837"
           inkscape:connector-curvature="0"
           d="m 48,48 -2.970052,64.42964 -9.168463,3.30998 L 48,48 z" />
        <path
           style="opacity:0.15;fill:#dcffaa;fill-opacity:1;stroke:none"
           id="path3839"
           inkscape:connector-curvature="0"
           d="M 48,48 3.1405789,94.342551 -5.923902,90.757601 48,48 z" />
        <path
           style="opacity:0.15;fill:#dcffaa;fill-opacity:1;stroke:none"
           id="path3841"
           inkscape:connector-curvature="0"
           d="M 48,47.999999 -14.116138,65.366204 -20.132068,57.696441 48,47.999999 z" />
        <path
           style="opacity:0.15;fill:#dcffaa;fill-opacity:1;stroke:none"
           id="path3843"
           inkscape:connector-curvature="0"
           d="M 48.000001,47.999998 18.853372,-9.5367177 25.202646,-16.932892 48.000001,47.999998 z" />
        <path
           style="opacity:0.15;fill:#dcffaa;fill-opacity:1;stroke:none"
           id="path3845"
           inkscape:connector-curvature="0"
           d="m 48.000003,48.000001 59.481677,-24.938521 6.921,6.864135 -66.402677,18.074386 z" />
        <path
           style="opacity:0.15;fill:#dcffaa;fill-opacity:1;stroke:none"
           id="path3849"
           inkscape:connector-curvature="0"
           d="M 47.999999,47.999999 88.186743,93.793286 81.290444,108.23077 47.999999,47.999999 z" />
        <path
           style="opacity:0.15;fill:#dcffaa;fill-opacity:1;stroke:none"
           id="path3851"
           inkscape:connector-curvature="0"
           d="M 48.000001,48 12.042033,-1.1835747 20.194136,-14.95104 48.000001,48 z" />
      </g>
      <rect
         style="fill:url(#linearGradient3617);fill-opacity:1;fill-rule:nonzero;stroke:none;display:none"
         id="rect3873"
         y="6"
         x="6"
         ry="6"
         rx="6"
         height="84"
         width="84" />
      <rect
         style="fill:url(#linearGradient3878);fill-opacity:1;fill-rule:nonzero;stroke:none;display:none"
         id="rect3880"
         y="6"
         x="6"
         ry="6"
         rx="6"
         height="84"
         width="84" />
    </g>
    <g
       style="display:inline"
       id="layer5">
      <rect
         style="opacity:0.1;fill:url(#linearGradient3613);fill-opacity:1;fill-rule:nonzero;stroke:#ffffff;stroke-width:0.5;stroke-linecap:round;stroke-linejoin:miter;stroke-miterlimit:4;stroke-opacity:1;stroke-dasharray:none;stroke-dashoffset:0;filter:url(#filter3794)"
         id="rect3171"
         clip-path="url(#clipPath3613)"
         y="15"
         x="15"
         ry="12"
         rx="12"
         height="66"
         width="66" />
    </g>
    <path
       sodipodi:type="arc"
       style="fill:#999999;fill-opacity:1;stroke:none;opacity:0.55092593"
       id="path3189"
       sodipodi:cx="21.480547"
       sodipodi:cy="11.077473"
       sodipodi:rx="60.047894"
       sodipodi:ry="60.047894"
       d="m 81.52844,11.077473 a 60.047894,60.047894 0 1 1 -120.095787,0 60.047894,60.047894 0 1 1 120.095787,0 z"
       transform="matrix(0.60955394,0,0,0.60955394,34.906448,41.247683)" />
    <path
       transform="matrix(0.58501373,0,0,0.58501373,35.433585,41.519526)"
       d="m 81.52844,11.077473 a 60.047894,60.047894 0 1 1 -120.095787,0 60.047894,60.047894 0 1 1 120.095787,0 z"
       sodipodi:ry="60.047894"
       sodipodi:rx="60.047894"
       sodipodi:cy="11.077473"
       sodipodi:cx="21.480547"
       id="path3151"
       style="fill:#333333;fill-opacity:1;stroke:none"
       sodipodi:type="arc" />
    <g
       transform="matrix(0.89711512,0,0,0.89711512,78.454159,30.644404)"
       id="g3113">
      <path
         transform="matrix(0.62779034,0,0,0.62779034,-47.432048,12.391677)"
         d="m 81.52844,11.077473 c 0,33.163536 -26.884357,60.047893 -60.047893,60.047893 -33.163536,0 -60.047894,-26.884357 -60.047894,-60.047893 0,-33.163536 26.884358,-60.047894 60.047894,-60.047894 33.163536,0 60.047893,26.884358 60.047893,60.047894 z"
         sodipodi:ry="60.047894"
         sodipodi:rx="60.047894"
         sodipodi:cy="11.077473"
         sodipodi:cx="21.480547"
         id="path2827"
         style="fill:#050e03;fill-opacity:1;stroke:none"
         sodipodi:type="arc" />
      <path
         sodipodi:type="arc"
         style="fill:url(#linearGradient3191);fill-opacity:1;stroke:none"
         id="path2861"
         sodipodi:cx="21.480547"
         sodipodi:cy="11.077473"
         sodipodi:rx="60.047894"
         sodipodi:ry="60.047894"
         d="m 81.52844,11.077473 c 0,33.163536 -26.884357,60.047893 -60.047893,60.047893 -33.163536,0 -60.047894,-26.884357 -60.047894,-60.047893 0,-33.163536 26.884358,-60.047894 60.047894,-60.047894 33.163536,0 60.047893,26.884358 60.047893,60.047894 z"
         transform="matrix(0.60136577,0,0,0.60136577,-46.864434,12.684394)" />
      <path
         sodipodi:type="arc"
         style="fill:#000000;fill-opacity:1;stroke:none"
         id="path2829"
         sodipodi:cx="21.480547"
         sodipodi:cy="11.077473"
         sodipodi:rx="60.047894"
         sodipodi:ry="60.047894"
         d="m 81.52844,11.077473 c 0,33.163536 -26.884357,60.047893 -60.047893,60.047893 -33.163536,0 -60.047894,-26.884357 -60.047894,-60.047893 0,-33.163536 26.884358,-60.047894 60.047894,-60.047894 33.163536,0 60.047893,26.884358 60.047893,60.047894 z"
         transform="matrix(0.55952686,0,0,0.55952686,-45.965711,13.147863)" />
      <path
         transform="matrix(0.54410378,0,0,0.54410378,-45.634415,13.318712)"
         d="m 81.52844,11.077473 c 0,33.163536 -26.884357,60.047893 -60.047893,60.047893 -33.163536,0 -60.047894,-26.884357 -60.047894,-60.047893 0,-33.163536 26.884358,-60.047894 60.047894,-60.047894 33.163536,0 60.047893,26.884358 60.047893,60.047894 z"
         sodipodi:ry="60.047894"
         sodipodi:rx="60.047894"
         sodipodi:cy="11.077473"
         sodipodi:cx="21.480547"
         id="path2865"
         style="fill:url(#radialGradient3193);fill-opacity:1;stroke:none"
         sodipodi:type="arc" />
      <path
         style="opacity:0.52314818;fill:#010100;fill-opacity:1"
         d="m -36.208021,-10.211042 c -5.017267,1.9983503 -11.600641,2.5845603 -15.165591,6.8742703 -0.39043,2.79017296 -2.264619,-2.23211 -3.889387,0.63315 -2.138923,1.94994896 -1.006411,5.041675 -1.748716,7.356672 -4.083158,-0.578998 -5.244489,5.242818 -4.34164,7.6581707 -3.387406,0.902187 -1.950323,5.619598 0.693456,5.095398 -0.155575,2.380292 -0.651043,3.822843 -2.17082,5.517501 0.607318,2.074809 -2.138876,5.266224 1.296462,6.210958 1.492781,-0.101251 0.06358,4.067594 1.809017,5.30645 1.430995,1.3888 3.443692,2.251685 2.261271,4.552692 0.158489,3.402549 3.767203,0.521942 4.401941,3.135629 3.537964,4.222222 10.22603,2.608411 14.110331,1.477364 -0.61577,4.510796 5.856401,6.878075 8.351628,3.768785 1.8358,4.287158 5.236135,-1.108422 5.819005,-2.080369 0.899877,3.547579 5.09998,2.20469 5.185848,-0.994959 3.150622,0.355283 0.945059,-3.978445 3.708485,-3.226081 2.916579,-0.05679 4.630861,-4.134296 5.577802,-5.004946 5.3376511,-1.988328 2.3349631,-9.681408 4.2511891,-13.085222 2.385963,-1.523149 1.224121,-4.20885 1.175861,-6.060207 1.438916,-2.762866 -2.507972,-3.319 -2.683375,-4.31149 2.707775,-2.353378 -0.367988,-6.7009557 -1.869317,-9.1355347 -3.4373351,0.179388 -2.7528121,-7.729661 -6.8742641,-4.733594 -0.711798,-1.594517 -3.334168,-7.7354069 -5.939606,-3.678337 -0.63605,-1.96676 -2.119068,-4.5770599 -4.190889,-3.7084799 -1.55449,-2.8069804 -6.293246,-0.69816 -7.266218,-0.21105 -0.389638,-1.02561 -1.36232,-1.7442104 -2.502473,-1.3567704 z m 2.200971,3.5577403 c 0.350254,0.7018 -1.013696,0.33841 0,0 z m -15.979649,12.271161 c 0.03811,0.09414 -0.161307,-0.05818 0,0 z m 7.688321,2.562774 c -0.169121,3.6294327 -0.392822,-0.991081 0,0 z m 8.411929,0.904508 c 0.196377,2.9293047 -1.44512,-1.326814 0,0 z m 7.175767,1.6281147 c 1.508006,1.363399 -2.845772,4.094329 -1.447214,1.748717 2.044382,-0.757333 0.592489,-5.9841247 1.447214,-1.748717 z m -23.396619,2.683375 c 2.07983,1.119611 -1.242017,1.378798 0,0 z m -5.185848,3.527583 c 1.265521,1.314926 0.203227,2.662469 -0.934659,2.924577 0.182552,-0.940333 0.562455,-2.574619 0.934659,-2.924577 z m 5.035097,6.512461 c 3.056361,1.111768 -1.991356,2.879502 0,0 z m -5.487351,4.432091 c 1.479949,1.628719 -1.345253,3.771027 -0.301503,0.693457 -0.0019,0.07099 0.304822,-1.527226 0.301503,-0.693457 z m 15.708296,3.015028 c -0.321667,-0.03955 0.341504,-0.38973 0,0 z m -5.065247,3.346682 c 0.17603,0.597747 -0.228534,-0.135348 0,0 z m 17.818816,1.326612 c 0.536183,0.178834 -0.671005,0.197147 0,0 z m -11.758609,0.542705 c 1.099158,1.13039 -5.213867,2.826528 -5.3366,1.989919 0.626035,-2.055402 0.592171,-2.043288 2.472323,-0.934659 1.169638,0.430923 2.203682,-0.564975 2.864277,-1.05526 z m 6.542611,3.316531 c 1.0015,1.621884 -3.085816,4.975663 -1.688416,1.748716 0.169314,-0.4513 1.809567,-2.967842 1.688416,-1.748716 z"
         id="path3975"
         inkscape:connector-curvature="0" />
      <path
         inkscape:connector-curvature="0"
         style="fill:url(#radialGradient3195);fill-opacity:1"
         d="m -36.048704,46.108223 c -0.96034,-0.825805 -1.02009,-1.022716 -1.02009,-3.361971 l 0,-2.484785 -1.647735,0.83442 c -0.906264,0.458939 -2.812486,1.13232 -4.236042,1.496402 -2.877283,0.735888 -5.350696,0.526306 -7.306296,-0.619069 -1.881021,-1.101708 -2.438931,-2.231026 -2.445415,-4.94993 -0.0029,-1.346452 0.114591,-3.060151 0.261792,-3.808211 0.14885,-0.756439 0.13953,-1.170783 -0.02103,-0.933554 -0.661444,0.977476 -2.649096,2.123659 -3.682753,2.123659 -1.780758,0 -2.854417,-1.568042 -2.854417,-4.168809 0,-1.229388 0.284879,-2.878806 0.698329,-4.043322 l 0.698319,-1.966877 -0.783328,-1.060578 c -0.612432,-0.829217 -0.780801,-1.494756 -0.771741,-3.050708 0.0097,-1.673482 0.251168,-2.456165 1.51749,-4.91928 1.512811,-2.94257 2.385278,-4.112972 2.377164,-3.18896 -0.0029,0.256661 -0.362585,1.093502 -0.800734,1.859628 -1.451951,2.538824 -2.385374,5.628405 -2.123004,7.026984 0.205658,1.096267 0.364775,1.270708 1.158089,1.269607 1.368639,-0.0027 2.625689,-0.905916 6.7913,-4.884028 l 3.772548,-3.602768 -2.525802,-1.844574 c -1.38919,-1.01451 -3.205337,-2.2744727 -4.035864,-2.7999137 -2.094205,-1.324883 -2.696246,-2.818946 -1.868217,-4.636283 0.406917,-0.893061 0.970183,-1.293186 3.801125,-2.700171 1.075347,-0.534457 1.955166,-1.03305104 1.955166,-1.10799504 0,-0.07497 -0.250667,-0.386943 -0.557052,-0.693331 -0.893818,-0.89380696 -0.110692,-3.01852796 1.323603,-3.59112796 0.60699,-0.24234 2.06828,-0.87473 3.247334,-1.40535 2.324013,-1.04591 9.291051,-3.4053199 9.484421,-3.21195 0.41329,0.4133 -0.51439,1.19762 -2.03462,1.72021 -5.118619,1.75955 -11.463686,4.420071 -11.463686,4.806787 0,0.100943 0.231834,0.631815 0.51517,1.17973496 l 0.515159,0.996225 1.780034,-0.713709 c 5.678432,-2.27679396 14.068793,-4.71278796 16.232383,-4.71278796 0.39041,0 1.09237,0.38251 1.55988,0.85003 0.71857,0.71857 0.81496,1.04724 0.62322,2.125177 -0.33043,1.85774696 -1.20109,3.108732 -3.72489,5.352021 -1.23457,1.097349 -2.72794,2.668104 -3.31859,3.490561 -1.30499,1.817172 -1.60655,1.359133 -0.52757,-0.801334 0.71289,-1.427399 2.844,-3.735951 5.55365,-6.01605704 1.00531,-0.845937 1.00956,-0.863823 0.37234,-1.56793396 -0.47009,-0.519454 -1.05364,-0.712234 -2.15588,-0.712234 -1.55578,0 -6.51381,1.193635 -10.114287,2.43498596 -4.038662,1.39242004 -12.071015,4.97958604 -12.071015,5.39078304 0,0.114935 0.497291,0.46538 1.105092,0.778773 1.158272,0.597227 3.922605,2.25738 7.311139,4.3908007 l 2.008202,1.264348 1.572716,-0.596991 c 0.865009,-0.328347 1.653663,-0.677928 1.752566,-0.776825 0.0989,-0.09891 -0.14422,-2.0279827 -0.540255,-4.2868647 -0.687185,-3.919326 -0.667792,-5.87877904 0.05808,-5.87877904 0.183458,0 0.333544,0.142845 0.333544,0.317441 0,0.174576 0.482925,1.09428304 1.073157,2.04376604 1.063101,1.710179 1.124381,2.555235 0.125165,1.725954 -0.646094,-0.536221 -0.675135,-0.09171 -0.153019,2.342841 0.438814,2.04615 1.392785,3.3476527 2.922115,3.9866357 1.01536,0.424243 1.13302,0.614166 1.13302,1.828962 0,1.500833 -0.15941,1.586548 -1.57627,0.847602 -1.13533,-0.592114 -2.943922,-0.664619 -3.894086,-0.156109 -0.59136,0.316486 -0.25852,0.647172 2.997616,2.978068 2.01456,1.442118 4.23664,3.059714 4.93795,3.594661 l 1.27511,0.972618 0,-0.919599 c 0,-0.505772 -0.16458,-3.877478 -0.36571,-7.492682 -0.31523,-5.6656477 -0.29557,-6.7061127 0.14247,-7.5364847 l 0.50819,-0.963375 0.73534,1.700145 c 1.71574,3.966841 2.02661,6.0165387 0.63876,4.211612 l -0.62385,-0.811322 0.0227,1.8701547 c 0.0124,1.028584 0.2003,3.997662 0.41747,6.597946 l 0.39485,4.727783 1.3228,0.685752 c 1.21506,0.629905 1.43663,0.646416 2.72023,0.202642 l 1.39744,-0.483129 0.0625,-2.040174 c 0.0343,-1.122085 -0.0787,-3.264276 -0.25141,-4.760396 -0.17264,-1.49613 -0.4613,-4.785914 -0.64147,-7.3106267 -0.18019,-2.524713 -0.49687,-6.698317 -0.70374,-9.27468404 -0.35167,-4.37935296 -0.27409,-6.03566296 0.28198,-6.02012296 0.32255,0.009 2.4423,4.887957 2.4423,5.621343 0,0.56497796 -0.0375,0.56402296 -0.68006,-0.01738 -0.83171,-0.752681 -0.82058,-1.067156 -0.19234,5.440464 1.37676,14.2609457 1.46065,16.3445957 0.75251,18.6939317 -0.68859,2.284527 -3.15035,3.447632 -5.44807,2.574048 l -0.85181,-0.323872 0.0645,5.679321 c 0.0624,5.483712 -0.38039,8.909593 -1.15156,8.909593 -0.15274,0 -0.24762,-1.491882 -0.21083,-3.315286 0.0369,-1.823403 -0.0625,-5.400362 -0.22072,-7.948792 l -0.28762,-4.633516 -2.2626,-1.721242 c -1.24443,-0.94668 -2.56871,-1.998362 -2.94281,-2.337081 -0.37412,-0.338711 -1.57675,-1.283763 -2.672512,-2.100125 l -1.992301,-1.484285 0.862028,1.484285 c 1.127562,1.941486 1.423035,3.668814 0.904498,5.287457 -0.64427,2.011034 -1.552204,2.742692 -4.553174,3.669105 -3.203176,0.988827 -6.079995,2.556926 -6.851736,3.734741 -0.298551,0.455656 -0.700336,1.792792 -0.892835,2.971417 -0.449794,2.753937 0.07535,4.39474 1.869212,5.840307 1.106877,0.891979 1.636422,1.062326 3.657311,1.176515 3.405235,0.192415 7.921449,-1.453045 11.315789,-4.122823 1.5517,-1.220464 1.5458,-1.548121 -0.11067,-6.146313 -0.82759,-2.297308 -1.0315,-3.306414 -0.85657,-4.238894 l 0.22959,-1.223821 1.48786,1.688682 c 1.65116,1.874003 1.84607,2.364874 0.83393,2.100189 -0.83944,-0.219517 -0.83943,-0.151679 1.3e-4,2.05734 0.755,1.986427 0.88518,4.493 0.29235,5.629177 -0.21313,0.408487 -1.03073,1.437325 -1.81686,2.286301 -1.17065,1.264231 -1.4727,1.870537 -1.66896,3.350055 -0.183,1.379457 -0.11337,1.999181 0.29456,2.621762 1.0922,1.666895 2.16214,0.95214 7.24986,-4.84309 1.79588,-2.045614 2.53834,-2.537313 6.31607,-4.182865 l 1.99648,-0.869654 0.0712,-2.380203 c 0.095,-3.175423 1.06456,-4.930425 2.72378,-4.930425 0.60362,0 0.9173,0.321025 1.33583,1.367003 0.30083,0.751862 0.54696,1.650692 0.54696,1.997426 0,1.061315 -1.00269,3.543826 -1.75465,4.344259 -1.03158,1.098078 -0.60627,1.812132 1.07939,1.812132 1.01843,0 1.60767,-0.221446 2.22084,-0.83462 1.01269,-1.012672 1.02711,-1.482083 0.33482,-10.896383 -1.57248,-21.3839337 -1.70567,-25.00802574 -0.91829,-24.98562874 0.26072,0.0072 2.43817,4.82875304 2.43817,5.39863404 0,0.578569 -0.606,0.444485 -0.99283,-0.219681 -0.49072,-0.842498 -0.46953,0.475561 0.12678,7.8862667 1.58698,19.722207 1.49586,22.609283 -0.78253,24.79212 -1.95199,1.870127 -4.34518,1.825233 -5.19624,-0.09748 -0.25398,-0.573775 -0.63485,-1.043231 -0.84637,-1.043231 -0.85031,0 -5.74243,2.474861 -6.97118,3.526633 -0.72146,0.617541 -2.06218,2.114108 -2.97938,3.325701 -2.64832,3.49834 -4.09915,4.096695 -5.99024,2.470511 z m 18.11589,-12.912421 c 0.87789,-0.614903 1.00386,-2.066774 0.26558,-3.061007 -1.02813,-1.384541 -2.2825,0.620371 -1.74014,2.781338 0.23847,0.950129 0.45792,0.991749 1.47456,0.279669 z m -36.94469,-1.428082 c 0.491087,-0.326055 1.719849,-1.448223 2.730573,-2.493736 2.568659,-2.657061 4.144038,-3.604515 8.354117,-5.024263 3.034247,-1.023217 3.681837,-1.362481 3.769007,-1.974465 0.156106,-1.096285 -1.063644,-3.233618 -3.049182,-5.342967 -2.100225,-2.231189 -1.535503,-2.462625 -6.990196,2.864787 -2.333371,2.278923 -4.45242,4.037636 -5.335654,4.428328 -1.182451,0.523056 -1.570622,0.927912 -2.01207,2.098642 -1.316492,3.491316 -1.021984,6.042803 0.697035,6.038718 0.518923,-9.1e-4 1.345282,-0.268998 1.83637,-0.595044 z m 1.203965,-3.709751 c -0.424622,-0.424616 -0.228312,-2.897365 0.322092,-4.057287 0.553608,-1.166634 1.431458,-1.66804 0.982948,-0.561437 -0.727158,1.794137 -0.90037,2.527914 -0.712377,3.017802 0.169006,0.440409 0.305208,0.464062 0.714808,0.124133 0.593522,-0.492572 0.62346,-0.349845 0.174399,0.831273 -0.316795,0.833229 -0.997593,1.1298 -1.48187,0.645516 z m 5.148318,-5.65103 c -0.892072,-0.73355 -0.900958,-0.776798 -0.34628,-1.687926 0.640354,-1.051855 1.150139,-1.174141 1.771853,-0.425026 0.588041,0.708533 1.232755,0.636819 1.820662,-0.202541 l 0.499115,-0.712572 1.050291,0.776517 c 1.223011,0.904205 1.268984,1.208946 0.349,2.31372 l -0.678675,0.814988 -0.869023,-0.814988 -0.869023,-0.815017 -0.620671,0.765072 c -0.761283,0.938384 -0.952547,0.937275 -2.107249,-0.01228 z m 19.797947,24.324284 c 0.007,-0.140252 0.23546,-0.552041 0.51004,-0.91505 0.64929,-0.858446 0.6434,-1.584136 -0.0108,-1.333087 -0.73694,0.282797 -0.62641,-0.346379 0.19078,-1.085924 0.59977,-0.542789 0.7461,-0.562639 1.01487,-0.137715 0.44924,0.710225 0.41102,0.930006 -0.41819,2.405393 -0.6707,1.193345 -1.3147,1.727091 -1.28669,1.066383 z m 5.62067,-2.297354 c -0.28913,-0.691975 -0.86175,-1.330504 -1.36467,-1.52171 -0.99275,-0.377447 -1.27088,-2.046433 -0.34104,-2.046433 0.54882,0 1.77441,1.128699 2.37429,2.18654 0.3256,0.574147 0.35326,0.567388 0.40343,-0.09861 0.0728,-0.967469 0.85429,-2.517536 1.35052,-2.678976 0.52057,-0.169355 1.59814,1.46357 1.29233,1.958371 -0.15986,0.258663 -0.43386,0.195419 -0.87229,-0.20135 -0.71278,-0.645061 -0.63746,-0.755956 -1.34441,1.979303 -0.2296,0.888322 -0.54852,1.615131 -0.70871,1.615131 -0.16021,0 -0.51545,-0.53652 -0.78945,-1.192262 z m -32.481714,-5.523302 c 0.0068,-0.140262 0.230715,-0.637556 0.497986,-1.105101 0.626026,-1.095113 0.626026,-1.360117 0,-1.360117 -0.614834,0 -0.657343,-0.396741 -0.101999,-0.952075 0.559502,-0.55951 1.179546,-0.511758 1.417825,0.109204 0.212596,0.554033 -1.099419,3.563113 -1.553593,3.563113 -0.149748,0 -0.266847,-0.114762 -0.260219,-0.255024 z m 8.151536,-1.092866 c -0.556791,-0.355585 -0.700625,-2.91203 -0.253686,-4.508647 l 0.259244,-0.926094 -1.208848,0.713235 c -1.26747,0.747815 -1.903221,0.65052 -1.209687,-0.185138 0.438341,-0.52817 4.546845,-3.075317 5.601748,-3.472913 1.044879,-0.393821 0.486843,0.608026 -0.837676,1.503889 -1.673027,1.131565 -2.169884,2.284645 -2.051599,4.76117 0.02991,0.627111 0.176474,0.743912 0.717693,0.572136 0.838486,-0.266122 0.873104,0.202488 0.085,1.150479 -0.430749,0.518135 -0.735079,0.626339 -1.102198,0.391883 z m 4.985033,-3.088007 c -1.060826,-0.834439 -1.129897,-1.345934 -0.31253,-2.314193 l 0.595046,-0.704903 1.006189,0.821712 c 0.879385,0.718157 0.96508,0.938003 0.680056,1.744539 -0.429369,1.214979 -0.870789,1.316513 -1.968761,0.452845 z m 4.394815,-0.289212 c -0.682808,-0.754483 -0.682779,-1.541133 1.1e-4,-3.545291 0.6258,-1.836622 1.26928,-1.851824 0.76294,-0.01801 -0.39067,1.414854 -0.0901,3.293114 0.39999,2.500041 0.40796,-0.660108 0.6904,-0.293797 0.45815,0.59427 -0.25841,0.988211 -0.96605,1.192936 -1.62119,0.46901 z m 11.01899,-0.998945 c 0,-0.195982 0.14801,-0.447803 0.3289,-0.559601 0.18088,-0.111796 0.24383,-0.628522 0.13988,-1.148285 -0.14191,-0.709551 0.0416,-1.218999 0.73634,-2.044713 1.04867,-1.246263 2.36519,-1.365484 2.36519,-0.214177 0,0.524167 -0.22669,0.680058 -0.98893,0.680058 -0.54392,0 -1.04964,0.178288 -1.12382,0.396186 -0.19251,0.56545 1.11737,0.896855 2.51128,0.635362 0.9983,-0.187284 1.17117,-0.131528 1.07554,0.346899 -0.0703,0.351918 -0.82959,0.79884 -1.98412,1.167944 -1.02859,0.32884 -2.13793,0.710115 -2.46521,0.847284 -0.34682,0.145356 -0.59505,0.100743 -0.59505,-0.106957 z m 16.83143,-4.731658 c 0,-2.758585 -0.27025,-8.862704 -0.60055,-13.564714 -0.4511,-6.4216587 -0.50708,-8.7909267 -0.22495,-9.5208207 0.37046,-0.958361 0.39137,-0.934372 1.5237001,1.748543 0.63144,1.496121 1.15345,2.9114927 1.16002,3.1452657 0.0175,0.622108 -0.57984,0.518572 -0.98091,-0.17002 -0.49063,-0.8423437 -0.45682,0.916633 0.14541,7.565643 0.64954,7.171311 0.6443,11.82668 -0.0157,14.049481 -0.28777,0.969024 -0.63206,1.761952 -0.76507,1.762052 -0.1330101,10e-5 -0.2418401,-2.256844 -0.2418401,-5.01543 z m -32.804756,1.09524 c 0.237237,-0.285846 1.622442,-1.524877 3.078252,-2.753418 1.45581,-1.228524 2.729954,-2.450088 2.831454,-2.714583 0.1015,-0.264485 0.0139,-0.855344 -0.1946,-1.31301 -0.30413,-0.667467 -0.26418,-1.00756 0.20188,-1.718867 0.46854,-0.715074 0.67537,-0.808457 1.06833,-0.482338 0.26801,0.222428 0.48729,0.814116 0.48729,1.314866 0,0.500751 0.17028,1.08073 0.37841,1.288857 0.4442,0.444202 0.0933,1.17778 -0.49832,1.041911 -0.22474,-0.05158 -1.01019,0.571991 -1.7454,1.38578 -1.533072,1.696915 -5.026732,4.47052 -5.631137,4.47052 -0.30624,0 -0.300306,-0.129144 0.02383,-0.519718 z m 19.373616,-2.163651 c 0,-0.2073 0.30602,-0.376891 0.68006,-0.376891 0.37403,0 0.68006,-0.16517 0.68006,-0.367058 0,-0.234636 -0.39862,-0.28398 -1.1051,-0.136777 l -1.10509,0.230252 0.7333,-0.757085 c 0.60015,-0.619615 0.95517,-0.715455 1.95517,-0.527859 1.36716,0.256488 1.49614,0.525895 0.62681,1.309316 -0.77851,0.701591 -2.46521,1.129964 -2.46521,0.626102 z M -61.49978,27.007214 c -0.105067,-0.17 0.184983,-0.862458 0.64457,-1.538785 0.776729,-1.143064 0.793633,-1.253505 0.239987,-1.56768 -0.554206,-0.314493 -0.556512,-0.377591 -0.03319,-0.907526 0.782634,-0.79251 1.421685,-0.293733 1.178919,0.920144 -0.240121,1.20055 -1.764616,3.523694 -2.030276,3.093847 z m 41.100286,-2.114134 c -0.56893,-0.628667 -0.57179,-0.725935 -0.0449,-1.530126 0.64712,-0.987618 0.81449,-1.020651 1.71604,-0.338701 0.59241,0.448087 0.73932,0.422961 1.45442,-0.248838 l 0.79543,-0.747259 0.91806,0.91807 0.91807,0.918061 -0.91444,0.914449 c -0.89391,0.893899 -0.93004,0.900358 -1.60742,0.287329 -0.64617,-0.584782 -0.73496,-0.589122 -1.31479,-0.06441 -0.80732,0.73063 -1.18009,0.709542 -1.92051,-0.108603 z m 1.18221,-3.801152 c 0,-0.664529 -0.0985,-2.150879 -0.21895,-3.303003 l -0.21894,-2.094767 -1.18402,0.69859 c -1.29511,0.764134 -2.02077,0.583435 -0.92776,-0.231026 2.32466,-1.73224 2.17098,-1.297818 1.84602,-5.218535 -1.00306,-12.1024367 -1.07018,-15.3012997 -0.32107,-15.3012997 0.31975,0 2.38485,4.89716996 2.38485,5.655419 0,0.519 -0.0614,0.514933 -0.68009,-0.04503 -0.6726,-0.60869904 -0.67846,-0.59713604 -0.53348,1.052391 0.0806,0.917315 0.26243,3.274492 0.404,5.238167 0.14156,1.963657 0.286,3.6850527 0.32095,3.8253237 0.0349,0.140261 0.0827,0.656278 0.10608,1.14673 0.0364,0.763425 0.11795,0.82908 0.56696,0.456437 0.36385,-0.301966 0.41591,-0.543789 0.17002,-0.789698 -0.49794,-0.497921 -0.44073,-1.670588 0.1188,-2.4357957 0.3894,-0.532536 0.56465,-0.571354 0.98912,-0.219072 0.64907,0.5386767 0.68163,3.4565297 0.0387,3.4565297 -0.85685,0 -1.86437,1.739444 -1.65547,2.858083 0.22799,1.220845 -0.41205,5.66008 -0.88462,6.135676 -0.20167,0.20297 -0.32097,-0.126079 -0.32097,-0.885192 z m 11.0200001,-0.460149 c -0.26047,-1.0378 0.0866,-3.040738 0.74888,-4.32139 0.81007,-1.566478 1.08859,-1.067556 0.45268,0.810887 -0.62898,1.857955 -0.54002,2.819646 0.23338,2.522866 0.5554,-0.213131 0.56293,-0.158975 0.13455,0.967732 -0.42351,1.113907 -1.29214,1.124933 -1.56949,0.01992 z M -27.581514,19.261383 c -0.33872,-1.34959 0.60934,-4.917907 1.30664,-4.917907 0.3713,0 0.32359,0.313001 -0.29432,1.930979 -0.63841,1.671634 -0.43149,2.82395 0.38534,2.14603 0.61537,-0.510684 0.69557,0.03393 0.15404,1.045777 -0.49442,0.92382 -1.29494,0.818119 -1.5517,-0.204879 z m -25.663611,-2.244308 c -0.450199,-0.841189 -0.269944,-2.329676 0.507403,-4.190133 0.680451,-1.628531 1.052433,-1.378328 0.564326,0.379557 -0.199609,0.718848 -0.363771,1.661581 -0.364813,2.094975 -9.07e-4,0.642714 0.128011,0.746741 0.702786,0.564313 0.684464,-0.217233 0.689086,-0.193516 0.161287,0.827162 -0.639562,1.236757 -1.038511,1.319077 -1.570989,0.324126 z m 18.778351,0.279069 c -0.41293,-0.497558 -0.0151,-2.387836 0.86086,-4.089354 0.76275,-1.481792 0.92558,-0.81468 0.27744,1.136686 -0.61695,1.857428 -0.51034,2.405876 0.33181,1.706959 0.62508,-0.518754 0.71116,0.01746 0.16627,1.035625 -0.40792,0.762188 -1.104,0.85156 -1.63638,0.210084 z m -27.037048,-2.442629 c 0.107644,-0.280514 0.305613,-0.510039 0.439933,-0.510039 0.350612,0 4.250679,-3.056777 4.390576,-3.441227 0.06445,-0.177079 -0.06898,-0.546192 -0.296409,-0.820256 -0.581133,-0.7002267 0.194197,-2.5390957 1.070581,-2.5390957 0.521335,0 0.6388,0.256743 0.6388,1.396195 0,1.7280007 -1.347471,3.5597197 -3.866684,5.2562437 -1.857769,1.251094 -2.693091,1.482411 -2.376797,0.658179 z m 1.836041,-4.226186 c -0.301561,-0.563467 -0.244213,-1.0220157 0.27444,-2.1945177 0.360617,-0.815207 0.826002,-1.587484 1.034208,-1.716165 0.491869,-0.303986 0.478844,-0.17687 -0.131475,1.283853 -0.280528,0.671389 -0.510046,1.39736 -0.510046,1.613284 0,0.283117 0.142232,0.274547 0.510046,-0.03066 0.798235,-0.662483 0.663547,0.4357317 -0.142946,1.1656147 -0.622919,0.563723 -0.670571,0.558128 -1.034227,-0.121357 z m 13.966922,-2.3285667 c -0.462278,-0.906143 -0.97491,-1.425107 -1.47827,-1.496547 -0.971582,-0.137915 -1.267123,-1.535566 -0.395437,-1.870064 0.418303,-0.160521 0.862597,0.09559 1.50901,0.869891 l 0.916134,1.097386 0.377945,-1.500932 c 0.480928,-1.909946 1.212543,-2.604214 1.728474,-1.640221 0.679525,1.269735 0.184472,2.489816 -0.536762,1.322844 -0.320326,-0.518309 -0.714392,0.74 -0.770959,2.461778 -0.06754,2.055102 -0.549623,2.325001 -1.350135,0.755865 z m 17.643605,-1.604995 c -0.46793,-0.563832 -0.32448,-2.409169 0.31435,-4.043432 0.5795,-1.482465 0.85828,-0.779827 0.37518,0.945617 -0.41941,1.498022 -0.25804,2.440081 0.35328,2.062271 0.50104,-0.309671 0.36775,0.738808 -0.1484,1.167181 -0.35376,0.293597 -0.56763,0.26212 -0.89441,-0.131637 z m 5.08898,-0.530918 c -0.41776,-0.78061 -0.16698,-2.41329 0.57147,-3.720377 0.44676,-0.790809 0.46541,-0.725508 0.26762,0.936738 -0.18401,1.546364 -0.13966,1.758813 0.32956,1.578751 0.62403,-0.239459 0.70425,0.286637 0.19019,1.247181 -0.45347,0.847285 -0.89001,0.833711 -1.35884,-0.0423 z m -13.16544,-2.411215 c -0.23377,-0.2338 -0.42504,-0.709997 -0.42504,-1.058196 0,-0.841461 1.66372,-4.331314 2.06487,-4.331314 0.49116,0 0.37567,0.56465 -0.36346,1.77693496 -0.83922,1.37646404 -0.94656,2.60680704 -0.17128,1.96338304 0.74787,-0.62068 0.6837,0.390265 -0.085,1.339503 -0.47606,0.587865 -0.68004,0.649791 -1.02008,0.309689 z m -18.583352,-0.879225 c -0.395196,-0.395213 -0.196165,-2.51757204 0.331865,-3.53868704 0.675222,-1.30573196 1.027686,-1.02211496 0.524287,0.421896 -0.493442,1.41548204 -0.478526,1.66676704 0.09887,1.66676704 0.305091,0 0.416054,0.237675 0.306519,0.656532 -0.17901,0.684543 -0.910422,1.144602 -1.261545,0.793492 z m 23.258752,-8.865022 c 0,-0.15092 0.42078,-0.45415 0.93508,-0.67385 0.91033,-0.3889 0.90133,-0.3957 -0.34004,-0.25703 -1.32221,0.14768 -1.56602,-0.068 -0.86706,-0.7669 0.42294,-0.42295 3.05579,-0.57118 3.43366,-0.19331 0.41113,0.41112 -0.43426,1.4164 -1.50506,1.78969 -1.28272,0.44715 -1.65658,0.47004 -1.65658,0.1014 z"
         id="path2830-1" />
      <path
         id="path3965"
         d="m -36.048704,46.108223 c -0.96034,-0.825805 -1.02009,-1.022716 -1.02009,-3.361971 l 0,-2.484785 -1.64773,0.83442 c -0.90627,0.458939 -2.812491,1.13232 -4.236047,1.496402 -2.877283,0.735888 -5.350696,0.526306 -7.306296,-0.619069 -1.881021,-1.101708 -2.438931,-2.231026 -2.445415,-4.94993 -0.0029,-1.346452 0.114591,-3.060151 0.261792,-3.808211 0.14885,-0.756439 0.13953,-1.170783 -0.02103,-0.933554 -0.661444,0.977476 -2.649096,2.123659 -3.682753,2.123659 -1.780758,0 -2.854417,-1.568042 -2.854417,-4.168809 0,-1.229388 0.284879,-2.878806 0.698329,-4.043322 l 0.698319,-1.966877 -0.783328,-1.060578 c -0.612432,-0.829217 -0.780801,-1.494756 -0.771741,-3.050708 0.0097,-1.673482 0.251168,-2.456165 1.51749,-4.91928 1.512811,-2.94257 2.385278,-4.112972 2.377164,-3.18896 -0.0029,0.256661 -0.362585,1.093502 -0.800734,1.859628 -1.451951,2.538824 -2.385374,5.628405 -2.123004,7.026984 0.205658,1.096267 0.364775,1.270708 1.158089,1.269607 1.368639,-0.0027 2.625689,-0.905916 6.7913,-4.884028 l 3.772548,-3.602768 -2.525802,-1.844574 c -1.38919,-1.01451 -3.205337,-2.2744727 -4.035864,-2.7999137 -2.094205,-1.324883 -2.696246,-2.818946 -1.868217,-4.636283 0.406917,-0.893061 0.970183,-1.293186 3.801125,-2.700171 1.075347,-0.534457 1.955166,-1.03305104 1.955166,-1.10799504 0,-0.07497 -0.250667,-0.386943 -0.557052,-0.693331 -0.893818,-0.89380696 -0.110692,-3.01852796 1.323603,-3.59112796 0.60699,-0.24234 2.06828,-0.87473 3.247334,-1.40535 2.324013,-1.04591 9.291051,-3.4053199 9.484421,-3.21195 0.41329,0.4133 -0.51439,1.19762 -2.03462,1.72021 -5.118619,1.75955 -11.463686,4.420071 -11.463686,4.806787 0,0.100943 0.231834,0.631815 0.51517,1.17973496 l 0.515159,0.996225 1.780034,-0.713709 c 5.678432,-2.27679396 14.068793,-4.71278796 16.232383,-4.71278796 0.39041,0 1.09237,0.38251 1.55988,0.85003 0.71857,0.71857 0.81496,1.04724 0.62322,2.125177 -0.33043,1.85774696 -1.20109,3.108732 -3.72489,5.352021 -1.23457,1.097349 -2.72794,2.668104 -3.31859,3.490561 -1.30499,1.817172 -1.60655,1.359133 -0.52757,-0.801334 0.71289,-1.427399 2.844,-3.735951 5.55365,-6.01605704 1.00531,-0.845937 1.00956,-0.863823 0.37234,-1.56793396 -0.47009,-0.519454 -1.05364,-0.712234 -2.15588,-0.712234 -1.55578,0 -6.51381,1.193635 -10.114287,2.43498596 -4.038662,1.39242004 -12.071015,4.97958604 -12.071015,5.39078304 0,0.114935 0.497291,0.46538 1.105092,0.778773 1.158272,0.597227 3.922605,2.25738 7.311139,4.3908007 l 2.008202,1.264348 1.572716,-0.596991 c 0.865009,-0.328347 1.653663,-0.677928 1.752566,-0.776825 0.0989,-0.09891 -0.14422,-2.0279827 -0.540255,-4.2868647 -0.687185,-3.919326 -0.667792,-5.87877904 0.05808,-5.87877904 0.183458,0 0.333544,0.142845 0.333544,0.317441 0,0.174576 0.482925,1.09428304 1.073158,2.04376604 1.0631,1.710179 1.12438,2.555235 0.12516,1.725954 -0.64609,-0.536221 -0.675131,-0.09171 -0.15301,2.342841 0.43881,2.04615 1.39278,3.3476527 2.92211,3.9866357 1.01536,0.424243 1.13302,0.614166 1.13302,1.828962 0,1.500833 -0.15941,1.586548 -1.57627,0.847602 -1.13533,-0.592114 -2.943922,-0.664619 -3.894086,-0.156109 -0.59136,0.316486 -0.25852,0.647172 2.997616,2.978068 2.01456,1.442118 4.23664,3.059714 4.93795,3.594661 l 1.27511,0.972618 0,-0.919599 c 0,-0.505772 -0.16458,-3.877478 -0.36571,-7.492682 -0.31523,-5.6656477 -0.29557,-6.7061127 0.14247,-7.5364847 l 0.50819,-0.963375 0.73534,1.700145 c 1.71574,3.966841 2.02661,6.0165387 0.63876,4.211612 l -0.62385,-0.811322 0.0227,1.8701547 c 0.0124,1.028584 0.2003,3.997662 0.41747,6.597946 l 0.39485,4.727783 1.3228,0.685752 c 1.21506,0.629905 1.43663,0.646416 2.72023,0.202642 l 1.39744,-0.483129 0.0625,-2.040174 c 0.0343,-1.122085 -0.0787,-3.264276 -0.25141,-4.760396 -0.17264,-1.49613 -0.4613,-4.785914 -0.64147,-7.3106267 -0.18019,-2.524713 -0.49687,-6.698317 -0.70374,-9.27468404 -0.35167,-4.37935296 -0.27409,-6.03566296 0.28198,-6.02012296 0.32255,0.009 2.4423,4.887957 2.4423,5.621343 0,0.56497796 -0.0375,0.56402296 -0.68006,-0.01738 -0.83171,-0.752681 -0.82058,-1.067156 -0.19234,5.440464 1.37676,14.2609457 1.46065,16.3445957 0.75251,18.6939317 -0.68859,2.284527 -3.15035,3.447632 -5.44807,2.574048 l -0.85181,-0.323872 0.0645,5.679321 c 0.0624,5.483712 -0.38039,8.909593 -1.15156,8.909593 -0.15274,0 -0.24762,-1.491882 -0.21083,-3.315286 0.0369,-1.823403 -0.0625,-5.400362 -0.22072,-7.948792 l -0.28762,-4.633516 -2.2626,-1.721242 c -1.24443,-0.94668 -2.56871,-1.998362 -2.94281,-2.337081 -0.37412,-0.338711 -1.57675,-1.283763 -2.67251,-2.100125 l -1.992303,-1.484285 0.862028,1.484285 c 1.127565,1.941486 1.423035,3.668814 0.904495,5.287457 -0.644267,2.011034 -1.552201,2.742692 -4.553171,3.669105 -3.203176,0.988827 -6.079995,2.556926 -6.851736,3.734741 -0.298551,0.455656 -0.700336,1.792792 -0.892835,2.971417 -0.449794,2.753937 0.07535,4.39474 1.869212,5.840307 1.106877,0.891979 1.636422,1.062326 3.657311,1.176515 3.405235,0.192415 7.921449,-1.453045 11.315789,-4.122823 1.5517,-1.220464 1.5458,-1.548121 -0.11067,-6.146313 -0.82759,-2.297308 -1.0315,-3.306414 -0.85657,-4.238894 l 0.22959,-1.223821 1.48786,1.688682 c 1.65116,1.874003 1.84607,2.364874 0.83393,2.100189 -0.83944,-0.219517 -0.83943,-0.151679 1.3e-4,2.05734 0.755,1.986427 0.88518,4.493 0.29235,5.629177 -0.21313,0.408487 -1.03073,1.437325 -1.81686,2.286301 -1.17065,1.264231 -1.4727,1.870537 -1.66896,3.350055 -0.183,1.379457 -0.11337,1.999181 0.29456,2.621762 1.0922,1.666895 2.16214,0.95214 7.24986,-4.84309 1.79588,-2.045614 2.53834,-2.537313 6.31607,-4.182865 l 1.99648,-0.869654 0.0712,-2.380203 c 0.095,-3.175423 1.06456,-4.930425 2.72378,-4.930425 0.60362,0 0.9173,0.321025 1.33583,1.367003 0.30083,0.751862 0.54696,1.650692 0.54696,1.997426 0,1.061315 -1.00269,3.543826 -1.75465,4.344259 -1.03158,1.098078 -0.60627,1.812132 1.07939,1.812132 1.01843,0 1.60767,-0.221446 2.22084,-0.83462 1.01269,-1.012672 1.02711,-1.482083 0.33482,-10.896383 -1.57248,-21.3839337 -1.70567,-25.00802574 -0.91829,-24.98562874 0.26072,0.0072 2.43817,4.82875304 2.43817,5.39863404 0,0.578569 -0.606,0.444485 -0.99283,-0.219681 -0.49072,-0.842498 -0.46953,0.475561 0.12678,7.8862667 1.58698,19.722207 1.49586,22.609283 -0.78253,24.79212 -1.95199,1.870127 -4.34518,1.825233 -5.19624,-0.09748 -0.25398,-0.573775 -0.63485,-1.043231 -0.84637,-1.043231 -0.85031,0 -5.74243,2.474861 -6.97118,3.526633 -0.72146,0.617541 -2.06218,2.114108 -2.97938,3.325701 -2.64832,3.49834 -4.09915,4.096695 -5.99024,2.470511 z m 18.11589,-12.912421 c 0.87789,-0.614903 1.00386,-2.066774 0.26558,-3.061007 -1.02813,-1.384541 -2.2825,0.620371 -1.74014,2.781338 0.23847,0.950129 0.45792,0.991749 1.47456,0.279669 z m -36.94469,-1.428082 c 0.491087,-0.326055 1.719849,-1.448223 2.730573,-2.493736 2.568659,-2.657061 4.144038,-3.604515 8.354117,-5.024263 3.034247,-1.023217 3.681837,-1.362481 3.769007,-1.974465 0.156106,-1.096285 -1.063644,-3.233618 -3.049182,-5.342967 -2.100225,-2.231189 -1.535503,-2.462625 -6.990196,2.864787 -2.333371,2.278923 -4.45242,4.037636 -5.335654,4.428328 -1.182451,0.523056 -1.570622,0.927912 -2.01207,2.098642 -1.316492,3.491316 -1.021984,6.042803 0.697035,6.038718 0.518923,-9.1e-4 1.345282,-0.268998 1.83637,-0.595044 z m 1.203965,-3.709751 c -0.424622,-0.424616 -0.228312,-2.897365 0.322092,-4.057287 0.553608,-1.166634 1.431458,-1.66804 0.982948,-0.561437 -0.727158,1.794137 -0.90037,2.527914 -0.712377,3.017802 0.169006,0.440409 0.305208,0.464062 0.714808,0.124133 0.593522,-0.492572 0.62346,-0.349845 0.174399,0.831273 -0.316795,0.833229 -0.997593,1.1298 -1.48187,0.645516 z m 5.148318,-5.65103 c -0.892072,-0.73355 -0.900958,-0.776798 -0.34628,-1.687926 0.640354,-1.051855 1.150139,-1.174141 1.771853,-0.425026 0.588041,0.708533 1.232755,0.636819 1.820662,-0.202541 l 0.499115,-0.712572 1.050291,0.776517 c 1.223011,0.904205 1.268984,1.208946 0.349,2.31372 l -0.678675,0.814988 -0.869023,-0.814988 -0.869023,-0.815017 -0.620671,0.765072 c -0.761283,0.938384 -0.952547,0.937275 -2.107249,-0.01228 z m 19.797947,24.324284 c 0.007,-0.140252 0.23546,-0.552041 0.51004,-0.91505 0.64929,-0.858446 0.6434,-1.584136 -0.0108,-1.333087 -0.73694,0.282797 -0.62641,-0.346379 0.19078,-1.085924 0.59977,-0.542789 0.7461,-0.562639 1.01487,-0.137715 0.44924,0.710225 0.41102,0.930006 -0.41819,2.405393 -0.6707,1.193345 -1.3147,1.727091 -1.28669,1.066383 z m 5.62067,-2.297354 c -0.28913,-0.691975 -0.86175,-1.330504 -1.36467,-1.52171 -0.99275,-0.377447 -1.27088,-2.046433 -0.34104,-2.046433 0.54882,0 1.77441,1.128699 2.37429,2.18654 0.3256,0.574147 0.35326,0.567388 0.40343,-0.09861 0.0728,-0.967469 0.85429,-2.517536 1.35052,-2.678976 0.52057,-0.169355 1.59814,1.46357 1.29233,1.958371 -0.15986,0.258663 -0.43386,0.195419 -0.87229,-0.20135 -0.71278,-0.645061 -0.63746,-0.755956 -1.34441,1.979303 -0.2296,0.888322 -0.54852,1.615131 -0.70871,1.615131 -0.16021,0 -0.51545,-0.53652 -0.78945,-1.192262 z m -32.481714,-5.523302 c 0.0068,-0.140262 0.230715,-0.637556 0.497986,-1.105101 0.626026,-1.095113 0.626026,-1.360117 0,-1.360117 -0.614834,0 -0.657343,-0.396741 -0.101999,-0.952075 0.559502,-0.55951 1.179546,-0.511758 1.417825,0.109204 0.212596,0.554033 -1.099419,3.563113 -1.553593,3.563113 -0.149748,0 -0.266847,-0.114762 -0.260219,-0.255024 z m 8.151536,-1.092866 c -0.556791,-0.355585 -0.700625,-2.91203 -0.253686,-4.508647 l 0.259244,-0.926094 -1.208848,0.713235 c -1.26747,0.747815 -1.903221,0.65052 -1.209687,-0.185138 0.438341,-0.52817 4.546845,-3.075317 5.601748,-3.472913 1.044879,-0.393821 0.486843,0.608026 -0.837676,1.503889 -1.673027,1.131565 -2.169884,2.284645 -2.051599,4.76117 0.02991,0.627111 0.176474,0.743912 0.717693,0.572136 0.838486,-0.266122 0.873104,0.202488 0.085,1.150479 -0.430749,0.518135 -0.735079,0.626339 -1.102198,0.391883 z m 4.985033,-3.088007 c -1.060826,-0.834439 -1.129897,-1.345934 -0.31253,-2.314193 l 0.595046,-0.704903 1.006189,0.821712 c 0.879385,0.718157 0.96508,0.938003 0.680056,1.744539 -0.429369,1.214979 -0.870789,1.316513 -1.968761,0.452845 z m 4.394815,-0.289212 c -0.68281,-0.754483 -0.68278,-1.541133 1.1e-4,-3.545291 0.6258,-1.836622 1.26928,-1.851824 0.76294,-0.01801 -0.39067,1.414854 -0.0901,3.293114 0.39999,2.500041 0.40796,-0.660108 0.6904,-0.293797 0.45815,0.59427 -0.25841,0.988211 -0.96605,1.192936 -1.62119,0.46901 z m 11.01899,-0.998945 c 0,-0.195982 0.14801,-0.447803 0.3289,-0.559601 0.18088,-0.111796 0.24383,-0.628522 0.13988,-1.148285 -0.14191,-0.709551 0.0416,-1.218999 0.73634,-2.044713 1.04867,-1.246263 2.36519,-1.365484 2.36519,-0.214177 0,0.524167 -0.22669,0.680058 -0.98893,0.680058 -0.54392,0 -1.04964,0.178288 -1.12382,0.396186 -0.19251,0.56545 1.11737,0.896855 2.51128,0.635362 0.9983,-0.187284 1.17117,-0.131528 1.07554,0.346899 -0.0703,0.351918 -0.82959,0.79884 -1.98412,1.167944 -1.02859,0.32884 -2.13793,0.710115 -2.46521,0.847284 -0.34682,0.145356 -0.59505,0.100743 -0.59505,-0.106957 z m 16.83143,-4.731658 c 0,-2.758585 -0.27025,-8.862704 -0.60055,-13.564714 -0.4511,-6.4216587 -0.50708,-8.7909267 -0.22495,-9.5208207 0.37046,-0.958361 0.39137,-0.934372 1.5237001,1.748543 0.63144,1.496121 1.15345,2.9114927 1.16002,3.1452657 0.0175,0.622108 -0.57984,0.518572 -0.98091,-0.17002 -0.49063,-0.8423437 -0.45682,0.916633 0.14541,7.565643 0.64954,7.171311 0.6443,11.82668 -0.0157,14.049481 -0.28777,0.969024 -0.63206,1.761952 -0.76507,1.762052 -0.1330101,10e-5 -0.2418401,-2.256844 -0.2418401,-5.01543 z m -32.804756,1.09524 c 0.237237,-0.285846 1.622442,-1.524877 3.078252,-2.753418 1.455814,-1.228524 2.729954,-2.450088 2.831454,-2.714583 0.1015,-0.264485 0.0139,-0.855344 -0.1946,-1.31301 -0.30413,-0.667467 -0.26418,-1.00756 0.20188,-1.718867 0.46854,-0.715074 0.67537,-0.808457 1.06833,-0.482338 0.26801,0.222428 0.48729,0.814116 0.48729,1.314866 0,0.500751 0.17028,1.08073 0.37841,1.288857 0.4442,0.444202 0.0933,1.17778 -0.49832,1.041911 -0.22474,-0.05158 -1.01019,0.571991 -1.7454,1.38578 -1.53307,1.696915 -5.026732,4.47052 -5.631137,4.47052 -0.30624,0 -0.300306,-0.129144 0.02383,-0.519718 z m 19.373616,-2.163651 c 0,-0.2073 0.30602,-0.376891 0.68006,-0.376891 0.37403,0 0.68006,-0.16517 0.68006,-0.367058 0,-0.234636 -0.39862,-0.28398 -1.1051,-0.136777 l -1.10509,0.230252 0.7333,-0.757085 c 0.60015,-0.619615 0.95517,-0.715455 1.95517,-0.527859 1.36716,0.256488 1.49614,0.525895 0.62681,1.309316 -0.77851,0.701591 -2.46521,1.129964 -2.46521,0.626102 z M -61.49978,27.007214 c -0.105067,-0.17 0.184983,-0.862458 0.64457,-1.538785 0.776729,-1.143064 0.793633,-1.253505 0.239987,-1.56768 -0.554206,-0.314493 -0.556512,-0.377591 -0.03319,-0.907526 0.782634,-0.79251 1.421685,-0.293733 1.178919,0.920144 -0.240121,1.20055 -1.764616,3.523694 -2.030276,3.093847 z m 41.100286,-2.114134 c -0.56893,-0.628667 -0.57179,-0.725935 -0.0449,-1.530126 0.64712,-0.987618 0.81449,-1.020651 1.71604,-0.338701 0.59241,0.448087 0.73932,0.422961 1.45442,-0.248838 l 0.79543,-0.747259 0.91806,0.91807 0.91807,0.918061 -0.91444,0.914449 c -0.89391,0.893899 -0.93004,0.900358 -1.60742,0.287329 -0.64617,-0.584782 -0.73496,-0.589122 -1.31479,-0.06441 -0.80732,0.73063 -1.18009,0.709542 -1.92051,-0.108603 z m 1.18221,-3.801152 c 0,-0.664529 -0.0985,-2.150879 -0.21895,-3.303003 l -0.21894,-2.094767 -1.18402,0.69859 c -1.29511,0.764134 -2.02077,0.583435 -0.92776,-0.231026 2.32466,-1.73224 2.17098,-1.297818 1.84602,-5.218535 -1.00306,-12.1024367 -1.07018,-15.3012997 -0.32107,-15.3012997 0.31975,0 2.38485,4.89716996 2.38485,5.655419 0,0.519 -0.0614,0.514933 -0.68009,-0.04503 -0.6726,-0.60869904 -0.67846,-0.59713604 -0.53348,1.052391 0.0806,0.917315 0.26243,3.274492 0.404,5.238167 0.14156,1.963657 0.286,3.6850527 0.32095,3.8253237 0.0349,0.140261 0.0827,0.656278 0.10608,1.14673 0.0364,0.763425 0.11795,0.82908 0.56696,0.456437 0.36385,-0.301966 0.41591,-0.543789 0.17002,-0.789698 -0.49794,-0.497921 -0.44073,-1.670588 0.1188,-2.4357957 0.3894,-0.532536 0.56465,-0.571354 0.98912,-0.219072 0.64907,0.5386767 0.68163,3.4565297 0.0387,3.4565297 -0.85685,0 -1.86437,1.739444 -1.65547,2.858083 0.22799,1.220845 -0.41205,5.66008 -0.88462,6.135676 -0.20167,0.20297 -0.32097,-0.126079 -0.32097,-0.885192 z m 11.0200001,-0.460149 c -0.26047,-1.0378 0.0866,-3.040738 0.74888,-4.32139 0.81007,-1.566478 1.08859,-1.067556 0.45268,0.810887 -0.62898,1.857955 -0.54002,2.819646 0.23338,2.522866 0.5554,-0.213131 0.56293,-0.158975 0.13455,0.967732 -0.42351,1.113907 -1.29214,1.124933 -1.56949,0.01992 z M -27.581514,19.261383 c -0.33872,-1.34959 0.60934,-4.917907 1.30664,-4.917907 0.3713,0 0.32359,0.313001 -0.29432,1.930979 -0.63841,1.671634 -0.43149,2.82395 0.38534,2.14603 0.61537,-0.510684 0.69557,0.03393 0.15404,1.045777 -0.49442,0.92382 -1.29494,0.818119 -1.5517,-0.204879 z m -25.663611,-2.244308 c -0.450199,-0.841189 -0.269944,-2.329676 0.507403,-4.190133 0.680451,-1.628531 1.052433,-1.378328 0.564326,0.379557 -0.199609,0.718848 -0.363771,1.661581 -0.364813,2.094975 -9.07e-4,0.642714 0.128011,0.746741 0.702786,0.564313 0.684464,-0.217233 0.689086,-0.193516 0.161287,0.827162 -0.639562,1.236757 -1.038511,1.319077 -1.570989,0.324126 z m 18.778351,0.279069 c -0.41293,-0.497558 -0.0151,-2.387836 0.86086,-4.089354 0.76275,-1.481792 0.92558,-0.81468 0.27744,1.136686 -0.61695,1.857428 -0.51034,2.405876 0.33181,1.706959 0.62508,-0.518754 0.71116,0.01746 0.16627,1.035625 -0.40792,0.762188 -1.104,0.85156 -1.63638,0.210084 z m -27.037048,-2.442629 c 0.107644,-0.280514 0.305613,-0.510039 0.439933,-0.510039 0.350612,0 4.250679,-3.056777 4.390576,-3.441227 0.06445,-0.177079 -0.06898,-0.546192 -0.296409,-0.820256 -0.581133,-0.7002267 0.194197,-2.5390957 1.070581,-2.5390957 0.521335,0 0.6388,0.256743 0.6388,1.396195 0,1.7280007 -1.347471,3.5597197 -3.866684,5.2562437 -1.857769,1.251094 -2.693091,1.482411 -2.376797,0.658179 z m 1.836041,-4.226186 c -0.301561,-0.563467 -0.244213,-1.0220157 0.27444,-2.1945177 0.360617,-0.815207 0.826002,-1.587484 1.034208,-1.716165 0.491869,-0.303986 0.478844,-0.17687 -0.131475,1.283853 -0.280528,0.671389 -0.510046,1.39736 -0.510046,1.613284 0,0.283117 0.142232,0.274547 0.510046,-0.03066 0.798235,-0.662483 0.663547,0.4357317 -0.142946,1.1656147 -0.622919,0.563723 -0.670571,0.558128 -1.034227,-0.121357 z m 13.966922,-2.3285667 c -0.462278,-0.906143 -0.97491,-1.425107 -1.47827,-1.496547 -0.971582,-0.137915 -1.267123,-1.535566 -0.395437,-1.870064 0.418303,-0.160521 0.862597,0.09559 1.50901,0.869891 l 0.916134,1.097386 0.377945,-1.500932 c 0.480928,-1.909946 1.212543,-2.604214 1.728474,-1.640221 0.679525,1.269735 0.184472,2.489816 -0.536762,1.322844 -0.320326,-0.518309 -0.714392,0.74 -0.770959,2.461778 -0.06754,2.055102 -0.549623,2.325001 -1.350135,0.755865 z m 17.643605,-1.604995 c -0.46793,-0.563832 -0.32448,-2.409169 0.31435,-4.043432 0.5795,-1.482465 0.85828,-0.779827 0.37518,0.945617 -0.41941,1.498022 -0.25804,2.440081 0.35328,2.062271 0.50104,-0.309671 0.36775,0.738808 -0.1484,1.167181 -0.35376,0.293597 -0.56763,0.26212 -0.89441,-0.131637 z m 5.08898,-0.530918 c -0.41776,-0.78061 -0.16698,-2.41329 0.57147,-3.720377 0.44676,-0.790809 0.46541,-0.725508 0.26762,0.936738 -0.18401,1.546364 -0.13966,1.758813 0.32956,1.578751 0.62403,-0.239459 0.70425,0.286637 0.19019,1.247181 -0.45347,0.847285 -0.89001,0.833711 -1.35884,-0.0423 z m -13.16544,-2.411215 c -0.23377,-0.2338 -0.42504,-0.709997 -0.42504,-1.058196 0,-0.841461 1.66372,-4.331314 2.06487,-4.331314 0.49116,0 0.37567,0.56465 -0.36346,1.77693496 -0.83922,1.37646404 -0.94656,2.60680704 -0.17128,1.96338304 0.74787,-0.62068 0.6837,0.390265 -0.085,1.339503 -0.47606,0.587865 -0.68004,0.649791 -1.02008,0.309689 z m -18.583352,-0.879225 c -0.395196,-0.395213 -0.196165,-2.51757204 0.331865,-3.53868704 0.675222,-1.30573196 1.027686,-1.02211496 0.524287,0.421896 -0.493442,1.41548204 -0.478526,1.66676704 0.09887,1.66676704 0.305091,0 0.416054,0.237675 0.306519,0.656532 -0.17901,0.684543 -0.910422,1.144602 -1.261545,0.793492 z m 23.258752,-8.865022 c 0,-0.15092 0.42078,-0.45415 0.93508,-0.67385 0.91033,-0.3889 0.90133,-0.3957 -0.34004,-0.25703 -1.32221,0.14768 -1.56602,-0.068 -0.86706,-0.7669 0.42294,-0.42295 3.05579,-0.57118 3.43366,-0.19331 0.41113,0.41112 -0.43426,1.4164 -1.50506,1.78969 -1.28272,0.44715 -1.65658,0.47004 -1.65658,0.1014 z"
         style="fill:url(#linearGradient3197);fill-opacity:1"
         inkscape:connector-curvature="0" />
      <path
         inkscape:connector-curvature="0"
         style="opacity:0.2037037;fill:#ffcc00;fill-opacity:1"
         d="m -36.048704,46.108223 c -0.96034,-0.825805 -1.02009,-1.022716 -1.02009,-3.361971 l 0,-2.484785 -1.64773,0.83442 c -0.90627,0.458939 -2.81249,1.13232 -4.23605,1.496402 -2.87728,0.735888 -5.35069,0.526306 -7.30629,-0.619069 -1.881024,-1.101708 -2.438934,-2.231026 -2.445418,-4.94993 -0.0029,-1.346452 0.114591,-3.060151 0.261792,-3.808211 0.14885,-0.756439 0.13953,-1.170783 -0.02103,-0.933554 -0.661444,0.977476 -2.649096,2.123659 -3.682753,2.123659 -1.780758,0 -2.854417,-1.568042 -2.854417,-4.168809 0,-1.229388 0.284879,-2.878806 0.698329,-4.043322 l 0.698319,-1.966877 -0.783328,-1.060578 c -0.612432,-0.829217 -0.780801,-1.494756 -0.771741,-3.050708 0.0097,-1.673482 0.251168,-2.456165 1.51749,-4.91928 1.512811,-2.94257 2.385278,-4.112972 2.377164,-3.18896 -0.0029,0.256661 -0.362585,1.093502 -0.800734,1.859628 -1.451951,2.538824 -2.385374,5.628405 -2.123004,7.026984 0.205658,1.096267 0.364775,1.270708 1.158089,1.269607 1.368639,-0.0027 2.625689,-0.905916 6.791302,-4.884028 l 3.77255,-3.602768 -2.52581,-1.844574 c -1.38919,-1.01451 -3.205333,-2.2744727 -4.03586,-2.7999137 -2.094205,-1.324883 -2.696246,-2.818946 -1.868217,-4.636283 0.406917,-0.893061 0.970183,-1.293186 3.801127,-2.700171 1.07535,-0.534457 1.95516,-1.03305104 1.95516,-1.10799504 0,-0.07497 -0.25066,-0.386943 -0.55705,-0.693331 -0.89382,-0.89380696 -0.11069,-3.01852796 1.32361,-3.59112796 0.60699,-0.24234 2.06828,-0.87473 3.24733,-1.40535 2.32401,-1.04591 9.29105,-3.4053199 9.48442,-3.21195 0.41329,0.4133 -0.51439,1.19762 -2.03462,1.72021 -5.11862,1.75955 -11.46369,4.420071 -11.46369,4.806787 0,0.100943 0.23184,0.631815 0.51517,1.17973496 l 0.51516,0.996225 1.78004,-0.713709 c 5.67843,-2.27679396 14.06879,-4.71278796 16.23238,-4.71278796 0.39041,0 1.09237,0.38251 1.55988,0.85003 0.71857,0.71857 0.81496,1.04724 0.62322,2.125177 -0.33043,1.85774696 -1.20109,3.108732 -3.72489,5.352021 -1.23457,1.097349 -2.72794,2.668104 -3.31859,3.490561 -1.30499,1.817172 -1.60655,1.359133 -0.52757,-0.801334 0.71289,-1.427399 2.844,-3.735951 5.55365,-6.01605704 1.00531,-0.845937 1.00956,-0.863823 0.37234,-1.56793396 -0.47009,-0.519454 -1.05364,-0.712234 -2.15588,-0.712234 -1.55578,0 -6.51381,1.193635 -10.11429,2.43498596 -4.03866,1.39242004 -12.071012,4.97958604 -12.071012,5.39078304 0,0.114935 0.497291,0.46538 1.105092,0.778773 1.15827,0.597227 3.92261,2.25738 7.31114,4.3908007 l 2.0082,1.264348 1.57272,-0.596991 c 0.86501,-0.328347 1.65366,-0.677928 1.75256,-0.776825 0.0989,-0.09891 -0.14422,-2.0279827 -0.54025,-4.2868647 -0.68719,-3.919326 -0.66779,-5.87877904 0.0581,-5.87877904 0.18346,0 0.33354,0.142845 0.33354,0.317441 0,0.174576 0.48293,1.09428304 1.07316,2.04376604 1.0631,1.710179 1.12438,2.555235 0.12516,1.725954 -0.64609,-0.536221 -0.67513,-0.09171 -0.15301,2.342841 0.43881,2.04615 1.39278,3.3476527 2.92211,3.9866357 1.01536,0.424243 1.13302,0.614166 1.13302,1.828962 0,1.500833 -0.15941,1.586548 -1.57627,0.847602 -1.13533,-0.592114 -2.94392,-0.664619 -3.89409,-0.156109 -0.59136,0.316486 -0.25852,0.647172 2.99762,2.978068 2.01456,1.442118 4.23664,3.059714 4.93795,3.594661 l 1.27511,0.972618 0,-0.919599 c 0,-0.505772 -0.16458,-3.877478 -0.36571,-7.492682 -0.31523,-5.6656477 -0.29557,-6.7061127 0.14247,-7.5364847 l 0.50819,-0.963375 0.73534,1.700145 c 1.71574,3.966841 2.02661,6.0165387 0.63876,4.211612 l -0.62385,-0.811322 0.0227,1.8701547 c 0.0124,1.028584 0.2003,3.997662 0.41747,6.597946 l 0.39485,4.727783 1.3228,0.685752 c 1.21506,0.629905 1.43663,0.646416 2.72023,0.202642 l 1.39744,-0.483129 0.0625,-2.040174 c 0.0343,-1.122085 -0.0787,-3.264276 -0.25141,-4.760396 -0.17264,-1.49613 -0.4613,-4.785914 -0.64147,-7.3106267 -0.18019,-2.524713 -0.49687,-6.698317 -0.70374,-9.27468404 -0.35167,-4.37935296 -0.27409,-6.03566296 0.28198,-6.02012296 0.32255,0.009 2.4423,4.887957 2.4423,5.621343 0,0.56497796 -0.0375,0.56402296 -0.68006,-0.01738 -0.83171,-0.752681 -0.82058,-1.067156 -0.19234,5.440464 1.37676,14.2609457 1.46065,16.3445957 0.75251,18.6939317 -0.68859,2.284527 -3.15035,3.447632 -5.44807,2.574048 l -0.85181,-0.323872 0.0645,5.679321 c 0.0624,5.483712 -0.38039,8.909593 -1.15156,8.909593 -0.15274,0 -0.24762,-1.491882 -0.21083,-3.315286 0.0369,-1.823403 -0.0625,-5.400362 -0.22072,-7.948792 l -0.28762,-4.633516 -2.2626,-1.721242 c -1.24443,-0.94668 -2.56871,-1.998362 -2.94281,-2.337081 -0.37412,-0.338711 -1.57675,-1.283763 -2.67251,-2.100125 l -1.9923,-1.484285 0.86203,1.484285 c 1.12756,1.941486 1.42303,3.668814 0.90449,5.287457 -0.64427,2.011034 -1.5522,2.742692 -4.55317,3.669105 -3.20318,0.988827 -6.08,2.556926 -6.85174,3.734741 -0.29855,0.455656 -0.70033,1.792792 -0.89283,2.971417 -0.449796,2.753937 0.0754,4.39474 1.86921,5.840307 1.10688,0.891979 1.63642,1.062326 3.65731,1.176515 3.40524,0.192415 7.92145,-1.453045 11.31579,-4.122823 1.5517,-1.220464 1.5458,-1.548121 -0.11067,-6.146313 -0.82759,-2.297308 -1.0315,-3.306414 -0.85657,-4.238894 l 0.22959,-1.223821 1.48786,1.688682 c 1.65116,1.874003 1.84607,2.364874 0.83393,2.100189 -0.83944,-0.219517 -0.83943,-0.151679 1.3e-4,2.05734 0.755,1.986427 0.88518,4.493 0.29235,5.629177 -0.21313,0.408487 -1.03073,1.437325 -1.81686,2.286301 -1.17065,1.264231 -1.4727,1.870537 -1.66896,3.350055 -0.183,1.379457 -0.11337,1.999181 0.29456,2.621762 1.0922,1.666895 2.16214,0.95214 7.24986,-4.84309 1.79588,-2.045614 2.53834,-2.537313 6.31607,-4.182865 l 1.99648,-0.869654 0.0712,-2.380203 c 0.095,-3.175423 1.06456,-4.930425 2.72378,-4.930425 0.60362,0 0.9173,0.321025 1.33583,1.367003 0.30083,0.751862 0.54696,1.650692 0.54696,1.997426 0,1.061315 -1.00269,3.543826 -1.75465,4.344259 -1.03158,1.098078 -0.60627,1.812132 1.07939,1.812132 1.01843,0 1.60767,-0.221446 2.22084,-0.83462 1.01269,-1.012672 1.02711,-1.482083 0.33482,-10.896383 -1.57248,-21.3839337 -1.70567,-25.00802574 -0.91829,-24.98562874 0.26072,0.0072 2.43817,4.82875304 2.43817,5.39863404 0,0.578569 -0.606,0.444485 -0.99283,-0.219681 -0.49072,-0.842498 -0.46953,0.475561 0.12678,7.8862667 1.58698,19.722207 1.49586,22.609283 -0.78253,24.79212 -1.95199,1.870127 -4.34518,1.825233 -5.19624,-0.09748 -0.25398,-0.573775 -0.63485,-1.043231 -0.84637,-1.043231 -0.85031,0 -5.74243,2.474861 -6.97118,3.526633 -0.72146,0.617541 -2.06218,2.114108 -2.97938,3.325701 -2.64832,3.49834 -4.09915,4.096695 -5.99024,2.470511 z m 18.11589,-12.912421 c 0.87789,-0.614903 1.00386,-2.066774 0.26558,-3.061007 -1.02813,-1.384541 -2.2825,0.620371 -1.74014,2.781338 0.23847,0.950129 0.45792,0.991749 1.47456,0.279669 z m -36.94469,-1.428082 c 0.491087,-0.326055 1.719849,-1.448223 2.730573,-2.493736 2.568657,-2.657061 4.144037,-3.604515 8.354117,-5.024263 3.03425,-1.023217 3.68184,-1.362481 3.76901,-1.974465 0.1561,-1.096285 -1.06365,-3.233618 -3.04918,-5.342967 -2.10023,-2.231189 -1.53551,-2.462625 -6.9902,2.864787 -2.333372,2.278923 -4.452421,4.037636 -5.335655,4.428328 -1.182451,0.523056 -1.570622,0.927912 -2.01207,2.098642 -1.316492,3.491316 -1.021984,6.042803 0.697035,6.038718 0.518923,-9.1e-4 1.345282,-0.268998 1.83637,-0.595044 z m 1.203965,-3.709751 c -0.424622,-0.424616 -0.228312,-2.897365 0.322092,-4.057287 0.553608,-1.166634 1.431463,-1.66804 0.982948,-0.561437 -0.727158,1.794137 -0.90037,2.527914 -0.712377,3.017802 0.169006,0.440409 0.305208,0.464062 0.714808,0.124133 0.593524,-0.492572 0.623464,-0.349845 0.174399,0.831273 -0.316795,0.833229 -0.997593,1.1298 -1.48187,0.645516 z m 5.148315,-5.65103 c -0.89207,-0.73355 -0.90095,-0.776798 -0.34628,-1.687926 0.64036,-1.051855 1.15014,-1.174141 1.77186,-0.425026 0.58804,0.708533 1.23275,0.636819 1.82066,-0.202541 l 0.49911,-0.712572 1.05029,0.776517 c 1.22302,0.904205 1.26899,1.208946 0.349,2.31372 l -0.67867,0.814988 -0.86902,-0.814988 -0.86903,-0.815017 -0.62067,0.765072 c -0.76128,0.938384 -0.95254,0.937275 -2.10725,-0.01228 z m 19.79795,24.324284 c 0.007,-0.140252 0.23546,-0.552041 0.51004,-0.91505 0.64929,-0.858446 0.6434,-1.584136 -0.0108,-1.333087 -0.73694,0.282797 -0.62641,-0.346379 0.19078,-1.085924 0.59977,-0.542789 0.7461,-0.562639 1.01487,-0.137715 0.44924,0.710225 0.41102,0.930006 -0.41819,2.405393 -0.6707,1.193345 -1.3147,1.727091 -1.28669,1.066383 z m 5.62067,-2.297354 c -0.28913,-0.691975 -0.86175,-1.330504 -1.36467,-1.52171 -0.99275,-0.377447 -1.27088,-2.046433 -0.34104,-2.046433 0.54882,0 1.77441,1.128699 2.37429,2.18654 0.3256,0.574147 0.35326,0.567388 0.40343,-0.09861 0.0728,-0.967469 0.85429,-2.517536 1.35052,-2.678976 0.52057,-0.169355 1.59814,1.46357 1.29233,1.958371 -0.15986,0.258663 -0.43386,0.195419 -0.87229,-0.20135 -0.71278,-0.645061 -0.63746,-0.755956 -1.34441,1.979303 -0.2296,0.888322 -0.54852,1.615131 -0.70871,1.615131 -0.16021,0 -0.51545,-0.53652 -0.78945,-1.192262 z m -32.481714,-5.523302 c 0.0068,-0.140262 0.230715,-0.637556 0.497986,-1.105101 0.626026,-1.095113 0.626026,-1.360117 0,-1.360117 -0.614834,0 -0.657343,-0.396741 -0.101999,-0.952075 0.559502,-0.55951 1.179546,-0.511758 1.417825,0.109204 0.212596,0.554033 -1.099419,3.563113 -1.553593,3.563113 -0.149748,0 -0.266847,-0.114762 -0.260219,-0.255024 z m 8.151534,-1.092866 c -0.55679,-0.355585 -0.70062,-2.91203 -0.25368,-4.508647 l 0.25924,-0.926094 -1.20885,0.713235 c -1.26747,0.747815 -1.90322,0.65052 -1.20968,-0.185138 0.43834,-0.52817 4.54684,-3.075317 5.60174,-3.472913 1.04488,-0.393821 0.48685,0.608026 -0.83767,1.503889 -1.67303,1.131565 -2.16989,2.284645 -2.0516,4.76117 0.0299,0.627111 0.17647,0.743912 0.71769,0.572136 0.83849,-0.266122 0.87311,0.202488 0.085,1.150479 -0.43075,0.518135 -0.73508,0.626339 -1.1022,0.391883 z m 4.98504,-3.088007 c -1.06083,-0.834439 -1.1299,-1.345934 -0.31253,-2.314193 l 0.59504,-0.704903 1.00619,0.821712 c 0.87939,0.718157 0.96508,0.938003 0.68006,1.744539 -0.42937,1.214979 -0.87079,1.316513 -1.96876,0.452845 z m 4.39481,-0.289212 c -0.68281,-0.754483 -0.68278,-1.541133 1.1e-4,-3.545291 0.6258,-1.836622 1.26928,-1.851824 0.76294,-0.01801 -0.39067,1.414854 -0.0901,3.293114 0.39999,2.500041 0.40796,-0.660108 0.6904,-0.293797 0.45815,0.59427 -0.25841,0.988211 -0.96605,1.192936 -1.62119,0.46901 z m 11.01899,-0.998945 c 0,-0.195982 0.14801,-0.447803 0.3289,-0.559601 0.18088,-0.111796 0.24383,-0.628522 0.13988,-1.148285 -0.14191,-0.709551 0.0416,-1.218999 0.73634,-2.044713 1.04867,-1.246263 2.36519,-1.365484 2.36519,-0.214177 0,0.524167 -0.22669,0.680058 -0.98893,0.680058 -0.54392,0 -1.04964,0.178288 -1.12382,0.396186 -0.19251,0.56545 1.11737,0.896855 2.51128,0.635362 0.9983,-0.187284 1.17117,-0.131528 1.07554,0.346899 -0.0703,0.351918 -0.82959,0.79884 -1.98412,1.167944 -1.02859,0.32884 -2.13793,0.710115 -2.46521,0.847284 -0.34682,0.145356 -0.59505,0.100743 -0.59505,-0.106957 z m 16.83143,-4.731658 c 0,-2.758585 -0.27025,-8.862704 -0.60055,-13.564714 -0.4511,-6.4216587 -0.50708,-8.7909267 -0.22495,-9.5208207 0.37046,-0.958361 0.39137,-0.934372 1.5237001,1.748543 0.63144,1.496121 1.15345,2.9114927 1.16002,3.1452657 0.0175,0.622108 -0.57984,0.518572 -0.98091,-0.17002 -0.49063,-0.8423437 -0.45682,0.916633 0.14541,7.565643 0.64954,7.171311 0.6443,11.82668 -0.0157,14.049481 -0.28777,0.969024 -0.63206,1.761952 -0.76507,1.762052 -0.1330101,10e-5 -0.2418401,-2.256844 -0.2418401,-5.01543 z m -32.80476,1.09524 c 0.23724,-0.285846 1.62245,-1.524877 3.07826,-2.753418 1.45581,-1.228524 2.72995,-2.450088 2.83145,-2.714583 0.1015,-0.264485 0.0139,-0.855344 -0.1946,-1.31301 -0.30413,-0.667467 -0.26418,-1.00756 0.20188,-1.718867 0.46854,-0.715074 0.67537,-0.808457 1.06833,-0.482338 0.26801,0.222428 0.48729,0.814116 0.48729,1.314866 0,0.500751 0.17028,1.08073 0.37841,1.288857 0.4442,0.444202 0.0933,1.17778 -0.49832,1.041911 -0.22474,-0.05158 -1.01019,0.571991 -1.7454,1.38578 -1.53307,1.696915 -5.02673,4.47052 -5.63114,4.47052 -0.30624,0 -0.3003,-0.129144 0.0238,-0.519718 z m 19.37362,-2.163651 c 0,-0.2073 0.30602,-0.376891 0.68006,-0.376891 0.37403,0 0.68006,-0.16517 0.68006,-0.367058 0,-0.234636 -0.39862,-0.28398 -1.1051,-0.136777 l -1.10509,0.230252 0.7333,-0.757085 c 0.60015,-0.619615 0.95517,-0.715455 1.95517,-0.527859 1.36716,0.256488 1.49614,0.525895 0.62681,1.309316 -0.77851,0.701591 -2.46521,1.129964 -2.46521,0.626102 z M -61.49978,27.007214 c -0.105067,-0.17 0.184983,-0.862458 0.64457,-1.538785 0.776729,-1.143064 0.793633,-1.253505 0.239987,-1.56768 -0.554206,-0.314493 -0.556512,-0.377591 -0.03319,-0.907526 0.782634,-0.79251 1.421685,-0.293733 1.178919,0.920144 -0.240121,1.20055 -1.764616,3.523694 -2.030276,3.093847 z m 41.100286,-2.114134 c -0.56893,-0.628667 -0.57179,-0.725935 -0.0449,-1.530126 0.64712,-0.987618 0.81449,-1.020651 1.71604,-0.338701 0.59241,0.448087 0.73932,0.422961 1.45442,-0.248838 l 0.79543,-0.747259 0.91806,0.91807 0.91807,0.918061 -0.91444,0.914449 c -0.89391,0.893899 -0.93004,0.900358 -1.60742,0.287329 -0.64617,-0.584782 -0.73496,-0.589122 -1.31479,-0.06441 -0.80732,0.73063 -1.18009,0.709542 -1.92051,-0.108603 z m 1.18221,-3.801152 c 0,-0.664529 -0.0985,-2.150879 -0.21895,-3.303003 l -0.21894,-2.094767 -1.18402,0.69859 c -1.29511,0.764134 -2.02077,0.583435 -0.92776,-0.231026 2.32466,-1.73224 2.17098,-1.297818 1.84602,-5.218535 -1.00306,-12.1024367 -1.07018,-15.3012997 -0.32107,-15.3012997 0.31975,0 2.38485,4.89716996 2.38485,5.655419 0,0.519 -0.0614,0.514933 -0.68009,-0.04503 -0.6726,-0.60869904 -0.67846,-0.59713604 -0.53348,1.052391 0.0806,0.917315 0.26243,3.274492 0.404,5.238167 0.14156,1.963657 0.286,3.6850527 0.32095,3.8253237 0.0349,0.140261 0.0827,0.656278 0.10608,1.14673 0.0364,0.763425 0.11795,0.82908 0.56696,0.456437 0.36385,-0.301966 0.41591,-0.543789 0.17002,-0.789698 -0.49794,-0.497921 -0.44073,-1.670588 0.1188,-2.4357957 0.3894,-0.532536 0.56465,-0.571354 0.98912,-0.219072 0.64907,0.5386767 0.68163,3.4565297 0.0387,3.4565297 -0.85685,0 -1.86437,1.739444 -1.65547,2.858083 0.22799,1.220845 -0.41205,5.66008 -0.88462,6.135676 -0.20167,0.20297 -0.32097,-0.126079 -0.32097,-0.885192 z m 11.0200001,-0.460149 c -0.26047,-1.0378 0.0866,-3.040738 0.74888,-4.32139 0.81007,-1.566478 1.08859,-1.067556 0.45268,0.810887 -0.62898,1.857955 -0.54002,2.819646 0.23338,2.522866 0.5554,-0.213131 0.56293,-0.158975 0.13455,0.967732 -0.42351,1.113907 -1.29214,1.124933 -1.56949,0.01992 z M -27.581514,19.261383 c -0.33872,-1.34959 0.60934,-4.917907 1.30664,-4.917907 0.3713,0 0.32359,0.313001 -0.29432,1.930979 -0.63841,1.671634 -0.43149,2.82395 0.38534,2.14603 0.61537,-0.510684 0.69557,0.03393 0.15404,1.045777 -0.49442,0.92382 -1.29494,0.818119 -1.5517,-0.204879 z m -25.663611,-2.244308 c -0.450199,-0.841189 -0.269944,-2.329676 0.507403,-4.190133 0.680451,-1.628531 1.052438,-1.378328 0.564326,0.379557 -0.199609,0.718848 -0.363771,1.661581 -0.364813,2.094975 -9.07e-4,0.642714 0.128011,0.746741 0.702785,0.564313 0.68447,-0.217233 0.68909,-0.193516 0.16129,0.827162 -0.639564,1.236757 -1.038513,1.319077 -1.570991,0.324126 z m 18.778351,0.279069 c -0.41293,-0.497558 -0.0151,-2.387836 0.86086,-4.089354 0.76275,-1.481792 0.92558,-0.81468 0.27744,1.136686 -0.61695,1.857428 -0.51034,2.405876 0.33181,1.706959 0.62508,-0.518754 0.71116,0.01746 0.16627,1.035625 -0.40792,0.762188 -1.104,0.85156 -1.63638,0.210084 z m -27.037048,-2.442629 c 0.107644,-0.280514 0.305613,-0.510039 0.439933,-0.510039 0.350612,0 4.250679,-3.056777 4.390576,-3.441227 0.06445,-0.177079 -0.06898,-0.546192 -0.296409,-0.820256 -0.581133,-0.7002267 0.194197,-2.5390957 1.070581,-2.5390957 0.521335,0 0.6388,0.256743 0.6388,1.396195 0,1.7280007 -1.347471,3.5597197 -3.866684,5.2562437 -1.857769,1.251094 -2.693091,1.482411 -2.376797,0.658179 z m 1.836041,-4.226186 c -0.301561,-0.563467 -0.244213,-1.0220157 0.27444,-2.1945177 0.360617,-0.815207 0.826002,-1.587484 1.034208,-1.716165 0.491869,-0.303986 0.478844,-0.17687 -0.131475,1.283853 -0.280528,0.671389 -0.510046,1.39736 -0.510046,1.613284 0,0.283117 0.142232,0.274547 0.510046,-0.03066 0.798235,-0.662483 0.663547,0.4357317 -0.142946,1.1656147 -0.622919,0.563723 -0.670571,0.558128 -1.034227,-0.121357 z m 13.966927,-2.3285667 c -0.46228,-0.906143 -0.97491,-1.425107 -1.47827,-1.496547 -0.97159,-0.137915 -1.26713,-1.535566 -0.39544,-1.870064 0.4183,-0.160521 0.8626,0.09559 1.50901,0.869891 l 0.91613,1.097386 0.37795,-1.500932 c 0.48093,-1.909946 1.21254,-2.604214 1.72847,-1.640221 0.67953,1.269735 0.18447,2.489816 -0.53676,1.322844 -0.32033,-0.518309 -0.71439,0.74 -0.77096,2.461778 -0.0675,2.055102 -0.54962,2.325001 -1.35013,0.755865 z m 17.6436,-1.604995 c -0.46793,-0.563832 -0.32448,-2.409169 0.31435,-4.043432 0.5795,-1.482465 0.85828,-0.779827 0.37518,0.945617 -0.41941,1.498022 -0.25804,2.440081 0.35328,2.062271 0.50104,-0.309671 0.36775,0.738808 -0.1484,1.167181 -0.35376,0.293597 -0.56763,0.26212 -0.89441,-0.131637 z m 5.08898,-0.530918 c -0.41776,-0.78061 -0.16698,-2.41329 0.57147,-3.720377 0.44676,-0.790809 0.46541,-0.725508 0.26762,0.936738 -0.18401,1.546364 -0.13966,1.758813 0.32956,1.578751 0.62403,-0.239459 0.70425,0.286637 0.19019,1.247181 -0.45347,0.847285 -0.89001,0.833711 -1.35884,-0.0423 z m -13.16544,-2.411215 c -0.23377,-0.2338 -0.42504,-0.709997 -0.42504,-1.058196 0,-0.841461 1.66372,-4.331314 2.06487,-4.331314 0.49116,0 0.37567,0.56465 -0.36346,1.77693496 -0.83922,1.37646404 -0.94656,2.60680704 -0.17128,1.96338304 0.74787,-0.62068 0.6837,0.390265 -0.085,1.339503 -0.47606,0.587865 -0.68004,0.649791 -1.02008,0.309689 z m -18.583352,-0.879225 c -0.395196,-0.395213 -0.196165,-2.51757204 0.331865,-3.53868704 0.675222,-1.30573196 1.027686,-1.02211496 0.524287,0.421896 -0.493442,1.41548204 -0.478526,1.66676704 0.09887,1.66676704 0.305091,0 0.416054,0.237675 0.306519,0.656532 -0.17901,0.684543 -0.910422,1.144602 -1.261545,0.793492 z m 23.258752,-8.865022 c 0,-0.15092 0.42078,-0.45415 0.93508,-0.67385 0.91033,-0.3889 0.90133,-0.3957 -0.34004,-0.25703 -1.32221,0.14768 -1.56602,-0.068 -0.86706,-0.7669 0.42294,-0.42295 3.05579,-0.57118 3.43366,-0.19331 0.41113,0.41112 -0.43426,1.4164 -1.50506,1.78969 -1.28272,0.44715 -1.65658,0.47004 -1.65658,0.1014 z"
         id="path3987" />
    </g>
    <path
       style="opacity:0.4;fill:url(#linearGradient5472);fill-opacity:1;fill-rule:nonzero;stroke:none"
       id="rect3690"
       inkscape:connector-curvature="0"
       d="m 12.000002,6.3261839 c -3.3239999,0 -5.9999999,2.676 -5.9999999,6.0000011 l 0,46.875003 C 23.608562,47.679158 50.228742,40.326184 79.999998,40.326184 c 3.37799,0 6.71203,0.09685 10,0.281254 l 0,-28.281253 c 0,-3.3240011 -2.676,-6.0000011 -6,-6.0000011 l -71.999996,0 z" />
  </g>
</svg>
