<?xml version="1.0" encoding="UTF-8" standalone="no"?>
<!-- Created with Inkscape (http://www.inkscape.org/) -->

<svg
   xmlns:dc="http://purl.org/dc/elements/1.1/"
   xmlns:cc="http://creativecommons.org/ns#"
   xmlns:rdf="http://www.w3.org/1999/02/22-rdf-syntax-ns#"
   xmlns:svg="http://www.w3.org/2000/svg"
   xmlns="http://www.w3.org/2000/svg"
   xmlns:xlink="http://www.w3.org/1999/xlink"
   xmlns:sodipodi="http://sodipodi.sourceforge.net/DTD/sodipodi-0.dtd"
   xmlns:inkscape="http://www.inkscape.org/namespaces/inkscape"
   version="1.0"
   width="96"
   height="96"
   id="svg2408"
   inkscape:version="0.48.2 r9819"
   sodipodi:docname="ojuba.svg"
   inkscape:export-filename="F:\faenza-iap\islamic-menus.png"
   inkscape:export-xdpi="127"
   inkscape:export-ydpi="127">
  <sodipodi:namedview
     pagecolor="#ffffff"
     bordercolor="#666666"
     borderopacity="1"
     objecttolerance="10"
     gridtolerance="10"
     guidetolerance="10"
     inkscape:pageopacity="0"
     inkscape:pageshadow="2"
     inkscape:window-width="1280"
     inkscape:window-height="940"
     id="namedview4082"
     showgrid="false"
     inkscape:zoom="2.7395834"
     inkscape:cx="62.125208"
     inkscape:cy="59.826375"
     inkscape:window-x="0"
     inkscape:window-y="26"
     inkscape:window-maximized="1"
     inkscape:current-layer="svg2408" />
  <defs
     id="defs2410">
    <linearGradient
       id="linearGradient3862">
      <stop
         offset="0"
         style="stop-color:#ffffff;stop-opacity:1"
         id="stop3864" />
      <stop
         offset="1"
         style="stop-color:#ffffff;stop-opacity:1"
         id="stop3866" />
    </linearGradient>
    <linearGradient
       id="linearGradient5609">
      <stop
         id="stop5611"
         style="stop-color:#225500;stop-opacity:1"
         offset="0" />
      <stop
         id="stop5613"
         style="stop-color:#96d066;stop-opacity:1"
         offset="1" />
    </linearGradient>
    <linearGradient
       id="linearGradient4135">
      <stop
         offset="0"
         style="stop-color:#007d00;stop-opacity:1"
         id="stop4137" />
      <stop
         offset="1"
         style="stop-color:#5ebb00;stop-opacity:1"
         id="stop4139" />
    </linearGradient>
    <radialGradient
       gradientUnits="userSpaceOnUse"
       id="radialGradient4120"
       fy="133.10451"
       fx="115.8989"
       r="154.62019"
       cy="133.10451"
       cx="115.8989">
      <stop
         offset="0"
         style="stop-color:#7fff2a;stop-opacity:1"
         id="stop4122" />
      <stop
         offset="1"
         style="stop-color:#048000;stop-opacity:1"
         id="stop4124" />
    </radialGradient>
    <linearGradient
       x1="45.447727"
       y1="92.539597"
       x2="45.447727"
       y2="7.0165396"
       id="ButtonShadow"
       gradientUnits="userSpaceOnUse"
       gradientTransform="scale(1.0058652,0.994169)">
      <stop
         id="stop3750"
         style="stop-color:#000000;stop-opacity:1"
         offset="0" />
      <stop
         id="stop3752"
         style="stop-color:#000000;stop-opacity:0.58823532"
         offset="1" />
    </linearGradient>
    <linearGradient
       id="linearGradient3737">
      <stop
         id="stop3739"
         style="stop-color:#ffffff;stop-opacity:1"
         offset="0" />
      <stop
         id="stop3741"
         style="stop-color:#ffffff;stop-opacity:0"
         offset="1" />
    </linearGradient>
    <filter
       color-interpolation-filters="sRGB"
       id="filter3174">
      <feGaussianBlur
         id="feGaussianBlur3176"
         stdDeviation="1.71" />
    </filter>
    <linearGradient
       x1="36.357143"
       y1="6"
       x2="36.357143"
       y2="63.893143"
       id="linearGradient3188"
       xlink:href="#linearGradient3737"
       gradientUnits="userSpaceOnUse" />
    <filter
       x="-0.192"
       y="-0.192"
       width="1.3839999"
       height="1.3839999"
       color-interpolation-filters="sRGB"
       id="filter3794">
      <feGaussianBlur
         id="feGaussianBlur3796"
         stdDeviation="5.28" />
    </filter>
    <linearGradient
       x1="48"
       y1="20.220806"
       x2="48"
       y2="138.66119"
       id="linearGradient3613"
       xlink:href="#linearGradient3737"
       gradientUnits="userSpaceOnUse" />
    <radialGradient
       cx="48"
       cy="90.171875"
       r="42"
       fx="48"
       fy="90.171875"
       id="radialGradient3619"
       xlink:href="#linearGradient3737"
       gradientUnits="userSpaceOnUse"
       gradientTransform="matrix(1.1573129,0,0,0.99590774,-7.5510206,0.19713193)" />
    <clipPath
       id="clipPath3613">
      <rect
         width="84"
         height="84"
         rx="6"
         ry="6"
         x="6"
         y="6"
         id="rect3615"
         style="fill:#ffffff;fill-opacity:1;fill-rule:nonzero;stroke:none" />
    </clipPath>
    <linearGradient
       x1="45.447727"
       y1="92.539597"
       x2="45.447727"
       y2="7.0165396"
       id="ButtonShadow-0"
       gradientUnits="userSpaceOnUse"
       gradientTransform="matrix(1.0058652,0,0,0.994169,100,0)">
      <stop
         id="stop3750-8"
         style="stop-color:#000000;stop-opacity:1"
         offset="0" />
      <stop
         id="stop3752-5"
         style="stop-color:#000000;stop-opacity:0.58823532"
         offset="1" />
    </linearGradient>
    <linearGradient
       x1="32.251034"
       y1="6.1317081"
       x2="32.251034"
       y2="90.238609"
       id="linearGradient3780"
       xlink:href="#ButtonShadow-0"
       gradientUnits="userSpaceOnUse"
       gradientTransform="matrix(1.0238095,0,0,1.0119048,-1.1428571,-98.071429)" />
    <linearGradient
       x1="32.251034"
       y1="6.1317081"
       x2="32.251034"
       y2="90.238609"
       id="linearGradient3772"
       xlink:href="#ButtonShadow-0"
       gradientUnits="userSpaceOnUse"
       gradientTransform="matrix(1.0238095,0,0,1.0119048,-1.1428571,-98.071429)" />
    <linearGradient
       x1="32.251034"
       y1="6.1317081"
       x2="32.251034"
       y2="90.238609"
       id="linearGradient3725"
       xlink:href="#ButtonShadow-0"
       gradientUnits="userSpaceOnUse"
       gradientTransform="matrix(1.0238095,0,0,1.0119048,-1.1428571,-98.071429)" />
    <linearGradient
       x1="32.251034"
       y1="6.1317081"
       x2="32.251034"
       y2="90.238609"
       id="linearGradient3721"
       xlink:href="#ButtonShadow-0"
       gradientUnits="userSpaceOnUse"
       gradientTransform="translate(0,-97)" />
    <linearGradient
       x1="32.251034"
       y1="6.1317081"
       x2="32.251034"
       y2="90.238609"
       id="linearGradient3026"
       xlink:href="#ButtonShadow-0"
       gradientUnits="userSpaceOnUse"
       gradientTransform="matrix(1.0238095,0,0,1.0119048,-1.1428571,-98.071429)" />
    <linearGradient
       x1="48"
       y1="90"
       x2="48"
       y2="5.9877172"
       id="linearGradient3121"
       xlink:href="#linearGradient3925-3"
       gradientUnits="userSpaceOnUse" />
    <radialGradient
       cx="48"
       cy="48"
       r="35.25"
       fx="48"
       fy="48"
       id="radialGradient3891"
       xlink:href="#radialGradient3897"
       gradientUnits="userSpaceOnUse" />
    <radialGradient
       cx="115.8989"
       cy="133.10451"
       r="154.62019"
       fx="115.8989"
       fy="133.10451"
       id="radialGradient3897"
       gradientUnits="userSpaceOnUse">
      <stop
         id="stop3899"
         style="stop-color:#294172;stop-opacity:0.37404579"
         offset="0" />
      <stop
         id="stop3901"
         style="stop-color:#294172;stop-opacity:1"
         offset="1" />
    </radialGradient>
    <linearGradient
       id="linearGradient3925-3">
      <stop
         id="stop3927-9"
         style="stop-color:#3c6eb4;stop-opacity:1"
         offset="0" />
      <stop
         id="stop3929-8"
         style="stop-color:#81a4d5;stop-opacity:1"
         offset="1" />
    </linearGradient>
    <radialGradient
       inkscape:collect="always"
       xlink:href="#linearGradient3590"
       id="radialGradient3596"
       cx="69.913361"
       cy="38.741215"
       fx="69.913361"
       fy="38.741215"
       r="57.836987"
       gradientUnits="userSpaceOnUse"
       gradientTransform="matrix(1.3713225,2.0169422e-8,-1.7232786e-8,1.1716601,-25.960404,-6.6503233)" />
    <linearGradient
       id="linearGradient3590">
      <stop
         style="stop-color:#c5ff00;stop-opacity:1;"
         offset="0"
         id="stop3592" />
      <stop
         style="stop-color:#007d00;stop-opacity:1;"
         offset="1"
         id="stop3594" />
    </linearGradient>
    <linearGradient
       gradientUnits="userSpaceOnUse"
       xlink:href="#linearGradient3697"
       id="linearGradient3703"
       y2="64"
       x2="16"
       y1="16"
       x1="96" />
    <linearGradient
       gradientTransform="matrix(1.0238095,0,0,1.0119048,-1.1428571,-98.071429)"
       gradientUnits="userSpaceOnUse"
       xlink:href="#ButtonShadow-0-2"
       id="linearGradient3026-2"
       y2="90.238609"
       x2="32.251034"
       y1="6.1317081"
       x1="32.251034" />
    <linearGradient
       gradientTransform="translate(0,-97)"
       gradientUnits="userSpaceOnUse"
       xlink:href="#ButtonShadow-0-2"
       id="linearGradient3721-3"
       y2="90.238609"
       x2="32.251034"
       y1="6.1317081"
       x1="32.251034" />
    <linearGradient
       gradientTransform="matrix(1.0238095,0,0,1.0119048,-1.1428571,-98.071429)"
       gradientUnits="userSpaceOnUse"
       xlink:href="#ButtonShadow-0-2"
       id="linearGradient3725-2"
       y2="90.238609"
       x2="32.251034"
       y1="6.1317081"
       x1="32.251034" />
    <linearGradient
       gradientTransform="matrix(1.0238095,0,0,1.0119048,-1.1428571,-98.071429)"
       gradientUnits="userSpaceOnUse"
       xlink:href="#ButtonShadow-0-2"
       id="linearGradient3772-4"
       y2="90.238609"
       x2="32.251034"
       y1="6.1317081"
       x1="32.251034" />
    <linearGradient
       gradientTransform="matrix(1.0238095,0,0,1.0119048,-1.1428571,-98.071429)"
       gradientUnits="userSpaceOnUse"
       xlink:href="#ButtonShadow-0-2"
       id="linearGradient3780-1"
       y2="90.238609"
       x2="32.251034"
       y1="6.1317081"
       x1="32.251034" />
    <linearGradient
       gradientTransform="matrix(1.0058652,0,0,0.994169,100,0)"
       gradientUnits="userSpaceOnUse"
       id="ButtonShadow-0-2"
       y2="7.0165396"
       x2="45.447727"
       y1="92.539597"
       x1="45.447727">
      <stop
         offset="0"
         style="stop-color:#000000;stop-opacity:1"
         id="stop3750-8-7" />
      <stop
         offset="1"
         style="stop-color:#000000;stop-opacity:0.58823532"
         id="stop3752-5-6" />
    </linearGradient>
    <linearGradient
       gradientUnits="userSpaceOnUse"
       xlink:href="#linearGradient3700"
       id="linearGradient3617"
       y2="5.9877172"
       x2="48"
       y1="90"
       x1="48" />
    <clipPath
       id="clipPath3613-1">
      <rect
         style="fill:#ffffff;fill-opacity:1;fill-rule:nonzero;stroke:none"
         id="rect3615-5"
         y="6"
         x="6"
         ry="6"
         rx="6"
         height="84"
         width="84" />
    </clipPath>
    <radialGradient
       gradientTransform="matrix(1.1573129,0,0,0.99590774,-7.5510206,0.19713193)"
       gradientUnits="userSpaceOnUse"
       xlink:href="#linearGradient3737-4"
       id="radialGradient3619-1"
       fy="90.171875"
       fx="48"
       r="42"
       cy="90.171875"
       cx="48" />
    <linearGradient
       gradientUnits="userSpaceOnUse"
       xlink:href="#linearGradient3737-4"
       id="linearGradient3613-7"
       y2="138.66119"
       x2="48"
       y1="20.220806"
       x1="48" />
    <filter
       id="filter3794-5"
       color-interpolation-filters="sRGB"
       height="1.3839999"
       width="1.3839999"
       y="-0.192"
       x="-0.192">
      <feGaussianBlur
         stdDeviation="5.28"
         id="feGaussianBlur3796-1" />
    </filter>
    <linearGradient
       gradientUnits="userSpaceOnUse"
       xlink:href="#linearGradient3737-4"
       id="linearGradient3188-5"
       y2="63.893143"
       x2="36.357143"
       y1="6"
       x1="36.357143" />
    <filter
       id="filter3174-2"
       color-interpolation-filters="sRGB">
      <feGaussianBlur
         stdDeviation="1.71"
         id="feGaussianBlur3176-4" />
    </filter>
    <linearGradient
       id="linearGradient3700">
      <stop
         offset="0"
         style="stop-color:#ca0019;stop-opacity:1"
         id="stop3702" />
      <stop
         offset="1"
         style="stop-color:#e68995;stop-opacity:1"
         id="stop3704" />
    </linearGradient>
    <linearGradient
       id="linearGradient3737-4">
      <stop
         offset="0"
         style="stop-color:#ffffff;stop-opacity:1"
         id="stop3739-8" />
      <stop
         offset="1"
         style="stop-color:#ffffff;stop-opacity:0"
         id="stop3741-8" />
    </linearGradient>
    <linearGradient
       gradientTransform="scale(1.0058652,0.994169)"
       gradientUnits="userSpaceOnUse"
       id="ButtonShadow-4"
       y2="7.0165396"
       x2="45.447727"
       y1="92.539597"
       x1="45.447727">
      <stop
         offset="0"
         style="stop-color:#000000;stop-opacity:1"
         id="stop3750-0" />
      <stop
         offset="1"
         style="stop-color:#000000;stop-opacity:0.58823532"
         id="stop3752-9" />
    </linearGradient>
    <linearGradient
       id="linearGradient3697">
      <stop
         offset="0"
         style="stop-color:#ffffff;stop-opacity:1"
         id="stop3699" />
      <stop
         offset="1"
         style="stop-color:#ffffff;stop-opacity:0"
         id="stop3701" />
    </linearGradient>
    <linearGradient
       inkscape:collect="always"
       xlink:href="#linearGradient3737-4"
       id="linearGradient5406"
       gradientUnits="userSpaceOnUse"
       x1="48"
       y1="20.220806"
       x2="48"
       y2="138.66119" />
    <linearGradient
       inkscape:collect="always"
       xlink:href="#ButtonShadow-0"
       id="linearGradient5502"
       gradientUnits="userSpaceOnUse"
       gradientTransform="matrix(1.0238095,0,0,1.0119048,-1.1428571,-98.071429)"
       x1="32.251034"
       y1="6.1317081"
       x2="32.251034"
       y2="90.238609" />
    <linearGradient
       inkscape:collect="always"
       xlink:href="#ButtonShadow-0"
       id="linearGradient5504"
       gradientUnits="userSpaceOnUse"
       gradientTransform="matrix(1.0238095,0,0,1.0119048,-1.1428571,-98.071429)"
       x1="32.251034"
       y1="6.1317081"
       x2="32.251034"
       y2="90.238609" />
    <linearGradient
       inkscape:collect="always"
       xlink:href="#ButtonShadow-0"
       id="linearGradient5506"
       gradientUnits="userSpaceOnUse"
       gradientTransform="matrix(1.0238095,0,0,1.0119048,-1.1428571,-98.071429)"
       x1="32.251034"
       y1="6.1317081"
       x2="32.251034"
       y2="90.238609" />
    <linearGradient
       inkscape:collect="always"
       xlink:href="#ButtonShadow-0"
       id="linearGradient5508"
       gradientUnits="userSpaceOnUse"
       gradientTransform="matrix(1.0238095,0,0,1.0119048,-1.1428571,-98.071429)"
       x1="32.251034"
       y1="6.1317081"
       x2="32.251034"
       y2="90.238609" />
    <linearGradient
       inkscape:collect="always"
       xlink:href="#ButtonShadow-0"
       id="linearGradient5510"
       gradientUnits="userSpaceOnUse"
       gradientTransform="translate(0,-97)"
       x1="32.251034"
       y1="6.1317081"
       x2="32.251034"
       y2="90.238609" />
    <linearGradient
       inkscape:collect="always"
       xlink:href="#linearGradient3737"
       id="linearGradient5518"
       gradientUnits="userSpaceOnUse"
       x1="48"
       y1="20.220806"
       x2="48"
       y2="138.66119" />
    <linearGradient
       inkscape:collect="always"
       xlink:href="#linearGradient3737-4"
       id="linearGradient5528"
       gradientUnits="userSpaceOnUse"
       x1="48"
       y1="20.220806"
       x2="48"
       y2="138.66119" />
    <linearGradient
       inkscape:collect="always"
       xlink:href="#linearGradient3697"
       id="linearGradient5533"
       gradientUnits="userSpaceOnUse"
       gradientTransform="translate(-2.8e-7,0.33416168)"
       x1="96"
       y1="16"
       x2="16"
       y2="64" />
    <radialGradient
       inkscape:collect="always"
       xlink:href="#linearGradient3862"
       id="radialGradient5553"
       gradientUnits="userSpaceOnUse"
       gradientTransform="matrix(1.1572595,-0.01112447,0.01229086,1.2785967,-8.6567442,-24.759493)"
       cx="48"
       cy="90.171875"
       fx="48"
       fy="90.171875"
       r="42" />
    <linearGradient
       inkscape:collect="always"
       xlink:href="#linearGradient3737"
       id="linearGradient5556"
       gradientUnits="userSpaceOnUse"
       x1="36.357143"
       y1="6"
       x2="36.357143"
       y2="63.893143"
       gradientTransform="translate(-2.3e-5,0.17187495)" />
    <linearGradient
       inkscape:collect="always"
       xlink:href="#linearGradient5609"
       id="linearGradient5559"
       gradientUnits="userSpaceOnUse"
       x1="46.174904"
       y1="120.29659"
       x2="46.904942"
       y2="41.394562" />
    <linearGradient
       inkscape:collect="always"
       xlink:href="#linearGradient3737-4"
       id="linearGradient5567"
       gradientUnits="userSpaceOnUse"
       x1="48"
       y1="20.220806"
       x2="48"
       y2="138.66119" />
    <linearGradient
       inkscape:collect="always"
       xlink:href="#linearGradient3737"
       id="linearGradient5569"
       gradientUnits="userSpaceOnUse"
       x1="48"
       y1="20.220806"
       x2="48"
       y2="138.66119" />
  </defs>
  <metadata
     id="metadata2413">
    <rdf:RDF>
      <cc:Work
         rdf:about="">
        <dc:format>image/svg+xml</dc:format>
        <dc:type
           rdf:resource="http://purl.org/dc/dcmitype/StillImage" />
        <dc:title />
      </cc:Work>
    </rdf:RDF>
  </metadata>
  <g
     id="layer2"
     style="display:none">
    <rect
       width="86"
       height="85"
       rx="6"
       ry="6"
       x="5"
       y="7"
       id="rect3745"
       style="opacity:0.9;fill:url(#ButtonShadow);fill-opacity:1;fill-rule:nonzero;stroke:none;filter:url(#filter3174)" />
  </g>
  <g
     id="layer2-1"
     style="display:none"
     transform="translate(116.15632,-78.42399)">
    <rect
       width="86"
       height="85"
       rx="6"
       ry="6"
       x="5"
       y="7"
       id="rect3745-6"
       style="opacity:0.9;fill:url(#ButtonShadow-4);fill-opacity:1;fill-rule:nonzero;stroke:none;filter:url(#filter3174-2)" />
  </g>
  <g
     id="layer3">
    <path
       inkscape:connector-curvature="0"
       d="m 12,-95.03125 c -5.5110903,0 -10.03125,4.52016 -10.03125,10.03125 l 0,71 c 0,5.5110902 4.5201598,10.03125 10.03125,10.03125 l 72,0 c 5.51109,0 10.03125,-4.5201597 10.03125,-10.03125 l 0,-71 c 0,-5.51109 -4.52016,-10.03125 -10.03125,-10.03125 l -72,0 z"
       transform="scale(1,-1)"
       id="path3786"
       style="opacity:0.07999998;fill:url(#linearGradient5502);fill-opacity:1;fill-rule:nonzero;stroke:none;display:inline" />
    <path
       inkscape:connector-curvature="0"
       d="m 12,-94.03125 c -4.971633,0 -9.03125,4.059617 -9.03125,9.03125 l 0,71 c 0,4.9716329 4.0596171,9.03125 9.03125,9.03125 l 72,0 c 4.971633,0 9.03125,-4.059617 9.03125,-9.03125 l 0,-71 c 0,-4.971633 -4.059617,-9.03125 -9.03125,-9.03125 l -72,0 z"
       transform="scale(1,-1)"
       id="path3778"
       style="opacity:0.1;fill:url(#linearGradient5504);fill-opacity:1;fill-rule:nonzero;stroke:none;display:inline" />
    <path
       inkscape:connector-curvature="0"
       d="m 12,-93 c -4.4091333,0 -8,3.590867 -8,8 l 0,71 c 0,4.4091333 3.5908667,8 8,8 l 72,0 c 4.409133,0 8,-3.5908667 8,-8 l 0,-71 c 0,-4.409133 -3.590867,-8 -8,-8 l -72,0 z"
       transform="scale(1,-1)"
       id="path3770"
       style="opacity:0.2;fill:url(#linearGradient5506);fill-opacity:1;fill-rule:nonzero;stroke:none;display:inline" />
    <rect
       width="86"
       height="85"
       rx="7"
       ry="7"
       x="5"
       y="-92"
       transform="scale(1,-1)"
       id="rect3723"
       style="opacity:0.3;fill:url(#linearGradient5508);fill-opacity:1;fill-rule:nonzero;stroke:none;display:inline" />
    <rect
       width="84"
       height="84"
       rx="6"
       ry="6"
       x="6"
       y="-91"
       transform="scale(1,-1)"
       id="rect3716"
       style="opacity:0.45;fill:url(#linearGradient5510);fill-opacity:1;fill-rule:nonzero;stroke:none;display:inline" />
  </g>
  <rect
     style="fill:url(#linearGradient5559);fill-opacity:1;fill-rule:nonzero;stroke:none;display:inline"
     id="rect2419-5"
     y="6"
     x="6"
     ry="6"
     rx="6"
     height="84"
     width="84" />
  <path
     style="opacity:0.35;fill:url(#linearGradient5556);fill-opacity:1;fill-rule:nonzero;stroke:none"
     id="rect3728"
     inkscape:connector-curvature="0"
     d="m 11.999977,6.1718749 c -3.324001,0 -6.000001,2.676 -6.000001,6.0000001 l 0,2 0,68 0,2 c 0,0.334721 0.04135,0.6507 0.09375,0.96875 0.0487,0.295596 0.09704,0.596915 0.1875,0.875 0.0099,0.03038 0.02089,0.0636 0.03125,0.09375 0.09886,0.287771 0.234881,0.547452 0.375,0.8125 0.144592,0.273507 0.315617,0.535615 0.5,0.78125 0.184384,0.245635 0.373777,0.473472 0.59375,0.6875 0.439947,0.428056 0.94291,0.814526 1.5,1.09375 0.278545,0.139612 0.573474,0.246947 0.875001,0.34375 -0.256202,-0.100222 -0.486711,-0.236272 -0.718751,-0.375 -0.0074,-0.0044 -0.02387,0.0045 -0.03125,0 -0.03193,-0.0193 -0.06229,-0.04251 -0.09375,-0.0625 -0.120395,-0.0767 -0.231022,-0.163513 -0.34375,-0.25 -0.106172,-0.0808 -0.21328,-0.161112 -0.3125,-0.25 -0.177929,-0.161433 -0.347459,-0.345388 -0.5,-0.53125 -0.107578,-0.130255 -0.218393,-0.265285 -0.3125,-0.40625 -0.02509,-0.03838 -0.03845,-0.08587 -0.0625,-0.125 -0.06476,-0.103032 -0.130227,-0.204517 -0.1875,-0.3125 -0.101008,-0.194706 -0.205674,-0.415701 -0.28125,-0.625 -0.008,-0.02181 -0.02359,-0.04055 -0.03125,-0.0625 -0.03183,-0.09195 -0.0358,-0.186831 -0.0625,-0.28125 -0.03033,-0.106618 -0.07039,-0.203031 -0.09375,-0.3125 -0.07288,-0.341512 -0.125,-0.698205 -0.125,-1.0625 l 0,-2 0,-68 0,-2 c 0,-2.781848 2.218152,-5.0000001 5.000001,-5.0000001 l 2,0 67.999997,0 2,0 c 2.78185,0 5,2.2181521 5,5.0000001 l 0,2 0,68 0,2 c 0,0.364295 -0.0521,0.720988 -0.125,1.0625 -0.0442,0.206893 -0.0884,0.397658 -0.15625,0.59375 -0.008,0.02195 -0.0233,0.04069 -0.0312,0.0625 -0.0627,0.173739 -0.13838,0.367449 -0.21875,0.53125 -0.0416,0.0828 -0.079,0.169954 -0.125,0.25 -0.0546,0.09721 -0.12677,0.18835 -0.1875,0.28125 -0.0941,0.140965 -0.20492,0.275995 -0.3125,0.40625 -0.14317,0.17445 -0.30314,0.346998 -0.46875,0.5 -0.0112,0.0102 -0.02,0.02115 -0.0312,0.03125 -0.13838,0.125556 -0.28509,0.234436 -0.4375,0.34375 -0.10257,0.07315 -0.20431,0.153364 -0.3125,0.21875 -0.007,0.0045 -0.0238,-0.0044 -0.0312,0 -0.23204,0.138728 -0.46255,0.274778 -0.71875,0.375 0.30153,-0.0968 0.59646,-0.204138 0.875,-0.34375 0.55709,-0.279224 1.06006,-0.665694 1.5,-1.09375 0.21998,-0.214028 0.40937,-0.441865 0.59375,-0.6875 0.18439,-0.245635 0.35541,-0.507743 0.5,-0.78125 0.14012,-0.265048 0.27614,-0.524729 0.375,-0.8125 0.0104,-0.03078 0.0213,-0.06274 0.0312,-0.09375 0.0905,-0.278085 0.1388,-0.579404 0.1875,-0.875 0.0524,-0.31805 0.0937,-0.634029 0.0937,-0.96875 l 0,-2 0,-68 0,-2 c 0,-3.3240001 -2.676,-6.0000001 -6,-6.0000001 l -71.999997,0 z" />
  <path
     style="opacity:0.20000000000000001;fill:url(#radialGradient5553);fill-opacity:1;fill-rule:nonzero;stroke:none"
     id="path3615"
     inkscape:connector-curvature="0"
     d="M 12,90 C 8.676,90 6,87.324 6,84 L 6,82 6,14 6,12 c 0,-0.334721 0.04135,-0.6507 0.09375,-0.96875 0.0487,-0.295596 0.09704,-0.596915 0.1875,-0.875 C 6.29113,10.12587 6.302142,10.09265 6.3125,10.0625 6.411365,9.774729 6.5473802,9.515048 6.6875,9.25 6.8320918,8.976493 7.0031161,8.714385 7.1875,8.46875 7.3718839,8.223115 7.5612765,7.995278 7.78125,7.78125 8.221197,7.353194 8.72416,6.966724 9.28125,6.6875 9.559795,6.547888 9.8547231,6.440553 10.15625,6.34375 9.9000482,6.443972 9.6695391,6.580022 9.4375,6.71875 c -0.00741,0.0044 -0.023866,-0.0045 -0.03125,0 -0.031933,0.0193 -0.062293,0.04251 -0.09375,0.0625 -0.120395,0.0767 -0.2310226,0.163513 -0.34375,0.25 -0.1061728,0.0808 -0.2132809,0.161112 -0.3125,0.25 C 8.4783201,7.442683 8.3087904,7.626638 8.15625,7.8125 8.0486711,7.942755 7.9378561,8.077785 7.84375,8.21875 7.818661,8.25713 7.805304,8.30462 7.78125,8.34375 7.716487,8.446782 7.6510225,8.548267 7.59375,8.65625 7.4927417,8.850956 7.3880752,9.071951 7.3125,9.28125 7.30454,9.30306 7.288911,9.3218 7.28125,9.34375 7.2494249,9.4357 7.2454455,9.530581 7.21875,9.625 7.1884177,9.731618 7.1483606,9.828031 7.125,9.9375 7.0521214,10.279012 7,10.635705 7,11 l 0,2 0,68 0,2 c 0,2.781848 2.2181517,5 5,5 l 2,0 68,0 2,0 c 2.781848,0 5,-2.218152 5,-5 l 0,-2 0,-68 0,-2 C 89,10.635705 88.94788,10.279012 88.875,9.9375 88.83085,9.730607 88.78662,9.539842 88.71875,9.34375 88.71105,9.3218 88.69545,9.30306 88.6875,9.28125 88.62476,9.107511 88.549117,8.913801 88.46875,8.75 88.42717,8.6672 88.38971,8.580046 88.34375,8.5 88.28915,8.40279 88.216976,8.31165 88.15625,8.21875 88.06214,8.077785 87.951329,7.942755 87.84375,7.8125 87.700576,7.63805 87.540609,7.465502 87.375,7.3125 87.36383,7.3023 87.35502,7.29135 87.34375,7.28125 87.205364,7.155694 87.058659,7.046814 86.90625,6.9375 86.803679,6.86435 86.701932,6.784136 86.59375,6.71875 c -0.0074,-0.0045 -0.02384,0.0044 -0.03125,0 -0.232039,-0.138728 -0.462548,-0.274778 -0.71875,-0.375 0.301527,0.0968 0.596455,0.204138 0.875,0.34375 0.55709,0.279224 1.060053,0.665694 1.5,1.09375 0.219973,0.214028 0.409366,0.441865 0.59375,0.6875 0.184384,0.245635 0.355408,0.507743 0.5,0.78125 0.14012,0.265048 0.276135,0.524729 0.375,0.8125 0.01041,0.03078 0.02133,0.06274 0.03125,0.09375 0.09046,0.278085 0.1388,0.579404 0.1875,0.875 C 89.95865,11.3493 90,11.665279 90,12 l 0,2 0,68 0,2 c 0,3.324 -2.676,6 -6,6 l -72,0 z" />
  <g
     id="layer5"
     style="display:inline">
    <rect
       width="66"
       height="66"
       rx="12"
       ry="12"
       x="15"
       y="15"
       clip-path="url(#clipPath3613)"
       id="rect3171"
       style="opacity:0.1;fill:url(#linearGradient5569);fill-opacity:1;fill-rule:nonzero;stroke:#ffffff;stroke-width:0.5;stroke-linecap:round;stroke-linejoin:miter;stroke-miterlimit:4;stroke-opacity:1;stroke-dasharray:none;stroke-dashoffset:0;filter:url(#filter3794)" />
  </g>
  <g
     id="layer5-7">
    <rect
       width="66"
       height="66"
       rx="12"
       ry="12"
       x="15"
       y="15"
       clip-path="url(#clipPath3613-1)"
       id="rect3171-9"
       style="opacity:0.1;fill:url(#linearGradient5567);fill-opacity:1;fill-rule:nonzero;stroke:#ffffff;stroke-width:0.5;stroke-linecap:round;stroke-linejoin:miter;stroke-miterlimit:4;stroke-opacity:1;stroke-dasharray:none;stroke-dashoffset:0;filter:url(#filter3794-5)" />
  </g>
  <g
     id="g5615"
     transform="matrix(1.3250247,0,0,1.3250247,-14.716746,-15.841995)">
    <path
       inkscape:export-ydpi="90"
       inkscape:export-xdpi="90"
       inkscape:export-filename="/home/kefah/ojubatlinux.png"
       transform="matrix(0.94289783,0,0,0.96124881,-330.3655,-374.71649)"
       sodipodi:open="true"
       sodipodi:end="6.4883219"
       sodipodi:start="0.26473292"
       d="m 411.29576,424.85129 c -1.63287,6.02323 -7.83937,9.58232 -13.8626,7.94945 -6.02323,-1.63288 -9.58232,-7.83937 -7.94944,-13.8626 1.63287,-6.02323 7.83937,-9.58232 13.8626,-7.94945 5.77094,1.56448 9.32416,7.3539 8.10618,13.20778"
       sodipodi:ry="11.299676"
       sodipodi:rx="11.299676"
       sodipodi:cy="421.89471"
       sodipodi:cx="400.38974"
       id="path1616"
       style="fill:none;stroke:#87ff76;stroke-width:1.30269027;stroke-linecap:round;stroke-linejoin:round;stroke-miterlimit:4;stroke-opacity:1;stroke-dasharray:none"
       sodipodi:type="arc" />
    <path
       inkscape:export-ydpi="90"
       inkscape:export-xdpi="90"
       inkscape:export-filename="/home/kefah/ojubatlinux.png"
       transform="matrix(1.0386972,0,0,1.2549807,-324.28947,-481.5875)"
       sodipodi:open="true"
       sodipodi:end="6.4883219"
       sodipodi:start="0.26473292"
       d="m 373.80825,434.54901 c -2.40013,7.47461 -11.52293,11.89131 -20.37635,9.86497 -8.85343,-2.02633 -14.08486,-9.72837 -11.68473,-17.20298 2.40013,-7.47461 11.52293,-11.89131 20.37635,-9.86498 8.48259,1.94147 13.70539,9.12592 11.91511,16.39038"
       sodipodi:ry="14.02249"
       sodipodi:rx="16.609163"
       sodipodi:cy="430.88"
       sodipodi:cx="357.77771"
       id="path1618"
       style="fill:none;stroke:#a3e5a2;stroke-width:1.08624649;stroke-linecap:round;stroke-linejoin:round;stroke-miterlimit:4;stroke-opacity:1;stroke-dasharray:none"
       sodipodi:type="arc" />
    <path
       inkscape:export-ydpi="90"
       inkscape:export-xdpi="90"
       inkscape:export-filename="/home/kefah/ojubatlinux.png"
       transform="matrix(0.71189433,0,0,0.63695473,-300.46011,-183.01069)"
       d="m 492.03616,384.40247 c 0.66486,-2.34498 3.489,-0.26072 3.89751,1.10503 1.10703,3.7011 -2.81536,6.58493 -6.10757,6.68997 -5.88901,0.1879 -9.84977,-5.64964 -9.48245,-11.1101 0.53906,-8.01345 8.51088,-13.17952 16.11265,-12.27492 10.13196,1.20569 16.535,11.38016 15.06738,21.11518 -1.84686,12.25054 -14.25291,19.90343 -26.11772,17.85986 -14.36987,-2.47505 -23.27927,-17.12754 -20.65232,-31.12026 2.49498,-13.28976 14.28452,-23.04547 27.62,-23.98691"
       sodipodi:t0="0"
       sodipodi:argument="-7.5777087"
       sodipodi:radius="31.723936"
       sodipodi:revolution="1.9577229"
       sodipodi:expansion="1"
       sodipodi:cy="384.40247"
       sodipodi:cx="492.03616"
       id="path1620"
       style="fill:none;stroke:#000000;stroke-width:1px;stroke-linecap:butt;stroke-linejoin:miter;stroke-opacity:1"
       sodipodi:type="spiral" />
    <path
       inkscape:export-ydpi="90"
       inkscape:export-xdpi="90"
       inkscape:export-filename="/home/kefah/ojubatlinux.png"
       transform="matrix(-1.6967652,0,0,1.6941423,934.33303,-612.62324)"
       d="m 522.034,378.78534 c -0.13819,0.54289 -0.79999,0.0816 -0.90233,-0.22967 -0.27733,-0.84346 0.60593,-1.53039 1.36167,-1.57497 1.35184,-0.0798 2.2981,1.23683 2.24762,2.49366 -0.0741,1.84445 -1.87352,3.08088 -3.62566,2.92027 -2.33532,-0.21408 -3.86963,-2.5119 -3.59291,-4.75766 0.34822,-2.82605 3.15099,-4.66138 5.88965,-4.26556 3.31687,0.47938 5.45484,3.79048 4.93821,7.02164 -0.54503,3.4088 -3.71511,5.8101 -7.11373,5.7143"
       sodipodi:t0="0"
       sodipodi:argument="-10.746331"
       sodipodi:radius="7.3653135"
       sodipodi:revolution="1.977598"
       sodipodi:expansion="1"
       sodipodi:cy="378.78534"
       sodipodi:cx="522.034"
       id="path1622"
       style="fill:none;stroke:#000000;stroke-width:1.00017166;stroke-linecap:butt;stroke-linejoin:miter;stroke-miterlimit:4;stroke-opacity:1;stroke-dasharray:none"
       sodipodi:type="spiral" />
    <path
       inkscape:export-ydpi="90"
       inkscape:export-xdpi="90"
       inkscape:export-filename="/home/kefah/ojubatlinux.png"
       id="path1624"
       d="m 47.556921,41.70107 12.62463,-2.244915"
       style="fill:none;stroke:#000000;stroke-width:1.24021637px;stroke-linecap:butt;stroke-linejoin:miter;stroke-opacity:1"
       inkscape:connector-curvature="0" />
  </g>
  <path
     style="opacity:0.4;fill:url(#linearGradient5533);fill-opacity:1;fill-rule:nonzero;stroke:none"
     id="rect3690"
     inkscape:connector-curvature="0"
     d="m 12,6.3341617 c -3.3240001,0 -6.0000001,2.676 -6.0000001,6.0000023 l 0,46.875 C 23.60856,47.687132 50.22874,40.334163 80,40.334163 c 3.37799,0 6.71203,0.09685 10,0.28125 L 90,12.334164 C 90,9.0101617 87.324,6.3341617 84,6.3341617 l -72,0 z" />
</svg>
