<?xml version="1.0" encoding="UTF-8" standalone="no"?>
<!-- Created with Inkscape (http://www.inkscape.org/) -->

<svg
   xmlns:dc="http://purl.org/dc/elements/1.1/"
   xmlns:cc="http://creativecommons.org/ns#"
   xmlns:rdf="http://www.w3.org/1999/02/22-rdf-syntax-ns#"
   xmlns:svg="http://www.w3.org/2000/svg"
   xmlns="http://www.w3.org/2000/svg"
   xmlns:xlink="http://www.w3.org/1999/xlink"
   xmlns:sodipodi="http://sodipodi.sourceforge.net/DTD/sodipodi-0.dtd"
   xmlns:inkscape="http://www.inkscape.org/namespaces/inkscape"
   version="1.0"
   width="96"
   height="96"
   id="svg2408"
   inkscape:version="0.48.2 r9819"
   sodipodi:docname="zekr.svg"
   inkscape:export-filename="F:\Faiz\apps\scalable\zekr.png"
   inkscape:export-xdpi="127"
   inkscape:export-ydpi="127">
  <sodipodi:namedview
     pagecolor="#ffffff"
     bordercolor="#666666"
     borderopacity="1"
     objecttolerance="10"
     gridtolerance="10"
     guidetolerance="10"
     inkscape:pageopacity="0"
     inkscape:pageshadow="2"
     inkscape:window-width="1024"
     inkscape:window-height="714"
     id="namedview65"
     showgrid="false"
     inkscape:zoom="1.4142136"
     inkscape:cx="12.288188"
     inkscape:cy="48"
     inkscape:window-x="-4"
     inkscape:window-y="-4"
     inkscape:window-maximized="1"
     inkscape:current-layer="svg2408" />
  <defs
     id="defs2410">
    <linearGradient
       id="linearGradient3166">
      <stop
         style="stop-color:#7c916f;stop-opacity:1"
         offset="0"
         id="stop3168" />
      <stop
         id="stop3170"
         offset="0.65384084"
         style="stop-color:#9dac93;stop-opacity:1" />
      <stop
         style="stop-color:#bec8b7;stop-opacity:1"
         offset="1"
         id="stop3172" />
    </linearGradient>
    <linearGradient
       id="linearGradient3131">
      <stop
         id="stop3133"
         offset="0"
         style="stop-color:#e3e2db;stop-opacity:1" />
      <stop
         style="stop-color:#484537;stop-opacity:1"
         offset="0.5"
         id="stop3135" />
      <stop
         id="stop3137"
         offset="1"
         style="stop-color:#e3e2db;stop-opacity:1" />
    </linearGradient>
    <linearGradient
       id="linearGradient3121">
      <stop
         id="stop3123"
         offset="0"
         style="stop-color:#e5ff80;stop-opacity:1" />
      <stop
         style="stop-color:#aad400;stop-opacity:1"
         offset="0.7186951"
         id="stop3125" />
      <stop
         id="stop3127"
         offset="1"
         style="stop-color:#eeffaa;stop-opacity:1" />
    </linearGradient>
    <linearGradient
       id="linearGradient3115"
       inkscape:collect="always">
      <stop
         id="stop3117"
         offset="0"
         style="stop-color:#447821;stop-opacity:1" />
      <stop
         id="stop3119"
         offset="1"
         style="stop-color:#aade87;stop-opacity:1" />
    </linearGradient>
    <linearGradient
       id="linearGradient4088">
      <stop
         id="stop4090"
         style="stop-color:#d5b742;stop-opacity:1"
         offset="0" />
      <stop
         id="stop4094"
         style="stop-color:#f5e6aa;stop-opacity:1"
         offset="0.34920636" />
      <stop
         id="stop4096"
         style="stop-color:#e0bf55;stop-opacity:1"
         offset="0.5714286" />
      <stop
         id="stop4092"
         style="stop-color:#8a6e24;stop-opacity:1"
         offset="1" />
    </linearGradient>
    <linearGradient
       x1="45.447727"
       y1="92.539597"
       x2="45.447727"
       y2="7.0165396"
       id="ButtonShadow"
       gradientUnits="userSpaceOnUse"
       gradientTransform="scale(1.0058652,0.994169)">
      <stop
         id="stop3750"
         style="stop-color:#000000;stop-opacity:1"
         offset="0" />
      <stop
         id="stop3752"
         style="stop-color:#000000;stop-opacity:0.58823532"
         offset="1" />
    </linearGradient>
    <linearGradient
       id="linearGradient3737">
      <stop
         id="stop3739"
         style="stop-color:#ffffff;stop-opacity:1"
         offset="0" />
      <stop
         id="stop3741"
         style="stop-color:#ffffff;stop-opacity:0"
         offset="1" />
    </linearGradient>
    <linearGradient
       id="linearGradient3700">
      <stop
         id="stop3702"
         style="stop-color:#4c6d37;stop-opacity:1"
         offset="0" />
      <stop
         id="stop3704"
         style="stop-color:#75ac54;stop-opacity:1"
         offset="1" />
    </linearGradient>
    <filter
       color-interpolation-filters="sRGB"
       id="filter3174">
      <feGaussianBlur
         id="feGaussianBlur3176"
         stdDeviation="1.71" />
    </filter>
    <linearGradient
       x1="36.357143"
       y1="6"
       x2="36.357143"
       y2="63.893143"
       id="linearGradient3188"
       xlink:href="#linearGradient3737"
       gradientUnits="userSpaceOnUse" />
    <filter
       x="-0.192"
       y="-0.192"
       width="1.3839999"
       height="1.3839999"
       color-interpolation-filters="sRGB"
       id="filter3794">
      <feGaussianBlur
         id="feGaussianBlur3796"
         stdDeviation="5.28" />
    </filter>
    <linearGradient
       x1="48"
       y1="20.220806"
       x2="48"
       y2="138.66119"
       id="linearGradient3613"
       xlink:href="#linearGradient3737"
       gradientUnits="userSpaceOnUse" />
    <radialGradient
       cx="48"
       cy="90.171875"
       r="42"
       fx="48"
       fy="90.171875"
       id="radialGradient3619"
       xlink:href="#linearGradient3737"
       gradientUnits="userSpaceOnUse"
       gradientTransform="matrix(1.1573129,0,0,0.99590774,-7.5510206,0.19713193)" />
    <clipPath
       id="clipPath3613">
      <rect
         width="84"
         height="84"
         rx="6"
         ry="6"
         x="6"
         y="6"
         id="rect3615"
         style="fill:#ffffff;fill-opacity:1;fill-rule:nonzero;stroke:none" />
    </clipPath>
    <linearGradient
       x1="48"
       y1="90"
       x2="48"
       y2="5.9877172"
       id="linearGradient3617"
       xlink:href="#linearGradient3700"
       gradientUnits="userSpaceOnUse" />
    <linearGradient
       x1="45.447727"
       y1="92.539597"
       x2="45.447727"
       y2="7.0165396"
       id="ButtonShadow-0"
       gradientUnits="userSpaceOnUse"
       gradientTransform="matrix(1.0058652,0,0,0.994169,100,0)">
      <stop
         id="stop3750-8"
         style="stop-color:#000000;stop-opacity:1"
         offset="0" />
      <stop
         id="stop3752-5"
         style="stop-color:#000000;stop-opacity:0.58823532"
         offset="1" />
    </linearGradient>
    <linearGradient
       x1="32.251034"
       y1="6.1317081"
       x2="32.251034"
       y2="90.238609"
       id="linearGradient3780"
       xlink:href="#ButtonShadow-0"
       gradientUnits="userSpaceOnUse"
       gradientTransform="matrix(1.0238095,0,0,1.0119048,-1.1428571,-98.071429)" />
    <linearGradient
       x1="32.251034"
       y1="6.1317081"
       x2="32.251034"
       y2="90.238609"
       id="linearGradient3772"
       xlink:href="#ButtonShadow-0"
       gradientUnits="userSpaceOnUse"
       gradientTransform="matrix(1.0238095,0,0,1.0119048,-1.1428571,-98.071429)" />
    <linearGradient
       x1="32.251034"
       y1="6.1317081"
       x2="32.251034"
       y2="90.238609"
       id="linearGradient3725"
       xlink:href="#ButtonShadow-0"
       gradientUnits="userSpaceOnUse"
       gradientTransform="matrix(1.0238095,0,0,1.0119048,-1.1428571,-98.071429)" />
    <linearGradient
       x1="32.251034"
       y1="6.1317081"
       x2="32.251034"
       y2="90.238609"
       id="linearGradient3721"
       xlink:href="#ButtonShadow-0"
       gradientUnits="userSpaceOnUse"
       gradientTransform="translate(0,-97)" />
    <linearGradient
       x1="32.251034"
       y1="6.1317081"
       x2="32.251034"
       y2="90.238609"
       id="linearGradient3026"
       xlink:href="#ButtonShadow-0"
       gradientUnits="userSpaceOnUse"
       gradientTransform="matrix(1.0238095,0,0,1.0119048,-1.1428571,-98.071429)" />
    <linearGradient
       id="linearGradient3737-4">
      <stop
         id="stop3739-4"
         style="stop-color:#fffec0;stop-opacity:1"
         offset="0" />
      <stop
         id="stop3741-3"
         style="stop-color:#ffffff;stop-opacity:0"
         offset="1" />
    </linearGradient>
    <linearGradient
       x1="48"
       y1="6"
       x2="48"
       y2="109.10714"
       id="linearGradient3146"
       xlink:href="#linearGradient3737-4"
       gradientUnits="userSpaceOnUse" />
    <linearGradient
       x1="37.875"
       y1="-62"
       x2="37.875"
       y2="8.8750048"
       id="linearGradient4053"
       xlink:href="#linearGradient4088"
       gradientUnits="userSpaceOnUse"
       gradientTransform="matrix(0.88888883,0,0,0.88888883,5.3333362,71.111107)" />
    <linearGradient
       id="linearGradient3935">
      <stop
         style="stop-color:#ffff00;stop-opacity:1;"
         offset="0"
         id="stop3937" />
      <stop
         id="stop3939"
         offset="0.5"
         style="stop-color:#9d800e;stop-opacity:1" />
      <stop
         style="stop-color:#ede803;stop-opacity:1"
         offset="1"
         id="stop3941" />
    </linearGradient>
    <linearGradient
       id="linearGradient3639">
      <stop
         id="stop3641"
         offset="0"
         style="stop-color:#038401;stop-opacity:1" />
      <stop
         style="stop-color:#00aa00;stop-opacity:1"
         offset="0.65384084"
         id="stop3649" />
      <stop
         id="stop3643"
         offset="1"
         style="stop-color:#55d400;stop-opacity:1" />
    </linearGradient>
    <linearGradient
       id="linearGradient3927">
      <stop
         style="stop-color:#f8f800;stop-opacity:1"
         offset="0"
         id="stop3929" />
      <stop
         id="stop3943"
         offset="0.7186951"
         style="stop-color:#b4b400;stop-opacity:1" />
      <stop
         style="stop-color:#bcbc00;stop-opacity:1"
         offset="1"
         id="stop3931" />
    </linearGradient>
    <linearGradient
       inkscape:collect="always"
       xlink:href="#linearGradient3115"
       id="linearGradient3105"
       gradientUnits="userSpaceOnUse"
       gradientTransform="matrix(0.98792951,0,0,0.98792951,-92.018096,-20.376201)"
       x1="138.27881"
       y1="127.01383"
       x2="139.53505"
       y2="70.575806" />
    <radialGradient
       inkscape:collect="always"
       xlink:href="#linearGradient3121"
       id="radialGradient3108"
       gradientUnits="userSpaceOnUse"
       gradientTransform="matrix(2.1263489,0.00321089,-0.00273901,1.8138563,-417.59702,-75.642601)"
       cx="219.05193"
       cy="67.102104"
       fx="219.05193"
       fy="67.102104"
       r="28.630066" />
    <linearGradient
       inkscape:collect="always"
       xlink:href="#linearGradient3131"
       id="linearGradient3129"
       gradientUnits="userSpaceOnUse"
       x1="70.772949"
       y1="56.21796"
       x2="-23.770445"
       y2="-48.439365" />
    <radialGradient
       inkscape:collect="always"
       xlink:href="#linearGradient3639-7"
       id="radialGradient21457"
       gradientUnits="userSpaceOnUse"
       cx="21.480547"
       cy="11.077473"
       fx="21.480547"
       fy="11.077473"
       r="60.047894" />
    <linearGradient
       id="linearGradient3639-7">
      <stop
         id="stop3641-4"
         offset="0"
         style="stop-color:#038401;stop-opacity:1" />
      <stop
         style="stop-color:#00aa00;stop-opacity:1"
         offset="0.65384084"
         id="stop3649-0" />
      <stop
         id="stop3643-9"
         offset="1"
         style="stop-color:#55d400;stop-opacity:1" />
    </linearGradient>
    <radialGradient
       r="60.047894"
       fy="11.077473"
       fx="21.480547"
       cy="11.077473"
       cx="21.480547"
       gradientUnits="userSpaceOnUse"
       id="radialGradient3364"
       xlink:href="#linearGradient3166"
       inkscape:collect="always" />
    <linearGradient
       x1="48"
       y1="20.220806"
       x2="48"
       y2="138.66119"
       id="linearGradient3613-8"
       xlink:href="#linearGradient3737-8"
       gradientUnits="userSpaceOnUse" />
    <linearGradient
       id="linearGradient3737-8">
      <stop
         id="stop3739-2"
         style="stop-color:#ffffff;stop-opacity:1"
         offset="0" />
      <stop
         id="stop3741-4"
         style="stop-color:#ffffff;stop-opacity:0"
         offset="1" />
    </linearGradient>
    <clipPath
       id="clipPath3613-5">
      <rect
         width="84"
         height="84"
         rx="6"
         ry="6"
         x="6"
         y="6"
         id="rect3615-5"
         style="fill:#ffffff;fill-opacity:1;fill-rule:nonzero;stroke:none" />
    </clipPath>
    <filter
       x="-0.192"
       y="-0.192"
       width="1.3839999"
       height="1.3839999"
       color-interpolation-filters="sRGB"
       id="filter3794-1">
      <feGaussianBlur
         id="feGaussianBlur3796-7"
         stdDeviation="5.28" />
    </filter>
    <linearGradient
       y2="138.66119"
       x2="48"
       y1="20.220806"
       x1="48"
       gradientUnits="userSpaceOnUse"
       id="linearGradient3057"
       xlink:href="#linearGradient3737-8"
       inkscape:collect="always" />
    <linearGradient
       inkscape:collect="always"
       xlink:href="#linearGradient3697"
       id="linearGradient5417"
       gradientUnits="userSpaceOnUse"
       x1="96"
       y1="16"
       x2="16"
       y2="64"
       gradientTransform="translate(-1.4e-7,0.04066465)" />
    <linearGradient
       id="linearGradient3697">
      <stop
         offset="0"
         style="stop-color:#ffffff;stop-opacity:1"
         id="stop3699" />
      <stop
         offset="1"
         style="stop-color:#ffffff;stop-opacity:0"
         id="stop3701" />
    </linearGradient>
    <linearGradient
       y2="64"
       x2="16"
       y1="16"
       x1="96"
       gradientTransform="translate(-3.719834e-8,-1.4375)"
       gradientUnits="userSpaceOnUse"
       id="linearGradient5472"
       xlink:href="#linearGradient3697"
       inkscape:collect="always" />
  </defs>
  <metadata
     id="metadata2413">
    <rdf:RDF>
      <cc:Work
         rdf:about="">
        <dc:format>image/svg+xml</dc:format>
        <dc:type
           rdf:resource="http://purl.org/dc/dcmitype/StillImage" />
        <dc:title />
      </cc:Work>
    </rdf:RDF>
  </metadata>
  <g
     id="layer2"
     style="display:none">
    <rect
       width="86"
       height="85"
       rx="6"
       ry="6"
       x="5"
       y="7"
       id="rect3745"
       style="opacity:0.9;fill:url(#ButtonShadow);fill-opacity:1;fill-rule:nonzero;stroke:none;filter:url(#filter3174)" />
  </g>
  <g
     id="g3095">
    <g
       transform="translate(0,-1.5)"
       id="layer3">
      <path
         inkscape:connector-curvature="0"
         style="opacity:0.07999998;fill:url(#linearGradient3026);fill-opacity:1;fill-rule:nonzero;stroke:none;display:inline"
         id="path3786"
         transform="scale(1,-1)"
         d="m 12,-95.03125 c -5.5110903,0 -10.03125,4.52016 -10.03125,10.03125 l 0,71 c 0,5.5110902 4.5201598,10.03125 10.03125,10.03125 l 72,0 c 5.51109,0 10.03125,-4.5201597 10.03125,-10.03125 l 0,-71 c 0,-5.51109 -4.52016,-10.03125 -10.03125,-10.03125 l -72,0 z" />
      <path
         inkscape:connector-curvature="0"
         style="opacity:0.1;fill:url(#linearGradient3780);fill-opacity:1;fill-rule:nonzero;stroke:none;display:inline"
         id="path3778"
         transform="scale(1,-1)"
         d="m 12,-94.03125 c -4.971633,0 -9.03125,4.059617 -9.03125,9.03125 l 0,71 c 0,4.9716329 4.0596171,9.03125 9.03125,9.03125 l 72,0 c 4.971633,0 9.03125,-4.059617 9.03125,-9.03125 l 0,-71 c 0,-4.971633 -4.059617,-9.03125 -9.03125,-9.03125 l -72,0 z" />
      <path
         inkscape:connector-curvature="0"
         style="opacity:0.2;fill:url(#linearGradient3772);fill-opacity:1;fill-rule:nonzero;stroke:none;display:inline"
         id="path3770"
         transform="scale(1,-1)"
         d="m 12,-93 c -4.4091333,0 -8,3.590867 -8,8 l 0,71 c 0,4.4091333 3.5908667,8 8,8 l 72,0 c 4.409133,0 8,-3.5908667 8,-8 l 0,-71 c 0,-4.409133 -3.590867,-8 -8,-8 l -72,0 z" />
      <rect
         style="opacity:0.3;fill:url(#linearGradient3725);fill-opacity:1;fill-rule:nonzero;stroke:none;display:inline"
         id="rect3723"
         transform="scale(1,-1)"
         y="-92"
         x="5"
         ry="7"
         rx="7"
         height="85"
         width="86" />
      <rect
         style="opacity:0.45;fill:url(#linearGradient3721);fill-opacity:1;fill-rule:nonzero;stroke:none;display:inline"
         id="rect3716"
         transform="scale(1,-1)"
         y="-91"
         x="6"
         ry="6"
         rx="6"
         height="84"
         width="84" />
    </g>
    <g
       transform="translate(0,-1.2905371)"
       id="layer1">
      <rect
         style="fill:url(#linearGradient3617);fill-opacity:1;fill-rule:nonzero;stroke:none"
         id="rect2419"
         y="6"
         x="6"
         ry="6"
         rx="6"
         height="84"
         width="84" />
      <path
         style="opacity:0.5;fill:url(#linearGradient3188);fill-opacity:1;fill-rule:nonzero;stroke:none"
         id="rect3728"
         inkscape:connector-curvature="0"
         d="M 12,6 C 8.676,6 6,8.676 6,12 l 0,2 0,68 0,2 c 0,0.334721 0.04135,0.6507 0.09375,0.96875 0.0487,0.295596 0.09704,0.596915 0.1875,0.875 0.00988,0.03038 0.020892,0.0636 0.03125,0.09375 0.098865,0.287771 0.2348802,0.547452 0.375,0.8125 0.1445918,0.273507 0.3156161,0.535615 0.5,0.78125 0.1843839,0.245635 0.3737765,0.473472 0.59375,0.6875 0.439947,0.428056 0.94291,0.814526 1.5,1.09375 0.278545,0.139612 0.5734731,0.246947 0.875,0.34375 -0.2562018,-0.100222 -0.4867109,-0.236272 -0.71875,-0.375 -0.00741,-0.0044 -0.023866,0.0045 -0.03125,0 -0.031933,-0.0193 -0.062293,-0.04251 -0.09375,-0.0625 -0.120395,-0.0767 -0.2310226,-0.163513 -0.34375,-0.25 -0.1061728,-0.0808 -0.2132809,-0.161112 -0.3125,-0.25 C 8.4783201,88.557317 8.3087904,88.373362 8.15625,88.1875 8.0486711,88.057245 7.9378561,87.922215 7.84375,87.78125 7.818661,87.74287 7.805304,87.69538 7.78125,87.65625 7.716487,87.553218 7.6510225,87.451733 7.59375,87.34375 7.4927417,87.149044 7.3880752,86.928049 7.3125,86.71875 7.30454,86.69694 7.288911,86.6782 7.28125,86.65625 7.2494249,86.5643 7.2454455,86.469419 7.21875,86.375 7.1884177,86.268382 7.1483606,86.171969 7.125,86.0625 7.0521214,85.720988 7,85.364295 7,85 L 7,83 7,15 7,13 C 7,10.218152 9.2181517,8 12,8 l 2,0 68,0 2,0 c 2.781848,0 5,2.218152 5,5 l 0,2 0,68 0,2 c 0,0.364295 -0.05212,0.720988 -0.125,1.0625 -0.04415,0.206893 -0.08838,0.397658 -0.15625,0.59375 -0.0077,0.02195 -0.0233,0.04069 -0.03125,0.0625 -0.06274,0.173739 -0.138383,0.367449 -0.21875,0.53125 -0.04158,0.0828 -0.07904,0.169954 -0.125,0.25 -0.0546,0.09721 -0.126774,0.18835 -0.1875,0.28125 -0.09411,0.140965 -0.204921,0.275995 -0.3125,0.40625 -0.143174,0.17445 -0.303141,0.346998 -0.46875,0.5 -0.01117,0.0102 -0.01998,0.02115 -0.03125,0.03125 -0.138386,0.125556 -0.285091,0.234436 -0.4375,0.34375 -0.102571,0.07315 -0.204318,0.153364 -0.3125,0.21875 -0.0074,0.0045 -0.02384,-0.0044 -0.03125,0 -0.232039,0.138728 -0.462548,0.274778 -0.71875,0.375 0.301527,-0.0968 0.596455,-0.204138 0.875,-0.34375 0.55709,-0.279224 1.060053,-0.665694 1.5,-1.09375 0.219973,-0.214028 0.409366,-0.441865 0.59375,-0.6875 0.184384,-0.245635 0.355408,-0.507743 0.5,-0.78125 0.14012,-0.265048 0.276135,-0.524729 0.375,-0.8125 0.01041,-0.03078 0.02133,-0.06274 0.03125,-0.09375 0.09046,-0.278085 0.1388,-0.579404 0.1875,-0.875 C 89.95865,84.6507 90,84.334721 90,84 l 0,-2 0,-68 0,-2 C 90,8.676 87.324,6 84,6 L 12,6 z" />
      <path
         style="opacity:0.2;fill:url(#radialGradient3619);fill-opacity:1;fill-rule:nonzero;stroke:none"
         id="path3615"
         inkscape:connector-curvature="0"
         d="M 12,90 C 8.676,90 6,87.324 6,84 L 6,82 6,14 6,12 c 0,-0.334721 0.04135,-0.6507 0.09375,-0.96875 0.0487,-0.295596 0.09704,-0.596915 0.1875,-0.875 C 6.29113,10.12587 6.302142,10.09265 6.3125,10.0625 6.411365,9.774729 6.5473802,9.515048 6.6875,9.25 6.8320918,8.976493 7.0031161,8.714385 7.1875,8.46875 7.3718839,8.223115 7.5612765,7.995278 7.78125,7.78125 8.221197,7.353194 8.72416,6.966724 9.28125,6.6875 9.559795,6.547888 9.8547231,6.440553 10.15625,6.34375 9.9000482,6.443972 9.6695391,6.580022 9.4375,6.71875 c -0.00741,0.0044 -0.023866,-0.0045 -0.03125,0 -0.031933,0.0193 -0.062293,0.04251 -0.09375,0.0625 -0.120395,0.0767 -0.2310226,0.163513 -0.34375,0.25 -0.1061728,0.0808 -0.2132809,0.161112 -0.3125,0.25 C 8.4783201,7.442683 8.3087904,7.626638 8.15625,7.8125 8.0486711,7.942755 7.9378561,8.077785 7.84375,8.21875 7.818661,8.25713 7.805304,8.30462 7.78125,8.34375 7.716487,8.446782 7.6510225,8.548267 7.59375,8.65625 7.4927417,8.850956 7.3880752,9.071951 7.3125,9.28125 7.30454,9.30306 7.288911,9.3218 7.28125,9.34375 7.2494249,9.4357 7.2454455,9.530581 7.21875,9.625 7.1884177,9.731618 7.1483606,9.828031 7.125,9.9375 7.0521214,10.279012 7,10.635705 7,11 l 0,2 0,68 0,2 c 0,2.781848 2.2181517,5 5,5 l 2,0 68,0 2,0 c 2.781848,0 5,-2.218152 5,-5 l 0,-2 0,-68 0,-2 C 89,10.635705 88.94788,10.279012 88.875,9.9375 88.83085,9.730607 88.78662,9.539842 88.71875,9.34375 88.71105,9.3218 88.69545,9.30306 88.6875,9.28125 88.62476,9.107511 88.549117,8.913801 88.46875,8.75 88.42717,8.6672 88.38971,8.580046 88.34375,8.5 88.28915,8.40279 88.216976,8.31165 88.15625,8.21875 88.06214,8.077785 87.951329,7.942755 87.84375,7.8125 87.700576,7.63805 87.540609,7.465502 87.375,7.3125 87.36383,7.3023 87.35502,7.29135 87.34375,7.28125 87.205364,7.155694 87.058659,7.046814 86.90625,6.9375 86.803679,6.86435 86.701932,6.784136 86.59375,6.71875 c -0.0074,-0.0045 -0.02384,0.0044 -0.03125,0 -0.232039,-0.138728 -0.462548,-0.274778 -0.71875,-0.375 0.301527,0.0968 0.596455,0.204138 0.875,0.34375 0.55709,0.279224 1.060053,0.665694 1.5,1.09375 0.219973,0.214028 0.409366,0.441865 0.59375,0.6875 0.184384,0.245635 0.355408,0.507743 0.5,0.78125 0.14012,0.265048 0.276135,0.524729 0.375,0.8125 0.01041,0.03078 0.02133,0.06274 0.03125,0.09375 0.09046,0.278085 0.1388,0.579404 0.1875,0.875 C 89.95865,11.3493 90,11.665279 90,12 l 0,2 0,68 0,2 c 0,3.324 -2.676,6 -6,6 l -72,0 z" />
      <path
         style="opacity:0.3;fill:url(#linearGradient3146);fill-opacity:1;stroke:none"
         id="path4141"
         inkscape:connector-curvature="0"
         d="M 20.875,6 46.65625,46.65625 6,20.5 6,39 46.21875,48 6,56.75 6,75.125 46.65625,49.34375 20.5,90 39,90 48,49.78125 56.75,90 75.125,90 49.34375,49.34375 90,75.5 90,57 49.78125,48 90,39.25 90,20.875 49.34375,46.65625 75.5,6 57,6 48,46.21875 39.25,6 20.875,6 z" />
    </g>
    <g
       id="layer5">
      <rect
         style="opacity:0.1;fill:url(#linearGradient3613);fill-opacity:1;fill-rule:nonzero;stroke:#ffffff;stroke-width:0.5;stroke-linecap:round;stroke-linejoin:miter;stroke-miterlimit:4;stroke-opacity:1;stroke-dasharray:none;stroke-dashoffset:0;filter:url(#filter3794)"
         id="rect3171"
         clip-path="url(#clipPath3613)"
         y="15"
         x="15"
         ry="12"
         rx="12"
         height="66"
         width="66" />
    </g>
    <path
       sodipodi:type="arc"
       style="fill:#050e03;fill-opacity:1;stroke:none"
       id="path2827"
       sodipodi:cx="21.480547"
       sodipodi:cy="11.077473"
       sodipodi:rx="60.047894"
       sodipodi:ry="60.047894"
       d="m 81.52844,11.077473 a 60.047894,60.047894 0 1 1 -120.095787,0 60.047894,60.047894 0 1 1 120.095787,0 z"
       transform="matrix(0.6428346,0,0,0.6428346,34.191561,39.653339)" />
    <path
       transform="matrix(0.61577679,0,0,0.61577679,34.772778,39.953071)"
       d="m 81.52844,11.077473 a 60.047894,60.047894 0 1 1 -120.095787,0 60.047894,60.047894 0 1 1 120.095787,0 z"
       sodipodi:ry="60.047894"
       sodipodi:rx="60.047894"
       sodipodi:cy="11.077473"
       sodipodi:cx="21.480547"
       id="path2861"
       style="fill:url(#linearGradient3129);fill-opacity:1;stroke:none"
       sodipodi:type="arc" />
    <path
       transform="matrix(0.57293526,0,0,0.57293526,35.693037,40.427647)"
       d="m 81.52844,11.077473 a 60.047894,60.047894 0 1 1 -120.095787,0 60.047894,60.047894 0 1 1 120.095787,0 z"
       sodipodi:ry="60.047894"
       sodipodi:rx="60.047894"
       sodipodi:cy="11.077473"
       sodipodi:cx="21.480547"
       id="path2829"
       style="fill:#000000;fill-opacity:1;stroke:none"
       sodipodi:type="arc" />
    <path
       inkscape:connector-curvature="0"
       id="path2865"
       d="m 81.455239,46.774323 c 0,18.476818 -14.97842,33.455238 -33.455239,33.455238 -18.476818,0 -33.455238,-14.97842 -33.455238,-33.455238 0,-18.476818 14.97842,-33.455239 33.455238,-33.455239 18.476819,0 33.455239,14.978421 33.455239,33.455239 z"
       style="fill:#b3b3b3;fill-opacity:1;stroke:none" />
    <path
       sodipodi:type="arc"
       style="fill:url(#radialGradient3364);fill-opacity:1;stroke:none"
       id="path2865-4"
       sodipodi:cx="21.480547"
       sodipodi:cy="11.077473"
       sodipodi:rx="60.047894"
       sodipodi:ry="60.047894"
       d="m 81.52844,11.077473 a 60.047894,60.047894 0 1 1 -120.095787,0 60.047894,60.047894 0 1 1 120.095787,0 z"
       transform="matrix(0.55714259,0,0,0.55714259,36.032272,40.60259)" />
    <path
       inkscape:connector-curvature="0"
       id="path3975"
       d="m 45.684559,16.508973 c -5.1375,2.046238 -11.878637,2.646496 -15.529017,7.039004 -0.399786,2.857036 -2.318888,-2.2856 -3.982591,0.648323 -2.19018,1.996677 -1.030529,5.162493 -1.790622,7.532966 -4.181006,-0.592873 -5.370167,5.368456 -4.445682,7.84169 -3.468582,0.923807 -1.997061,5.754265 0.710073,5.217503 -0.159303,2.437333 -0.666644,3.914453 -2.222841,5.649722 0.621872,2.124529 -2.190131,5.392422 1.32753,6.359796 1.528554,-0.103678 0.0651,4.165069 1.852368,5.433613 1.465287,1.422081 3.526216,2.305644 2.31546,4.661792 0.162287,3.484087 3.85748,0.534449 4.507428,3.21077 3.622748,4.323403 10.471085,2.670919 14.448469,1.512768 -0.630526,4.618891 5.996743,7.0429 8.551761,3.859099 1.879793,4.389895 5.361618,-1.134984 5.958455,-2.130223 0.921445,3.632593 5.222196,2.257523 5.310123,-1.018802 3.226121,0.363797 0.967708,-4.073783 3.79735,-3.30339 2.986472,-0.05815 4.741833,-4.233369 5.711465,-5.124883 5.465561,-2.035976 2.390925,-9.913412 4.353065,-13.398794 2.443147,-1.55965 1.253454,-4.309711 1.204038,-6.205433 1.473402,-2.829075 -2.568071,-3.398536 -2.747674,-4.41481 C 77.786376,37.46991 74.636909,33.018148 73.099601,30.525227 69.5799,30.708914 70.280823,22.610333 66.060608,25.678198 65.33175,24.04547 62.646538,17.757421 59.978662,21.911714 59.32737,19.897823 57.808811,17.22497 55.687342,18.114364 54.0956,15.240118 49.243289,17.399474 48.247001,17.898257 47.848025,16.848069 46.852034,16.112249 45.684559,16.508973 z m 2.253715,3.642997 c 0.358647,0.718618 -1.037988,0.34652 0,0 z M 31.575691,32.717195 c 0.03902,0.0964 -0.165172,-0.05957 0,0 z m 7.872563,2.624188 c -0.173174,3.716408 -0.402236,-1.014831 0,0 z m 8.613511,0.926184 c 0.201083,2.999502 -1.479751,-1.35861 0,0 z m 7.347724,1.667131 c 1.544148,1.396071 -2.913965,4.192444 -1.48189,1.790622 2.093371,-0.775481 0.606688,-6.127527 1.48189,-1.790622 z m -23.95729,2.747678 c 2.129671,1.146442 -1.271781,1.41184 0,0 z m -5.310121,3.612118 c 1.295848,1.346437 0.208097,2.726272 -0.957057,2.994661 0.186927,-0.962867 0.575934,-2.636317 0.957057,-2.994661 z m 5.155757,6.668524 c 3.129604,1.138411 -2.039076,2.948506 0,0 z m -5.618849,4.538301 c 1.515415,1.66775 -1.37749,3.861395 -0.308728,0.710075 -0.0019,0.07269 0.312127,-1.563824 0.308728,-0.710075 z m 16.084727,3.08728 c -0.329375,-0.0405 0.349688,-0.39907 0,0 z m -5.186629,3.426881 c 0.180248,0.612071 -0.234011,-0.138591 0,0 z m 18.245818,1.358403 c 0.549039,0.183119 -0.68708,0.201871 0,0 z m -12.040386,0.55571 c 1.125498,1.157479 -5.338811,2.894262 -5.464485,2.037605 0.641037,-2.104657 0.606362,-2.092253 2.531569,-0.957057 1.197667,0.44125 2.256491,-0.578514 2.932916,-1.080548 z m 6.699397,3.396008 c 1.025503,1.66075 -3.159764,5.094899 -1.728877,1.790622 0.173372,-0.462115 1.852932,-3.038963 1.728877,-1.790622 z"
       style="opacity:0.52314818;fill:#010100;fill-opacity:1" />
    <path
       id="path2830-1"
       d="m 45.847695,74.177863 c -0.983354,-0.845595 -1.044536,-1.047225 -1.044536,-3.442537 l 0,-2.54433 -1.687218,0.854416 c -0.927981,0.469937 -2.879884,1.159455 -4.337553,1.532261 -2.946234,0.753523 -5.478919,0.538919 -7.481383,-0.633904 -1.926098,-1.128109 -2.497377,-2.28449 -2.504017,-5.068549 -0.003,-1.378718 0.117337,-3.133484 0.268066,-3.89947 0.152417,-0.774567 0.142874,-1.19884 -0.02153,-0.955926 -0.677295,1.0009 -2.712579,2.17455 -3.771006,2.17455 -1.823432,0 -2.92282,-1.605618 -2.92282,-4.26871 0,-1.258848 0.291706,-2.947793 0.715064,-4.140215 l 0.715053,-2.014011 -0.802099,-1.085993 c -0.627108,-0.849089 -0.799512,-1.530576 -0.790235,-3.123815 0.0099,-1.713585 0.257187,-2.515024 1.553855,-5.037165 1.549064,-3.013085 2.442438,-4.211534 2.43413,-3.265379 -0.003,0.262811 -0.371274,1.119706 -0.819923,1.904191 -1.486745,2.599664 -2.442537,5.763283 -2.173879,7.195378 0.210586,1.122538 0.373516,1.301159 1.185841,1.300031 1.401437,-0.0028 2.688611,-0.927625 6.954046,-5.001068 l 3.862952,-3.689104 -2.58633,-1.888777 c -1.42248,-1.038821 -3.282149,-2.328978 -4.132578,-2.86701 -2.14439,-1.356633 -2.760859,-2.886499 -1.912987,-4.747386 0.416668,-0.914463 0.993432,-1.324176 3.892215,-2.764878 1.101116,-0.547265 2.002019,-1.057807 2.002019,-1.134547 0,-0.07677 -0.256674,-0.396215 -0.570401,-0.709946 -0.915238,-0.915226 -0.113345,-3.090863 1.355321,-3.677185 0.621536,-0.248147 2.117844,-0.895692 3.325153,-1.439027 2.379705,-1.070974 9.513697,-3.486925 9.711701,-3.288921 0.423194,0.423204 -0.526717,1.22632 -2.083374,1.761433 -5.241281,1.801716 -11.7384,4.525993 -11.7384,4.921976 0,0.103362 0.237389,0.646956 0.527515,1.208006 l 0.527504,1.020098 1.822691,-0.730812 c 5.814509,-2.331355 14.405932,-4.825724 16.621365,-4.825724 0.399765,0 1.118547,0.391676 1.59726,0.8704 0.73579,0.735789 0.83449,1.072336 0.638155,2.176104 -0.338348,1.902266 -1.229873,3.183229 -3.814153,5.480276 -1.264149,1.123646 -2.793306,2.732042 -3.398111,3.574208 -1.336262,1.860718 -1.645049,1.391703 -0.540212,-0.820537 0.729973,-1.461605 2.912153,-3.825479 5.686731,-6.160225 1.029401,-0.866209 1.033753,-0.884523 0.381263,-1.605507 -0.481355,-0.531902 -1.078889,-0.729302 -2.207543,-0.729302 -1.593057,0 -6.669898,1.222239 -10.356656,2.493337 -4.135444,1.425788 -12.360283,5.098916 -12.360283,5.519967 0,0.117689 0.509208,0.476532 1.131575,0.797436 1.186028,0.611538 4.016605,2.311475 7.486342,4.496021 l 2.056326,1.294646 1.610404,-0.611297 c 0.885738,-0.336215 1.693291,-0.694173 1.794564,-0.79544 0.10127,-0.101281 -0.147676,-2.076582 -0.553201,-4.389595 -0.703653,-4.013248 -0.683795,-6.019657 0.05947,-6.019657 0.187855,0 0.341537,0.146268 0.341537,0.325048 0,0.17876 0.494498,1.120506 1.098874,2.092742 1.088577,1.751162 1.151326,2.616469 0.128165,1.767315 -0.661577,-0.549071 -0.691314,-0.09391 -0.156686,2.398984 0.44933,2.095184 1.426161,3.427876 2.992137,4.082171 1.039692,0.43441 1.160171,0.628884 1.160171,1.872791 0,1.536799 -0.16323,1.624568 -1.614043,0.867914 -1.162534,-0.606303 -3.014467,-0.680546 -3.9874,-0.15985 -0.605531,0.32407 -0.264715,0.662681 3.06945,3.049434 2.062834,1.476677 4.338163,3.133036 5.056279,3.680803 l 1.305662,0.995925 0,-0.941636 c 0,-0.517892 -0.168524,-3.970397 -0.374474,-7.672235 -0.322779,-5.801419 -0.302653,-6.866817 0.145884,-7.717088 l 0.520368,-0.986461 0.752962,1.740887 c 1.756855,4.061902 2.075175,6.160718 0.654067,4.312538 l -0.6388,-0.830764 0.02324,1.914971 c 0.0127,1.053233 0.2051,4.093461 0.427474,6.756058 l 0.404312,4.841079 1.3545,0.702185 c 1.244177,0.645 1.471057,0.661907 2.785417,0.207498 l 1.430928,-0.494707 0.064,-2.089064 c 0.03512,-1.148974 -0.08058,-3.342501 -0.257434,-4.874473 -0.176777,-1.531983 -0.472355,-4.900603 -0.656842,-7.485818 -0.184508,-2.585215 -0.508777,-6.858834 -0.720605,-9.496941 -0.360097,-4.484299 -0.280658,-6.1803 0.288738,-6.164388 0.330279,0.0092 2.500827,5.005091 2.500827,5.756052 0,0.578517 -0.0384,0.577539 -0.696357,-0.0178 -0.851641,-0.770718 -0.840245,-1.092729 -0.19695,5.570839 1.409753,14.602693 1.495653,16.736275 0.770544,19.14191 -0.705092,2.339273 -3.225845,3.53025 -5.578627,2.635732 l -0.872223,-0.331633 0.06605,5.815419 c 0.0639,5.615123 -0.389506,9.123101 -1.179156,9.123101 -0.1564,0 -0.253554,-1.527633 -0.215882,-3.394733 0.03778,-1.867099 -0.064,-5.529775 -0.226009,-8.139275 l -0.294513,-4.744553 -2.316815,-1.76249 C 47.238366,48.75477 45.882352,47.677886 45.499287,47.33105 45.116201,46.984222 43.884755,46.016523 42.762734,45.180598 l -2.040044,-1.519854 0.882686,1.519854 c 1.154582,1.988011 1.457136,3.756733 0.926173,5.414164 -0.659709,2.059227 -1.589401,2.808418 -4.662286,3.757031 -3.279936,1.012523 -6.225695,2.6182 -7.01593,3.82424 -0.305705,0.466575 -0.717118,1.835754 -0.91423,3.042623 -0.460573,2.819932 0.07716,4.500055 1.914005,5.980264 1.133402,0.913354 1.675637,1.087783 3.744954,1.204708 3.486838,0.197026 8.111278,-1.487865 11.586956,-4.221621 1.588885,-1.249711 1.582843,-1.58522 -0.113322,-6.293602 -0.847422,-2.352361 -1.056219,-3.385649 -0.877097,-4.340475 l 0.235092,-1.253148 1.523515,1.729149 c 1.690728,1.918912 1.890309,2.421546 0.853914,2.150518 -0.859556,-0.224778 -0.859546,-0.155314 1.33e-4,2.106642 0.773093,2.034029 0.906392,4.600669 0.299356,5.764073 -0.218238,0.418276 -1.05543,1.471769 -1.860399,2.34109 -1.198703,1.294527 -1.507992,1.915362 -1.708955,3.430335 -0.187385,1.412514 -0.116086,2.047089 0.301619,2.684589 1.118373,1.70684 2.213953,0.974957 7.423589,-4.959149 1.838916,-2.094634 2.599169,-2.598116 6.467428,-4.283102 l 2.044323,-0.890494 0.07291,-2.437242 c 0.09728,-3.251518 1.090071,-5.048577 2.789052,-5.048577 0.618085,0 0.939282,0.328718 1.367842,1.399762 0.308039,0.769879 0.560067,1.690249 0.560067,2.045292 0,1.086748 -1.026718,3.628749 -1.796698,4.448364 -1.056301,1.124392 -0.620799,1.855557 1.105256,1.855557 1.042836,0 1.646196,-0.226752 2.27406,-0.85462 1.036958,-1.03694 1.051724,-1.5176 0.342844,-11.157502 -1.610163,-21.896375 -1.746545,-25.607314 -0.940296,-25.584381 0.266968,0.0074 2.496598,4.944469 2.496598,5.528006 0,0.592434 -0.620522,0.455137 -1.016622,-0.224945 -0.50248,-0.862688 -0.480782,0.486957 0.129818,8.075252 1.62501,20.194827 1.531706,23.151088 -0.801283,25.386234 -1.998767,1.914942 -4.449307,1.868973 -5.320761,-0.09982 -0.260067,-0.587525 -0.650064,-1.068231 -0.866653,-1.068231 -0.870686,0 -5.88004,2.534168 -7.138236,3.611145 -0.738749,0.632339 -2.111597,2.16477 -3.050777,3.405397 -2.711779,3.582174 -4.197376,4.194868 -6.133784,2.529714 z M 64.397706,60.956011 c 0.898927,-0.629639 1.027916,-2.116302 0.271944,-3.134361 -1.052768,-1.41772 -2.337198,0.635238 -1.781841,2.84799 0.244185,0.972897 0.468894,1.015515 1.509897,0.286371 z M 26.567688,59.493706 c 0.502855,-0.333868 1.761063,-1.482928 2.796008,-2.553495 2.630214,-2.720734 4.243345,-3.690893 8.554313,-5.144664 3.106959,-1.047737 3.770068,-1.395131 3.859327,-2.02178 0.159847,-1.122557 -1.089133,-3.311108 -3.122252,-5.471005 -2.150554,-2.284657 -1.5723,-2.521639 -7.157708,2.933438 -2.389287,2.333535 -4.559117,4.134393 -5.463517,4.534448 -1.210787,0.53559 -1.60826,0.950148 -2.060286,2.148933 -1.348041,3.574981 -1.046475,6.187612 0.713738,6.183429 0.531359,-9.32e-4 1.37752,-0.275444 1.880377,-0.609304 z m 1.232816,-3.79865 c -0.434797,-0.434792 -0.233783,-2.966797 0.329811,-4.154516 0.566874,-1.194591 1.465761,-1.708012 1.006503,-0.574891 -0.744583,1.837132 -0.921946,2.588493 -0.729448,3.09012 0.173056,0.450963 0.312522,0.475183 0.731937,0.127108 0.607745,-0.504376 0.638401,-0.358229 0.178579,0.851194 -0.324387,0.853196 -1.0215,1.156874 -1.517382,0.660985 z m 5.271692,-5.786451 c -0.91345,-0.751128 -0.922549,-0.795413 -0.354579,-1.728375 0.6557,-1.077061 1.177701,-1.202278 1.814314,-0.435211 0.602133,0.725512 1.262296,0.652079 1.864292,-0.207395 l 0.511076,-0.729648 1.07546,0.795126 c 1.252319,0.925873 1.299393,1.237917 0.357363,2.369165 l -0.694939,0.834518 -0.889848,-0.834518 -0.889848,-0.834548 -0.635545,0.783406 c -0.779526,0.960872 -0.975373,0.959736 -2.157746,-0.01257 z m 20.272373,24.907187 c 0.0072,-0.143613 0.241102,-0.56527 0.522262,-0.936978 0.66485,-0.879018 0.658819,-1.622098 -0.01106,-1.365033 -0.7546,0.289574 -0.641422,-0.354679 0.195351,-1.111947 0.614143,-0.555796 0.76398,-0.576122 1.039191,-0.141015 0.460005,0.727245 0.420869,0.952293 -0.428212,2.463036 -0.686772,1.221942 -1.346205,1.768478 -1.317524,1.091937 z m 5.755363,-2.352407 c -0.296059,-0.708558 -0.882401,-1.362388 -1.397373,-1.558176 -1.01654,-0.386492 -1.301335,-2.095474 -0.349213,-2.095474 0.561972,0 1.816932,1.155747 2.431187,2.238938 0.333403,0.587906 0.361726,0.580985 0.413098,-0.100973 0.07455,-0.990653 0.874762,-2.577866 1.382884,-2.743174 0.533045,-0.173414 1.636437,1.498642 1.323299,2.005301 -0.163691,0.264861 -0.444257,0.200102 -0.893193,-0.206175 -0.729861,-0.66052 -0.652736,-0.774072 -1.376628,2.026734 -0.235102,0.90961 -0.561664,1.653836 -0.725693,1.653836 -0.164049,0 -0.527802,-0.549377 -0.808368,-1.220833 z M 25.83984,66.807723 c 0.007,-0.143623 0.236244,-0.652834 0.509919,-1.131583 0.641028,-1.121356 0.641028,-1.392711 0,-1.392711 -0.629567,0 -0.673095,-0.406248 -0.104443,-0.97489 0.57291,-0.572918 1.207813,-0.524022 1.451802,0.111821 0.21769,0.56731 -1.125766,3.648499 -1.590823,3.648499 -0.153337,0 -0.273242,-0.117512 -0.266455,-0.261136 z m 8.346878,-1.119055 c -0.570134,-0.364106 -0.717415,-2.981813 -0.259765,-4.616691 l 0.265456,-0.948287 -1.237817,0.730327 c -1.297843,0.765735 -1.948829,0.666109 -1.238675,-0.189575 0.448845,-0.540827 4.655804,-3.149013 5.735987,-3.556137 1.069918,-0.403259 0.49851,0.622596 -0.85775,1.539928 -1.713119,1.158681 -2.221883,2.339394 -2.100763,4.875266 0.03063,0.642139 0.180703,0.761739 0.734892,0.585846 0.858579,-0.272499 0.894026,0.207341 0.08704,1.178049 -0.441071,0.530552 -0.752694,0.641349 -1.12861,0.401274 z m 5.104493,-3.162007 c -1.086247,-0.854436 -1.156973,-1.378188 -0.320019,-2.36965 l 0.609305,-0.721795 1.030302,0.841403 c 0.900458,0.735367 0.988207,0.960481 0.696352,1.786345 -0.439658,1.244094 -0.891656,1.348061 -2.01594,0.463697 z m 4.500132,-0.296143 c -0.699171,-0.772563 -0.699141,-1.578064 1.12e-4,-3.63025 0.640794,-1.880634 1.299694,-1.896201 0.78122,-0.01844 -0.400029,1.448759 -0.09226,3.372029 0.409576,2.559951 0.417736,-0.675927 0.706944,-0.300837 0.469129,0.608511 -0.264603,1.011892 -0.989201,1.221523 -1.660037,0.480249 z m 11.283039,-1.022884 c 0,-0.200678 0.151557,-0.458534 0.336781,-0.573011 0.185215,-0.114475 0.249674,-0.643584 0.143233,-1.175802 -0.145311,-0.726555 0.0426,-1.248211 0.753985,-2.093712 1.0738,-1.276128 2.421869,-1.398206 2.421869,-0.21931 0,0.536728 -0.232122,0.696355 -1.012628,0.696355 -0.556955,0 -1.074794,0.182561 -1.150752,0.40568 -0.197123,0.579001 1.144147,0.918347 2.57146,0.650588 1.022223,-0.191772 1.199236,-0.13468 1.101314,0.355212 -0.07198,0.360351 -0.84947,0.817983 -2.031667,1.195932 -1.053239,0.336721 -2.189163,0.727132 -2.524286,0.867589 -0.355131,0.148839 -0.609309,0.103157 -0.609309,-0.109521 z m 17.234775,-4.845046 c 0,-2.824691 -0.276726,-9.075088 -0.614941,-13.889777 -0.46191,-6.575546 -0.519232,-9.001591 -0.230341,-9.748976 0.379338,-0.981327 0.400749,-0.956763 1.560214,1.790445 0.646571,1.531974 1.181091,2.981263 1.187818,3.220638 0.01792,0.637017 -0.593735,0.530999 -1.004416,-0.174094 -0.502387,-0.86253 -0.467767,0.938599 0.148894,7.746945 0.665106,7.343163 0.65974,12.110092 -0.01608,14.38616 -0.294666,0.992246 -0.647206,1.804175 -0.783404,1.804278 -0.136197,1.02e-4 -0.247635,-2.310927 -0.247635,-5.135619 z m -33.590875,1.121486 c 0.242922,-0.292696 1.661322,-1.561419 3.152019,-2.8194 1.490696,-1.257965 2.795371,-2.508802 2.899303,-2.779635 0.103932,-0.270823 0.01423,-0.875842 -0.199263,-1.344475 -0.311418,-0.683462 -0.270511,-1.031705 0.206718,-1.760058 0.479768,-0.73221 0.691554,-0.82783 1.093931,-0.493896 0.274432,0.227758 0.498967,0.833625 0.498967,1.346375 0,0.512751 0.174361,1.106628 0.387478,1.319743 0.454845,0.454847 0.09554,1.206004 -0.510261,1.066879 -0.230126,-0.05282 -1.034398,0.585698 -1.787227,1.418989 -1.569807,1.737579 -5.147188,4.57765 -5.766077,4.57765 -0.313579,0 -0.307503,-0.132238 0.0244,-0.532172 z m 19.837874,-2.2155 c 0,-0.212268 0.313353,-0.385923 0.696357,-0.385923 0.382993,0 0.696356,-0.169128 0.696356,-0.375854 0,-0.240259 -0.408172,-0.290786 -1.131582,-0.140055 l -1.131572,0.23577 0.750872,-0.775228 c 0.614532,-0.634463 0.97806,-0.7326 2.002024,-0.540508 1.399922,0.262634 1.531993,0.538497 0.641831,1.340692 -0.797166,0.718404 -2.524286,1.157042 -2.524286,0.641106 z M 19.786717,54.61912 c -0.107585,-0.174073 0.189415,-0.883125 0.660016,-1.57566 0.795342,-1.170456 0.812651,-1.283544 0.245738,-1.605247 -0.567487,-0.32203 -0.569848,-0.38664 -0.03399,-0.929274 0.801389,-0.811502 1.455754,-0.300772 1.20717,0.942194 -0.245875,1.22932 -1.806903,3.608135 -2.078929,3.167987 z m 42.085197,-2.164796 c -0.582563,-0.643733 -0.585492,-0.743331 -0.04598,-1.566794 0.662628,-1.011285 0.834009,-1.04511 1.757163,-0.346818 0.606607,0.458825 0.757037,0.433097 1.489274,-0.254801 l 0.814491,-0.765166 0.940061,0.940071 0.94007,0.940061 -0.936353,0.936363 c -0.915332,0.91532 -0.952328,0.921934 -1.64594,0.294214 -0.661655,-0.598796 -0.752573,-0.60324 -1.346298,-0.06595 -0.826666,0.748138 -1.208369,0.726545 -1.966533,-0.111206 z m 1.210541,-3.892242 c 0,-0.680454 -0.100861,-2.202423 -0.224197,-3.382156 l -0.224187,-2.144966 -1.212393,0.715331 c -1.326146,0.782446 -2.069196,0.597417 -0.949993,-0.236562 2.380368,-1.773751 2.223005,-1.328919 1.890258,-5.343591 C 61.334845,25.77768 61.266117,22.50216 62.033178,22.50216 c 0.327413,0 2.442001,5.014525 2.442001,5.790945 0,0.531437 -0.06287,0.527272 -0.696388,-0.04611 -0.688718,-0.623286 -0.694718,-0.611446 -0.546264,1.07761 0.08253,0.939297 0.268719,3.352961 0.413681,5.363693 0.144953,2.010714 0.292854,3.773361 0.328641,3.916994 0.03574,0.143622 0.08468,0.672005 0.108623,1.17421 0.03727,0.781719 0.120776,0.848948 0.580546,0.467375 0.372569,-0.309202 0.425877,-0.55682 0.174094,-0.808622 -0.509872,-0.509853 -0.451291,-1.710622 0.121647,-2.494167 0.398732,-0.545298 0.578181,-0.585046 1.012823,-0.224322 0.664625,0.551586 0.697965,3.539362 0.03963,3.539362 -0.877384,0 -1.909048,1.781127 -1.695142,2.926573 0.233454,1.250101 -0.421924,5.795717 -0.905819,6.28271 -0.206502,0.207834 -0.328661,-0.1291 -0.328661,-0.906404 z m 11.284081,-0.471176 c -0.266712,-1.06267 0.08867,-3.113606 0.766826,-4.424947 0.829482,-1.604017 1.114677,-1.093139 0.463528,0.830319 -0.644053,1.902478 -0.552961,2.887215 0.238973,2.583323 0.568709,-0.218238 0.57642,-0.162785 0.137774,0.990923 -0.433659,1.1406 -1.323105,1.15189 -1.607101,0.0204 z M 54.517786,46.68767 c -0.346837,-1.381932 0.623942,-5.035759 1.337952,-5.035759 0.380198,0 0.331344,0.320502 -0.301373,1.977252 -0.653709,1.711693 -0.44183,2.891623 0.394574,2.197458 0.630117,-0.522922 0.712239,0.03474 0.157731,1.070837 -0.506268,0.945959 -1.325971,0.837725 -1.588884,-0.209788 z M 28.239185,44.38958 c -0.460988,-0.861348 -0.276413,-2.385504 0.519562,-4.290545 0.696757,-1.667557 1.077653,-1.411358 0.577849,0.388653 -0.204392,0.736074 -0.372488,1.701398 -0.373555,2.145178 -9.29e-4,0.658116 0.131079,0.764636 0.719628,0.577836 0.700866,-0.222438 0.705599,-0.198153 0.165152,0.846984 -0.654889,1.266395 -1.063398,1.350687 -1.608636,0.331894 z m 19.228349,0.285756 c -0.422826,-0.509481 -0.01546,-2.445058 0.881489,-4.18735 0.781029,-1.517302 0.947761,-0.834203 0.284089,1.163925 -0.631735,1.901939 -0.52257,2.46353 0.339761,1.747864 0.640059,-0.531185 0.728202,0.01788 0.170255,1.060443 -0.417696,0.780453 -1.130456,0.871966 -1.675594,0.215118 z M 19.782578,42.174172 c 0.110223,-0.287236 0.312936,-0.522261 0.450475,-0.522261 0.359014,0 4.352542,-3.130029 4.495791,-3.523692 0.066,-0.181323 -0.07063,-0.559281 -0.303512,-0.839913 -0.595059,-0.717007 0.198851,-2.599942 1.096236,-2.599942 0.533829,0 0.654108,0.262896 0.654108,1.429653 0,1.769411 -1.379761,3.645025 -3.959344,5.382204 -1.902288,1.281075 -2.757628,1.517935 -2.433754,0.673951 z m 1.880039,-4.327461 c -0.308787,-0.57697 -0.250065,-1.046508 0.281017,-2.247107 0.369259,-0.834743 0.845796,-1.625526 1.058992,-1.757291 0.503656,-0.311271 0.490318,-0.181109 -0.134626,1.314619 -0.287251,0.687478 -0.522269,1.430846 -0.522269,1.651944 0,0.289902 0.145641,0.281127 0.522269,-0.03139 0.817364,-0.678359 0.679448,0.446173 -0.146372,1.193547 -0.637846,0.577232 -0.68664,0.571503 -1.059011,-0.124265 z M 35.96424,35.462342 c -0.473356,-0.927857 -0.998272,-1.459258 -1.513695,-1.53241 -0.994865,-0.14122 -1.297488,-1.572364 -0.404913,-1.914877 0.428327,-0.164368 0.883268,0.09788 1.545172,0.890736 l 0.938088,1.123684 0.387002,-1.5369 c 0.492453,-1.955716 1.2416,-2.666621 1.769895,-1.679527 0.695809,1.300163 0.188892,2.549481 -0.549625,1.354544 -0.328003,-0.530729 -0.731512,0.757734 -0.789434,2.520772 -0.06916,2.10435 -0.562795,2.380717 -1.38249,0.773978 z m 18.066405,-1.643456 c -0.479143,-0.577344 -0.332256,-2.466902 0.321883,-4.140329 0.593387,-1.51799 0.878848,-0.798514 0.384171,0.968278 -0.429461,1.53392 -0.264224,2.498555 0.361746,2.111691 0.513047,-0.317092 0.376563,0.756513 -0.151956,1.195151 -0.362238,0.300633 -0.581233,0.268401 -0.915844,-0.134791 z m 5.210932,-0.543641 c -0.427771,-0.799317 -0.170982,-2.471122 0.585164,-3.809532 0.457466,-0.80976 0.476563,-0.742894 0.274033,0.959186 -0.188419,1.583421 -0.143006,1.800961 0.337458,1.616584 0.638984,-0.245197 0.721126,0.293506 0.194748,1.277068 -0.464337,0.867589 -0.911338,0.85369 -1.391403,-0.04331 z m -13.48093,-2.468997 c -0.239372,-0.239403 -0.435225,-0.727011 -0.435225,-1.083555 0,-0.861625 1.703589,-4.435108 2.114352,-4.435108 0.50293,0 0.384673,0.578181 -0.37217,1.819517 -0.859331,1.409449 -0.969243,2.669276 -0.175384,2.010433 0.765791,-0.635554 0.700084,0.399617 -0.08704,1.371602 -0.487468,0.601953 -0.696337,0.665363 -1.044525,0.317111 z M 26.73197,29.905953 c -0.404666,-0.404684 -0.200866,-2.577902 0.339818,-3.623487 0.691403,-1.337023 1.052313,-1.046609 0.536851,0.432006 -0.505267,1.449402 -0.489993,1.706709 0.101239,1.706709 0.312402,0 0.426025,0.243371 0.313865,0.672265 -0.1833,0.700947 -0.932239,1.172031 -1.291777,0.812507 z m 23.816113,-9.077462 c 0,-0.154536 0.430863,-0.465033 0.957488,-0.689998 0.932145,-0.398219 0.922929,-0.405182 -0.348189,-0.263189 -1.35389,0.151219 -1.603542,-0.06963 -0.887838,-0.785278 0.433075,-0.433085 3.129019,-0.584868 3.515944,-0.197942 0.420982,0.420972 -0.444667,1.450342 -1.541127,1.832577 -1.313459,0.457866 -1.696278,0.481304 -1.696278,0.10383 z"
       style="fill:url(#radialGradient3108);fill-opacity:1"
       inkscape:connector-curvature="0" />
    <path
       inkscape:connector-curvature="0"
       style="fill:url(#linearGradient3105);fill-opacity:1"
       d="M 45.847685,74.177861 C 44.864332,73.332272 44.80315,73.130643 44.80315,70.735325 l 0,-2.544324 -1.687216,0.854415 c -0.927987,0.469928 -2.879888,1.159455 -4.337551,1.53226 -2.946241,0.753525 -5.478924,0.538912 -7.481387,-0.633905 -1.926097,-1.128112 -2.497376,-2.284494 -2.504012,-5.06855 -0.0031,-1.378716 0.117336,-3.133483 0.268064,-3.899469 0.152417,-0.774567 0.142873,-1.198847 -0.0215,-0.955932 -0.677301,1.000905 -2.712583,2.174551 -3.771003,2.174551 -1.823434,0 -2.922823,-1.605616 -2.922823,-4.26871 0,-1.258841 0.291707,-2.947787 0.715065,-4.140214 l 0.715051,-2.014003 -0.802102,-1.085996 c -0.627106,-0.849091 -0.799511,-1.530578 -0.790233,-3.123817 0.01024,-1.713585 0.257189,-2.515024 1.553854,-5.037164 1.549063,-3.013086 2.442441,-4.211535 2.434126,-3.26538 -0.0031,0.262812 -0.371269,1.119706 -0.819918,1.904192 -1.486745,2.599664 -2.442543,5.763283 -2.173886,7.195377 0.210589,1.122538 0.373522,1.301159 1.185843,1.300033 1.401437,-0.0031 2.688611,-0.927626 6.954045,-5.001069 l 3.862955,-3.689104 -2.586328,-1.888777 c -1.42248,-1.038822 -3.282152,-2.328978 -4.132585,-2.867011 -2.144385,-1.356632 -2.760852,-2.886499 -1.912979,-4.747386 0.416661,-0.914462 0.993429,-1.324176 3.892209,-2.764877 1.10112,-0.547265 2.002023,-1.057807 2.002023,-1.134547 0,-0.07677 -0.256677,-0.396216 -0.570399,-0.709946 -0.915239,-0.915226 -0.113352,-3.090864 1.355319,-3.677185 0.621536,-0.248148 2.117844,-0.895692 3.325148,-1.439028 2.379713,-1.070974 9.513699,-3.486924 9.711703,-3.28892 0.423194,0.423204 -0.526717,1.226319 -2.083377,1.761432 -5.241271,1.801716 -11.738394,4.525993 -11.738394,4.921976 0,0.103362 0.237386,0.646956 0.527516,1.208006 l 0.527505,1.020099 1.822686,-0.730812 c 5.814507,-2.331355 14.405932,-4.825725 16.62137,-4.825725 0.399766,0 1.118548,0.391676 1.597261,0.8704 0.73579,0.73579 0.834489,1.072336 0.638155,2.176104 -0.338349,1.902266 -1.229873,3.18323 -3.814153,5.480276 -1.264155,1.123646 -2.793312,2.732042 -3.398116,3.574209 -1.336263,1.860718 -1.645049,1.391703 -0.540213,-0.820538 0.729974,-1.461604 2.912153,-3.825478 5.686737,-6.160224 1.029401,-0.866209 1.033753,-0.884524 0.381263,-1.605508 -0.481355,-0.531902 -1.07889,-0.729302 -2.207543,-0.729302 -1.593063,0 -6.669906,1.222239 -10.356657,2.493338 -4.135442,1.425787 -12.360288,5.098916 -12.360288,5.519967 0,0.117689 0.509207,0.476532 1.131572,0.797435 1.186037,0.611539 4.016611,2.311475 7.486343,4.496021 l 2.056334,1.294647 1.610399,-0.611297 c 0.885739,-0.336216 1.693288,-0.694174 1.794568,-0.795441 0.10127,-0.10128 -0.147676,-2.076581 -0.553207,-4.389595 -0.703647,-4.013248 -0.683793,-6.019657 0.05949,-6.019657 0.187857,0 0.341544,0.146268 0.341544,0.325048 0,0.17876 0.494492,1.120507 1.098866,2.092743 1.088576,1.751161 1.151325,2.616468 0.12816,1.767314 -0.661573,-0.549071 -0.691309,-0.09391 -0.156677,2.398985 0.449326,2.095183 1.426156,3.427875 2.992135,4.082171 1.039692,0.434409 1.160171,0.628884 1.160171,1.872791 0,1.536798 -0.16323,1.624568 -1.614043,0.867914 -1.162537,-0.606304 -3.014468,-0.680546 -3.987397,-0.15985 -0.605531,0.32407 -0.264715,0.66268 3.069444,3.049433 2.062837,1.476677 4.338166,3.133037 5.056282,3.680803 l 1.305667,0.995926 0,-0.941636 c 0,-0.517892 -0.168524,-3.970397 -0.374474,-7.672235 -0.322784,-5.801419 -0.302653,-6.866818 0.145884,-7.717088 l 0.520368,-0.986462 0.752962,1.740887 c 1.756856,4.061902 2.075175,6.160719 0.654067,4.312539 l -0.6388,-0.830765 0.02324,1.914971 c 0.0127,1.053233 0.2051,4.093462 0.427474,6.756058 l 0.404312,4.841083 1.3545,0.702183 c 1.244177,0.644995 1.471057,0.661901 2.785417,0.207496 l 1.430928,-0.494707 0.064,-2.089064 c 0.03512,-1.148974 -0.08059,-3.3425 -0.257435,-4.874473 -0.176777,-1.531983 -0.472355,-4.900603 -0.656842,-7.485817 -0.184508,-2.585215 -0.508777,-6.858835 -0.720605,-9.496941 -0.360097,-4.484299 -0.280658,-6.180301 0.288738,-6.164388 0.330279,0.0092 2.500827,5.005091 2.500827,5.756051 0,0.578517 -0.0384,0.57754 -0.696357,-0.0178 -0.851641,-0.770718 -0.840244,-1.092729 -0.196949,5.570838 1.409752,14.602693 1.495652,16.736275 0.770543,19.141914 -0.705092,2.339266 -3.225845,3.530249 -5.578627,2.635724 l -0.872223,-0.331631 0.06605,5.815418 c 0.06389,5.615121 -0.389506,9.123098 -1.179156,9.123098 -0.1564,0 -0.253554,-1.527631 -0.215882,-3.394727 0.03778,-1.867095 -0.064,-5.529773 -0.226009,-8.139273 l -0.294513,-4.744557 -2.31682,-1.762487 C 47.238402,48.754771 45.882388,47.677886 45.499323,47.33105 45.116237,46.984222 43.884788,46.016523 42.762769,45.180598 l -2.040043,-1.519854 0.882688,1.519854 c 1.15458,1.988012 1.457131,3.756733 0.926165,5.414164 -0.659699,2.059222 -1.589397,2.808415 -4.662282,3.757026 -3.27993,1.012526 -6.22569,2.618203 -7.015923,3.824248 -0.305705,0.46657 -0.717123,1.835753 -0.914236,3.042617 -0.460569,2.819935 0.07721,4.500055 1.914003,5.980266 1.133405,0.913355 1.675645,1.087787 3.744963,1.204704 3.486833,0.197031 8.111268,-1.487861 11.58695,-4.221619 1.588885,-1.249707 1.582843,-1.585219 -0.113322,-6.293599 -0.847422,-2.352362 -1.056219,-3.385654 -0.877097,-4.34048 l 0.235092,-1.253148 1.523515,1.729158 c 1.690728,1.918908 1.890309,2.421541 0.853914,2.150508 -0.859556,-0.22477 -0.859546,-0.155304 1.33e-4,2.106642 0.773093,2.034032 0.906392,4.600669 0.299356,5.764077 -0.218238,0.418279 -1.05543,1.471773 -1.860399,2.341088 -1.198703,1.294526 -1.507992,1.915365 -1.708955,3.43034 -0.187385,1.412507 -0.116087,2.047088 0.301619,2.684588 1.118373,1.706835 2.213953,0.974957 7.423594,-4.959149 1.838917,-2.094631 2.599169,-2.598114 6.467428,-4.283108 l 2.044323,-0.89049 0.07291,-2.437239 c 0.09728,-3.251525 1.090071,-5.048582 2.789052,-5.048582 0.618085,0 0.939293,0.328723 1.367852,1.399769 0.308039,0.769878 0.560067,1.690247 0.560067,2.045286 0,1.086753 -1.026728,3.628754 -1.796708,4.448365 -1.056301,1.124394 -0.620799,1.855556 1.105267,1.855556 1.042835,0 1.646196,-0.226747 2.274059,-0.854621 1.036958,-1.036937 1.051724,-1.517596 0.342844,-11.157499 -1.610163,-21.896374 -1.746544,-25.607313 -0.940296,-25.584379 0.266968,0.0074 2.496598,4.944468 2.496598,5.528006 0,0.592433 -0.620522,0.455136 -1.016622,-0.224946 -0.502479,-0.862687 -0.480782,0.486958 0.129818,8.075252 1.62501,20.194828 1.531707,23.151083 -0.801282,25.386232 -1.998767,1.914946 -4.449318,1.86897 -5.320772,-0.09984 -0.260067,-0.58752 -0.650064,-1.06823 -0.866652,-1.06823 -0.870687,0 -5.880041,2.534167 -7.138237,3.611142 -0.738749,0.632338 -2.111597,2.164772 -3.050777,3.405396 -2.711784,3.582174 -4.197381,4.194873 -6.133789,2.529713 z M 64.397701,60.95601 c 0.898928,-0.629635 1.027917,-2.116298 0.271945,-3.134363 -1.052768,-1.417719 -2.337198,0.635236 -1.781841,2.847991 0.244185,0.972899 0.468894,1.015516 1.509896,0.286372 z M 26.567675,59.493708 c 0.502859,-0.333874 1.761065,-1.482925 2.796016,-2.5535 2.630214,-2.720733 4.243347,-3.690888 8.554306,-5.14466 3.106962,-1.04774 3.770071,-1.39513 3.85933,-2.021776 0.159851,-1.12256 -1.089129,-3.311112 -3.12225,-5.471009 -2.15056,-2.284657 -1.572297,-2.521639 -7.157712,2.933438 -2.389287,2.333536 -4.559117,4.134392 -5.463513,4.534444 -1.210786,0.535594 -1.608258,0.950156 -2.060287,2.148931 -1.348038,3.574986 -1.04647,6.187619 0.713734,6.183431 0.531365,-9.32e-4 1.377528,-0.275446 1.880376,-0.609299 z m 1.232822,-3.79865 c -0.434795,-0.434796 -0.233781,-2.966802 0.329809,-4.154518 0.566876,-1.194587 1.465763,-1.708013 1.006505,-0.574894 -0.744586,1.837134 -0.921946,2.588498 -0.729452,3.090128 0.173061,0.450954 0.312524,0.47518 0.73194,0.127104 0.607743,-0.504373 0.638401,-0.358233 0.178579,0.851191 -0.324391,0.853197 -1.021496,1.156874 -1.517381,0.660989 z m 5.271694,-5.78645 c -0.913448,-0.75113 -0.922551,-0.795414 -0.354579,-1.728376 0.655696,-1.077062 1.177702,-1.202278 1.814311,-0.435212 0.602131,0.725512 1.262301,0.65208 1.86429,-0.207394 l 0.51108,-0.729648 1.075459,0.795125 c 1.252318,0.925873 1.29939,1.237917 0.357364,2.369165 l -0.694944,0.83452 -0.889845,-0.83452 -0.889845,-0.834547 -0.635544,0.78341 c -0.779533,0.960867 -0.975376,0.95973 -2.157747,-0.0126 z M 53.344565,74.81579 c 0.0072,-0.14361 0.241102,-0.565268 0.522262,-0.936978 0.66485,-0.879011 0.658819,-1.622091 -0.01106,-1.365036 -0.7546,0.289577 -0.641422,-0.35467 0.195351,-1.111942 0.614143,-0.555798 0.76398,-0.576123 1.039191,-0.14101 0.460005,0.727239 0.420869,0.952286 -0.428212,2.463032 -0.686772,1.221937 -1.346205,1.768478 -1.317524,1.091934 z m 5.755363,-2.352403 c -0.296059,-0.708562 -0.882401,-1.362394 -1.397373,-1.558176 -1.01654,-0.386495 -1.301335,-2.09548 -0.349213,-2.09548 0.561972,0 1.816932,1.155748 2.431187,2.238938 0.333403,0.587908 0.361726,0.580986 0.413098,-0.100963 0.07455,-0.990644 0.874762,-2.57786 1.382884,-2.743169 0.533045,-0.173418 1.636437,1.498643 1.323299,2.0053 -0.163691,0.264859 -0.444257,0.200103 -0.893194,-0.206175 -0.72986,-0.660518 -0.652736,-0.774075 -1.376627,2.026732 -0.235102,0.909607 -0.561664,1.653835 -0.725693,1.653835 -0.164049,0 -0.527802,-0.549378 -0.808368,-1.220832 z M 25.839832,66.807728 c 0.0072,-0.143632 0.236249,-0.652839 0.509923,-1.131593 0.641022,-1.121353 0.641022,-1.392703 0,-1.392703 -0.629574,0 -0.673102,-0.406248 -0.104444,-0.974896 0.572908,-0.572918 1.207806,-0.524023 1.451796,0.111827 0.217695,0.567307 -1.125766,3.648496 -1.590819,3.648496 -0.153339,0 -0.273245,-0.11751 -0.266456,-0.261131 z m 8.346882,-1.11906 c -0.570133,-0.364111 -0.71742,-2.981813 -0.25977,-4.616694 l 0.265453,-0.948283 -1.237809,0.730322 c -1.297843,0.765741 -1.948828,0.666109 -1.238679,-0.189566 0.448845,-0.540827 4.6558,-3.149017 5.73599,-3.556145 1.069919,-0.403257 0.498506,0.622601 -0.857754,1.539929 -1.713122,1.158687 -2.221879,2.339399 -2.100764,4.875266 0.03062,0.642138 0.180709,0.761737 0.734898,0.585851 0.858574,-0.272498 0.894023,0.207342 0.08704,1.17805 -0.441072,0.530546 -0.752695,0.641349 -1.128613,0.40127 z m 5.10449,-3.16201 c -1.086251,-0.854436 -1.156977,-1.378184 -0.320019,-2.369647 l 0.609309,-0.721792 1.030292,0.841401 c 0.900464,0.73537 0.988207,0.960478 0.696357,1.786346 -0.439659,1.244096 -0.891657,1.348059 -2.015939,0.463692 z m 4.500127,-0.296141 c -0.699173,-0.77256 -0.699142,-1.578061 1.12e-4,-3.630248 0.640797,-1.880633 1.299697,-1.896197 0.781223,-0.01843 -0.400032,1.448756 -0.09226,3.372026 0.409575,2.559951 0.417737,-0.675929 0.706945,-0.300841 0.469129,0.608511 -0.264602,1.011891 -0.9892,1.221527 -1.660039,0.480249 z m 11.283047,-1.022878 c 0,-0.200687 0.151557,-0.458541 0.336781,-0.57302 0.185215,-0.114469 0.249673,-0.643582 0.143232,-1.175798 -0.14531,-0.726553 0.0426,-1.248212 0.753986,-2.093709 1.0738,-1.276135 2.421869,-1.398212 2.421869,-0.219312 0,0.536731 -0.232122,0.696357 -1.012629,0.696357 -0.556954,0 -1.074793,0.182562 -1.150751,0.405674 -0.197123,0.579 1.144147,0.918352 2.57146,0.650595 1.022223,-0.191778 1.199236,-0.134682 1.101314,0.355203 -0.07198,0.360354 -0.84947,0.817984 -2.031667,1.195939 -1.053239,0.33672 -2.189163,0.727127 -2.524286,0.867584 -0.355131,0.148843 -0.609309,0.103164 -0.609309,-0.109513 z M 72.309163,56.36259 c 0,-2.824696 -0.276726,-9.075089 -0.614941,-13.889777 -0.46191,-6.575547 -0.519232,-9.001591 -0.230341,-9.748976 0.379338,-0.981327 0.400749,-0.956764 1.560214,1.790444 0.646572,1.531974 1.181091,2.981264 1.187818,3.220639 0.01792,0.637016 -0.593735,0.530999 -1.004416,-0.174094 -0.502387,-0.86253 -0.467767,0.938599 0.148895,7.746944 0.665105,7.343166 0.65974,12.110087 -0.01608,14.386164 -0.294666,0.992241 -0.647206,1.804173 -0.783404,1.804275 -0.136194,1.03e-4 -0.247632,-2.310933 -0.247632,-5.135619 z m -33.590887,1.121486 c 0.242925,-0.2927 1.66132,-1.561422 3.152016,-2.819402 1.490697,-1.25796 2.795371,-2.508804 2.899303,-2.779632 0.103932,-0.270828 0.01423,-0.875847 -0.199263,-1.344475 -0.311419,-0.683465 -0.270511,-1.031707 0.206717,-1.760059 0.479768,-0.73221 0.691555,-0.827831 1.093932,-0.493897 0.274432,0.227758 0.498967,0.833625 0.498967,1.346376 0,0.51275 0.17436,1.106629 0.387478,1.319746 0.454845,0.454845 0.09554,1.206005 -0.510262,1.066879 -0.230125,-0.05284 -1.034398,0.585697 -1.787226,1.418988 -1.569808,1.737575 -5.14719,4.577651 -5.766073,4.577651 -0.313579,0 -0.307507,-0.132245 0.02437,-0.532175 z m 19.837876,-2.215499 c 0,-0.212268 0.313353,-0.385922 0.696356,-0.385922 0.382994,0 0.696357,-0.169128 0.696357,-0.375856 0,-0.240263 -0.408172,-0.290785 -1.131582,-0.140058 l -1.131572,0.235768 0.750872,-0.775222 c 0.614532,-0.634469 0.97806,-0.732606 2.002024,-0.54051 1.399922,0.262636 1.531993,0.538492 0.64183,1.340686 -0.797166,0.718413 -2.524285,1.157048 -2.524285,0.641114 z M 19.78671,54.619118 c -0.107587,-0.174074 0.189413,-0.883128 0.660017,-1.575655 0.795343,-1.170463 0.812648,-1.283549 0.245741,-1.605248 -0.567491,-0.322026 -0.569856,-0.386638 -0.034,-0.929278 0.801385,-0.811501 1.455749,-0.300769 1.207161,0.942201 -0.245874,1.229319 -1.806896,3.608131 -2.078923,3.16798 z m 42.0852,-2.164793 c -0.582563,-0.643735 -0.585492,-0.743336 -0.04598,-1.566798 0.662628,-1.011277 0.834009,-1.045108 1.757163,-0.346816 0.606607,0.458828 0.757037,0.433096 1.489274,-0.254803 l 0.814501,-0.765161 0.940061,0.940074 0.94007,0.94006 -0.936353,0.936364 c -0.915332,0.915311 -0.952328,0.921926 -1.64595,0.294205 -0.661655,-0.598793 -0.752573,-0.603237 -1.346298,-0.06594 -0.826666,0.748139 -1.208369,0.726554 -1.966533,-0.111202 z m 1.210541,-3.892242 c 0,-0.680454 -0.100861,-2.202422 -0.224197,-3.382156 l -0.224187,-2.144965 -1.212394,0.715331 c -1.326145,0.782445 -2.069195,0.597416 -0.949992,-0.236563 2.380368,-1.773751 2.223005,-1.328918 1.890257,-5.343591 -1.027097,-12.392457 -1.095825,-15.667977 -0.328764,-15.667977 0.327413,0 2.442001,5.014525 2.442001,5.790944 0,0.531437 -0.06287,0.527273 -0.696388,-0.04611 -0.688718,-0.623286 -0.694719,-0.611446 -0.546264,1.07761 0.08253,0.939298 0.268719,3.352962 0.413681,5.363694 0.144952,2.010714 0.292854,3.773361 0.328641,3.916993 0.03574,0.143622 0.08468,0.672005 0.108622,1.17421 0.03727,0.78172 0.120777,0.848948 0.580547,0.467375 0.372569,-0.309202 0.425877,-0.55682 0.174094,-0.808622 -0.509872,-0.509853 -0.451291,-1.710622 0.121647,-2.494167 0.398732,-0.545297 0.578181,-0.585046 1.012834,-0.224322 0.664624,0.551586 0.697964,3.539362 0.03963,3.539362 -0.877394,0 -1.909058,1.781128 -1.695152,2.926574 0.233454,1.250101 -0.421924,5.795717 -0.905819,6.28271 -0.206502,0.207836 -0.328661,-0.1291 -0.328661,-0.906405 z m 11.284091,-0.471176 c -0.266712,-1.06267 0.08867,-3.113606 0.766826,-4.424947 0.829483,-1.604017 1.114677,-1.093139 0.463528,0.830319 -0.644053,1.902479 -0.552961,2.887215 0.238973,2.583324 0.568709,-0.218239 0.57642,-0.162785 0.137774,0.990922 -0.433659,1.140601 -1.323104,1.151891 -1.607101,0.0204 z m -19.84876,-1.403236 c -0.346837,-1.381931 0.623942,-5.035759 1.337952,-5.035759 0.380198,0 0.331344,0.320502 -0.301373,1.977253 -0.653709,1.711693 -0.44183,2.891623 0.394574,2.197457 0.630117,-0.522922 0.712238,0.03474 0.157731,1.070838 -0.506268,0.945958 -1.325971,0.837724 -1.588884,-0.209789 z m -26.278609,-2.29809 c -0.460988,-0.861347 -0.276408,-2.385504 0.51957,-4.290545 0.696756,-1.667556 1.07765,-1.411358 0.577843,0.388653 -0.204393,0.736074 -0.372487,1.701399 -0.373552,2.145179 -9.32e-4,0.658115 0.131078,0.764635 0.719631,0.577836 0.700863,-0.222439 0.705593,-0.198154 0.165145,0.846984 -0.654886,1.266394 -1.063396,1.350687 -1.608637,0.331893 z m 19.228352,0.285757 c -0.422826,-0.509482 -0.01546,-2.445058 0.881489,-4.187351 0.781028,-1.517301 0.94776,-0.834203 0.284089,1.163925 -0.631735,1.901939 -0.52257,2.46353 0.339761,1.747865 0.640059,-0.531186 0.728202,0.01788 0.170254,1.060442 -0.417695,0.780453 -1.130456,0.871967 -1.675593,0.215119 z M 19.782574,42.174174 c 0.110219,-0.287236 0.312933,-0.522262 0.450472,-0.522262 0.359012,0 4.352543,-3.130029 4.495795,-3.523692 0.06594,-0.181322 -0.07065,-0.559281 -0.303513,-0.839912 -0.595066,-0.717007 0.198844,-2.599943 1.096235,-2.599943 0.533823,0 0.654108,0.262896 0.654108,1.429654 0,1.76941 -1.37976,3.645024 -3.95935,5.382203 -1.90229,1.281075 -2.757627,1.517936 -2.433747,0.673952 z m 1.880038,-4.327462 c -0.308786,-0.57697 -0.250072,-1.046507 0.281017,-2.247107 0.369251,-0.834742 0.845794,-1.625526 1.058993,-1.757291 0.503647,-0.31127 0.490315,-0.181108 -0.13463,1.314619 -0.287253,0.687478 -0.522273,1.430846 -0.522273,1.651945 0,0.289901 0.145649,0.281126 0.522273,-0.0314 0.817369,-0.678359 0.679451,0.446174 -0.146376,1.193548 -0.637837,0.577232 -0.686639,0.571502 -1.059004,-0.124266 z m 14.301621,-2.384368 c -0.473358,-0.927858 -0.998273,-1.459258 -1.513695,-1.53241 -0.994863,-0.14122 -1.297485,-1.572364 -0.404916,-1.914878 0.428334,-0.164368 0.883271,0.09788 1.545171,0.890737 l 0.938095,1.123683 0.386996,-1.5369 c 0.492455,-1.955715 1.241598,-2.666621 1.769901,-1.679527 0.695804,1.300163 0.188891,2.549482 -0.549633,1.354545 -0.327996,-0.53073 -0.731509,0.757733 -0.789435,2.520771 -0.06912,2.104351 -0.562791,2.380717 -1.382484,0.773979 z m 18.066408,-1.643457 c -0.479143,-0.577344 -0.332256,-2.466902 0.321883,-4.140328 0.593387,-1.517991 0.878848,-0.798515 0.384171,0.968278 -0.429461,1.53392 -0.264224,2.498554 0.361746,2.11169 0.513047,-0.317091 0.376563,0.756513 -0.151956,1.195152 -0.362238,0.300632 -0.581233,0.268401 -0.915844,-0.134792 z m 5.210932,-0.543641 c -0.427772,-0.799316 -0.170982,-2.471121 0.585164,-3.809531 0.457466,-0.80976 0.476563,-0.742894 0.274033,0.959186 -0.188419,1.58342 -0.143006,1.80096 0.337458,1.616583 0.638984,-0.245197 0.721126,0.293506 0.194748,1.277069 -0.464337,0.867589 -0.911338,0.85369 -1.391403,-0.04331 z M 45.760638,30.806249 c -0.239372,-0.239402 -0.435225,-0.727011 -0.435225,-1.083554 0,-0.861626 1.703589,-4.435109 2.114352,-4.435109 0.50293,0 0.384672,0.578181 -0.37217,1.819517 -0.859331,1.409449 -0.969243,2.669276 -0.175385,2.010433 0.765792,-0.635554 0.700085,0.399618 -0.08704,1.371603 -0.487469,0.601952 -0.696337,0.665362 -1.044526,0.31711 z M 26.73196,29.905955 c -0.40466,-0.404684 -0.200861,-2.577903 0.339823,-3.623488 0.691401,-1.337022 1.052307,-1.046609 0.536844,0.432006 -0.505265,1.449403 -0.489987,1.70671 0.10127,1.70671 0.312411,0 0.42603,0.24337 0.313865,0.672265 -0.1833,0.700947 -0.932237,1.172031 -1.291771,0.812507 z m 23.816119,-9.077462 c 0,-0.154537 0.430863,-0.465033 0.957488,-0.689998 0.932145,-0.39822 0.922929,-0.405183 -0.348189,-0.26319 -1.353895,0.151219 -1.603548,-0.06963 -0.887838,-0.785277 0.433075,-0.433086 3.129018,-0.584868 3.515944,-0.197943 0.420982,0.420972 -0.444667,1.450342 -1.541127,1.832578 -1.313459,0.457865 -1.696278,0.481304 -1.696278,0.10383 z"
       id="path3965" />
    <path
       id="path3987"
       d="m 45.847691,74.177862 c -0.983354,-0.845594 -1.044536,-1.047224 -1.044536,-3.442537 l 0,-2.54433 -1.687216,0.854416 c -0.927987,0.469937 -2.879888,1.159455 -4.337562,1.532262 -2.94623,0.753523 -5.478913,0.538918 -7.481376,-0.633904 -1.926097,-1.12811 -2.497376,-2.28449 -2.504012,-5.06855 -0.0031,-1.378718 0.117336,-3.133484 0.268064,-3.89947 0.152417,-0.774566 0.142874,-1.198839 -0.0215,-0.955925 -0.677301,1.0009 -2.712583,2.17455 -3.771013,2.17455 -1.823424,0 -2.922813,-1.605619 -2.922813,-4.26871 0,-1.258849 0.291707,-2.947793 0.715065,-4.140216 l 0.715054,-2.01401 -0.802101,-1.085994 c -0.627107,-0.849088 -0.799511,-1.530576 -0.790234,-3.123815 0.01024,-1.713585 0.257178,-2.515024 1.553855,-5.037164 1.549062,-3.013086 2.44243,-4.211535 2.434125,-3.26538 -0.0031,0.262812 -0.371268,1.119706 -0.819918,1.904192 -1.486744,2.599664 -2.442543,5.763283 -2.173886,7.195377 0.210589,1.122538 0.373522,1.301159 1.185843,1.300032 1.401438,-0.0028 2.688611,-0.927625 6.954045,-5.001068 l 3.862955,-3.689104 -2.586338,-1.888777 c -1.42248,-1.038822 -3.282142,-2.328978 -4.132575,-2.867011 -2.144385,-1.356632 -2.760852,-2.886499 -1.912979,-4.747386 0.416661,-0.914462 0.993429,-1.324176 3.892209,-2.764877 1.10112,-0.547265 2.002013,-1.057807 2.002013,-1.134547 0,-0.07677 -0.256667,-0.396216 -0.570399,-0.709946 -0.915239,-0.915226 -0.113342,-3.090864 1.355329,-3.677185 0.621536,-0.248148 2.117844,-0.895692 3.325148,-1.439028 2.379703,-1.070974 9.513699,-3.486924 9.711703,-3.28892 0.423194,0.423204 -0.526716,1.226319 -2.083377,1.761432 -5.241282,1.801716 -11.738404,4.525993 -11.738404,4.921976 0,0.103362 0.237396,0.646956 0.527516,1.208006 l 0.527505,1.020099 1.822696,-0.730813 c 5.814507,-2.331354 14.405932,-4.825724 16.62137,-4.825724 0.399766,0 1.118548,0.391676 1.597261,0.8704 0.73579,0.73579 0.83449,1.072336 0.638155,2.176104 -0.338349,1.902266 -1.229873,3.18323 -3.814153,5.480276 -1.264155,1.123646 -2.793312,2.732042 -3.398116,3.574208 -1.336262,1.860719 -1.645049,1.391704 -0.540213,-0.820537 0.729974,-1.461604 2.912154,-3.825478 5.686737,-6.160224 1.029401,-0.866209 1.033753,-0.884524 0.381263,-1.605508 -0.481355,-0.531902 -1.078889,-0.729302 -2.207543,-0.729302 -1.593063,0 -6.669906,1.222239 -10.356667,2.493338 -4.135442,1.425787 -12.360278,5.098916 -12.360278,5.519967 0,0.117689 0.509207,0.476532 1.131572,0.797435 1.186027,0.611539 4.016611,2.311475 7.486343,4.496021 l 2.056324,1.294647 1.610409,-0.611297 c 0.885739,-0.336216 1.693288,-0.694174 1.794558,-0.795441 0.10127,-0.10128 -0.147676,-2.076581 -0.553197,-4.389595 -0.703657,-4.013248 -0.683793,-6.019657 0.05949,-6.019657 0.187856,0 0.341532,0.146268 0.341532,0.325048 0,0.17876 0.494503,1.120507 1.098877,2.092743 1.088576,1.751161 1.151325,2.616468 0.12816,1.767314 -0.661573,-0.549071 -0.691309,-0.09391 -0.156677,2.398985 0.449326,2.095183 1.426156,3.427875 2.992135,4.082171 1.039692,0.434409 1.160172,0.628884 1.160172,1.872791 0,1.536798 -0.163231,1.624567 -1.614044,0.867914 -1.162537,-0.606304 -3.014468,-0.680546 -3.987407,-0.15985 -0.605531,0.32407 -0.264715,0.66268 3.069454,3.049433 2.062837,1.476677 4.338166,3.133037 5.056282,3.680803 l 1.305667,0.995926 0,-0.941636 c 0,-0.517892 -0.168524,-3.970397 -0.374474,-7.672236 -0.322784,-5.801418 -0.302653,-6.866817 0.145884,-7.717088 l 0.520368,-0.986461 0.752962,1.740887 c 1.756856,4.061902 2.075175,6.160719 0.654067,4.312539 l -0.6388,-0.830765 0.02324,1.914971 c 0.0127,1.053233 0.2051,4.093462 0.427474,6.756058 l 0.404313,4.841079 1.354499,0.702185 c 1.244177,0.645 1.471057,0.661907 2.785417,0.207498 l 1.430928,-0.494706 0.064,-2.089065 c 0.03512,-1.148974 -0.08059,-3.3425 -0.257435,-4.874473 -0.176777,-1.531983 -0.472355,-4.900603 -0.656842,-7.485817 -0.184508,-2.585215 -0.508777,-6.858835 -0.720604,-9.496941 -0.360098,-4.484299 -0.280659,-6.180301 0.288737,-6.164388 0.330279,0.0092 2.500827,5.005091 2.500827,5.756051 0,0.578517 -0.0384,0.57754 -0.696357,-0.0178 -0.851641,-0.770718 -0.840244,-1.092729 -0.196949,5.570838 1.409752,14.602693 1.495652,16.736275 0.770543,19.14191 -0.705092,2.339273 -3.225845,3.530251 -5.578627,2.635732 l -0.872222,-0.331633 0.06604,5.815419 c 0.0639,5.615123 -0.389505,9.123101 -1.179156,9.123101 -0.1564,0 -0.253554,-1.527633 -0.215882,-3.394733 0.03778,-1.867098 -0.064,-5.529775 -0.226009,-8.139275 l -0.294513,-4.744553 -2.31682,-1.762489 C 47.2384,48.754769 45.882386,47.677884 45.499321,47.331048 45.116235,46.98422 43.884786,46.016521 42.762767,45.180596 l -2.040043,-1.519854 0.882688,1.519854 c 1.15458,1.988012 1.457131,3.756733 0.926165,5.414165 -0.659709,2.059226 -1.589397,2.808417 -4.662282,3.757031 -3.27994,1.012523 -6.2257,2.618199 -7.015934,3.824239 -0.305704,0.466576 -0.717112,1.835754 -0.914225,3.042624 -0.460569,2.819932 0.07721,4.500055 1.914003,5.980263 1.133405,0.913354 1.675635,1.087783 3.744953,1.204709 3.486843,0.197026 8.111279,-1.487866 11.58696,-4.221622 1.588885,-1.249711 1.582843,-1.58522 -0.113322,-6.293602 -0.847422,-2.35236 -1.056219,-3.385648 -0.877097,-4.340474 l 0.235092,-1.253149 1.523515,1.72915 c 1.690728,1.918911 1.890309,2.421545 0.853914,2.150517 -0.859556,-0.224777 -0.859546,-0.155314 1.33e-4,2.106642 0.773093,2.034029 0.906392,4.600669 0.299356,5.764074 -0.218237,0.418276 -1.05543,1.471768 -1.860399,2.341089 -1.198703,1.294527 -1.507991,1.915362 -1.708955,3.430335 -0.187385,1.412514 -0.116086,2.047089 0.301619,2.68459 1.118373,1.70684 2.213953,0.974957 7.423595,-4.959149 1.838916,-2.094635 2.599168,-2.598117 6.467427,-4.283103 l 2.044323,-0.890494 0.07291,-2.437242 c 0.09728,-3.251518 1.090071,-5.048577 2.789052,-5.048577 0.618085,0 0.939282,0.328718 1.367842,1.399762 0.308039,0.76988 0.560067,1.690249 0.560067,2.045292 0,1.086748 -1.026718,3.62875 -1.796698,4.448364 -1.0563,1.124392 -0.620798,1.855558 1.105256,1.855558 1.042836,0 1.646196,-0.226753 2.27406,-0.854621 1.036958,-1.036939 1.051724,-1.517599 0.342844,-11.157502 -1.610163,-21.896375 -1.746545,-25.607314 -0.940296,-25.58438 0.266968,0.0074 2.496598,4.944468 2.496598,5.528006 0,0.592433 -0.620522,0.455136 -1.016622,-0.224946 -0.50248,-0.862687 -0.480782,0.486958 0.129818,8.075252 1.62501,20.194827 1.531707,23.151088 -0.801282,25.386234 -1.998767,1.914943 -4.449307,1.868973 -5.320762,-0.09982 -0.260066,-0.587524 -0.650063,-1.06823 -0.866652,-1.06823 -0.870687,0 -5.880041,2.534168 -7.138236,3.611144 -0.738749,0.63234 -2.111598,2.16477 -3.050778,3.405398 -2.711784,3.582173 -4.197381,4.194867 -6.133789,2.529714 z M 64.397707,60.95601 c 0.898927,-0.629638 1.027916,-2.116302 0.271944,-3.13436 -1.052768,-1.41772 -2.337198,0.635237 -1.781841,2.847989 0.244185,0.972898 0.468894,1.015515 1.509897,0.286371 z M 26.56768,59.493706 c 0.502859,-0.333869 1.761065,-1.482928 2.796016,-2.553496 2.630204,-2.720734 4.243336,-3.690893 8.554306,-5.144663 3.106962,-1.047737 3.770071,-1.395131 3.85933,-2.021781 0.159841,-1.122556 -1.089139,-3.311108 -3.12225,-5.471005 -2.15056,-2.284657 -1.572307,-2.521639 -7.157712,2.933438 -2.389286,2.333535 -4.559117,4.134394 -5.463513,4.534448 -1.210786,0.53559 -1.608258,0.950148 -2.060286,2.148934 -1.348039,3.574981 -1.046481,6.187611 0.713733,6.183428 0.531366,-9.31e-4 1.377528,-0.275444 1.880376,-0.609303 z m 1.232822,-3.798651 c -0.434795,-0.434791 -0.233781,-2.966797 0.329809,-4.154515 0.566876,-1.194591 1.465763,-1.708013 1.006505,-0.574891 -0.744586,1.837131 -0.921946,2.588492 -0.729451,3.09012 0.17306,0.450963 0.312524,0.475182 0.731939,0.127107 0.607743,-0.504375 0.638401,-0.358228 0.178579,0.851194 -0.324391,0.853196 -1.021496,1.156874 -1.517381,0.660985 z m 5.271683,-5.78645 c -0.913447,-0.751129 -0.92254,-0.795413 -0.354578,-1.728375 0.655706,-1.077062 1.177702,-1.202278 1.814321,-0.435212 0.602131,0.725512 1.262291,0.65208 1.86429,-0.207394 l 0.51107,-0.729648 1.075459,0.795125 c 1.252329,0.925873 1.2994,1.237917 0.357364,2.369166 l -0.694934,0.834518 -0.889845,-0.834518 -0.889855,-0.834548 -0.635544,0.783406 c -0.779523,0.960871 -0.975366,0.959735 -2.157748,-0.01257 z M 53.34457,74.815792 c 0.0072,-0.143613 0.241103,-0.56527 0.522263,-0.936979 0.664849,-0.879017 0.658818,-1.622098 -0.01106,-1.365032 -0.7546,0.289573 -0.641421,-0.35468 0.195352,-1.111947 0.614142,-0.555797 0.763979,-0.576122 1.03919,-0.141015 0.460005,0.727244 0.420869,0.952292 -0.428212,2.463035 -0.686772,1.221942 -1.346205,1.768479 -1.317524,1.091938 z m 5.755363,-2.352408 c -0.296059,-0.708557 -0.882401,-1.362388 -1.397373,-1.558176 -1.01654,-0.386492 -1.301335,-2.095473 -0.349213,-2.095473 0.561972,0 1.816932,1.155747 2.431187,2.238938 0.333403,0.587905 0.361726,0.580984 0.413098,-0.100973 0.07455,-0.990654 0.874762,-2.577866 1.382884,-2.743175 0.533045,-0.173413 1.636437,1.498643 1.323299,2.005301 -0.163691,0.264862 -0.444257,0.200102 -0.893193,-0.206175 -0.729861,-0.660519 -0.652736,-0.774072 -1.376628,2.026735 -0.235102,0.909609 -0.561664,1.653835 -0.725693,1.653835 -0.164049,0 -0.527802,-0.549377 -0.808368,-1.220833 z M 25.839837,66.807723 c 0.0072,-0.143624 0.236238,-0.652835 0.509924,-1.131584 0.641021,-1.121356 0.641021,-1.39271 0,-1.39271 -0.629574,0 -0.673103,-0.406249 -0.104445,-0.974891 0.572908,-0.572918 1.207806,-0.524021 1.451797,0.111821 0.217694,0.56731 -1.125767,3.648499 -1.59082,3.648499 -0.153339,0 -0.273245,-0.117512 -0.266456,-0.261135 z m 8.346872,-1.119056 c -0.570133,-0.364106 -0.71741,-2.981813 -0.25976,-4.616691 l 0.265453,-0.948287 -1.237819,0.730327 c -1.297843,0.765736 -1.948828,0.666109 -1.238668,-0.189574 0.448844,-0.540827 4.655799,-3.149014 5.735979,-3.556138 1.069919,-0.403258 0.498517,0.622597 -0.857744,1.539928 -1.713122,1.158682 -2.221889,2.339394 -2.100764,4.875266 0.03062,0.642139 0.180699,0.761739 0.734888,0.585847 0.858584,-0.2725 0.894033,0.20734 0.08704,1.178048 -0.441072,0.530552 -0.752695,0.641349 -1.128613,0.401274 z m 5.1045,-3.162007 C 38.204958,61.672225 38.134232,61.148472 38.97119,60.15701 l 0.609299,-0.721795 1.030302,0.841403 c 0.900464,0.735367 0.988207,0.960481 0.696357,1.786345 -0.439659,1.244095 -0.891657,1.348062 -2.015939,0.463697 z m 4.500127,-0.296143 c -0.699173,-0.772563 -0.699142,-1.578064 1.12e-4,-3.630249 0.640797,-1.880635 1.299697,-1.896201 0.781223,-0.01844 -0.400032,1.448759 -0.09226,3.37203 0.409576,2.559952 0.417736,-0.675927 0.706944,-0.300838 0.469129,0.608511 -0.264603,1.011892 -0.989201,1.221523 -1.66004,0.480249 z m 11.283047,-1.022883 c 0,-0.200679 0.151557,-0.458534 0.336782,-0.573011 0.185214,-0.114475 0.249673,-0.643584 0.143232,-1.175803 -0.145311,-0.726554 0.0426,-1.248211 0.753985,-2.093712 1.0738,-1.276128 2.421869,-1.398206 2.421869,-0.219309 0,0.536728 -0.232122,0.696355 -1.012628,0.696355 -0.556955,0 -1.074794,0.18256 -1.150751,0.40568 -0.197124,0.579 1.144146,0.918347 2.571459,0.650587 1.022223,-0.191772 1.199236,-0.13468 1.101314,0.355212 -0.07198,0.360352 -0.84947,0.817984 -2.031667,1.195933 -1.053239,0.33672 -2.189163,0.727132 -2.524286,0.867588 -0.355131,0.148839 -0.609309,0.103157 -0.609309,-0.10952 z m 17.234775,-4.845047 c 0,-2.824691 -0.276726,-9.075088 -0.614941,-13.889776 -0.46191,-6.575547 -0.519232,-9.001591 -0.230341,-9.748976 0.379338,-0.981327 0.400749,-0.956764 1.560214,1.790444 0.646571,1.531974 1.181091,2.981264 1.187818,3.220639 0.01792,0.637016 -0.593735,0.530999 -1.004416,-0.174094 -0.502387,-0.86253 -0.467767,0.938599 0.148895,7.746944 0.665105,7.343163 0.659739,12.110093 -0.01608,14.386161 -0.294666,0.992245 -0.647206,1.804175 -0.783404,1.804277 -0.136197,1.02e-4 -0.247635,-2.310927 -0.247635,-5.135619 z m -33.590887,1.121486 c 0.242925,-0.292696 1.66133,-1.561419 3.152027,-2.8194 1.490696,-1.257964 2.79537,-2.508802 2.899302,-2.779635 0.103932,-0.270823 0.01423,-0.875841 -0.199263,-1.344475 -0.311418,-0.683462 -0.270511,-1.031705 0.206717,-1.760057 0.479768,-0.73221 0.691555,-0.827831 1.093932,-0.493897 0.274432,0.227758 0.498967,0.833625 0.498967,1.346375 0,0.512751 0.174361,1.106629 0.387478,1.319743 0.454845,0.454847 0.09554,1.206004 -0.510261,1.066879 -0.230126,-0.05282 -1.034398,0.585699 -1.787227,1.418989 -1.569808,1.73758 -5.14719,4.577651 -5.766084,4.577651 -0.313578,0 -0.307496,-0.132239 0.02437,-0.532173 z m 19.837886,-2.2155 c 0,-0.212268 0.313353,-0.385923 0.696357,-0.385923 0.382993,0 0.696356,-0.169128 0.696356,-0.375854 0,-0.240259 -0.408172,-0.290785 -1.131582,-0.140055 l -1.131572,0.23577 0.750873,-0.775227 c 0.614531,-0.634464 0.978059,-0.732601 2.002023,-0.540509 1.399922,0.262634 1.531993,0.538497 0.641831,1.340692 -0.797166,0.718404 -2.524286,1.157042 -2.524286,0.641106 z M 19.786716,54.61912 c -0.107588,-0.174074 0.189412,-0.883126 0.660016,-1.57566 0.795343,-1.170457 0.812648,-1.283544 0.245731,-1.605248 -0.567481,-0.322029 -0.569846,-0.386639 -0.034,-0.929274 0.801395,-0.811501 1.455759,-0.300772 1.207172,0.942194 -0.245875,1.22932 -1.806897,3.608136 -2.078923,3.167988 z m 42.085199,-2.164797 c -0.582563,-0.643732 -0.585492,-0.743331 -0.04598,-1.566794 0.662628,-1.011285 0.834009,-1.045109 1.757163,-0.346817 0.606607,0.458825 0.757037,0.433097 1.489274,-0.254801 l 0.814491,-0.765166 0.940061,0.94007 0.94007,0.940061 -0.936353,0.936363 c -0.915332,0.91532 -0.952328,0.921934 -1.64594,0.294215 -0.661655,-0.598796 -0.752573,-0.60324 -1.346298,-0.06595 -0.826666,0.748139 -1.208369,0.726545 -1.966533,-0.111206 z m 1.210541,-3.892242 c 0,-0.680454 -0.100861,-2.202422 -0.224197,-3.382156 l -0.224187,-2.144965 -1.212393,0.715331 c -1.326146,0.782445 -2.069196,0.597416 -0.949993,-0.236563 2.380368,-1.773751 2.223005,-1.328918 1.890258,-5.343591 C 61.334846,25.77768 61.266118,22.50216 62.03318,22.50216 c 0.327412,0 2.442,5.014525 2.442,5.790944 0,0.531437 -0.06287,0.527273 -0.696388,-0.04611 -0.688718,-0.623286 -0.694718,-0.611446 -0.546264,1.07761 0.08253,0.939298 0.268719,3.352962 0.413681,5.363694 0.144953,2.010714 0.292854,3.773361 0.328641,3.916993 0.03574,0.143622 0.08468,0.672005 0.108623,1.17421 0.03727,0.78172 0.120776,0.848948 0.580546,0.467375 0.372569,-0.309202 0.425877,-0.55682 0.174094,-0.808622 -0.509872,-0.509853 -0.451291,-1.710622 0.121647,-2.494167 0.398732,-0.545297 0.578181,-0.585046 1.012823,-0.224322 0.664625,0.551586 0.697965,3.539362 0.03963,3.539362 -0.877384,0 -1.909048,1.781128 -1.695142,2.926574 0.233454,1.250101 -0.421924,5.795717 -0.905818,6.28271 -0.206503,0.207834 -0.328662,-0.1291 -0.328662,-0.906405 z m 11.284081,-0.471176 c -0.266712,-1.06267 0.08867,-3.113606 0.766826,-4.424947 0.829482,-1.604017 1.114677,-1.093139 0.463528,0.830319 -0.644053,1.902479 -0.552961,2.887215 0.238973,2.583323 0.568709,-0.218238 0.57642,-0.162784 0.137774,0.990923 -0.433659,1.140601 -1.323105,1.151891 -1.607101,0.0204 z m -19.84875,-1.403236 c -0.346837,-1.381931 0.623942,-5.035759 1.337952,-5.035759 0.380198,0 0.331344,0.320502 -0.301373,1.977253 -0.653709,1.711693 -0.44183,2.891623 0.394574,2.197457 0.630117,-0.522922 0.712239,0.03474 0.157731,1.070838 -0.506268,0.945958 -1.325971,0.837724 -1.588884,-0.209789 z m -26.278608,-2.29809 c -0.460989,-0.861347 -0.276409,-2.385504 0.519569,-4.290545 0.696756,-1.667557 1.07765,-1.411358 0.577843,0.388653 -0.204393,0.736074 -0.372487,1.701399 -0.373552,2.145179 -9.32e-4,0.658115 0.131078,0.764635 0.719621,0.577836 0.700873,-0.222439 0.705604,-0.198154 0.165155,0.846984 -0.654886,1.266394 -1.063396,1.350687 -1.608636,0.331893 z m 19.228351,0.285756 c -0.422826,-0.509481 -0.01546,-2.445057 0.881489,-4.18735 0.781029,-1.517301 0.947761,-0.834203 0.284089,1.163925 -0.631735,1.901939 -0.52257,2.46353 0.339761,1.747865 0.640059,-0.531186 0.728202,0.01788 0.170255,1.060442 -0.417696,0.780453 -1.130457,0.871967 -1.675594,0.215118 z M 19.782579,42.174172 c 0.110219,-0.287236 0.312933,-0.522262 0.450472,-0.522262 0.359012,0 4.352543,-3.130029 4.495785,-3.523692 0.06605,-0.181322 -0.07065,-0.559281 -0.303503,-0.839912 -0.595066,-0.717007 0.198844,-2.599943 1.096235,-2.599943 0.533823,0 0.654108,0.262896 0.654108,1.429654 0,1.76941 -1.37976,3.645024 -3.95935,5.382203 -1.90229,1.281075 -2.757627,1.517935 -2.433747,0.673952 z m 1.880038,-4.327462 c -0.308786,-0.57697 -0.250072,-1.046507 0.281017,-2.247107 0.369252,-0.834742 0.845794,-1.625526 1.058983,-1.757291 0.503657,-0.31127 0.490325,-0.181108 -0.13462,1.314619 -0.287253,0.687478 -0.522273,1.430846 -0.522273,1.651945 0,0.289901 0.145649,0.281126 0.522273,-0.0314 0.817358,-0.678359 0.679451,0.446174 -0.146376,1.193548 -0.637847,0.577232 -0.686639,0.571502 -1.059004,-0.124266 z m 14.301621,-2.384368 c -0.473358,-0.927858 -0.998272,-1.459258 -1.513695,-1.53241 -0.994873,-0.14122 -1.297495,-1.572364 -0.404916,-1.914878 0.428324,-0.164368 0.883271,0.09788 1.545172,0.890737 l 0.938083,1.123683 0.387008,-1.5369 c 0.492455,-1.955715 1.241597,-2.666621 1.76989,-1.679527 0.695815,1.300163 0.188891,2.549482 -0.549622,1.354545 -0.328007,-0.53073 -0.73151,0.757733 -0.789436,2.520771 -0.06912,2.10435 -0.562791,2.380717 -1.382484,0.773979 z m 18.066408,-1.643457 c -0.479143,-0.577344 -0.332256,-2.466902 0.321883,-4.140328 0.593387,-1.517991 0.878848,-0.798515 0.384171,0.968277 -0.429461,1.533921 -0.264224,2.498555 0.361746,2.111691 0.513047,-0.317092 0.376563,0.756513 -0.151956,1.195152 -0.362238,0.300632 -0.581233,0.268401 -0.915844,-0.134792 z m 5.210932,-0.543641 c -0.427771,-0.799316 -0.170982,-2.471122 0.585164,-3.809531 0.457466,-0.80976 0.476563,-0.742894 0.274033,0.959186 -0.188419,1.58342 -0.143006,1.80096 0.337458,1.616583 0.638984,-0.245197 0.721127,0.293506 0.194748,1.277069 -0.464337,0.867589 -0.911338,0.85369 -1.391403,-0.04331 z M 45.760643,30.806247 c -0.239372,-0.239403 -0.435225,-0.727011 -0.435225,-1.083554 0,-0.861626 1.703589,-4.435109 2.114352,-4.435109 0.50293,0 0.384672,0.578181 -0.37217,1.819517 -0.859331,1.409449 -0.969243,2.669276 -0.175384,2.010433 0.765791,-0.635554 0.700084,0.399618 -0.08704,1.371603 -0.487469,0.601952 -0.696337,0.665362 -1.044525,0.31711 z M 26.731965,29.905953 c -0.40466,-0.404684 -0.200861,-2.577903 0.339823,-3.623488 0.691401,-1.337022 1.052307,-1.046609 0.536844,0.432006 -0.505265,1.449403 -0.489987,1.70671 0.10127,1.70671 0.312401,0 0.42603,0.24337 0.313865,0.672265 -0.183299,0.700947 -0.932237,1.172031 -1.291771,0.812507 z m 23.816119,-9.077462 c 0,-0.154537 0.430863,-0.465033 0.957488,-0.689998 0.932145,-0.39822 0.922929,-0.405183 -0.348189,-0.26319 -1.353895,0.151219 -1.603548,-0.06963 -0.887838,-0.785278 0.433075,-0.433085 3.129019,-0.584867 3.515944,-0.197942 0.420982,0.420972 -0.444667,1.450342 -1.541127,1.832578 -1.313459,0.457865 -1.696278,0.481304 -1.696278,0.10383 z"
       style="opacity:0.2037037;fill:#e5ffd5;fill-opacity:1"
       inkscape:connector-curvature="0" />
    <g
       transform="translate(0.663188,0)"
       id="layer5-1">
      <rect
         style="opacity:0.1;fill:url(#linearGradient3057);fill-opacity:1;fill-rule:nonzero;stroke:#ffffff;stroke-width:0.5;stroke-linecap:round;stroke-linejoin:miter;stroke-miterlimit:4;stroke-opacity:1;stroke-dasharray:none;stroke-dashoffset:0;filter:url(#filter3794-1)"
         id="rect3171-1"
         clip-path="url(#clipPath3613-5)"
         y="15"
         x="15"
         ry="12"
         rx="12"
         height="66"
         width="66" />
    </g>
    <path
       style="opacity:0.4;fill:url(#linearGradient5472);fill-opacity:1;fill-rule:nonzero;stroke:none"
       id="rect3690"
       inkscape:connector-curvature="0"
       d="m 12,4.5625 c -3.324,0 -6,2.676 -6,6 l 0,46.875 c 17.60856,-11.522031 44.22874,-18.875 74,-18.875 3.37799,0 6.71203,0.09685 10,0.28125 L 90,10.5625 c 0,-3.324 -2.676,-6 -6,-6 l -72,0 z" />
  </g>
</svg>
